<svg width="235" height="178" viewBox="0 0 235 178" fill="none" xmlns="http://www.w3.org/2000/svg">
<g filter="url(#filter0_d)">
<mask id="path-1-inside-1" fill="white">
<path fill-rule="evenodd" clip-rule="evenodd" d="M5.06314 317.584C1.20521 236.236 6.67333 121.776 41.142 54.7993C34.526 51.4819 30 44.7566 30 37C30 25.9543 39.1782 17 50.5 17C55.7825 17 60.5984 18.9493 64.2331 22.1509C77.6128 8.88896 93.731 0.884114 113.063 0.0839493C137.093 -0.910651 156.463 6.98146 171.992 21.1529C175.453 18.5489 179.791 17 184.5 17C195.822 17 205 25.9543 205 37C205 43.782 201.54 49.7755 196.248 53.3921C232.788 121.646 233.482 240.222 227.063 317.584H5.06314Z"/>
</mask>
<path fill-rule="evenodd" clip-rule="evenodd" d="M5.06314 317.584C1.20521 236.236 6.67333 121.776 41.142 54.7993C34.526 51.4819 30 44.7566 30 37C30 25.9543 39.1782 17 50.5 17C55.7825 17 60.5984 18.9493 64.2331 22.1509C77.6128 8.88896 93.731 0.884114 113.063 0.0839493C137.093 -0.910651 156.463 6.98146 171.992 21.1529C175.453 18.5489 179.791 17 184.5 17C195.822 17 205 25.9543 205 37C205 43.782 201.54 49.7755 196.248 53.3921C232.788 121.646 233.482 240.222 227.063 317.584H5.06314Z" fill="#4E3930"/>
<path d="M41.142 54.7993L42.0312 55.2569L42.4936 54.3584L41.5903 53.9054L41.142 54.7993ZM5.06314 317.584L4.06427 317.631L4.10944 318.584H5.06314V317.584ZM64.2331 22.1509L63.5721 22.9013L64.2733 23.5189L64.937 22.8611L64.2331 22.1509ZM113.063 0.0839493L113.104 1.08309L113.063 0.0839493ZM171.992 21.1529L171.318 21.8915L171.931 22.4506L172.593 21.952L171.992 21.1529ZM196.248 53.3921L195.684 52.5665L194.943 53.0729L195.367 53.8641L196.248 53.3921ZM227.063 317.584V318.584H227.984L228.06 317.667L227.063 317.584ZM40.2529 54.3417C22.9358 87.9907 12.9345 133.492 7.73611 180.693C2.53573 227.912 2.13344 276.918 4.06427 317.631L6.06202 317.537C4.13492 276.902 4.53773 228.004 9.72409 180.912C14.9125 133.801 24.8796 88.5845 42.0312 55.2569L40.2529 54.3417ZM29 37C29 45.159 33.7615 52.2173 40.6938 55.6933L41.5903 53.9054C35.2905 50.7466 31 44.3543 31 37H29ZM50.5 16C38.6493 16 29 25.3789 29 37H31C31 26.5297 39.707 18 50.5 18V16ZM64.894 21.4004C61.0816 18.0423 56.0323 16 50.5 16V18C55.5328 18 60.1152 19.8563 63.5721 22.9013L64.894 21.4004ZM113.022 -0.915195C93.4093 -0.103428 77.0625 8.02642 63.5291 21.4406L64.937 22.8611C78.1631 9.75149 94.0527 1.87166 113.104 1.08309L113.022 -0.915195ZM172.666 20.4142C156.948 6.07001 137.322 -1.921 113.022 -0.915195L113.104 1.08309C136.863 0.099702 155.978 7.8929 171.318 21.8915L172.666 20.4142ZM172.593 21.952C175.885 19.4751 180.013 18 184.5 18V16C179.569 16 175.021 17.6227 171.391 20.3538L172.593 21.952ZM184.5 18C195.293 18 204 26.5297 204 37H206C206 25.3789 196.351 16 184.5 16V18ZM204 37C204 43.4312 200.72 49.1244 195.684 52.5665L196.812 54.2177C202.36 50.4266 206 44.1327 206 37H204ZM228.06 317.667C231.273 278.947 232.706 229.905 228.762 181.99C224.819 134.098 215.496 87.228 197.13 52.9201L195.367 53.8641C213.54 87.8105 222.834 134.355 226.769 182.155C230.702 229.932 229.273 278.859 226.067 317.501L228.06 317.667ZM5.06314 318.584H227.063V316.584H5.06314V318.584Z" fill="#252D33" mask="url(#path-1-inside-1)"/>
<ellipse cx="117.5" cy="83.5" rx="27.5" ry="19.5" fill="#F2D8B3"/>
<path d="M115.191 79.2185C116.391 80.6639 118.609 80.6639 119.809 79.2185L123.379 74.9159C125.002 72.9608 123.612 70 121.071 70H113.929C111.388 70 109.998 72.9609 111.621 74.9159L115.191 79.2185Z" fill="#252D33"/>
<circle cx="84.5" cy="58.5" r="5.5" fill="white"/>
<circle cx="84.5" cy="58.5" r="4.5" fill="#252D33"/>
<circle cx="150.5" cy="58.5" r="5.5" fill="white"/>
<circle cx="150.5" cy="58.5" r="4.5" fill="#252D33"/>
<path d="M107 89C110.753 85.9815 119.807 81.7556 126 89" stroke="#252D33"/>
</g>
<defs>
<filter id="filter0_d" x="0" y="0" width="234.153" height="325.584" filterUnits="userSpaceOnUse" color-interpolation-filters="sRGB">
<feFlood flood-opacity="0" result="BackgroundImageFix"/>
<feColorMatrix in="SourceAlpha" type="matrix" values="0 0 0 0 0 0 0 0 0 0 0 0 0 0 0 0 0 0 127 0"/>
<feOffset dy="4"/>
<feGaussianBlur stdDeviation="2"/>
<feColorMatrix type="matrix" values="0 0 0 0 0 0 0 0 0 0 0 0 0 0 0 0 0 0 0.25 0"/>
<feBlend mode="normal" in2="BackgroundImageFix" result="effect1_dropShadow"/>
<feBlend mode="normal" in="SourceGraphic" in2="effect1_dropShadow" result="shape"/>
</filter>
</defs>
</svg>
