<svg width="183" height="100" viewBox="0 0 183 100" fill="none" xmlns="http://www.w3.org/2000/svg">
<path d="M5.81653 86.2229L4.32642 88.1379V89.0954L5.81653 90.3721L4.32642 91.0105V91.968H5.07147L5.81653 93.5639L5.07147 94.8406H4.32642L5.07147 96.1173H5.81653L5.07147 97.394H116.458C117.699 94.0958 119.438 87.2442 116.458 86.2229C113.477 85.2015 114.471 84.9462 115.34 84.9462H5.81653V86.2229Z" fill="#F9F5E7"/>
<path d="M5.81653 90.3721L4.32642 89.0954V88.1379L5.81653 86.2229V84.9462H115.34C114.471 84.9462 113.477 85.2015 116.458 86.2229C119.438 87.2442 117.699 94.0958 116.458 97.394H5.07147L5.81653 96.1173H5.07147L4.32642 94.8406H5.07147L5.81653 93.5639M5.81653 90.3721L4.32642 91.0105V91.968H5.07147L5.81653 93.5639M5.81653 90.3721H111.242M5.81653 93.5639H87.7728" stroke="black"/>
<path d="M76.5968 1.32233L1.34598 83.9886H113.85L117.575 83.9886L179.042 1.32231L76.5968 1.32233Z" fill="#6689C3"/>
<path d="M1.34598 96.4364L1.34595 98.6707H113.85L117.575 98.6706C120.808 91.9861 121.527 88.5595 117.575 83.9886L113.85 83.9886H1.34598L1.34595 86.2228H113.85C117.076 89.7788 116.103 92.146 113.85 96.4364H1.34598Z" fill="#6689C3"/>
<path d="M179.042 1.32231L117.575 83.9886C121.527 88.5595 120.808 91.9861 117.575 98.6706L179.042 13.7701C182.644 7.89272 182.867 5.08298 179.042 1.32231Z" fill="#6689C3"/>
<path d="M1.34598 83.9886L76.5968 1.32233L179.042 1.32231M1.34598 83.9886L1.34595 86.2228H113.85C117.076 89.7788 116.103 92.146 113.85 96.4364H1.34598L1.34595 98.6707H113.85L117.575 98.6706M1.34598 83.9886H113.85L117.575 83.9886M117.575 83.9886L179.042 1.32231M117.575 83.9886C121.527 88.5595 120.808 91.9861 117.575 98.6706M179.042 1.32231C182.867 5.08298 182.644 7.89272 179.042 13.7701L117.575 98.6706" stroke="black"/>
</svg>
