<svg width="204" height="111" viewBox="0 0 204 111" fill="none" xmlns="http://www.w3.org/2000/svg">
<path d="M5.74839 95.7098L4.07739 97.8469V98.9155L5.74839 100.34L4.07739 101.053V102.121H4.91289L5.74839 103.902L4.91289 105.327H4.07739L4.91289 106.751H5.74839L4.91289 108.176H129.82C131.212 104.496 133.162 96.8496 129.82 95.7098C126.478 94.5701 127.592 94.2851 128.567 94.2851H5.74839V95.7098Z" fill="#F9F5E7"/>
<path d="M5.74839 100.34L4.07739 98.9155V97.8469L5.74839 95.7098V94.2851H128.567C127.592 94.2851 126.478 94.5701 129.82 95.7098C133.162 96.8496 131.212 104.496 129.82 108.176H4.91289L5.74839 106.751H4.91289L4.07739 105.327H4.91289L5.74839 103.902M5.74839 100.34L4.07739 101.053V102.121H4.91289L5.74839 103.902M5.74839 100.34H123.971M5.74839 103.902H97.6531" stroke="black"/>
<path d="M85.1204 0.965749L0.73514 93.2166H126.895L131.073 93.2165L200.001 0.965729L85.1204 0.965749Z" fill="#7EAA77"/>
<path d="M0.73514 107.108L0.735107 109.601H126.895L131.073 109.601C134.698 102.141 135.504 98.3174 131.073 93.2165L126.895 93.2166H0.73514L0.735107 95.7098H126.895C130.513 99.6781 129.423 102.32 126.895 107.108H0.73514Z" fill="#7EAA77"/>
<path d="M200.001 0.965729L131.073 93.2165C135.504 98.3174 134.698 102.141 131.073 109.601L200.001 14.8568C204.04 8.29792 204.291 5.16242 200.001 0.965729Z" fill="#7EAA77"/>
<path d="M0.73514 93.2166L85.1204 0.965749L200.001 0.965729M0.73514 93.2166L0.735107 95.7098H126.895C130.513 99.6781 129.423 102.32 126.895 107.108H0.73514L0.735107 109.601H126.895L131.073 109.601M0.73514 93.2166H126.895L131.073 93.2165M131.073 93.2165L200.001 0.965729M131.073 93.2165C135.504 98.3174 134.698 102.141 131.073 109.601M200.001 0.965729C204.291 5.16242 204.04 8.29792 200.001 14.8568L131.073 109.601" stroke="black"/>
</svg>
