<svg width="167" height="85" viewBox="0 0 167 85" fill="none" xmlns="http://www.w3.org/2000/svg">
<path d="M5.08284 73.394L3.72192 75.0315V75.8502L5.08284 76.9419L3.72192 77.4877V78.3065H4.40238L5.08284 79.6711L4.40238 80.7628H3.72192L4.40238 81.8544H5.08284L4.40238 82.9461H106.131C107.265 80.1259 108.853 74.2673 106.131 73.394C103.409 72.5206 104.316 72.3023 105.11 72.3023H5.08284V73.394Z" fill="#F9F5E7"/>
<path d="M5.08284 76.9419L3.72192 75.8502V75.0315L5.08284 73.394V72.3023H105.11C104.316 72.3023 103.409 72.5206 106.131 73.394C108.853 74.2673 107.265 80.1259 106.131 82.9461H4.40238L5.08284 81.8544H4.40238L3.72192 80.7628H4.40238L5.08284 79.6711M5.08284 76.9419L3.72192 77.4877V78.3065H4.40238L5.08284 79.6711M5.08284 76.9419H101.367M5.08284 79.6711H79.9331" stroke="black"/>
<path d="M69.7262 0.797851L1.00003 71.4835H103.749L107.151 71.4835L163.289 0.797836L69.7262 0.797851Z" fill="#FBD266"/>
<path d="M1.00003 82.1273L1 84.0377H103.749L107.151 84.0377C110.104 78.322 110.761 75.392 107.151 71.4835L103.749 71.4835H1.00003L1 73.394H103.749C106.696 76.4346 105.807 78.4587 103.749 82.1273H1.00003Z" fill="#FBD266"/>
<path d="M163.289 0.797836L107.151 71.4835C110.761 75.392 110.104 78.322 107.151 84.0377L163.289 11.4416C166.578 6.41601 166.782 4.01348 163.289 0.797836Z" fill="#FBD266"/>
<path d="M1.00003 71.4835L69.7262 0.797851L163.289 0.797836M1.00003 71.4835L1 73.394H103.749C106.696 76.4346 105.807 78.4587 103.749 82.1273H1.00003L1 84.0377H103.749L107.151 84.0377M1.00003 71.4835H103.749L107.151 71.4835M107.151 71.4835L163.289 0.797836M107.151 71.4835C110.761 75.392 110.104 78.322 107.151 84.0377M163.289 0.797836C166.782 4.01348 166.578 6.41601 163.289 11.4416L107.151 84.0377" stroke="black"/>
</svg>
