<svg width="306" height="267" viewBox="0 0 306 267" fill="none" xmlns="http://www.w3.org/2000/svg">
<path d="M1 2.74084C1 1.38558 2.31952 0.422722 3.61017 0.836197L156.61 49.8513C157.438 50.1166 158 50.8865 158 51.756V264.416C158 265.724 156.765 266.68 155.499 266.352L2.49852 226.723C1.61621 226.494 1 225.698 1 224.787V2.74084Z" fill="#7EAA77" stroke="black"/>
<path d="M305 2.79814C305 1.42636 303.65 0.461752 302.353 0.905837L159.353 49.8338C158.544 50.1106 158 50.8711 158 51.7261V264.372C158 265.693 159.259 266.652 160.533 266.299L303.533 226.74C304.4 226.501 305 225.712 305 224.813V2.79814Z" fill="#7EAA77" stroke="black"/>
<rect x="144.5" y="44.5" width="27" height="222" rx="4.5" fill="#7EAA77" stroke="black"/>
<path d="M6.5 12.2145C6.5 10.8669 7.80556 9.90503 9.0926 10.3043L156.593 56.0634C157.43 56.323 158 57.0973 158 57.9736V256.436C158 257.738 156.776 258.693 155.513 258.376L8.01343 221.38C7.12383 221.156 6.5 220.357 6.5 219.44V12.2145Z" fill="#F9F5E7" stroke="black"/>
<path d="M302 11.7704C302 10.4066 300.665 9.44278 299.37 9.8721L161.37 55.6397C160.552 55.911 160 56.676 160 57.538V256.393C160 257.708 161.248 258.665 162.518 258.325L300.518 221.321C301.392 221.087 302 220.295 302 219.389V11.7704Z" fill="#F9F5E7" stroke="black"/>
<path d="M302 11.7609C302 10.3998 300.67 9.43628 299.377 9.86049L160.377 55.4543C159.555 55.7237 159 56.4902 159 57.3546V255.4C159 256.713 160.244 257.67 161.513 257.334L300.513 220.471C301.389 220.238 302 219.445 302 218.537V11.7609Z" fill="#F9F5E7" stroke="black"/>
<path d="M299 11.7704C299 10.4066 297.665 9.44278 296.37 9.8721L158.37 55.6397C157.552 55.911 157 56.676 157 57.538V256.393C157 257.708 158.248 258.665 159.518 258.325L297.518 221.321C298.392 221.087 299 220.295 299 219.389V11.7704Z" fill="#F9F5E7" stroke="black"/>
<path d="M296 11.7922C296 10.4221 294.654 9.45765 293.356 9.89856L159.356 55.4448C158.545 55.7204 158 56.4819 158 57.3384V255.376C158 256.697 159.257 257.655 160.53 257.305L294.53 220.48C295.398 220.242 296 219.452 296 218.552V11.7922Z" fill="#F9F5E7" stroke="black"/>
<path d="M297 11.7704C297 10.4066 295.665 9.44278 294.37 9.8721L156.37 55.6397C155.552 55.911 155 56.676 155 57.538V256.393C155 257.708 156.248 258.665 157.518 258.325L295.518 221.321C296.392 221.087 297 220.295 297 219.389V11.7704Z" fill="#F9F5E7" stroke="black"/>
<line x1="163.844" y1="76.5249" x2="288.844" y2="35.5249" stroke="black"/>
<line y1="-0.5" x2="129.007" y2="-0.5" transform="matrix(0.961186 -0.275902 0.350959 0.936391 165 150.593)" stroke="black"/>
<line x1="165.856" y1="86.5212" x2="288.856" y2="49.5212" stroke="black"/>
<line y1="-0.5" x2="126.173" y2="-0.5" transform="matrix(0.967052 -0.254578 0.325066 0.945691 167 161.121)" stroke="black"/>
<line x1="165.865" y1="99.5186" x2="286.865" y2="65.5186" stroke="black"/>
<line x1="165.883" y1="172.03" x2="288.883" y2="142.514" stroke="black"/>
<line x1="165.883" y1="183.03" x2="288.883" y2="153.514" stroke="black"/>
<line x1="164.883" y1="192.03" x2="287.883" y2="162.514" stroke="black"/>
<line x1="164.886" y1="201.03" x2="273.886" y2="175.513" stroke="black"/>
<line x1="165.868" y1="112.518" x2="286.868" y2="79.5176" stroke="black"/>
<line x1="165.883" y1="210.162" x2="288.883" y2="180.514" stroke="black"/>
<line x1="164.884" y1="223.162" x2="288.884" y2="193.514" stroke="black"/>
<line x1="164.884" y1="236.162" x2="288.884" y2="206.514" stroke="black"/>
<line x1="164.884" y1="245.162" x2="288.884" y2="215.514" stroke="black"/>
<path d="M164 64.5L289 22" stroke="black"/>
<path d="M165 126L289 92" stroke="black"/>
<path d="M165 137L255 111" stroke="black"/>
<path d="M102.5 60.5L13.1792 33.5272" stroke="black"/>
<line x1="102.871" y1="137.483" x2="12.8879" y2="113.483" stroke="black"/>
<line y1="-0.5" x2="134.093" y2="-0.5" transform="matrix(-0.961178 -0.275927 -0.30063 0.953741 141.904 85)" stroke="black"/>
<line y1="-0.5" x2="131.829" y2="-0.5" transform="matrix(-0.969862 -0.243655 -0.338875 0.940831 140.856 159.121)" stroke="black"/>
<line y1="-0.5" x2="131.271" y2="-0.5" transform="matrix(-0.965876 -0.259006 -0.282452 0.959281 141.904 98)" stroke="black"/>
<line y1="-0.5" x2="132.224" y2="-0.5" transform="matrix(-0.974765 -0.223232 -0.243867 0.969809 141.904 170.517)" stroke="black"/>
<line y1="-0.5" x2="132.224" y2="-0.5" transform="matrix(-0.974765 -0.223232 -0.243867 0.969809 141.904 181.517)" stroke="black"/>
<line y1="-0.5" x2="132.224" y2="-0.5" transform="matrix(-0.974765 -0.223232 -0.243867 0.969809 142.952 190.517)" stroke="black"/>
<line x1="123.893" y1="194.488" x2="13.958" y2="170.488" stroke="black"/>
<line y1="-0.5" x2="131.016" y2="-0.5" transform="matrix(-0.967759 -0.251878 -0.274781 0.961507 141.904 111)" stroke="black"/>
<line y1="-0.5" x2="132.254" y2="-0.5" transform="matrix(-0.974548 -0.224179 -0.244891 0.969551 141.904 208.648)" stroke="black"/>
<line y1="-0.5" x2="133.275" y2="-0.5" transform="matrix(-0.974942 -0.222461 -0.243033 0.970018 142.952 221.648)" stroke="black"/>
<line y1="-0.5" x2="133.275" y2="-0.5" transform="matrix(-0.974942 -0.222461 -0.243033 0.970018 142.952 234.648)" stroke="black"/>
<line y1="-0.5" x2="133.275" y2="-0.5" transform="matrix(-0.974942 -0.222461 -0.243033 0.970018 142.952 243.648)" stroke="black"/>
<path d="M144 62.5L13.0168 20" stroke="black"/>
<path d="M142.952 124L13.0168 90" stroke="black"/>
<path d="M142.952 135L13.0168 101" stroke="black"/>
<path d="M165 112L177 114L180 107L193 114L202.5 97L209.5 109L224 97L234 107L254.5 89L257 102L275.5 92L278 102L295.5 107L281.5 123.5L289.5 137.5L281.5 144.5L288 159.5L279.5 161.5L284 185L270.5 183.5L248.5 198.5L237 187L211 204L190.5 195L181.5 210L165 195L149 183.5L165 163.5L147.5 150L161.5 141L147 124.5L162.5 123L165 112Z" fill="#FFE600"/>
<path d="M173.163 126.178C171.783 126.476 170.797 127.697 170.797 129.11V190.31C170.797 192.213 172.546 193.635 174.409 193.247L268.816 173.557C270.206 173.267 271.203 172.041 271.203 170.62V108.717C271.203 106.805 269.439 105.381 267.57 105.785L173.163 126.178Z" fill="#A4CBCA" stroke="black"/>
<rect width="101.99" height="10.4708" transform="matrix(0.983017 -0.183517 0.0176653 0.999844 170.667 164.594)" fill="#7EAA77"/>
<mask id="path-47-inside-1" fill="white">
<path fill-rule="evenodd" clip-rule="evenodd" d="M192.405 126.209L181.511 127.985L181.723 144.704L170.622 146.635L171.136 166.112L182.742 164.093L182.736 163.887L190.595 162.605L190.599 162.725L212.073 158.99L212.074 159.009L213.215 158.791L214.702 158.533L214.702 158.508L221.304 157.248L221.308 157.385L232.913 155.366L232.399 135.89L222.038 137.692L221.245 121.128L210.36 123.204L210.873 133.906L204.982 134.931L201.87 134.52L198.809 136.005L192.542 137.095L192.405 126.209Z"/>
</mask>
<path fill-rule="evenodd" clip-rule="evenodd" d="M192.405 126.209L181.511 127.985L181.723 144.704L170.622 146.635L171.136 166.112L182.742 164.093L182.736 163.887L190.595 162.605L190.599 162.725L212.073 158.99L212.074 159.009L213.215 158.791L214.702 158.533L214.702 158.508L221.304 157.248L221.308 157.385L232.913 155.366L232.399 135.89L222.038 137.692L221.245 121.128L210.36 123.204L210.873 133.906L204.982 134.931L201.87 134.52L198.809 136.005L192.542 137.095L192.405 126.209Z" fill="#FF7D51"/>
<path d="M181.511 127.985L181.506 127.685L181.212 127.733L181.215 128.033L181.511 127.985ZM192.405 126.209L192.7 126.161L192.697 125.86L192.4 125.908L192.405 126.209ZM181.723 144.704L181.73 145.004L182.022 144.954L182.018 144.657L181.723 144.704ZM170.622 146.635L170.614 146.335L170.318 146.387L170.326 146.687L170.622 146.635ZM171.136 166.112L170.841 166.163L170.849 166.463L171.144 166.411L171.136 166.112ZM182.742 164.093L182.75 164.393L183.045 164.341L183.037 164.041L182.742 164.093ZM182.736 163.887L182.732 163.587L182.433 163.635L182.441 163.938L182.736 163.887ZM190.595 162.605L190.891 162.554L190.883 162.257L190.591 162.305L190.595 162.605ZM190.599 162.725L190.303 162.777L190.311 163.077L190.606 163.025L190.599 162.725ZM212.073 158.99L212.368 158.932L212.354 158.64L212.065 158.69L212.073 158.99ZM212.074 159.009L211.779 159.067L211.793 159.364L212.087 159.308L212.074 159.009ZM213.215 158.791L213.207 158.491L213.203 158.492L213.215 158.791ZM214.702 158.533L214.71 158.833L215.006 158.781L214.998 158.481L214.702 158.533ZM214.702 158.508L214.689 158.209L214.398 158.264L214.406 158.559L214.702 158.508ZM221.304 157.248L221.6 157.197L221.592 156.892L221.291 156.949L221.304 157.248ZM221.308 157.385L221.012 157.437L221.02 157.736L221.316 157.685L221.308 157.385ZM232.913 155.366L232.921 155.666L233.217 155.615L233.209 155.315L232.913 155.366ZM232.399 135.89L232.695 135.839L232.687 135.539L232.391 135.59L232.399 135.89ZM222.038 137.692L221.742 137.75L221.756 138.043L222.046 137.992L222.038 137.692ZM221.245 121.128L221.54 121.07L221.526 120.773L221.232 120.829L221.245 121.128ZM210.36 123.204L210.348 122.905L210.051 122.962L210.065 123.262L210.36 123.204ZM210.873 133.906L210.881 134.206L211.183 134.154L211.168 133.849L210.873 133.906ZM204.982 134.931L204.904 135.233L204.946 135.239L204.99 135.231L204.982 134.931ZM201.87 134.52L201.948 134.218L201.862 134.206L201.777 134.248L201.87 134.52ZM198.809 136.005L198.816 136.305L198.86 136.297L198.902 136.277L198.809 136.005ZM192.542 137.095L192.247 137.142L192.251 137.447L192.55 137.395L192.542 137.095ZM181.516 128.286L192.41 126.509L192.4 125.908L181.506 127.685L181.516 128.286ZM182.018 144.657L181.807 127.938L181.215 128.033L181.427 144.752L182.018 144.657ZM170.63 146.935L181.73 145.004L181.715 144.404L170.614 146.335L170.63 146.935ZM171.432 166.06L170.917 146.584L170.326 146.687L170.841 166.163L171.432 166.06ZM182.734 163.793L171.128 165.812L171.144 166.411L182.75 164.393L182.734 163.793ZM182.441 163.938L182.446 164.144L183.037 164.041L183.032 163.836L182.441 163.938ZM190.591 162.305L182.732 163.587L182.741 164.187L190.6 162.906L190.591 162.305ZM190.894 162.674L190.891 162.554L190.3 162.657L190.303 162.777L190.894 162.674ZM212.065 158.69L190.591 162.426L190.606 163.025L212.081 159.29L212.065 158.69ZM212.369 158.951L212.368 158.932L211.778 159.048L211.779 159.067L212.369 158.951ZM213.203 158.492L212.061 158.71L212.087 159.308L213.228 159.09L213.203 158.492ZM214.694 158.233L213.207 158.491L213.223 159.091L214.71 158.833L214.694 158.233ZM214.406 158.559L214.407 158.584L214.998 158.481L214.997 158.456L214.406 158.559ZM221.291 156.949L214.689 158.209L214.714 158.807L221.317 157.547L221.291 156.949ZM221.603 157.334L221.6 157.197L221.009 157.3L221.012 157.437L221.603 157.334ZM232.905 155.066L221.3 157.085L221.316 157.685L232.921 155.666L232.905 155.066ZM232.103 135.941L232.618 155.418L233.209 155.315L232.695 135.839L232.103 135.941ZM222.046 137.992L232.407 136.19L232.391 135.59L222.03 137.392L222.046 137.992ZM220.95 121.186L221.742 137.75L222.333 137.634L221.54 121.07L220.95 121.186ZM210.373 123.503L221.258 121.427L221.232 120.829L210.348 122.905L210.373 123.503ZM211.168 133.849L210.656 123.146L210.065 123.262L210.577 133.964L211.168 133.849ZM204.99 135.231L210.881 134.206L210.865 133.607L204.974 134.631L204.99 135.231ZM201.792 134.822L204.904 135.233L205.06 134.629L201.948 134.218L201.792 134.822ZM198.902 136.277L201.963 134.792L201.777 134.248L198.715 135.733L198.902 136.277ZM192.55 137.395L198.816 136.305L198.801 135.705L192.535 136.795L192.55 137.395ZM192.109 126.256L192.247 137.142L192.838 137.048L192.7 126.161L192.109 126.256Z" fill="black" mask="url(#path-47-inside-1)"/>
<path fill-rule="evenodd" clip-rule="evenodd" d="M201.894 138.809C200.366 139.075 199.16 140.548 199.201 142.099L199.295 145.666C199.295 145.676 199.296 145.685 199.296 145.694L199.369 148.474L202.084 148.002C202.102 147.999 202.119 147.996 202.137 147.993C202.154 147.99 202.172 147.987 202.189 147.983L204.904 147.511L204.754 141.811L204.754 141.811L204.736 141.136C204.695 139.585 203.423 138.543 201.894 138.809Z" fill="#252D33"/>
<path fill-rule="evenodd" clip-rule="evenodd" d="M208.376 139.75C207.045 139.982 205.994 141.264 206.03 142.615L206.053 143.495L206.053 143.495L206.162 147.612L210.982 146.773L210.919 144.371C210.919 144.357 210.919 144.342 210.918 144.327L210.851 141.777C210.815 140.426 209.707 139.519 208.376 139.75Z" fill="#252D33"/>
<path fill-rule="evenodd" clip-rule="evenodd" d="M195.336 141.701C193.906 141.949 192.778 143.327 192.816 144.778L192.826 145.159L192.825 145.16L192.942 149.593L195.498 149.149C195.509 149.147 195.521 149.145 195.532 149.143C195.544 149.141 195.555 149.139 195.566 149.137L198.12 148.693L198.053 146.161C198.053 146.129 198.053 146.098 198.052 146.066L197.994 143.877C197.956 142.426 196.766 141.452 195.336 141.701Z" fill="#252D33"/>
<path fill-rule="evenodd" clip-rule="evenodd" d="M195.338 152.038C193.76 152.313 192.515 153.833 192.558 155.434L192.647 158.82C192.647 158.84 192.648 158.86 192.649 158.88L192.724 161.719L198.438 160.725L198.325 156.45L198.324 156.45L198.271 154.44C198.229 152.839 196.915 151.764 195.338 152.038Z" fill="#252D33"/>
<path fill-rule="evenodd" clip-rule="evenodd" d="M202.293 150.512C200.814 150.769 199.647 152.194 199.687 153.695L199.794 157.761C199.794 157.783 199.795 157.805 199.796 157.828L199.866 160.477L202.467 160.025C202.493 160.021 202.518 160.017 202.544 160.012C202.57 160.008 202.595 160.003 202.621 159.998L205.223 159.545L205.102 154.953L205.101 154.953L205.043 152.763C205.003 151.262 203.772 150.254 202.293 150.512Z" fill="#252D33"/>
<path fill-rule="evenodd" clip-rule="evenodd" d="M209.079 149.172C207.6 149.429 206.433 150.854 206.473 152.355L206.501 153.439L206.496 153.44L206.65 159.298L212.007 158.367L211.94 155.825C211.942 155.766 211.942 155.707 211.941 155.647L211.829 151.423C211.789 149.923 210.558 148.915 209.079 149.172Z" fill="#252D33"/>
<path fill-rule="evenodd" clip-rule="evenodd" d="M214.245 124.254C213.899 124.314 213.627 124.647 213.636 124.997L213.707 127.687C213.707 127.69 213.708 127.692 213.708 127.694L213.724 128.322L214.974 128.105L214.907 125.571L214.907 125.571L214.886 124.779C214.877 124.429 214.59 124.194 214.245 124.254Z" fill="#252D33"/>
<path fill-rule="evenodd" clip-rule="evenodd" d="M189.076 128.791C188.73 128.852 188.458 129.184 188.467 129.534L188.488 130.325L188.487 130.325L188.554 132.859L189.157 132.754C189.165 132.753 189.173 132.751 189.18 132.75C189.188 132.749 189.195 132.747 189.203 132.746L189.804 132.641L189.788 132.048C189.789 132.034 189.789 132.021 189.788 132.007L189.717 129.317C189.708 128.967 189.421 128.731 189.076 128.791Z" fill="#252D33"/>
<path fill-rule="evenodd" clip-rule="evenodd" d="M186.932 129.163C186.587 129.223 186.315 129.556 186.324 129.906L186.345 130.697L186.344 130.697L186.411 133.23L187.02 133.124C187.025 133.124 187.031 133.123 187.037 133.122C187.043 133.121 187.048 133.12 187.054 133.119L187.661 133.013L187.645 132.412C187.645 132.401 187.645 132.39 187.645 132.379L187.574 129.689C187.565 129.338 187.277 129.103 186.932 129.163Z" fill="#252D33"/>
<path fill-rule="evenodd" clip-rule="evenodd" d="M184.611 129.568C184.266 129.628 183.993 129.96 184.003 130.311L184.024 131.101L184.023 131.102L184.09 133.635L184.695 133.53C184.702 133.529 184.709 133.528 184.715 133.527C184.722 133.525 184.729 133.524 184.736 133.523L185.339 133.418L185.324 132.818C185.324 132.806 185.324 132.795 185.324 132.784L185.253 130.093C185.243 129.743 184.956 129.508 184.611 129.568Z" fill="#252D33"/>
<path fill-rule="evenodd" clip-rule="evenodd" d="M217.816 123.632C217.47 123.692 217.198 124.024 217.207 124.374L217.278 127.065C217.279 127.07 217.279 127.076 217.279 127.081L217.295 127.697L217.874 127.596C217.889 127.595 217.905 127.593 217.92 127.59C217.936 127.587 217.951 127.584 217.966 127.58L218.545 127.48L218.478 124.946L218.478 124.946L218.457 124.157C218.448 123.807 218.161 123.571 217.816 123.632Z" fill="#252D33"/>
<path fill-rule="evenodd" clip-rule="evenodd" d="M216.861 151.954C216.269 152.057 215.802 152.627 215.818 153.227L215.882 155.645C215.882 155.65 215.882 155.655 215.883 155.66L215.911 156.731L216.944 156.552C216.957 156.55 216.969 156.548 216.982 156.546C216.995 156.544 217.007 156.541 217.02 156.539L218.053 156.359L217.991 153.984L217.991 153.984L217.961 152.854C217.945 152.254 217.452 151.851 216.861 151.954Z" fill="#252D33"/>
<path fill-rule="evenodd" clip-rule="evenodd" d="M185.986 157.802C185.395 157.905 184.928 158.475 184.944 159.075L184.974 160.206L184.97 160.207L185.033 162.582L187.176 162.209L187.149 161.206C187.151 161.177 187.151 161.149 187.15 161.121L187.086 158.703C187.07 158.102 186.578 157.699 185.986 157.802Z" fill="#252D33"/>
<path fill-rule="evenodd" clip-rule="evenodd" d="M219.361 151.519C218.868 151.605 218.479 152.08 218.492 152.58L218.544 154.524L218.543 154.524L218.589 156.266L219.455 156.115C219.464 156.114 219.473 156.112 219.483 156.111C219.492 156.109 219.501 156.108 219.51 156.106L220.375 155.955L220.352 155.087C220.352 155.075 220.352 155.062 220.351 155.05L220.278 152.269C220.265 151.769 219.854 151.433 219.361 151.519Z" fill="#252D33"/>
<path fill-rule="evenodd" clip-rule="evenodd" d="M188.484 157.368C187.991 157.453 187.602 157.929 187.615 158.429L187.688 161.209C187.688 161.213 187.688 161.217 187.689 161.221L187.712 162.115L188.594 161.961C188.598 161.961 188.601 161.96 188.605 161.96C188.608 161.959 188.612 161.958 188.615 161.958L189.498 161.804L189.452 160.062L189.452 160.063L189.4 158.118C189.387 157.618 188.977 157.282 188.484 157.368Z" fill="#252D33"/>
<path fill-rule="evenodd" clip-rule="evenodd" d="M224.269 150.665C223.628 150.777 223.123 151.394 223.14 152.045L223.199 154.282C223.199 154.291 223.199 154.3 223.2 154.31L223.23 155.459L224.359 155.262C224.37 155.261 224.38 155.259 224.39 155.257C224.401 155.255 224.411 155.254 224.422 155.251L225.551 155.055L225.497 152.996L225.497 152.997L225.461 151.641C225.444 150.991 224.91 150.554 224.269 150.665Z" fill="#252D33"/>
<path fill-rule="evenodd" clip-rule="evenodd" d="M226.323 150.307C226.027 150.359 225.794 150.644 225.802 150.944L225.878 153.815C225.878 153.821 225.878 153.827 225.878 153.833L225.892 154.36L226.963 154.174L226.905 151.957L226.905 151.957L226.873 150.758C226.865 150.457 226.619 150.256 226.323 150.307Z" fill="#252D33"/>
<path fill-rule="evenodd" clip-rule="evenodd" d="M180.258 158.321C179.666 158.424 179.199 158.994 179.215 159.594L179.279 162.012C179.279 162.018 179.279 162.023 179.279 162.029L179.308 163.099L180.356 162.917C180.363 162.916 180.371 162.914 180.379 162.913C180.387 162.912 180.394 162.91 180.402 162.909L181.45 162.726L181.388 160.351L181.387 160.351L181.358 159.222C181.342 158.621 180.849 158.218 180.258 158.321Z" fill="#252D33"/>
<path fill-rule="evenodd" clip-rule="evenodd" d="M180.193 149.106C179.503 149.226 178.958 149.892 178.977 150.592L179.027 152.489C179.027 152.499 179.028 152.509 179.028 152.519L179.061 153.756L180.253 153.549C180.272 153.546 180.291 153.543 180.31 153.54C180.33 153.537 180.349 153.533 180.368 153.529L181.56 153.321L181.494 150.788L181.493 150.788L181.477 150.157C181.458 149.457 180.883 148.986 180.193 149.106Z" fill="#252D33"/>
<path fill-rule="evenodd" clip-rule="evenodd" d="M223.942 141.654C223.251 141.774 222.707 142.439 222.725 143.14L222.771 144.879C222.772 144.886 222.772 144.892 222.772 144.899L222.805 146.147L225.305 145.712L225.246 143.496L225.246 143.496L225.225 142.705C225.207 142.005 224.632 141.534 223.942 141.654Z" fill="#252D33"/>
<path d="M198.775 136.17L191.424 139.676L192.022 162.319M205.202 135.052L212.224 136.058L212.822 158.701" stroke="black" stroke-width="0.3"/>
<path d="M268.464 146.777L172.534 164.203C171.076 164.467 170.03 165.756 170.071 167.237L170.71 190.396C170.762 192.27 172.502 193.638 174.336 193.247L269.627 172.89C271.011 172.594 272 171.372 272 169.956V149.728C272 147.857 270.305 146.442 268.464 146.777Z" fill="#7EAA77"/>
<path d="M229.748 155.109L228.969 122.656L264.031 114.723V148.619L229.748 155.109Z" fill="#F9F5E7" stroke="black"/>
<path d="M174 189V169.5L266 150V169.5L174 189Z" fill="#FBD266" stroke="#252D33"/>
<path d="M229.766 173.807V161.84L263.234 155.109V167.076L229.766 173.807Z" fill="#6689C3" stroke="black"/>
<mask id="mask0" mask-type="alpha" maskUnits="userSpaceOnUse" x="228" y="111" width="38" height="44">
<path d="M229.766 153.614L228.969 119.958L264.828 111.731V146.882L229.766 153.614Z" fill="#F9F5E7" stroke="black"/>
</mask>
<g mask="url(#mask0)">
<mask id="path-75-inside-2" fill="white">
<path fill-rule="evenodd" clip-rule="evenodd" d="M234.564 158.134C233.59 149.808 233.397 138.335 236.296 130.458C235.692 129.899 235.283 129.073 235.223 128.132C235.11 126.348 236.295 124.831 237.871 124.742C238.378 124.714 238.865 124.838 239.295 125.078C240.997 123.088 243.184 121.803 245.967 121.544C249.619 121.204 252.509 122.364 254.785 124.5C255.244 124.034 255.843 123.738 256.513 123.701C258.089 123.613 259.457 124.988 259.57 126.772C259.644 127.928 259.172 128.972 258.402 129.588C262.186 137.26 262.906 148.74 262.675 156.564L234.564 158.134Z"/>
</mask>
<path fill-rule="evenodd" clip-rule="evenodd" d="M234.564 158.134C233.59 149.808 233.397 138.335 236.296 130.458C235.692 129.899 235.283 129.073 235.223 128.132C235.11 126.348 236.295 124.831 237.871 124.742C238.378 124.714 238.865 124.838 239.295 125.078C240.997 123.088 243.184 121.803 245.967 121.544C249.619 121.204 252.509 122.364 254.785 124.5C255.244 124.034 255.843 123.738 256.513 123.701C258.089 123.613 259.457 124.988 259.57 126.772C259.644 127.928 259.172 128.972 258.402 129.588C262.186 137.26 262.906 148.74 262.675 156.564L234.564 158.134Z" fill="#4E3930"/>
<path d="M236.296 130.458L237.235 130.809L237.465 130.183L236.972 129.727L236.296 130.458ZM234.564 158.134L233.57 158.243L233.681 159.185L234.627 159.132L234.564 158.134ZM239.295 125.078L238.811 125.95L239.528 126.351L240.058 125.731L239.295 125.078ZM245.967 121.544L246.067 122.539L245.967 121.544ZM254.785 124.5L254.103 125.226L254.817 125.896L255.5 125.204L254.785 124.5ZM258.402 129.588L257.773 128.805L257.15 129.304L257.506 130.024L258.402 129.588ZM262.675 156.564L262.738 157.562L263.648 157.511L263.675 156.601L262.675 156.564ZM235.356 130.107C232.373 138.215 232.593 149.885 233.57 158.243L235.558 158.026C234.587 149.731 234.421 138.456 237.235 130.809L235.356 130.107ZM234.225 128.188C234.3 129.378 234.819 130.449 235.619 131.189L236.972 129.727C236.564 129.35 236.266 128.767 236.222 128.076L234.225 128.188ZM237.807 123.744C235.567 123.87 234.084 125.973 234.225 128.188L236.222 128.076C236.136 126.723 237.024 125.791 237.934 125.74L237.807 123.744ZM239.779 124.207C239.192 123.879 238.517 123.705 237.807 123.744L237.934 125.74C238.24 125.723 238.538 125.797 238.811 125.95L239.779 124.207ZM245.867 120.549C242.798 120.834 240.382 122.262 238.532 124.426L240.058 125.731C241.612 123.913 243.571 122.771 246.067 122.539L245.867 120.549ZM255.467 123.773C252.987 121.447 249.815 120.182 245.867 120.549L246.067 122.539C249.423 122.227 252.03 123.281 254.103 125.226L255.467 123.773ZM255.5 125.204C255.803 124.897 256.176 124.721 256.577 124.699L256.45 122.703C255.511 122.755 254.685 123.172 254.07 123.795L255.5 125.204ZM256.577 124.699C257.487 124.648 258.486 125.474 258.572 126.828L260.569 126.716C260.428 124.502 258.69 122.578 256.45 122.703L256.577 124.699ZM258.572 126.828C258.626 127.68 258.275 128.404 257.773 128.805L259.031 130.37C260.069 129.539 260.661 128.175 260.569 126.716L258.572 126.828ZM263.675 156.601C263.907 148.751 263.199 137.059 259.299 129.151L257.506 130.024C261.174 137.462 261.905 148.729 261.675 156.527L263.675 156.601ZM234.627 159.132L262.738 157.562L262.612 155.566L234.501 157.136L234.627 159.132Z" fill="#252D33" mask="url(#path-75-inside-2)"/>
<ellipse rx="3.83197" ry="3.15575" transform="matrix(0.998443 -0.0557899 0.0633075 0.997994 247.873 134.962)" fill="#F2D8B3"/>
<path d="M247.344 133.68C247.586 133.967 248.034 133.942 248.238 133.63C248.488 133.248 248.192 132.74 247.734 132.766C247.276 132.792 247.047 133.328 247.344 133.68Z" fill="#252D33"/>
<ellipse rx="0.766393" ry="0.890083" transform="matrix(0.998443 -0.0557899 0.0633075 0.997994 243.026 131.181)" fill="white"/>
<ellipse rx="0.627049" ry="0.72825" transform="matrix(0.998443 -0.0557899 0.0633075 0.997994 243.026 131.181)" fill="#252D33"/>
<ellipse rx="0.766393" ry="0.890083" transform="matrix(0.998443 -0.0557899 0.0633075 0.997994 252.208 130.667)" fill="white"/>
<ellipse rx="0.627049" ry="0.72825" transform="matrix(0.998443 -0.0557899 0.0633075 0.997994 252.208 130.667)" fill="#252D33"/>
<path d="M247.202 136.968C246.052 136.621 246.701 135.272 247.898 135.205C249.067 135.14 249.893 136.367 248.834 136.859C248.592 136.971 248.318 137.045 248.007 137.062C247.715 137.079 247.447 137.042 247.202 136.968Z" fill="#252D33"/>
</g>
<path d="M178.626 170.208L178.64 169.698L179.072 169.618L179.058 170.128L178.626 170.208ZM177.971 174.384L178.063 173.995C178.149 174.002 178.216 174 178.266 173.991C178.354 173.975 178.42 173.932 178.465 173.864C178.51 173.798 178.535 173.645 178.542 173.408L178.614 170.684L179.045 170.604L178.973 173.337C178.965 173.656 178.918 173.886 178.833 174.026C178.725 174.208 178.55 174.322 178.308 174.367C178.192 174.389 178.079 174.394 177.971 174.384ZM179.515 171.805C179.528 171.325 179.669 170.945 179.937 170.665C180.161 170.433 180.431 170.287 180.746 170.228C181.097 170.162 181.38 170.226 181.596 170.419C181.812 170.61 181.915 170.911 181.904 171.323C181.895 171.657 181.839 171.929 181.735 172.139C181.632 172.348 181.485 172.522 181.293 172.663C181.103 172.804 180.897 172.895 180.675 172.937C180.318 173.003 180.032 172.941 179.817 172.75C179.604 172.558 179.504 172.243 179.515 171.805ZM179.959 171.723C179.95 172.054 180.015 172.29 180.153 172.429C180.291 172.567 180.468 172.616 180.684 172.576C180.899 172.536 181.079 172.419 181.226 172.227C181.373 172.034 181.451 171.768 181.46 171.428C181.468 171.107 181.402 170.878 181.263 170.741C181.125 170.602 180.949 170.552 180.737 170.591C180.521 170.632 180.339 170.747 180.192 170.938C180.046 171.129 179.968 171.391 179.959 171.723ZM184.163 169.265L184.149 169.775L183.686 169.861L183.697 169.458C183.702 169.24 183.732 169.078 183.786 168.971C183.857 168.828 183.966 168.71 184.113 168.616L184.214 168.767C184.125 168.821 184.059 168.889 184.015 168.972C183.972 169.053 183.946 169.164 183.937 169.307L184.163 169.265ZM184.907 169.126L184.893 169.636L184.43 169.722L184.441 169.32C184.446 169.102 184.476 168.939 184.53 168.832C184.601 168.689 184.71 168.571 184.857 168.477L184.958 168.628C184.869 168.682 184.803 168.75 184.759 168.833C184.716 168.914 184.69 169.025 184.681 169.168L184.907 169.126ZM185.298 172.229L185.716 172.214C185.73 172.343 185.776 172.43 185.855 172.475C185.96 172.536 186.105 172.55 186.291 172.515C186.491 172.478 186.646 172.408 186.757 172.306C186.868 172.205 186.945 172.077 186.987 171.924C187.012 171.83 187.027 171.64 187.033 171.354C186.838 171.615 186.6 171.772 186.318 171.825C185.968 171.89 185.7 171.812 185.515 171.591C185.33 171.37 185.242 171.08 185.252 170.72C185.258 170.473 185.308 170.237 185.402 170.012C185.495 169.786 185.627 169.6 185.796 169.455C185.967 169.31 186.165 169.216 186.391 169.174C186.692 169.118 186.936 169.195 187.125 169.406L187.133 169.094L187.532 169.019L187.473 171.26C187.462 171.663 187.414 171.956 187.327 172.139C187.243 172.323 187.112 172.481 186.933 172.611C186.756 172.741 186.539 172.83 186.283 172.878C185.979 172.935 185.736 172.911 185.552 172.806C185.369 172.702 185.284 172.51 185.298 172.229ZM185.696 170.605C185.687 170.945 185.747 171.181 185.876 171.313C186.005 171.444 186.169 171.491 186.369 171.454C186.567 171.417 186.736 171.308 186.874 171.129C187.013 170.947 187.086 170.691 187.095 170.359C187.103 170.042 187.04 169.815 186.905 169.68C186.772 169.545 186.608 169.495 186.412 169.532C186.22 169.568 186.055 169.678 185.917 169.862C185.778 170.045 185.705 170.293 185.696 170.605ZM189.885 170.328L190.33 170.301C190.253 170.58 190.117 170.81 189.923 170.992C189.728 171.174 189.483 171.292 189.187 171.348C188.814 171.417 188.522 171.356 188.308 171.164C188.097 170.971 187.997 170.663 188.008 170.242C188.02 169.806 188.139 169.447 188.366 169.165C188.593 168.883 188.883 168.709 189.235 168.643C189.576 168.579 189.851 168.645 190.061 168.841C190.27 169.037 190.37 169.348 190.358 169.776C190.358 169.802 190.356 169.842 190.353 169.894L188.452 170.249C188.461 170.531 188.534 170.734 188.672 170.858C188.811 170.983 188.986 171.026 189.199 170.986C189.358 170.956 189.494 170.889 189.608 170.783C189.722 170.678 189.815 170.526 189.885 170.328ZM188.486 169.883L189.909 169.617C189.895 169.403 189.845 169.25 189.759 169.157C189.625 169.014 189.449 168.962 189.23 169.003C189.032 169.04 188.863 169.139 188.723 169.3C188.585 169.46 188.506 169.654 188.486 169.883ZM190.854 170.978L190.923 168.386L191.312 168.314L191.302 168.682C191.497 168.363 191.771 168.17 192.124 168.104C192.278 168.075 192.418 168.077 192.544 168.11C192.673 168.141 192.767 168.196 192.829 168.276C192.891 168.355 192.933 168.455 192.955 168.575C192.969 168.654 192.973 168.794 192.968 168.998L192.926 170.591L192.494 170.672L192.535 169.096C192.54 168.917 192.527 168.786 192.495 168.705C192.464 168.621 192.406 168.562 192.321 168.526C192.238 168.488 192.138 168.48 192.023 168.501C191.839 168.536 191.678 168.625 191.541 168.769C191.405 168.912 191.332 169.15 191.324 169.482L191.286 170.897L190.854 170.978ZM195.357 169.307L195.802 169.28C195.725 169.558 195.589 169.788 195.394 169.97C195.2 170.152 194.955 170.271 194.659 170.326C194.286 170.396 193.993 170.335 193.78 170.143C193.569 169.949 193.469 169.642 193.48 169.22C193.491 168.784 193.611 168.425 193.838 168.143C194.065 167.861 194.355 167.687 194.707 167.622C195.047 167.558 195.323 167.624 195.533 167.82C195.742 168.015 195.841 168.327 195.83 168.755C195.83 168.781 195.828 168.82 195.825 168.872L193.924 169.227C193.932 169.509 194.006 169.712 194.144 169.837C194.283 169.962 194.458 170.004 194.671 169.964C194.829 169.935 194.966 169.867 195.08 169.762C195.194 169.656 195.287 169.505 195.357 169.307ZM193.957 168.862L195.381 168.596C195.367 168.381 195.317 168.228 195.23 168.136C195.097 167.992 194.921 167.941 194.702 167.982C194.504 168.019 194.335 168.118 194.195 168.278C194.057 168.438 193.978 168.633 193.957 168.862ZM196.293 166.874L196.306 166.364L196.77 166.277L196.759 166.68C196.753 166.898 196.724 167.06 196.672 167.165C196.6 167.309 196.49 167.429 196.343 167.523L196.242 167.369C196.329 167.317 196.395 167.249 196.438 167.165C196.483 167.079 196.51 166.968 196.519 166.832L196.293 166.874ZM197.037 166.735L197.05 166.225L197.514 166.138L197.503 166.541C197.497 166.759 197.468 166.921 197.416 167.026C197.344 167.171 197.234 167.29 197.087 167.384L196.986 167.23C197.073 167.178 197.139 167.11 197.182 167.026C197.227 166.94 197.254 166.829 197.263 166.693L197.037 166.735ZM199.729 169.321L199.329 169.396L199.423 165.818L199.855 165.738L199.821 167.014C200.01 166.747 200.246 166.587 200.529 166.535C200.686 166.505 200.833 166.51 200.97 166.549C201.109 166.587 201.222 166.655 201.309 166.756C201.397 166.854 201.464 166.981 201.511 167.136C201.558 167.29 201.579 167.461 201.574 167.648C201.562 168.093 201.445 168.456 201.223 168.739C201.001 169.022 200.738 169.191 200.436 169.248C200.135 169.304 199.902 169.22 199.738 168.997L199.729 169.321ZM199.759 168.007C199.751 168.317 199.787 168.534 199.866 168.657C199.996 168.858 200.177 168.937 200.409 168.893C200.598 168.858 200.764 168.745 200.905 168.553C201.048 168.36 201.123 168.098 201.132 167.768C201.141 167.429 201.081 167.192 200.952 167.055C200.825 166.919 200.668 166.868 200.481 166.903C200.292 166.938 200.127 167.053 199.985 167.246C199.843 167.437 199.768 167.691 199.759 168.007ZM202.062 168.886L202.131 166.294L202.519 166.221L202.509 166.614C202.613 166.412 202.707 166.274 202.792 166.2C202.878 166.125 202.972 166.079 203.073 166.06C203.218 166.033 203.365 166.052 203.513 166.118L203.354 166.554C203.25 166.51 203.145 166.498 203.039 166.518C202.945 166.535 202.859 166.58 202.783 166.653C202.706 166.724 202.65 166.814 202.615 166.922C202.563 167.087 202.535 167.263 202.53 167.448L202.494 168.805L202.062 168.886ZM205.374 168.267L205.384 167.887C205.178 168.217 204.904 168.413 204.564 168.477C204.413 168.505 204.273 168.502 204.144 168.468C204.016 168.434 203.921 168.379 203.859 168.303C203.799 168.225 203.758 168.124 203.736 168C203.72 167.917 203.715 167.782 203.72 167.595L203.763 165.989L204.194 165.909L204.157 167.346C204.15 167.575 204.155 167.728 204.171 167.805C204.195 167.915 204.25 167.996 204.336 168.046C204.423 168.095 204.53 168.107 204.66 168.083C204.79 168.058 204.912 168.002 205.028 167.914C205.143 167.825 205.225 167.718 205.275 167.594C205.326 167.468 205.354 167.294 205.36 167.073L205.397 165.684L205.829 165.603L205.76 168.195L205.374 168.267ZM206.523 164.995L206.536 164.49L206.968 164.41L206.955 164.915L206.523 164.995ZM206.442 168.068L206.51 165.476L206.942 165.396L206.874 167.987L206.442 168.068ZM207.534 167.864L207.602 165.272L207.991 165.2L207.981 165.568C208.176 165.249 208.45 165.056 208.804 164.99C208.958 164.961 209.098 164.963 209.224 164.996C209.352 165.027 209.447 165.083 209.509 165.162C209.57 165.241 209.612 165.341 209.634 165.461C209.648 165.54 209.653 165.681 209.647 165.884L209.605 167.478L209.173 167.558L209.215 165.982C209.219 165.803 209.206 165.672 209.175 165.591C209.144 165.508 209.086 165.448 209.001 165.412C208.917 165.374 208.818 165.366 208.703 165.388C208.519 165.422 208.358 165.511 208.22 165.655C208.084 165.798 208.012 166.036 208.003 166.368L207.966 167.784L207.534 167.864ZM179.896 178.992L179.464 179.073L179.538 176.274C179.431 176.394 179.292 176.52 179.12 176.653C178.949 176.785 178.796 176.889 178.66 176.964L178.671 176.54C178.916 176.379 179.131 176.2 179.316 176.002C179.501 175.804 179.633 175.62 179.713 175.452L179.991 175.4L179.896 178.992ZM184.654 177.684L184.643 178.106L182.318 178.54C182.317 178.435 182.337 178.33 182.376 178.226C182.44 178.054 182.538 177.877 182.672 177.697C182.807 177.516 183.001 177.3 183.253 177.049C183.643 176.659 183.909 176.359 184.048 176.148C184.187 175.936 184.259 175.747 184.263 175.581C184.268 175.407 184.21 175.272 184.09 175.176C183.972 175.078 183.814 175.048 183.617 175.085C183.409 175.123 183.241 175.218 183.113 175.368C182.985 175.518 182.917 175.706 182.91 175.931L182.467 175.967C182.506 175.625 182.627 175.347 182.83 175.134C183.033 174.92 183.302 174.782 183.637 174.719C183.974 174.656 184.239 174.701 184.431 174.855C184.622 175.009 184.715 175.226 184.707 175.508C184.703 175.651 184.671 175.797 184.61 175.946C184.548 176.095 184.448 176.259 184.31 176.437C184.173 176.614 183.946 176.866 183.629 177.19C183.364 177.46 183.193 177.642 183.118 177.735C183.042 177.827 182.979 177.917 182.929 178.006L184.654 177.684ZM186.504 176.819L186.938 176.68C186.981 176.919 187.06 177.083 187.175 177.172C187.293 177.258 187.437 177.286 187.608 177.254C187.811 177.216 187.984 177.112 188.127 176.943C188.272 176.774 188.347 176.583 188.352 176.372C188.358 176.17 188.297 176.016 188.171 175.91C188.045 175.803 187.882 175.767 187.682 175.805C187.6 175.82 187.498 175.855 187.376 175.91L187.434 175.516C187.463 175.514 187.486 175.511 187.504 175.508C187.688 175.473 187.854 175.394 188.004 175.269C188.154 175.143 188.232 174.979 188.237 174.776C188.241 174.615 188.191 174.491 188.087 174.406C187.982 174.32 187.845 174.293 187.676 174.324C187.508 174.356 187.366 174.436 187.252 174.564C187.137 174.692 187.06 174.867 187.023 175.088L186.593 175.09C186.653 174.786 186.779 174.536 186.971 174.34C187.162 174.142 187.397 174.017 187.676 173.965C187.868 173.929 188.043 173.939 188.203 173.993C188.362 174.046 188.482 174.137 188.563 174.266C188.646 174.394 188.685 174.54 188.681 174.703C188.677 174.857 188.632 175.006 188.547 175.148C188.462 175.29 188.339 175.413 188.177 175.518C188.383 175.528 188.542 175.6 188.654 175.733C188.765 175.864 188.817 176.045 188.811 176.276C188.803 176.589 188.684 176.875 188.454 177.135C188.224 177.393 187.938 177.554 187.596 177.618C187.287 177.676 187.033 177.63 186.833 177.481C186.635 177.332 186.525 177.111 186.504 176.819ZM191.966 176.739L191.988 175.882L190.462 176.167L190.472 175.765L192.139 173.146L192.492 173.081L192.431 175.399L192.906 175.31L192.895 175.713L192.42 175.802L192.397 176.658L191.966 176.739ZM191.999 175.48L192.041 173.866L190.897 175.685L191.999 175.48ZM194.709 175.294L195.164 175.17C195.192 175.389 195.265 175.543 195.383 175.635C195.504 175.724 195.65 175.752 195.823 175.72C196.031 175.681 196.209 175.569 196.357 175.382C196.505 175.196 196.583 174.971 196.59 174.708C196.597 174.457 196.532 174.272 196.397 174.153C196.263 174.034 196.084 173.996 195.86 174.038C195.721 174.064 195.595 174.12 195.481 174.205C195.367 174.29 195.277 174.389 195.21 174.504L194.806 174.526L195.195 172.624L196.945 172.298L196.934 172.718L195.53 172.98L195.315 173.977C195.53 173.788 195.754 173.671 195.986 173.628C196.293 173.571 196.549 173.63 196.755 173.807C196.96 173.984 197.058 174.243 197.049 174.583C197.041 174.907 196.941 175.204 196.749 175.474C196.516 175.806 196.204 176.008 195.813 176.081C195.493 176.141 195.234 176.099 195.036 175.955C194.839 175.81 194.73 175.59 194.709 175.294ZM201.101 172.345L200.671 172.459C200.637 172.294 200.586 172.179 200.518 172.114C200.404 172.011 200.262 171.975 200.091 172.007C199.953 172.032 199.831 172.094 199.725 172.192C199.587 172.318 199.475 172.485 199.392 172.693C199.308 172.902 199.26 173.185 199.248 173.544C199.356 173.363 199.486 173.22 199.639 173.114C199.791 173.007 199.95 172.939 200.115 172.908C200.403 172.854 200.645 172.917 200.84 173.096C201.038 173.272 201.132 173.532 201.123 173.873C201.117 174.098 201.064 174.316 200.963 174.528C200.863 174.737 200.729 174.909 200.56 175.042C200.391 175.176 200.2 175.262 199.989 175.302C199.629 175.369 199.339 175.29 199.119 175.064C198.899 174.836 198.797 174.413 198.814 173.795C198.832 173.103 198.971 172.577 199.23 172.216C199.457 171.902 199.755 171.71 200.127 171.641C200.403 171.589 200.628 171.626 200.8 171.751C200.973 171.875 201.074 172.073 201.101 172.345ZM199.297 174.217C199.293 174.368 199.32 174.507 199.379 174.634C199.439 174.76 199.525 174.849 199.637 174.901C199.749 174.952 199.867 174.965 199.992 174.942C200.174 174.908 200.333 174.804 200.468 174.63C200.603 174.455 200.674 174.24 200.681 173.983C200.687 173.735 200.628 173.553 200.502 173.436C200.376 173.317 200.215 173.276 200.018 173.312C199.823 173.349 199.655 173.451 199.516 173.62C199.376 173.787 199.303 173.986 199.297 174.217ZM203.003 171.584L203.015 171.162L205.292 170.737L205.283 171.079C205.053 171.363 204.822 171.727 204.59 172.17C204.361 172.613 204.18 173.057 204.049 173.505C203.954 173.82 203.891 174.158 203.857 174.519L203.413 174.602C203.425 174.319 203.489 173.969 203.603 173.551C203.718 173.133 203.877 172.721 204.08 172.316C204.285 171.909 204.501 171.557 204.727 171.263L203.003 171.584ZM207.712 171.869C207.535 171.835 207.405 171.765 207.322 171.657C207.238 171.55 207.199 171.41 207.204 171.237C207.211 170.977 207.308 170.741 207.497 170.529C207.686 170.318 207.933 170.183 208.238 170.126C208.546 170.069 208.79 170.114 208.973 170.261C209.155 170.407 209.243 170.61 209.236 170.87C209.232 171.036 209.185 171.189 209.095 171.329C209.007 171.467 208.875 171.585 208.699 171.684C208.913 171.716 209.074 171.801 209.182 171.939C209.291 172.077 209.343 172.257 209.337 172.478C209.329 172.784 209.216 173.061 208.997 173.309C208.779 173.557 208.496 173.714 208.149 173.778C207.802 173.843 207.525 173.791 207.317 173.623C207.11 173.453 207.011 173.211 207.019 172.899C207.025 172.666 207.088 172.461 207.207 172.283C207.328 172.104 207.496 171.966 207.712 171.869ZM207.646 171.14C207.641 171.31 207.691 171.438 207.795 171.525C207.9 171.613 208.038 171.64 208.209 171.608C208.375 171.577 208.513 171.499 208.621 171.374C208.731 171.246 208.788 171.105 208.792 170.951C208.796 170.79 208.745 170.665 208.637 170.576C208.531 170.486 208.397 170.456 208.234 170.487C208.069 170.517 207.931 170.597 207.819 170.724C207.707 170.852 207.65 170.991 207.646 171.14ZM207.463 172.819C207.459 172.944 207.485 173.06 207.54 173.166C207.596 173.272 207.68 173.347 207.794 173.391C207.907 173.433 208.031 173.441 208.163 173.416C208.37 173.378 208.542 173.278 208.68 173.118C208.818 172.958 208.89 172.774 208.895 172.566C208.901 172.354 208.836 172.192 208.7 172.08C208.566 171.967 208.395 171.931 208.187 171.969C207.984 172.007 207.814 172.107 207.676 172.269C207.539 172.43 207.468 172.614 207.463 172.819ZM211.187 172.327L211.603 172.211C211.633 172.403 211.696 172.534 211.793 172.605C211.89 172.676 212.016 172.697 212.171 172.668C212.304 172.643 212.421 172.591 212.522 172.51C212.624 172.43 212.709 172.332 212.775 172.218C212.842 172.102 212.9 171.952 212.947 171.768C212.995 171.584 213.022 171.401 213.026 171.219C213.027 171.199 213.027 171.17 213.026 171.132C212.936 171.288 212.815 171.424 212.662 171.54C212.511 171.654 212.348 171.727 212.174 171.759C211.883 171.814 211.639 171.752 211.443 171.575C211.247 171.398 211.154 171.134 211.163 170.782C211.173 170.42 211.285 170.108 211.501 169.848C211.718 169.587 211.985 169.427 212.302 169.368C212.53 169.325 212.737 169.349 212.923 169.439C213.11 169.528 213.249 169.681 213.341 169.895C213.434 170.108 213.475 170.433 213.463 170.873C213.451 171.33 213.392 171.704 213.288 171.993C213.183 172.282 213.032 172.515 212.835 172.692C212.639 172.87 212.411 172.983 212.152 173.031C211.877 173.083 211.654 173.047 211.484 172.925C211.314 172.802 211.215 172.602 211.187 172.327ZM212.997 170.418C213.004 170.166 212.943 169.978 212.814 169.855C212.687 169.731 212.53 169.687 212.345 169.722C212.153 169.757 211.983 169.868 211.837 170.054C211.69 170.24 211.614 170.46 211.607 170.714C211.601 170.942 211.663 171.115 211.794 171.233C211.926 171.349 212.091 171.389 212.29 171.352C212.49 171.314 212.656 171.213 212.787 171.047C212.921 170.88 212.991 170.67 212.997 170.418ZM180.689 181.252L181.155 181.165L181.1 183.233C181.091 183.592 181.043 183.885 180.957 184.112C180.872 184.338 180.722 184.538 180.509 184.71C180.298 184.881 180.023 184.998 179.683 185.061C179.354 185.123 179.086 185.115 178.879 185.039C178.673 184.962 178.527 184.823 178.444 184.622C178.36 184.419 178.323 184.128 178.333 183.749L178.388 181.682L178.853 181.595L178.799 183.66C178.79 183.971 178.812 184.195 178.864 184.332C178.918 184.468 179.013 184.563 179.148 184.617C179.285 184.671 179.454 184.679 179.654 184.642C179.996 184.578 180.242 184.453 180.392 184.268C180.542 184.083 180.623 183.766 180.635 183.317L180.689 181.252ZM184.381 182.875L184.844 182.908C184.736 183.315 184.552 183.645 184.292 183.897C184.034 184.148 183.722 184.307 183.355 184.375C182.976 184.446 182.669 184.426 182.435 184.314C182.202 184.201 182.028 184.006 181.911 183.732C181.795 183.457 181.742 183.149 181.751 182.807C181.761 182.435 181.839 182.097 181.986 181.795C182.134 181.49 182.339 181.242 182.6 181.051C182.863 180.858 183.15 180.732 183.46 180.674C183.812 180.609 184.106 180.644 184.341 180.782C184.576 180.919 184.737 181.144 184.822 181.457L184.361 181.652C184.286 181.407 184.173 181.24 184.021 181.15C183.869 181.06 183.675 181.037 183.44 181.081C183.17 181.132 182.941 181.24 182.755 181.406C182.571 181.571 182.439 181.772 182.36 182.009C182.28 182.244 182.238 182.479 182.231 182.715C182.223 183.02 182.259 183.278 182.34 183.489C182.422 183.699 182.553 183.843 182.734 183.921C182.915 183.999 183.113 184.018 183.328 183.978C183.588 183.929 183.811 183.811 183.996 183.624C184.181 183.438 184.309 183.188 184.381 182.875ZM185.37 183.939L185.465 180.361L185.931 180.274L185.847 183.429L187.58 183.106L187.569 183.528L185.37 183.939ZM187.739 183.496L189.185 179.666L189.686 179.573L191.032 182.882L190.502 182.981L190.12 181.974L188.649 182.248L188.234 183.404L187.739 183.496ZM188.793 181.838L189.986 181.615L189.645 180.693C189.541 180.413 189.464 180.181 189.415 179.997C189.364 180.235 189.295 180.475 189.207 180.716L188.793 181.838ZM192.484 182.611L192.578 179.033L193.279 178.902L194.045 181.28C194.116 181.501 194.167 181.667 194.199 181.778C194.242 181.64 194.31 181.438 194.401 181.169L195.31 178.523L195.936 178.406L195.841 181.984L195.393 182.068L195.472 179.073L194.37 182.258L193.95 182.337L193.013 179.481L192.933 182.527L192.484 182.611ZM196.206 181.916L197.652 178.086L198.153 177.992L199.499 181.301L198.969 181.4L198.587 180.393L197.116 180.668L196.701 181.823L196.206 181.916ZM197.26 180.257L198.453 180.034L198.112 179.112C198.008 178.832 197.931 178.6 197.882 178.417C197.831 178.654 197.762 178.894 197.674 179.135L197.26 180.257ZM199.743 180.112L200.183 179.991C200.199 180.166 200.243 180.304 200.315 180.405C200.389 180.505 200.505 180.576 200.663 180.617C200.821 180.657 201 180.659 201.2 180.621C201.378 180.588 201.536 180.532 201.673 180.453C201.81 180.374 201.913 180.282 201.981 180.177C202.051 180.07 202.087 179.961 202.09 179.851C202.093 179.738 202.064 179.647 202.002 179.576C201.94 179.503 201.836 179.452 201.691 179.423C201.597 179.403 201.39 179.384 201.069 179.366C200.748 179.347 200.523 179.314 200.396 179.268C200.23 179.21 200.107 179.123 200.028 179.007C199.949 178.889 199.913 178.747 199.917 178.583C199.922 178.403 199.977 178.225 200.082 178.05C200.186 177.873 200.337 177.726 200.533 177.608C200.728 177.491 200.945 177.41 201.181 177.366C201.442 177.317 201.671 177.318 201.867 177.367C202.065 177.414 202.215 177.511 202.318 177.657C202.42 177.802 202.473 177.98 202.476 178.188L202.028 178.306C202.01 178.084 201.933 177.928 201.797 177.839C201.662 177.749 201.46 177.729 201.19 177.78C200.908 177.832 200.701 177.924 200.569 178.053C200.438 178.181 200.371 178.32 200.367 178.468C200.363 178.596 200.406 178.693 200.495 178.759C200.582 178.826 200.814 178.867 201.189 178.885C201.566 178.9 201.824 178.927 201.963 178.966C202.165 179.024 202.313 179.118 202.407 179.248C202.501 179.376 202.545 179.536 202.54 179.728C202.535 179.918 202.477 180.108 202.365 180.297C202.253 180.485 202.095 180.645 201.891 180.777C201.689 180.907 201.462 180.995 201.211 181.042C200.892 181.102 200.627 181.104 200.413 181.05C200.201 180.996 200.036 180.886 199.918 180.72C199.801 180.552 199.743 180.35 199.743 180.112ZM205.693 178.896L206.155 178.929C206.047 179.336 205.863 179.666 205.604 179.918C205.345 180.169 205.033 180.328 204.667 180.397C204.288 180.468 203.981 180.447 203.747 180.336C203.514 180.222 203.339 180.028 203.222 179.753C203.107 179.479 203.054 179.17 203.063 178.829C203.073 178.456 203.151 178.119 203.297 177.816C203.445 177.512 203.65 177.264 203.912 177.072C204.175 176.879 204.461 176.754 204.772 176.696C205.124 176.63 205.417 176.666 205.652 176.803C205.888 176.941 206.048 177.166 206.134 177.478L205.672 177.674C205.598 177.429 205.484 177.261 205.332 177.171C205.18 177.082 204.987 177.059 204.751 177.103C204.481 177.153 204.253 177.261 204.067 177.427C203.883 177.593 203.751 177.794 203.671 178.03C203.592 178.265 203.549 178.501 203.543 178.737C203.535 179.041 203.571 179.299 203.651 179.511C203.733 179.72 203.865 179.864 204.046 179.942C204.227 180.02 204.425 180.039 204.639 179.999C204.9 179.95 205.123 179.833 205.308 179.646C205.492 179.459 205.621 179.209 205.693 178.896ZM206.606 178.24C206.621 177.646 206.79 177.153 207.113 176.759C207.435 176.364 207.844 176.12 208.34 176.027C208.665 175.966 208.956 175.991 209.213 176.1C209.469 176.209 209.662 176.392 209.79 176.65C209.92 176.906 209.981 177.213 209.971 177.571C209.962 177.933 209.881 178.271 209.73 178.585C209.578 178.898 209.368 179.153 209.1 179.351C208.833 179.546 208.546 179.673 208.24 179.73C207.909 179.792 207.615 179.766 207.359 179.651C207.102 179.537 206.911 179.352 206.784 179.096C206.657 178.839 206.597 178.554 206.606 178.24ZM207.085 178.158C207.074 178.589 207.179 178.908 207.399 179.115C207.621 179.319 207.905 179.389 208.249 179.325C208.599 179.26 208.89 179.081 209.122 178.788C209.356 178.495 209.479 178.118 209.491 177.658C209.499 177.367 209.457 177.122 209.365 176.924C209.275 176.724 209.138 176.582 208.954 176.498C208.771 176.412 208.564 176.391 208.332 176.434C208.003 176.496 207.715 176.664 207.471 176.94C207.228 177.213 207.1 177.619 207.085 178.158ZM211.422 179.075L211.505 175.919L210.346 176.136L210.357 175.714L213.146 175.193L213.135 175.615L211.971 175.833L211.887 178.988L211.422 179.075Z" fill="black"/>
<path d="M234.733 163.078L236.014 162.855L236.229 166.337C236.263 166.89 236.301 167.246 236.343 167.404C236.414 167.657 236.557 167.847 236.772 167.972C236.99 168.094 237.278 168.123 237.636 168.061C237.999 167.998 238.269 167.876 238.444 167.694C238.62 167.51 238.719 167.305 238.743 167.079C238.767 166.854 238.764 166.486 238.732 165.977L238.512 162.42L239.794 162.197L240.002 165.575C240.05 166.347 240.049 166.898 240 167.229C239.95 167.56 239.838 167.851 239.664 168.103C239.493 168.354 239.256 168.573 238.952 168.759C238.648 168.942 238.245 169.077 237.743 169.164C237.137 169.27 236.672 169.279 236.349 169.194C236.028 169.105 235.77 168.963 235.574 168.77C235.379 168.574 235.244 168.356 235.171 168.118C235.064 167.764 234.989 167.227 234.945 166.508L234.733 163.078ZM245.461 165.321L246.729 165.504C246.581 166.239 246.296 166.816 245.873 167.236C245.452 167.652 244.901 167.919 244.22 168.037C243.377 168.184 242.667 168.014 242.088 167.526C241.509 167.036 241.189 166.285 241.126 165.273C241.06 164.203 241.281 163.325 241.79 162.639C242.299 161.951 242.998 161.529 243.887 161.374C244.663 161.239 245.308 161.362 245.822 161.743C246.128 161.967 246.369 162.325 246.545 162.814L245.295 163.342C245.2 163.021 245.026 162.786 244.774 162.634C244.526 162.483 244.231 162.436 243.891 162.495C243.42 162.577 243.048 162.815 242.775 163.208C242.505 163.601 242.393 164.181 242.441 164.947C242.491 165.76 242.671 166.313 242.981 166.608C243.291 166.903 243.677 167.01 244.138 166.93C244.479 166.871 244.765 166.71 244.997 166.448C245.229 166.186 245.384 165.811 245.461 165.321ZM247.989 167.271L247.594 160.894L248.876 160.671L249.203 165.965L252.39 165.411L252.457 166.494L247.989 167.271ZM259.098 165.339L257.704 165.581L257.06 164.217L254.523 164.658L254.089 166.21L252.729 166.446L254.804 159.586L256.159 159.351L259.098 165.339ZM256.581 163.205L255.559 160.971L254.85 163.506L256.581 163.205Z" fill="#F9F5E7"/>
<path d="M173.163 126.178C171.783 126.476 170.797 127.697 170.797 129.11V190.31C170.797 192.213 172.546 193.635 174.409 193.247L268.816 173.557C270.206 173.267 271.203 172.041 271.203 170.62V108.717C271.203 106.805 269.439 105.381 267.57 105.785L173.163 126.178Z" stroke="black"/>
</svg>
