<svg width="221" height="127" viewBox="0 0 221 127" fill="none" xmlns="http://www.w3.org/2000/svg">
<path d="M6.3779 110.178L4.56909 112.648V113.883L6.3779 115.53L4.56909 116.353V117.588H5.4735L6.3779 119.647L5.4735 121.293H4.56909L5.4735 122.94H6.3779L5.4735 124.587H140.682C142.189 120.333 144.3 111.495 140.682 110.178C137.064 108.86 138.27 108.531 139.325 108.531H6.3779V110.178Z" fill="#F9F5E7"/>
<path d="M6.3779 115.53L4.56909 113.883V112.648L6.3779 110.178V108.531H139.325C138.27 108.531 137.064 108.86 140.682 110.178C144.3 111.495 142.189 120.333 140.682 124.587H5.4735L6.3779 122.94H5.4735L4.56909 121.293H5.4735L6.3779 119.647M6.3779 115.53L4.56909 116.353V117.588H5.4735L6.3779 119.647M6.3779 115.53H134.351M6.3779 119.647H105.862" stroke="black"/>
<path d="M92.2963 0.668541L0.951452 107.296H137.517L142.039 107.296L216.652 0.668518L92.2963 0.668541Z" fill="#FF7D51"/>
<path d="M0.951452 123.352L0.951416 126.234H137.517L142.039 126.234C145.963 117.612 146.836 113.192 142.039 107.296L137.517 107.296H0.951452L0.951416 110.178H137.517C141.433 114.765 140.252 117.818 137.517 123.352H0.951452Z" fill="#FF7D51"/>
<path d="M216.652 0.668518L142.039 107.296C146.836 113.192 145.963 117.612 142.039 126.234L216.652 16.7244C221.024 9.14339 221.295 5.51923 216.652 0.668518Z" fill="#FF7D51"/>
<path d="M0.951452 107.296L92.2963 0.668541L216.652 0.668518M0.951452 107.296L0.951416 110.178H137.517C141.433 114.765 140.252 117.818 137.517 123.352H0.951452L0.951416 126.234H137.517L142.039 126.234M0.951452 107.296H137.517L142.039 107.296M142.039 107.296L216.652 0.668518M142.039 107.296C146.836 113.192 145.963 117.612 142.039 126.234M216.652 0.668518C221.295 5.51923 221.024 9.14339 216.652 16.7244L142.039 126.234" stroke="black"/>
</svg>
