<svg width="497" height="442" viewBox="0 0 497 442" fill="none" xmlns="http://www.w3.org/2000/svg">
<mask id="path-1-inside-1" fill="white">
<path fill-rule="evenodd" clip-rule="evenodd" d="M46.9313 594C40.0151 441.848 49.8179 227.766 111.611 102.495C99.7502 96.2903 91.6363 83.7115 91.6363 69.2038C91.6363 48.5442 108.09 31.7963 128.387 31.7963C137.857 31.7963 146.491 35.4423 153.007 41.4303C176.993 16.6257 205.889 1.65362 240.546 0.157016C283.625 -1.70326 318.35 13.0579 346.189 39.5638C352.394 34.6933 360.171 31.7963 368.613 31.7963C388.91 31.7963 405.364 48.5442 405.364 69.2038C405.364 81.8886 399.161 93.0987 389.674 99.8631C455.18 227.524 456.425 449.304 444.917 594H46.9313Z"/>
</mask>
<path fill-rule="evenodd" clip-rule="evenodd" d="M46.9313 594C40.0151 441.848 49.8179 227.766 111.611 102.495C99.7502 96.2903 91.6363 83.7115 91.6363 69.2038C91.6363 48.5442 108.09 31.7963 128.387 31.7963C137.857 31.7963 146.491 35.4423 153.007 41.4303C176.993 16.6257 205.889 1.65362 240.546 0.157016C283.625 -1.70326 318.35 13.0579 346.189 39.5638C352.394 34.6933 360.171 31.7963 368.613 31.7963C388.91 31.7963 405.364 48.5442 405.364 69.2038C405.364 81.8886 399.161 93.0987 389.674 99.8631C455.18 227.524 456.425 449.304 444.917 594H46.9313Z" fill="#4E3930"/>
<path d="M111.611 102.495L112.508 102.938L112.94 102.062L112.074 101.609L111.611 102.495ZM46.9313 594L45.9323 594.045L45.9757 595H46.9313V594ZM153.007 41.4303L152.33 42.1666L153.048 42.8263L153.726 42.1255L153.007 41.4303ZM240.546 0.157016L240.589 1.15609L240.546 0.157016ZM346.189 39.5638L345.5 40.288L346.126 40.8845L346.807 40.3504L346.189 39.5638ZM389.674 99.8631L389.093 99.0488L388.39 99.5506L388.784 100.32L389.674 99.8631ZM444.917 594V595H445.84L445.914 594.079L444.917 594ZM110.714 102.053C79.7401 164.845 61.8255 249.821 52.5107 338.062C43.1939 426.322 42.4725 517.932 45.9323 594.045L47.9303 593.955C44.4739 517.916 45.1958 426.41 54.4996 338.272C63.8055 250.116 81.6887 165.416 112.508 102.938L110.714 102.053ZM90.6363 69.2038C90.6363 84.0915 98.9639 97.0075 111.147 103.381L112.074 101.609C100.536 95.5731 92.6363 83.3315 92.6363 69.2038H90.6363ZM128.387 30.7963C107.521 30.7963 90.6363 48.0087 90.6363 69.2038H92.6363C92.6363 49.0797 108.659 32.7963 128.387 32.7963V30.7963ZM153.683 40.694C146.992 34.5445 138.12 30.7963 128.387 30.7963V32.7963C137.595 32.7963 145.99 36.34 152.33 42.1666L153.683 40.694ZM240.503 -0.842052C205.552 0.667236 176.424 15.7756 152.288 40.7352L153.726 42.1255C177.562 17.4757 206.225 2.64001 240.589 1.15609L240.503 -0.842052ZM346.879 38.8395C318.853 12.1559 283.866 -2.71463 240.503 -0.842052L240.589 1.15609C283.383 -0.691882 317.847 13.96 345.5 40.288L346.879 38.8395ZM346.807 40.3504C352.843 35.6122 360.404 32.7963 368.613 32.7963V30.7963C359.938 30.7963 351.945 33.7743 345.572 38.7772L346.807 40.3504ZM368.613 32.7963C388.341 32.7963 404.364 49.0797 404.364 69.2038H406.364C406.364 48.0087 389.479 30.7963 368.613 30.7963V32.7963ZM404.364 69.2038C404.364 81.5562 398.324 92.4668 389.093 99.0488L390.254 100.677C399.997 93.7306 406.364 82.2209 406.364 69.2038H404.364ZM445.914 594.079C451.671 521.694 454.239 430.02 447.172 340.465C440.108 250.931 423.407 163.414 390.564 99.4065L388.784 100.32C421.446 163.973 438.121 251.176 445.179 340.622C452.234 430.046 449.671 521.61 443.92 593.921L445.914 594.079ZM46.9313 595H444.917V593H46.9313V595Z" fill="#252D33" mask="url(#path-1-inside-1)"/>
<ellipse cx="248.5" cy="156.176" rx="49.3" ry="36.4722" fill="#F2D8B3"/>
<path d="M246.19 145.211C247.389 146.659 249.611 146.659 250.81 145.211L258.719 135.664C260.339 133.708 258.948 130.75 256.409 130.75H240.591C238.052 130.75 236.661 133.708 238.281 135.664L246.19 145.211Z" fill="#252D33"/>
<ellipse cx="189.34" cy="109.417" rx="9.86" ry="10.287" fill="white"/>
<ellipse cx="189.34" cy="109.417" rx="8.06727" ry="8.41667" fill="#252D33"/>
<ellipse cx="307.66" cy="109.417" rx="9.86" ry="10.287" fill="white"/>
<ellipse cx="307.66" cy="109.417" rx="8.06727" ry="8.41667" fill="#252D33"/>
<path d="M219.731 164.196C218.2 161.824 220.06 159 222.883 159H273.368C276.122 159 277.99 161.704 276.584 164.073C272.238 171.397 263.163 180.5 248.5 180.5C233.918 180.5 224.445 171.498 219.731 164.196Z" fill="#252D33"/>
<path fill-rule="evenodd" clip-rule="evenodd" d="M115.833 276.162C115.521 259.669 137.352 243.83 150.575 237C137.595 251.888 141.109 266.209 147.957 276.162H451.5C475.524 276.162 495 295.638 495 319.662V363.704C495 387.728 475.524 407.204 451.5 407.204H45.5C21.4756 407.204 2 387.728 2 363.704V319.662C2 295.638 21.4756 276.162 45.5 276.162H115.833Z" fill="#F9F5E7"/>
<path d="M150.575 237L151.706 237.986L149.887 235.667L150.575 237ZM115.833 276.162V277.662H117.362L117.333 276.134L115.833 276.162ZM147.957 276.162L146.721 277.012L147.168 277.662H147.957V276.162ZM149.887 235.667C143.179 239.132 134.285 244.88 127.083 251.882C119.934 258.832 114.165 267.298 114.333 276.19L117.333 276.134C117.189 268.533 122.179 260.834 129.174 254.033C136.115 247.285 144.749 241.698 151.264 238.333L149.887 235.667ZM149.192 275.312C145.883 270.502 143.436 264.716 143.33 258.407C143.225 252.132 145.433 245.181 151.706 237.986L149.445 236.014C142.738 243.707 140.212 251.361 140.331 258.457C140.449 265.518 143.182 271.869 146.721 277.012L149.192 275.312ZM147.957 277.662H451.5V274.662H147.957V277.662ZM451.5 277.662C474.696 277.662 493.5 296.466 493.5 319.662H496.5C496.5 294.809 476.353 274.662 451.5 274.662V277.662ZM493.5 319.662V363.704H496.5V319.662H493.5ZM493.5 363.704C493.5 386.9 474.696 405.704 451.5 405.704V408.704C476.353 408.704 496.5 388.557 496.5 363.704H493.5ZM451.5 405.704H45.5V408.704H451.5V405.704ZM45.5 405.704C22.3041 405.704 3.5 386.9 3.5 363.704H0.5C0.5 388.557 20.6472 408.704 45.5 408.704V405.704ZM3.5 363.704V319.662H0.5V363.704H3.5ZM3.5 319.662C3.5 296.466 22.304 277.662 45.5 277.662V274.662C20.6472 274.662 0.5 294.809 0.5 319.662H3.5ZM45.5 277.662H115.833V274.662H45.5V277.662Z" fill="#252D33"/>
<path d="M22.576 304.96C23.472 304.752 24.304 304.648 25.072 304.648C25.84 304.648 26.488 304.672 27.016 304.72V310.72C27.4 310.464 27.912 310.248 28.552 310.072C29.192 309.896 29.76 309.808 30.256 309.808C31.84 309.808 32.936 310.192 33.544 310.96C34.152 311.728 34.456 312.896 34.456 314.464V319.336C35.08 319.576 35.52 319.848 35.776 320.152L35.536 322H30.016L29.776 320.152C30 319.848 30.44 319.576 31.096 319.336V314.584C31.096 313.72 30.952 313.144 30.664 312.856C30.392 312.552 29.888 312.4 29.152 312.4C28.416 312.4 27.704 312.656 27.016 313.168V319.336C27.64 319.576 28.08 319.848 28.336 320.152L28.096 322H22.576L22.336 320.152C22.56 319.848 23 319.576 23.656 319.336V307.624C23.096 307.432 22.656 307.16 22.336 306.808L22.576 304.96ZM45.4722 320.992C44.3682 321.792 43.0642 322.192 41.5602 322.192C40.0722 322.192 39.0322 321.88 38.4402 321.256C37.8482 320.632 37.5522 319.616 37.5522 318.208V312.664C36.9922 312.472 36.5522 312.2 36.2322 311.848L36.4722 310C37.3682 309.792 38.2002 309.688 38.9682 309.688C39.7362 309.688 40.3842 309.712 40.9122 309.76V317.416C40.9122 318.28 41.0402 318.856 41.2962 319.144C41.5682 319.416 42.0962 319.552 42.8802 319.552C43.6642 319.552 44.3922 319.296 45.0642 318.784V312.664C44.5042 312.472 44.0642 312.2 43.7442 311.848L43.9842 310C44.8802 309.792 45.7122 309.688 46.4802 309.688C47.2482 309.688 47.8962 309.712 48.4242 309.76V319.12C48.9842 319.232 49.4242 319.368 49.7442 319.528V321.424C48.7842 321.936 47.5762 322.192 46.1202 322.192C45.7202 321.904 45.5042 321.504 45.4722 320.992ZM50.6776 304.96C51.5736 304.752 52.4056 304.648 53.1736 304.648C53.9416 304.648 54.5896 304.672 55.1176 304.72V310.72C55.5016 310.464 56.0136 310.248 56.6536 310.072C57.2936 309.896 57.8616 309.808 58.3576 309.808C59.9416 309.808 61.0376 310.192 61.6456 310.96C62.2536 311.728 62.5576 312.896 62.5576 314.464V319.336C63.1816 319.576 63.6216 319.848 63.8776 320.152L63.6376 322H58.1176L57.8776 320.152C58.1016 319.848 58.5416 319.576 59.1976 319.336V314.584C59.1976 313.72 59.0536 313.144 58.7656 312.856C58.4936 312.552 57.9896 312.4 57.2536 312.4C56.5176 312.4 55.8056 312.656 55.1176 313.168V319.336C55.7416 319.576 56.1816 319.848 56.4376 320.152L56.1976 322H50.6776L50.4376 320.152C50.6616 319.848 51.1016 319.576 51.7576 319.336V307.624C51.1976 307.432 50.7576 307.16 50.4376 306.808L50.6776 304.96ZM64.9578 320.44C64.9578 319.224 65.6378 318.616 66.9978 318.616C68.3578 318.616 69.0378 319.224 69.0378 320.44C69.0378 321.512 68.7658 322.504 68.2218 323.416C67.6778 324.344 67.0218 325.08 66.2538 325.624L65.2458 325C65.7738 324.12 66.0378 323.256 66.0378 322.408C66.0378 322.28 66.0298 322.16 66.0138 322.048C65.7098 321.952 65.4538 321.76 65.2458 321.472C65.0538 321.168 64.9578 320.824 64.9578 320.44ZM82.2078 304.96C83.1198 304.752 83.9918 304.648 84.8238 304.648C85.6558 304.648 86.3678 304.672 86.9598 304.72V319.12C87.4398 319.2 87.8798 319.336 88.2798 319.528V321.424C87.3198 321.936 86.1038 322.192 84.6318 322.192C84.4718 322.112 84.3118 321.968 84.1518 321.76C84.0078 321.552 83.9278 321.352 83.9118 321.16C83.5598 321.448 83.1038 321.696 82.5438 321.904C81.9838 322.096 81.4318 322.192 80.8878 322.192C79.1598 322.192 77.9038 321.728 77.1198 320.8C76.3518 319.856 75.9678 318.32 75.9678 316.192C75.9678 313.776 76.5598 312.08 77.7438 311.104C78.7838 310.24 80.0638 309.808 81.5838 309.808C82.2558 309.808 82.9278 309.888 83.5998 310.048V307.672C82.8638 307.464 82.3198 307.176 81.9678 306.808L82.2078 304.96ZM81.3918 319.744C82.3038 319.744 83.0398 319.472 83.5998 318.928V312.496C82.9438 312.336 82.2478 312.256 81.5117 312.256C80.7758 312.256 80.2398 312.584 79.9038 313.24C79.5838 313.88 79.4238 314.848 79.4238 316.144C79.4238 317.424 79.5838 318.344 79.9038 318.904C80.2238 319.464 80.7198 319.744 81.3918 319.744ZM94.8242 322.192C92.9363 322.192 91.5363 321.688 90.6243 320.68C89.7123 319.672 89.2563 318.152 89.2563 316.12C89.2563 314.072 89.7603 312.512 90.7683 311.44C91.7923 310.352 93.2563 309.808 95.1603 309.808C97.0643 309.808 98.4723 310.288 99.3843 311.248C100.312 312.208 100.776 313.712 100.776 315.76C100.776 317.792 100.256 319.376 99.2163 320.512C98.1923 321.632 96.7283 322.192 94.8242 322.192ZM92.7123 315.904C92.7123 318.464 93.4803 319.744 95.0163 319.744C95.8003 319.744 96.3763 319.456 96.7443 318.88C97.1283 318.288 97.3203 317.328 97.3203 316C97.3203 313.504 96.5363 312.256 94.9683 312.256C94.2003 312.256 93.6323 312.536 93.2643 313.096C92.8963 313.64 92.7123 314.576 92.7123 315.904ZM107.767 322.192C105.847 322.192 104.399 321.68 103.423 320.656C102.463 319.632 101.983 318.144 101.983 316.192C101.983 315.008 102.151 313.992 102.487 313.144C102.823 312.28 103.279 311.616 103.855 311.152C104.975 310.256 106.279 309.808 107.767 309.808C109.255 309.808 110.391 310.192 111.175 310.96C111.975 311.712 112.375 313.072 112.375 315.04C112.375 316.192 111.807 316.768 110.671 316.768H105.463C105.527 317.776 105.783 318.488 106.231 318.904C106.695 319.32 107.423 319.528 108.415 319.528C108.959 319.528 109.479 319.464 109.975 319.336C110.471 319.208 110.831 319.08 111.055 318.952L111.391 318.76L112.111 320.68C112.015 320.792 111.871 320.936 111.679 321.112C111.503 321.272 111.039 321.496 110.287 321.784C109.551 322.056 108.711 322.192 107.767 322.192ZM109.279 314.632C109.311 314.408 109.327 314.136 109.327 313.816C109.327 313.496 109.199 313.16 108.943 312.808C108.687 312.44 108.239 312.256 107.599 312.256C106.975 312.256 106.495 312.448 106.159 312.832C105.823 313.216 105.599 313.864 105.487 314.776L109.279 314.632ZM118.408 311.968C117.352 311.968 116.824 312.28 116.824 312.904C116.824 313.496 117.376 313.936 118.48 314.224L120.376 314.728C122.328 315.24 123.304 316.368 123.304 318.112C123.304 319.312 122.88 320.296 122.032 321.064C121.2 321.816 119.864 322.192 118.024 322.192C116.2 322.192 114.776 321.936 113.752 321.424C113.736 321.248 113.728 321.072 113.728 320.896C113.728 320.016 113.904 319.224 114.256 318.52H116.248C116.456 318.904 116.592 319.304 116.656 319.72C116.976 319.816 117.432 319.864 118.024 319.864C119.432 319.864 120.136 319.464 120.136 318.664C120.136 318.408 120.04 318.2 119.848 318.04C119.656 317.864 119.28 317.696 118.72 317.536L116.824 316.984C115.848 316.712 115.088 316.312 114.544 315.784C114 315.24 113.728 314.448 113.728 313.408C113.728 312.352 114.152 311.488 115 310.816C115.848 310.144 117.056 309.808 118.624 309.808C120.208 309.808 121.544 310.04 122.632 310.504C122.648 310.664 122.656 310.824 122.656 310.984C122.656 311.816 122.48 312.584 122.128 313.288H120.16C119.952 312.92 119.816 312.536 119.752 312.136C119.304 312.024 118.856 311.968 118.408 311.968ZM124.677 310C125.557 309.808 126.349 309.712 127.053 309.712C127.757 309.712 128.341 309.728 128.805 309.76V310.96C129.205 310.624 129.733 310.352 130.389 310.144C131.061 309.92 131.701 309.808 132.309 309.808C133.877 309.808 134.973 310.176 135.597 310.912C136.237 311.648 136.557 312.92 136.557 314.728V319.336C137.181 319.576 137.621 319.848 137.877 320.152L137.637 322H132.117L131.877 320.152C132.101 319.848 132.541 319.576 133.197 319.336V314.584C133.197 313.72 133.053 313.144 132.765 312.856C132.493 312.552 131.997 312.4 131.277 312.4C130.557 312.4 129.837 312.656 129.117 313.168V319.336C129.741 319.576 130.181 319.848 130.437 320.152L130.197 322H124.677L124.437 320.152C124.661 319.848 125.101 319.576 125.757 319.336V312.664C125.197 312.472 124.757 312.2 124.437 311.848L124.677 310ZM138.902 307.048C138.902 305.832 139.582 305.224 140.942 305.224C142.302 305.224 142.982 305.832 142.982 307.048C142.982 308.12 142.71 309.12 142.166 310.048C141.622 310.96 140.966 311.688 140.198 312.232L139.19 311.608C139.718 310.728 139.982 309.864 139.982 309.016C139.982 308.888 139.974 308.768 139.958 308.656C139.654 308.56 139.398 308.368 139.19 308.08C138.998 307.776 138.902 307.432 138.902 307.048ZM148.633 306.976V310H152.065V312.016H148.633V318.088C148.633 318.6 148.705 318.976 148.849 319.216C148.993 319.44 149.337 319.552 149.881 319.552C150.425 319.552 151.009 319.432 151.633 319.192L152.353 321.064C151.121 321.688 149.857 322 148.561 322C147.281 322 146.409 321.728 145.945 321.184C145.497 320.624 145.273 319.816 145.273 318.76V312.016H144.193L143.929 310.552C144.185 310.248 144.713 309.944 145.513 309.64C145.705 308.328 146.161 307.44 146.881 306.976H148.633ZM158.537 304.96C159.433 304.752 160.265 304.648 161.033 304.648C161.801 304.648 162.449 304.672 162.977 304.72V319.336C163.601 319.576 164.041 319.848 164.297 320.152L164.057 322H158.537L158.297 320.152C158.521 319.848 158.961 319.576 159.617 319.336V307.624C159.057 307.432 158.617 307.16 158.297 306.808L158.537 304.96ZM170.832 322.192C168.944 322.192 167.544 321.688 166.632 320.68C165.72 319.672 165.264 318.152 165.264 316.12C165.264 314.072 165.768 312.512 166.776 311.44C167.8 310.352 169.264 309.808 171.168 309.808C173.072 309.808 174.48 310.288 175.392 311.248C176.32 312.208 176.784 313.712 176.784 315.76C176.784 317.792 176.264 319.376 175.224 320.512C174.2 321.632 172.736 322.192 170.832 322.192ZM168.72 315.904C168.72 318.464 169.488 319.744 171.024 319.744C171.808 319.744 172.384 319.456 172.752 318.88C173.136 318.288 173.328 317.328 173.328 316C173.328 313.504 172.544 312.256 170.976 312.256C170.208 312.256 169.64 312.536 169.272 313.096C168.904 313.64 168.72 314.576 168.72 315.904ZM183.559 322.192C181.671 322.192 180.271 321.688 179.359 320.68C178.447 319.672 177.991 318.152 177.991 316.12C177.991 314.072 178.495 312.512 179.503 311.44C180.527 310.352 181.991 309.808 183.895 309.808C185.799 309.808 187.207 310.288 188.119 311.248C189.047 312.208 189.511 313.712 189.511 315.76C189.511 317.792 188.991 319.376 187.951 320.512C186.927 321.632 185.463 322.192 183.559 322.192ZM181.447 315.904C181.447 318.464 182.215 319.744 183.751 319.744C184.535 319.744 185.111 319.456 185.479 318.88C185.863 318.288 186.055 317.328 186.055 316C186.055 313.504 185.271 312.256 183.703 312.256C182.935 312.256 182.367 312.536 181.999 313.096C181.631 313.64 181.447 314.576 181.447 315.904ZM190.693 304.96C191.589 304.752 192.421 304.648 193.189 304.648C193.957 304.648 194.605 304.672 195.133 304.72V319.336C195.757 319.576 196.197 319.848 196.453 320.152L196.213 322H190.693L190.453 320.152C190.677 319.848 191.117 319.576 191.773 319.336V307.624C191.213 307.432 190.773 307.16 190.453 306.808L190.693 304.96ZM199.597 322L195.349 315.784L197.989 312.352C197.717 312.192 197.525 312.024 197.413 311.848L197.653 310H202.933L203.173 311.848C202.821 312.296 202.157 312.648 201.181 312.904L198.877 315.544L201.589 319.12C202.581 319.344 203.277 319.688 203.677 320.152L203.437 322H199.597ZM209.701 304.96C210.597 304.752 211.429 304.648 212.197 304.648C212.965 304.648 213.613 304.672 214.141 304.72V319.336C214.765 319.576 215.205 319.848 215.461 320.152L215.221 322H209.701L209.461 320.152C209.685 319.848 210.125 319.576 210.781 319.336V307.624C210.221 307.432 209.781 307.16 209.461 306.808L209.701 304.96ZM216.74 310C217.636 309.792 218.468 309.688 219.236 309.688C220.004 309.688 220.652 309.712 221.18 309.76V319.336C221.804 319.576 222.244 319.848 222.5 320.152L222.26 322H216.74L216.5 320.152C216.724 319.848 217.164 319.576 217.82 319.336V312.664C217.26 312.472 216.82 312.2 216.5 311.848L216.74 310ZM219.452 308.344C218.124 308.344 217.46 307.744 217.46 306.544C217.46 305.328 218.124 304.72 219.452 304.72C220.796 304.72 221.468 305.328 221.468 306.544C221.468 307.744 220.796 308.344 219.452 308.344ZM223.412 304.96C224.308 304.752 225.14 304.648 225.908 304.648C226.676 304.648 227.324 304.672 227.852 304.72V319.336C228.476 319.576 228.916 319.848 229.172 320.152L228.932 322H223.412L223.172 320.152C223.396 319.848 223.836 319.576 224.492 319.336V307.624C223.932 307.432 223.492 307.16 223.172 306.808L223.412 304.96ZM232.316 322L228.068 315.784L230.708 312.352C230.436 312.192 230.244 312.024 230.132 311.848L230.372 310H235.652L235.892 311.848C235.54 312.296 234.876 312.648 233.9 312.904L231.596 315.544L234.308 319.12C235.3 319.344 235.996 319.688 236.396 320.152L236.156 322H232.316ZM242.837 322.192C240.917 322.192 239.469 321.68 238.493 320.656C237.533 319.632 237.053 318.144 237.053 316.192C237.053 315.008 237.221 313.992 237.557 313.144C237.893 312.28 238.349 311.616 238.925 311.152C240.045 310.256 241.349 309.808 242.837 309.808C244.325 309.808 245.461 310.192 246.245 310.96C247.045 311.712 247.445 313.072 247.445 315.04C247.445 316.192 246.877 316.768 245.741 316.768H240.533C240.597 317.776 240.853 318.488 241.301 318.904C241.765 319.32 242.493 319.528 243.485 319.528C244.029 319.528 244.549 319.464 245.045 319.336C245.541 319.208 245.901 319.08 246.125 318.952L246.461 318.76L247.181 320.68C247.085 320.792 246.941 320.936 246.749 321.112C246.573 321.272 246.109 321.496 245.357 321.784C244.621 322.056 243.781 322.192 242.837 322.192ZM244.349 314.632C244.381 314.408 244.397 314.136 244.397 313.816C244.397 313.496 244.269 313.16 244.013 312.808C243.757 312.44 243.309 312.256 242.669 312.256C242.045 312.256 241.565 312.448 241.229 312.832C240.893 313.216 240.669 313.864 240.557 314.776L244.349 314.632ZM254.309 310C255.189 309.808 255.981 309.712 256.685 309.712C257.389 309.712 257.973 309.728 258.437 309.76V310.96C258.821 310.64 259.301 310.368 259.877 310.144C260.453 309.92 260.973 309.808 261.437 309.808C263.261 309.808 264.477 310.264 265.085 311.176C265.485 310.792 266.013 310.472 266.669 310.216C267.325 309.944 267.933 309.808 268.493 309.808C270.253 309.808 271.437 310.208 272.045 311.008C272.653 311.792 272.957 313.272 272.957 315.448V319.336C273.581 319.576 274.021 319.848 274.277 320.152L274.037 322H268.517L268.277 320.152C268.501 319.848 268.941 319.576 269.597 319.336V314.584C269.597 313.704 269.477 313.12 269.237 312.832C268.997 312.544 268.517 312.4 267.797 312.4C267.093 312.4 266.421 312.664 265.781 313.192C265.861 313.736 265.901 314.488 265.901 315.448V319.336C266.525 319.576 266.965 319.848 267.221 320.152L266.981 322H261.461L261.221 320.152C261.445 319.848 261.885 319.576 262.541 319.336V314.584C262.541 313.704 262.421 313.12 262.181 312.832C261.941 312.544 261.469 312.4 260.765 312.4C260.061 312.4 259.389 312.656 258.749 313.168V319.336C259.373 319.576 259.813 319.848 260.069 320.152L259.829 322H254.309L254.069 320.152C254.293 319.848 254.733 319.576 255.389 319.336V312.664C254.829 312.472 254.389 312.2 254.069 311.848L254.309 310ZM278.333 324.784C278.621 324.784 278.925 324.512 279.245 323.968C279.581 323.44 279.813 322.808 279.941 322.072L276.005 312.76C275.221 312.504 274.693 312.2 274.421 311.848L274.661 310H280.181L280.421 311.848C280.213 312.104 279.861 312.336 279.365 312.544L280.685 316.168C280.973 316.92 281.173 317.664 281.285 318.4L281.357 318.736H281.693C281.821 317.936 282.045 317.096 282.365 316.216L283.637 312.664C283.045 312.44 282.629 312.168 282.389 311.848L282.629 310H287.909L288.149 311.848C287.861 312.216 287.333 312.528 286.565 312.784L282.605 322.144C281.853 323.92 281.277 325.064 280.877 325.576C280.173 326.52 279.189 326.992 277.925 326.992C276.677 326.992 275.725 326.664 275.069 326.008C275.053 325.848 275.045 325.688 275.045 325.528C275.045 324.648 275.229 323.816 275.597 323.032H277.589C277.829 323.464 277.965 324.048 277.997 324.784H278.333ZM299.764 312.256C298.292 312.256 297.556 313.52 297.556 316.048C297.556 317.328 297.756 318.224 298.156 318.736C298.572 319.232 299.164 319.48 299.932 319.48C301.148 319.48 302.22 319.368 303.148 319.144L303.868 320.992C303.356 321.328 302.668 321.616 301.804 321.856C300.94 322.08 300.1 322.192 299.284 322.192C295.828 322.192 294.1 320.192 294.1 316.192C294.1 313.856 294.7 312.176 295.9 311.152C296.972 310.256 298.276 309.808 299.812 309.808C301.348 309.808 302.628 310.096 303.652 310.672C303.668 310.832 303.676 310.984 303.676 311.128C303.676 312.04 303.468 312.904 303.052 313.72H300.94C300.716 313.32 300.58 312.84 300.532 312.28C300.34 312.264 300.084 312.256 299.764 312.256ZM305.409 311.776C305.409 311.536 305.417 311.28 305.433 311.008C306.921 310.208 308.521 309.808 310.233 309.808C311.945 309.808 313.169 310.136 313.905 310.792C314.657 311.432 315.033 312.504 315.033 314.008V319.12C315.593 319.232 316.033 319.368 316.353 319.528V321.616C315.537 322 314.369 322.192 312.849 322.192C312.689 321.776 312.553 321.272 312.441 320.68C311.753 321.688 310.505 322.192 308.697 322.192C307.625 322.192 306.705 321.88 305.937 321.256C305.185 320.632 304.809 319.784 304.809 318.712C304.809 317.64 305.161 316.8 305.865 316.192C306.585 315.568 307.649 315.256 309.057 315.256H311.673V314.104C311.673 312.856 311.009 312.232 309.681 312.232C309.185 312.232 308.777 312.28 308.457 312.376C308.425 313.048 308.329 313.568 308.169 313.936H305.817C305.545 313.376 305.409 312.656 305.409 311.776ZM309.729 319.744C310.545 319.744 311.193 319.504 311.673 319.024V317.056H309.993C308.841 317.056 308.265 317.496 308.265 318.376C308.265 318.776 308.385 319.104 308.625 319.36C308.881 319.616 309.249 319.744 309.729 319.744ZM324.41 312.952C323.194 312.952 322.354 313.184 321.89 313.648V319.144C323.186 319.384 324.074 319.72 324.554 320.152L324.314 322H317.45L317.21 320.152C317.434 319.848 317.874 319.576 318.53 319.336V312.664C317.97 312.472 317.53 312.2 317.21 311.848L317.45 310C318.33 309.808 319.122 309.712 319.826 309.712C320.53 309.712 321.114 309.728 321.578 309.76V311.272C321.946 310.84 322.418 310.488 322.994 310.216C323.57 309.928 324.09 309.784 324.554 309.784C325.034 309.784 325.362 309.824 325.538 309.904L325.466 313.024C325.146 312.976 324.794 312.952 324.41 312.952ZM332.755 304.96C333.667 304.752 334.539 304.648 335.371 304.648C336.203 304.648 336.915 304.672 337.507 304.72V319.12C337.987 319.2 338.427 319.336 338.827 319.528V321.424C337.867 321.936 336.651 322.192 335.179 322.192C335.019 322.112 334.859 321.968 334.699 321.76C334.555 321.552 334.475 321.352 334.459 321.16C334.107 321.448 333.651 321.696 333.091 321.904C332.531 322.096 331.979 322.192 331.435 322.192C329.707 322.192 328.451 321.728 327.667 320.8C326.899 319.856 326.515 318.32 326.515 316.192C326.515 313.776 327.107 312.08 328.291 311.104C329.331 310.24 330.611 309.808 332.131 309.808C332.803 309.808 333.475 309.888 334.147 310.048V307.672C333.411 307.464 332.867 307.176 332.515 306.808L332.755 304.96ZM331.939 319.744C332.851 319.744 333.587 319.472 334.147 318.928V312.496C333.491 312.336 332.795 312.256 332.059 312.256C331.323 312.256 330.787 312.584 330.451 313.24C330.131 313.88 329.971 314.848 329.971 316.144C329.971 317.424 330.131 318.344 330.451 318.904C330.771 319.464 331.267 319.744 331.939 319.744ZM356.546 322.144L355.322 318.352C355.066 317.584 354.866 316.624 354.722 315.472L354.65 314.896H354.314C354.154 316.144 353.914 317.288 353.594 318.328L352.466 322.144H349.058L346.034 312.712C345.346 312.472 344.874 312.184 344.618 311.848L344.858 310H350.474L350.714 311.848C350.426 312.184 349.938 312.472 349.25 312.712L350.642 318.832H350.978C351.154 317.984 351.362 317.112 351.602 316.216L353.234 310.048H355.922L357.53 316.168L358.13 318.832H358.466C359.058 316.128 359.458 314.312 359.666 313.384L359.81 312.712C359.09 312.456 358.61 312.168 358.37 311.848L358.61 310H363.938L364.178 311.848C363.906 312.216 363.402 312.52 362.666 312.76L359.666 322.144H356.546ZM365.081 311.776C365.081 311.536 365.089 311.28 365.105 311.008C366.593 310.208 368.193 309.808 369.905 309.808C371.617 309.808 372.841 310.136 373.577 310.792C374.329 311.432 374.705 312.504 374.705 314.008V319.12C375.265 319.232 375.705 319.368 376.025 319.528V321.616C375.209 322 374.041 322.192 372.521 322.192C372.361 321.776 372.225 321.272 372.113 320.68C371.425 321.688 370.177 322.192 368.369 322.192C367.297 322.192 366.377 321.88 365.609 321.256C364.857 320.632 364.481 319.784 364.481 318.712C364.481 317.64 364.833 316.8 365.537 316.192C366.257 315.568 367.321 315.256 368.729 315.256H371.345V314.104C371.345 312.856 370.681 312.232 369.353 312.232C368.857 312.232 368.449 312.28 368.129 312.376C368.097 313.048 368.001 313.568 367.841 313.936H365.489C365.217 313.376 365.081 312.656 365.081 311.776ZM369.401 319.744C370.217 319.744 370.865 319.504 371.345 319.024V317.056H369.665C368.513 317.056 367.937 317.496 367.937 318.376C367.937 318.776 368.057 319.104 368.297 319.36C368.553 319.616 368.921 319.744 369.401 319.744ZM381.682 311.968C380.626 311.968 380.098 312.28 380.098 312.904C380.098 313.496 380.65 313.936 381.754 314.224L383.65 314.728C385.602 315.24 386.578 316.368 386.578 318.112C386.578 319.312 386.154 320.296 385.306 321.064C384.474 321.816 383.138 322.192 381.298 322.192C379.474 322.192 378.05 321.936 377.026 321.424C377.01 321.248 377.002 321.072 377.002 320.896C377.002 320.016 377.178 319.224 377.53 318.52H379.522C379.73 318.904 379.866 319.304 379.93 319.72C380.25 319.816 380.706 319.864 381.298 319.864C382.706 319.864 383.41 319.464 383.41 318.664C383.41 318.408 383.314 318.2 383.122 318.04C382.93 317.864 382.554 317.696 381.994 317.536L380.098 316.984C379.122 316.712 378.362 316.312 377.818 315.784C377.274 315.24 377.002 314.448 377.002 313.408C377.002 312.352 377.426 311.488 378.274 310.816C379.122 310.144 380.33 309.808 381.898 309.808C383.482 309.808 384.818 310.04 385.906 310.504C385.922 310.664 385.93 310.824 385.93 310.984C385.93 311.816 385.754 312.584 385.402 313.288H383.434C383.226 312.92 383.09 312.536 383.026 312.136C382.578 312.024 382.13 311.968 381.682 311.968ZM397.469 306.976V310H400.901V312.016H397.469V318.088C397.469 318.6 397.541 318.976 397.685 319.216C397.829 319.44 398.173 319.552 398.717 319.552C399.261 319.552 399.845 319.432 400.469 319.192L401.189 321.064C399.957 321.688 398.693 322 397.397 322C396.117 322 395.245 321.728 394.781 321.184C394.333 320.624 394.109 319.816 394.109 318.76V312.016H393.029L392.765 310.552C393.021 310.248 393.549 309.944 394.349 309.64C394.541 308.328 394.997 307.44 395.717 306.976H397.469ZM401.982 304.96C402.878 304.752 403.71 304.648 404.478 304.648C405.246 304.648 405.894 304.672 406.422 304.72V310.72C406.806 310.464 407.318 310.248 407.958 310.072C408.598 309.896 409.166 309.808 409.662 309.808C411.246 309.808 412.342 310.192 412.95 310.96C413.558 311.728 413.862 312.896 413.862 314.464V319.336C414.486 319.576 414.926 319.848 415.182 320.152L414.942 322H409.422L409.182 320.152C409.406 319.848 409.846 319.576 410.502 319.336V314.584C410.502 313.72 410.358 313.144 410.07 312.856C409.798 312.552 409.294 312.4 408.558 312.4C407.822 312.4 407.11 312.656 406.422 313.168V319.336C407.046 319.576 407.486 319.848 407.742 320.152L407.502 322H401.982L401.742 320.152C401.966 319.848 402.406 319.576 403.062 319.336V307.624C402.502 307.432 402.062 307.16 401.742 306.808L401.982 304.96ZM421.782 322.192C419.862 322.192 418.414 321.68 417.438 320.656C416.478 319.632 415.998 318.144 415.998 316.192C415.998 315.008 416.166 313.992 416.502 313.144C416.838 312.28 417.294 311.616 417.87 311.152C418.99 310.256 420.294 309.808 421.782 309.808C423.27 309.808 424.406 310.192 425.19 310.96C425.99 311.712 426.39 313.072 426.39 315.04C426.39 316.192 425.822 316.768 424.686 316.768H419.478C419.542 317.776 419.798 318.488 420.246 318.904C420.71 319.32 421.438 319.528 422.43 319.528C422.974 319.528 423.494 319.464 423.99 319.336C424.486 319.208 424.846 319.08 425.07 318.952L425.406 318.76L426.126 320.68C426.03 320.792 425.886 320.936 425.694 321.112C425.518 321.272 425.054 321.496 424.302 321.784C423.566 322.056 422.726 322.192 421.782 322.192ZM423.294 314.632C423.326 314.408 423.342 314.136 423.342 313.816C423.342 313.496 423.214 313.16 422.958 312.808C422.702 312.44 422.254 312.256 421.614 312.256C420.99 312.256 420.51 312.448 420.174 312.832C419.838 313.216 419.614 313.864 419.502 314.776L423.294 314.632ZM434.824 312.952C433.608 312.952 432.768 313.184 432.304 313.648V319.144C433.6 319.384 434.488 319.72 434.968 320.152L434.728 322H427.864L427.624 320.152C427.848 319.848 428.288 319.576 428.944 319.336V312.664C428.384 312.472 427.944 312.2 427.624 311.848L427.864 310C428.744 309.808 429.536 309.712 430.24 309.712C430.944 309.712 431.528 309.728 431.992 309.76V311.272C432.36 310.84 432.832 310.488 433.408 310.216C433.984 309.928 434.504 309.784 434.968 309.784C435.448 309.784 435.776 309.824 435.952 309.904L435.88 313.024C435.56 312.976 435.208 312.952 434.824 312.952ZM442.689 322.192C440.769 322.192 439.321 321.68 438.345 320.656C437.385 319.632 436.905 318.144 436.905 316.192C436.905 315.008 437.073 313.992 437.409 313.144C437.745 312.28 438.201 311.616 438.777 311.152C439.897 310.256 441.201 309.808 442.689 309.808C444.177 309.808 445.313 310.192 446.097 310.96C446.897 311.712 447.297 313.072 447.297 315.04C447.297 316.192 446.729 316.768 445.593 316.768H440.385C440.449 317.776 440.705 318.488 441.153 318.904C441.617 319.32 442.345 319.528 443.337 319.528C443.881 319.528 444.401 319.464 444.897 319.336C445.393 319.208 445.753 319.08 445.977 318.952L446.313 318.76L447.033 320.68C446.937 320.792 446.793 320.936 446.601 321.112C446.425 321.272 445.961 321.496 445.209 321.784C444.473 322.056 443.633 322.192 442.689 322.192ZM444.201 314.632C444.233 314.408 444.249 314.136 444.249 313.816C444.249 313.496 444.121 313.16 443.865 312.808C443.609 312.44 443.161 312.256 442.521 312.256C441.897 312.256 441.417 312.448 441.081 312.832C440.745 313.216 440.521 313.864 440.409 314.776L444.201 314.632ZM450.786 322.24C449.458 322.24 448.794 321.64 448.794 320.44C448.794 319.224 449.458 318.616 450.786 318.616C452.13 318.616 452.802 319.224 452.802 320.44C452.802 321.64 452.13 322.24 450.786 322.24ZM22.12 333.96C23.016 333.752 23.848 333.648 24.616 333.648C25.384 333.648 26.032 333.672 26.56 333.72V339.72C26.896 339.48 27.344 339.272 27.904 339.096C28.464 338.904 29 338.808 29.512 338.808C31.256 338.808 32.48 339.256 33.184 340.152C33.888 341.048 34.24 342.576 34.24 344.736C34.24 345.936 34.072 346.976 33.736 347.856C33.416 348.72 32.976 349.384 32.416 349.848C31.36 350.744 30.112 351.192 28.672 351.192C27.584 351.192 26.512 350.92 25.456 350.376C25.152 350.792 24.8 351 24.4 351H23.2V336.624C22.64 336.432 22.2 336.16 21.88 335.808L22.12 333.96ZM28.48 348.744C30.016 348.744 30.784 347.456 30.784 344.88C30.784 343.52 30.648 342.6 30.376 342.12C30.12 341.624 29.664 341.376 29.008 341.376C28.016 341.376 27.2 341.64 26.56 342.168V348.336C27.248 348.608 27.888 348.744 28.48 348.744ZM44.3706 349.992C43.2666 350.792 41.9626 351.192 40.4586 351.192C38.9706 351.192 37.9306 350.88 37.3386 350.256C36.7466 349.632 36.4506 348.616 36.4506 347.208V341.664C35.8906 341.472 35.4506 341.2 35.1306 340.848L35.3706 339C36.2666 338.792 37.0986 338.688 37.8666 338.688C38.6346 338.688 39.2826 338.712 39.8106 338.76V346.416C39.8106 347.28 39.9386 347.856 40.1946 348.144C40.4666 348.416 40.9946 348.552 41.7786 348.552C42.5626 348.552 43.2906 348.296 43.9626 347.784V341.664C43.4026 341.472 42.9626 341.2 42.6426 340.848L42.8826 339C43.7786 338.792 44.6106 338.688 45.3786 338.688C46.1466 338.688 46.7946 338.712 47.3226 338.76V348.12C47.8826 348.232 48.3226 348.368 48.6426 348.528V350.424C47.6826 350.936 46.4746 351.192 45.0186 351.192C44.6186 350.904 44.4026 350.504 44.3706 349.992ZM53.992 335.976V339H57.424V341.016H53.992V347.088C53.992 347.6 54.064 347.976 54.208 348.216C54.352 348.44 54.696 348.552 55.24 348.552C55.784 348.552 56.368 348.432 56.992 348.192L57.712 350.064C56.48 350.688 55.216 351 53.92 351C52.64 351 51.768 350.728 51.304 350.184C50.856 349.624 50.632 348.816 50.632 347.76V341.016H49.552L49.288 339.552C49.544 339.248 50.072 338.944 50.872 338.64C51.064 337.328 51.52 336.44 52.24 335.976H53.992ZM67.1843 353.784C67.4723 353.784 67.7763 353.512 68.0963 352.968C68.4323 352.44 68.6643 351.808 68.7923 351.072L64.8563 341.76C64.0723 341.504 63.5443 341.2 63.2723 340.848L63.5123 339H69.0323L69.2723 340.848C69.0643 341.104 68.7123 341.336 68.2163 341.544L69.5363 345.168C69.8243 345.92 70.0243 346.664 70.1363 347.4L70.2083 347.736H70.5443C70.6723 346.936 70.8963 346.096 71.2163 345.216L72.4883 341.664C71.8963 341.44 71.4803 341.168 71.2403 340.848L71.4803 339H76.7603L77.0003 340.848C76.7123 341.216 76.1843 341.528 75.4163 341.784L71.4563 351.144C70.7043 352.92 70.1283 354.064 69.7283 354.576C69.0243 355.52 68.0403 355.992 66.7763 355.992C65.5283 355.992 64.5763 355.664 63.9203 355.008C63.9043 354.848 63.8963 354.688 63.8963 354.528C63.8963 353.648 64.0803 352.816 64.4483 352.032H66.4403C66.6803 352.464 66.8163 353.048 66.8483 353.784H67.1843ZM82.7071 351.192C80.8191 351.192 79.4191 350.688 78.5071 349.68C77.5951 348.672 77.1391 347.152 77.1391 345.12C77.1391 343.072 77.6431 341.512 78.6511 340.44C79.6751 339.352 81.1391 338.808 83.0431 338.808C84.9471 338.808 86.3551 339.288 87.2671 340.248C88.1951 341.208 88.6591 342.712 88.6591 344.76C88.6591 346.792 88.1391 348.376 87.0991 349.512C86.0751 350.632 84.6111 351.192 82.7071 351.192ZM80.5951 344.904C80.5951 347.464 81.3631 348.744 82.8991 348.744C83.6831 348.744 84.2591 348.456 84.6271 347.88C85.0111 347.288 85.2031 346.328 85.2031 345C85.2031 342.504 84.4191 341.256 82.8511 341.256C82.0831 341.256 81.5151 341.536 81.1471 342.096C80.7791 342.64 80.5951 343.576 80.5951 344.904ZM98.7456 349.992C97.6416 350.792 96.3376 351.192 94.8336 351.192C93.3456 351.192 92.3056 350.88 91.7136 350.256C91.1216 349.632 90.8256 348.616 90.8256 347.208V341.664C90.2656 341.472 89.8256 341.2 89.5056 340.848L89.7456 339C90.6416 338.792 91.4736 338.688 92.2416 338.688C93.0096 338.688 93.6576 338.712 94.1856 338.76V346.416C94.1856 347.28 94.3136 347.856 94.5696 348.144C94.8416 348.416 95.3696 348.552 96.1536 348.552C96.9376 348.552 97.6656 348.296 98.3376 347.784V341.664C97.7776 341.472 97.3376 341.2 97.0176 340.848L97.2576 339C98.1536 338.792 98.9856 338.688 99.7536 338.688C100.522 338.688 101.17 338.712 101.698 338.76V348.12C102.258 348.232 102.698 348.368 103.018 348.528V350.424C102.058 350.936 100.85 351.192 99.3936 351.192C98.9936 350.904 98.7776 350.504 98.7456 349.992ZM110.71 338.544C110.71 336.88 111.07 335.632 111.79 334.8C112.51 333.952 113.654 333.528 115.222 333.528C116.79 333.528 118.15 333.952 119.302 334.8C119.318 334.912 119.326 335.08 119.326 335.304C119.326 335.512 119.27 335.864 119.158 336.36C119.046 336.856 118.894 337.256 118.702 337.56H116.686C116.398 337.016 116.246 336.504 116.23 336.024C116.038 335.992 115.878 335.976 115.75 335.976C115.142 335.976 114.71 336.144 114.454 336.48C114.198 336.816 114.07 337.424 114.07 338.304V339.216H117.742V341.424H114.07V348.216C115.27 348.456 116.086 348.768 116.518 349.152L116.278 351H109.63L109.39 349.152C109.614 348.848 110.054 348.576 110.71 348.336V341.424H109.654L109.39 339.768C109.742 339.448 110.182 339.264 110.71 339.216V338.544ZM123.98 351.192C122.093 351.192 120.693 350.688 119.781 349.68C118.869 348.672 118.413 347.152 118.413 345.12C118.413 343.072 118.917 341.512 119.925 340.44C120.949 339.352 122.413 338.808 124.317 338.808C126.221 338.808 127.629 339.288 128.541 340.248C129.469 341.208 129.932 342.712 129.932 344.76C129.932 346.792 129.413 348.376 128.373 349.512C127.349 350.632 125.885 351.192 123.98 351.192ZM121.869 344.904C121.869 347.464 122.637 348.744 124.173 348.744C124.957 348.744 125.533 348.456 125.901 347.88C126.285 347.288 126.477 346.328 126.477 345C126.477 342.504 125.693 341.256 124.125 341.256C123.357 341.256 122.789 341.536 122.421 342.096C122.053 342.64 121.869 343.576 121.869 344.904ZM140.019 349.992C138.915 350.792 137.611 351.192 136.107 351.192C134.619 351.192 133.579 350.88 132.987 350.256C132.395 349.632 132.099 348.616 132.099 347.208V341.664C131.539 341.472 131.099 341.2 130.779 340.848L131.019 339C131.915 338.792 132.747 338.688 133.515 338.688C134.283 338.688 134.931 338.712 135.459 338.76V346.416C135.459 347.28 135.587 347.856 135.843 348.144C136.115 348.416 136.643 348.552 137.427 348.552C138.211 348.552 138.939 348.296 139.611 347.784V341.664C139.051 341.472 138.611 341.2 138.291 340.848L138.531 339C139.427 338.792 140.259 338.688 141.027 338.688C141.795 338.688 142.443 338.712 142.971 338.76V348.12C143.531 348.232 143.971 348.368 144.291 348.528V350.424C143.331 350.936 142.123 351.192 140.667 351.192C140.267 350.904 140.051 350.504 140.019 349.992ZM145.512 339C146.392 338.808 147.184 338.712 147.888 338.712C148.592 338.712 149.176 338.728 149.64 338.76V339.96C150.04 339.624 150.568 339.352 151.224 339.144C151.896 338.92 152.536 338.808 153.144 338.808C154.712 338.808 155.808 339.176 156.432 339.912C157.072 340.648 157.392 341.92 157.392 343.728V348.336C158.016 348.576 158.456 348.848 158.712 349.152L158.472 351H152.952L152.712 349.152C152.936 348.848 153.376 348.576 154.032 348.336V343.584C154.032 342.72 153.888 342.144 153.6 341.856C153.328 341.552 152.832 341.4 152.112 341.4C151.392 341.4 150.672 341.656 149.952 342.168V348.336C150.576 348.576 151.016 348.848 151.272 349.152L151.032 351H145.512L145.272 349.152C145.496 348.848 145.936 348.576 146.592 348.336V341.664C146.032 341.472 145.592 341.2 145.272 340.848L145.512 339ZM165.786 333.96C166.698 333.752 167.57 333.648 168.402 333.648C169.234 333.648 169.946 333.672 170.538 333.72V348.12C171.018 348.2 171.458 348.336 171.858 348.528V350.424C170.898 350.936 169.682 351.192 168.21 351.192C168.05 351.112 167.89 350.968 167.73 350.76C167.586 350.552 167.506 350.352 167.49 350.16C167.138 350.448 166.682 350.696 166.122 350.904C165.562 351.096 165.01 351.192 164.466 351.192C162.738 351.192 161.482 350.728 160.698 349.8C159.93 348.856 159.546 347.32 159.546 345.192C159.546 342.776 160.138 341.08 161.322 340.104C162.362 339.24 163.642 338.808 165.162 338.808C165.834 338.808 166.506 338.888 167.178 339.048V336.672C166.442 336.464 165.898 336.176 165.546 335.808L165.786 333.96ZM164.97 348.744C165.882 348.744 166.618 348.472 167.178 347.928V341.496C166.522 341.336 165.826 341.256 165.09 341.256C164.354 341.256 163.818 341.584 163.482 342.24C163.162 342.88 163.002 343.848 163.002 345.144C163.002 346.424 163.162 347.344 163.482 347.904C163.802 348.464 164.298 348.744 164.97 348.744ZM178.729 340.776C178.729 340.536 178.737 340.28 178.753 340.008C180.241 339.208 181.841 338.808 183.553 338.808C185.265 338.808 186.489 339.136 187.225 339.792C187.977 340.432 188.353 341.504 188.353 343.008V348.12C188.913 348.232 189.353 348.368 189.673 348.528V350.616C188.857 351 187.689 351.192 186.169 351.192C186.009 350.776 185.873 350.272 185.761 349.68C185.073 350.688 183.825 351.192 182.017 351.192C180.945 351.192 180.025 350.88 179.257 350.256C178.505 349.632 178.129 348.784 178.129 347.712C178.129 346.64 178.481 345.8 179.185 345.192C179.905 344.568 180.969 344.256 182.377 344.256H184.993V343.104C184.993 341.856 184.329 341.232 183.001 341.232C182.505 341.232 182.097 341.28 181.777 341.376C181.745 342.048 181.649 342.568 181.489 342.936H179.137C178.865 342.376 178.729 341.656 178.729 340.776ZM183.049 348.744C183.865 348.744 184.513 348.504 184.993 348.024V346.056H183.313C182.161 346.056 181.585 346.496 181.585 347.376C181.585 347.776 181.705 348.104 181.945 348.36C182.201 348.616 182.569 348.744 183.049 348.744ZM195.873 333.96C196.769 333.752 197.601 333.648 198.369 333.648C199.137 333.648 199.785 333.672 200.313 333.72V348.336C200.937 348.576 201.377 348.848 201.633 349.152L201.393 351H195.873L195.633 349.152C195.857 348.848 196.297 348.576 196.953 348.336V336.624C196.393 336.432 195.953 336.16 195.633 335.808L195.873 333.96ZM204.777 351L200.529 344.784L203.169 341.352C202.897 341.192 202.705 341.024 202.593 340.848L202.833 339H208.113L208.353 340.848C208.001 341.296 207.337 341.648 206.361 341.904L204.057 344.544L206.769 348.12C207.761 348.344 208.457 348.688 208.857 349.152L208.617 351H204.777ZM215.298 351.192C213.378 351.192 211.93 350.68 210.954 349.656C209.994 348.632 209.514 347.144 209.514 345.192C209.514 344.008 209.682 342.992 210.018 342.144C210.354 341.28 210.81 340.616 211.386 340.152C212.506 339.256 213.81 338.808 215.298 338.808C216.786 338.808 217.922 339.192 218.706 339.96C219.506 340.712 219.906 342.072 219.906 344.04C219.906 345.192 219.338 345.768 218.202 345.768H212.994C213.058 346.776 213.314 347.488 213.762 347.904C214.226 348.32 214.954 348.528 215.946 348.528C216.49 348.528 217.01 348.464 217.506 348.336C218.002 348.208 218.362 348.08 218.586 347.952L218.922 347.76L219.642 349.68C219.546 349.792 219.402 349.936 219.21 350.112C219.034 350.272 218.57 350.496 217.818 350.784C217.082 351.056 216.242 351.192 215.298 351.192ZM216.81 343.632C216.842 343.408 216.858 343.136 216.858 342.816C216.858 342.496 216.73 342.16 216.474 341.808C216.218 341.44 215.77 341.256 215.13 341.256C214.506 341.256 214.026 341.448 213.69 341.832C213.354 342.216 213.13 342.864 213.018 343.776L216.81 343.632ZM224.145 353.784C224.433 353.784 224.737 353.512 225.057 352.968C225.393 352.44 225.625 351.808 225.753 351.072L221.817 341.76C221.033 341.504 220.505 341.2 220.233 340.848L220.473 339H225.993L226.233 340.848C226.025 341.104 225.673 341.336 225.177 341.544L226.497 345.168C226.785 345.92 226.985 346.664 227.097 347.4L227.169 347.736H227.505C227.633 346.936 227.857 346.096 228.177 345.216L229.449 341.664C228.857 341.44 228.441 341.168 228.201 340.848L228.441 339H233.721L233.961 340.848C233.673 341.216 233.145 341.528 232.377 341.784L228.417 351.144C227.665 352.92 227.089 354.064 226.689 354.576C225.985 355.52 225.001 355.992 223.737 355.992C222.489 355.992 221.537 355.664 220.881 355.008C220.865 354.848 220.857 354.688 220.857 354.528C220.857 353.648 221.041 352.816 221.409 352.032H223.401C223.641 352.464 223.777 353.048 223.809 353.784H224.145ZM235.41 338.76C235.41 337.416 235.466 335.976 235.578 334.44H238.986C239.082 335.864 239.13 337.208 239.13 338.472C239.13 341.464 238.866 344.024 238.338 346.152H236.178C235.666 344.072 235.41 341.608 235.41 338.76ZM237.258 351.24C235.994 351.24 235.362 350.648 235.362 349.464C235.362 348.28 235.994 347.688 237.258 347.688C238.538 347.688 239.178 348.28 239.178 349.464C239.178 350.648 238.538 351.24 237.258 351.24ZM246.928 339C247.824 338.792 248.656 338.688 249.424 338.688C250.192 338.688 250.84 338.712 251.368 338.76V348.336C251.992 348.576 252.432 348.848 252.688 349.152L252.448 351H246.928L246.688 349.152C246.912 348.848 247.352 348.576 248.008 348.336V341.664C247.448 341.472 247.008 341.2 246.688 340.848L246.928 339ZM249.64 337.344C248.312 337.344 247.648 336.744 247.648 335.544C247.648 334.328 248.312 333.72 249.64 333.72C250.984 333.72 251.656 334.328 251.656 335.544C251.656 336.744 250.984 337.344 249.64 337.344ZM270.366 351.144L269.142 347.352C268.886 346.584 268.686 345.624 268.542 344.472L268.47 343.896H268.134C267.974 345.144 267.734 346.288 267.414 347.328L266.286 351.144H262.878L259.854 341.712C259.166 341.472 258.694 341.184 258.438 340.848L258.678 339H264.294L264.534 340.848C264.246 341.184 263.758 341.472 263.07 341.712L264.462 347.832H264.798C264.974 346.984 265.182 346.112 265.422 345.216L267.054 339.048H269.742L271.35 345.168L271.95 347.832H272.286C272.878 345.128 273.278 343.312 273.486 342.384L273.63 341.712C272.91 341.456 272.43 341.168 272.19 340.848L272.43 339H277.758L277.998 340.848C277.726 341.216 277.222 341.52 276.486 341.76L273.486 351.144H270.366ZM283.754 351.192C281.866 351.192 280.466 350.688 279.554 349.68C278.642 348.672 278.186 347.152 278.186 345.12C278.186 343.072 278.69 341.512 279.698 340.44C280.722 339.352 282.186 338.808 284.09 338.808C285.994 338.808 287.402 339.288 288.314 340.248C289.242 341.208 289.706 342.712 289.706 344.76C289.706 346.792 289.186 348.376 288.146 349.512C287.122 350.632 285.658 351.192 283.754 351.192ZM281.642 344.904C281.642 347.464 282.41 348.744 283.946 348.744C284.73 348.744 285.306 348.456 285.674 347.88C286.058 347.288 286.25 346.328 286.25 345C286.25 342.504 285.466 341.256 283.898 341.256C283.13 341.256 282.562 341.536 282.194 342.096C281.826 342.64 281.642 343.576 281.642 344.904ZM291.177 339C292.057 338.808 292.849 338.712 293.553 338.712C294.257 338.712 294.841 338.728 295.305 338.76V339.96C295.705 339.624 296.233 339.352 296.889 339.144C297.561 338.92 298.201 338.808 298.809 338.808C300.377 338.808 301.473 339.176 302.097 339.912C302.737 340.648 303.057 341.92 303.057 343.728V348.336C303.681 348.576 304.121 348.848 304.377 349.152L304.137 351H298.617L298.377 349.152C298.601 348.848 299.041 348.576 299.697 348.336V343.584C299.697 342.72 299.553 342.144 299.265 341.856C298.993 341.552 298.497 341.4 297.777 341.4C297.057 341.4 296.337 341.656 295.617 342.168V348.336C296.241 348.576 296.681 348.848 296.937 349.152L296.697 351H291.177L290.937 349.152C291.161 348.848 291.601 348.576 292.257 348.336V341.664C291.697 341.472 291.257 341.2 290.937 340.848L291.177 339ZM311.45 333.96C312.362 333.752 313.234 333.648 314.066 333.648C314.898 333.648 315.61 333.672 316.202 333.72V348.12C316.682 348.2 317.122 348.336 317.522 348.528V350.424C316.562 350.936 315.346 351.192 313.874 351.192C313.714 351.112 313.554 350.968 313.394 350.76C313.25 350.552 313.17 350.352 313.154 350.16C312.802 350.448 312.346 350.696 311.786 350.904C311.226 351.096 310.674 351.192 310.13 351.192C308.402 351.192 307.146 350.728 306.362 349.8C305.594 348.856 305.21 347.32 305.21 345.192C305.21 342.776 305.802 341.08 306.986 340.104C308.026 339.24 309.306 338.808 310.826 338.808C311.498 338.808 312.17 338.888 312.842 339.048V336.672C312.106 336.464 311.562 336.176 311.21 335.808L311.45 333.96ZM310.634 348.744C311.546 348.744 312.282 348.472 312.842 347.928V341.496C312.186 341.336 311.49 341.256 310.754 341.256C310.018 341.256 309.482 341.584 309.146 342.24C308.826 342.88 308.666 343.848 308.666 345.144C308.666 346.424 308.826 347.344 309.146 347.904C309.466 348.464 309.962 348.744 310.634 348.744ZM324.282 351.192C322.362 351.192 320.914 350.68 319.938 349.656C318.978 348.632 318.498 347.144 318.498 345.192C318.498 344.008 318.666 342.992 319.002 342.144C319.338 341.28 319.794 340.616 320.37 340.152C321.49 339.256 322.794 338.808 324.282 338.808C325.77 338.808 326.906 339.192 327.69 339.96C328.49 340.712 328.89 342.072 328.89 344.04C328.89 345.192 328.322 345.768 327.186 345.768H321.978C322.042 346.776 322.298 347.488 322.746 347.904C323.21 348.32 323.938 348.528 324.93 348.528C325.474 348.528 325.994 348.464 326.49 348.336C326.986 348.208 327.346 348.08 327.57 347.952L327.906 347.76L328.626 349.68C328.53 349.792 328.386 349.936 328.194 350.112C328.018 350.272 327.554 350.496 326.802 350.784C326.066 351.056 325.226 351.192 324.282 351.192ZM325.794 343.632C325.826 343.408 325.842 343.136 325.842 342.816C325.842 342.496 325.714 342.16 325.458 341.808C325.202 341.44 324.754 341.256 324.114 341.256C323.49 341.256 323.01 341.448 322.674 341.832C322.338 342.216 322.114 342.864 322.002 343.776L325.794 343.632ZM337.324 341.952C336.108 341.952 335.268 342.184 334.804 342.648V348.144C336.1 348.384 336.988 348.72 337.468 349.152L337.228 351H330.364L330.124 349.152C330.348 348.848 330.788 348.576 331.444 348.336V341.664C330.884 341.472 330.444 341.2 330.124 340.848L330.364 339C331.244 338.808 332.036 338.712 332.74 338.712C333.444 338.712 334.028 338.728 334.492 338.76V340.272C334.86 339.84 335.332 339.488 335.908 339.216C336.484 338.928 337.004 338.784 337.468 338.784C337.948 338.784 338.276 338.824 338.452 338.904L338.38 342.024C338.06 341.976 337.708 341.952 337.324 341.952ZM356.147 351.144L354.923 347.352C354.667 346.584 354.467 345.624 354.323 344.472L354.251 343.896H353.915C353.755 345.144 353.515 346.288 353.195 347.328L352.067 351.144H348.659L345.635 341.712C344.947 341.472 344.475 341.184 344.219 340.848L344.459 339H350.075L350.315 340.848C350.027 341.184 349.539 341.472 348.851 341.712L350.243 347.832H350.579C350.755 346.984 350.963 346.112 351.203 345.216L352.835 339.048H355.523L357.131 345.168L357.731 347.832H358.067C358.659 345.128 359.059 343.312 359.267 342.384L359.411 341.712C358.691 341.456 358.211 341.168 357.971 340.848L358.211 339H363.539L363.779 340.848C363.507 341.216 363.003 341.52 362.267 341.76L359.267 351.144H356.147ZM364.107 333.96C365.003 333.752 365.835 333.648 366.603 333.648C367.371 333.648 368.019 333.672 368.547 333.72V339.72C368.931 339.464 369.443 339.248 370.083 339.072C370.723 338.896 371.291 338.808 371.787 338.808C373.371 338.808 374.467 339.192 375.075 339.96C375.683 340.728 375.987 341.896 375.987 343.464V348.336C376.611 348.576 377.051 348.848 377.307 349.152L377.067 351H371.547L371.307 349.152C371.531 348.848 371.971 348.576 372.627 348.336V343.584C372.627 342.72 372.483 342.144 372.195 341.856C371.923 341.552 371.419 341.4 370.683 341.4C369.947 341.4 369.235 341.656 368.547 342.168V348.336C369.171 348.576 369.611 348.848 369.867 349.152L369.627 351H364.107L363.867 349.152C364.091 348.848 364.531 348.576 365.187 348.336V336.624C364.627 336.432 364.187 336.16 363.867 335.808L364.107 333.96ZM383.907 351.192C381.987 351.192 380.539 350.68 379.563 349.656C378.603 348.632 378.123 347.144 378.123 345.192C378.123 344.008 378.291 342.992 378.627 342.144C378.963 341.28 379.419 340.616 379.995 340.152C381.115 339.256 382.419 338.808 383.907 338.808C385.395 338.808 386.531 339.192 387.315 339.96C388.115 340.712 388.515 342.072 388.515 344.04C388.515 345.192 387.947 345.768 386.811 345.768H381.603C381.667 346.776 381.923 347.488 382.371 347.904C382.835 348.32 383.563 348.528 384.555 348.528C385.099 348.528 385.619 348.464 386.115 348.336C386.611 348.208 386.971 348.08 387.195 347.952L387.531 347.76L388.251 349.68C388.155 349.792 388.011 349.936 387.819 350.112C387.643 350.272 387.179 350.496 386.427 350.784C385.691 351.056 384.851 351.192 383.907 351.192ZM385.419 343.632C385.451 343.408 385.467 343.136 385.467 342.816C385.467 342.496 385.339 342.16 385.083 341.808C384.827 341.44 384.379 341.256 383.739 341.256C383.115 341.256 382.635 341.448 382.299 341.832C381.963 342.216 381.739 342.864 381.627 343.776L385.419 343.632ZM396.949 341.952C395.733 341.952 394.893 342.184 394.429 342.648V348.144C395.725 348.384 396.613 348.72 397.093 349.152L396.853 351H389.989L389.749 349.152C389.973 348.848 390.413 348.576 391.069 348.336V341.664C390.509 341.472 390.069 341.2 389.749 340.848L389.989 339C390.869 338.808 391.661 338.712 392.365 338.712C393.069 338.712 393.653 338.728 394.117 338.76V340.272C394.485 339.84 394.957 339.488 395.533 339.216C396.109 338.928 396.629 338.784 397.093 338.784C397.573 338.784 397.901 338.824 398.077 338.904L398.005 342.024C397.685 341.976 397.333 341.952 396.949 341.952ZM404.814 351.192C402.894 351.192 401.446 350.68 400.47 349.656C399.51 348.632 399.03 347.144 399.03 345.192C399.03 344.008 399.198 342.992 399.534 342.144C399.87 341.28 400.326 340.616 400.902 340.152C402.022 339.256 403.326 338.808 404.814 338.808C406.302 338.808 407.438 339.192 408.222 339.96C409.022 340.712 409.422 342.072 409.422 344.04C409.422 345.192 408.854 345.768 407.718 345.768H402.51C402.574 346.776 402.83 347.488 403.278 347.904C403.742 348.32 404.47 348.528 405.462 348.528C406.006 348.528 406.526 348.464 407.022 348.336C407.518 348.208 407.878 348.08 408.102 347.952L408.438 347.76L409.158 349.68C409.062 349.792 408.918 349.936 408.726 350.112C408.55 350.272 408.086 350.496 407.334 350.784C406.598 351.056 405.758 351.192 404.814 351.192ZM406.326 343.632C406.358 343.408 406.374 343.136 406.374 342.816C406.374 342.496 406.246 342.16 405.99 341.808C405.734 341.44 405.286 341.256 404.646 341.256C404.022 341.256 403.542 341.448 403.206 341.832C402.87 342.216 402.646 342.864 402.534 343.776L406.326 343.632ZM416.334 339C417.23 338.792 418.062 338.688 418.83 338.688C419.598 338.688 420.246 338.712 420.774 338.76V348.336C421.398 348.576 421.838 348.848 422.094 349.152L421.854 351H416.334L416.094 349.152C416.318 348.848 416.758 348.576 417.414 348.336V341.664C416.854 341.472 416.414 341.2 416.094 340.848L416.334 339ZM419.046 337.344C417.718 337.344 417.054 336.744 417.054 335.544C417.054 334.328 417.718 333.72 419.046 333.72C420.39 333.72 421.062 334.328 421.062 335.544C421.062 336.744 420.39 337.344 419.046 337.344ZM427.422 335.976V339H430.854V341.016H427.422V347.088C427.422 347.6 427.494 347.976 427.638 348.216C427.782 348.44 428.126 348.552 428.67 348.552C429.214 348.552 429.798 348.432 430.422 348.192L431.142 350.064C429.91 350.688 428.646 351 427.35 351C426.07 351 425.198 350.728 424.734 350.184C424.286 349.624 424.062 348.816 424.062 347.76V341.016H422.982L422.718 339.552C422.974 339.248 423.502 338.944 424.302 338.64C424.494 337.328 424.95 336.44 425.67 335.976H427.422ZM28.264 370.256C26.792 370.256 26.056 371.52 26.056 374.048C26.056 375.328 26.256 376.224 26.656 376.736C27.072 377.232 27.664 377.48 28.432 377.48C29.648 377.48 30.72 377.368 31.648 377.144L32.368 378.992C31.856 379.328 31.168 379.616 30.304 379.856C29.44 380.08 28.6 380.192 27.784 380.192C24.328 380.192 22.6 378.192 22.6 374.192C22.6 371.856 23.2 370.176 24.4 369.152C25.472 368.256 26.776 367.808 28.312 367.808C29.848 367.808 31.128 368.096 32.152 368.672C32.168 368.832 32.176 368.984 32.176 369.128C32.176 370.04 31.968 370.904 31.552 371.72H29.44C29.216 371.32 29.08 370.84 29.032 370.28C28.84 370.264 28.584 370.256 28.264 370.256ZM38.8789 380.192C36.9909 380.192 35.5909 379.688 34.6789 378.68C33.7669 377.672 33.3109 376.152 33.3109 374.12C33.3109 372.072 33.8149 370.512 34.8229 369.44C35.8469 368.352 37.3109 367.808 39.2149 367.808C41.1189 367.808 42.5269 368.288 43.4389 369.248C44.3669 370.208 44.8309 371.712 44.8309 373.76C44.8309 375.792 44.3109 377.376 43.2709 378.512C42.2469 379.632 40.7829 380.192 38.8789 380.192ZM36.7669 373.904C36.7669 376.464 37.5349 377.744 39.0709 377.744C39.8549 377.744 40.4309 377.456 40.7989 376.88C41.1829 376.288 41.3749 375.328 41.3749 374C41.3749 371.504 40.5909 370.256 39.0229 370.256C38.2549 370.256 37.6869 370.536 37.3189 371.096C36.9509 371.64 36.7669 372.576 36.7669 373.904ZM54.9175 378.992C53.8135 379.792 52.5095 380.192 51.0055 380.192C49.5175 380.192 48.4775 379.88 47.8855 379.256C47.2935 378.632 46.9975 377.616 46.9975 376.208V370.664C46.4375 370.472 45.9975 370.2 45.6775 369.848L45.9175 368C46.8135 367.792 47.6455 367.688 48.4135 367.688C49.1815 367.688 49.8295 367.712 50.3575 367.76V375.416C50.3575 376.28 50.4855 376.856 50.7415 377.144C51.0135 377.416 51.5415 377.552 52.3255 377.552C53.1095 377.552 53.8375 377.296 54.5095 376.784V370.664C53.9495 370.472 53.5095 370.2 53.1895 369.848L53.4295 368C54.3255 367.792 55.1575 367.688 55.9255 367.688C56.6935 367.688 57.3415 367.712 57.8695 367.76V377.12C58.4295 377.232 58.8695 377.368 59.1895 377.528V379.424C58.2295 379.936 57.0215 380.192 55.5655 380.192C55.1655 379.904 54.9495 379.504 54.9175 378.992ZM60.1229 362.96C61.0189 362.752 61.8509 362.648 62.6189 362.648C63.3869 362.648 64.0349 362.672 64.5629 362.72V377.336C65.1869 377.576 65.6269 377.848 65.8829 378.152L65.6429 380H60.1229L59.8829 378.152C60.1069 377.848 60.5469 377.576 61.2029 377.336V365.624C60.6429 365.432 60.2029 365.16 59.8829 364.808L60.1229 362.96ZM73.114 362.96C74.026 362.752 74.898 362.648 75.73 362.648C76.562 362.648 77.274 362.672 77.866 362.72V377.12C78.346 377.2 78.786 377.336 79.186 377.528V379.424C78.226 379.936 77.01 380.192 75.538 380.192C75.378 380.112 75.218 379.968 75.058 379.76C74.914 379.552 74.834 379.352 74.818 379.16C74.466 379.448 74.01 379.696 73.45 379.904C72.89 380.096 72.338 380.192 71.794 380.192C70.066 380.192 68.81 379.728 68.026 378.8C67.258 377.856 66.874 376.32 66.874 374.192C66.874 371.776 67.466 370.08 68.65 369.104C69.69 368.24 70.97 367.808 72.49 367.808C73.162 367.808 73.834 367.888 74.506 368.048V365.672C73.77 365.464 73.226 365.176 72.874 364.808L73.114 362.96ZM72.298 377.744C73.21 377.744 73.946 377.472 74.506 376.928V370.496C73.85 370.336 73.154 370.256 72.418 370.256C71.682 370.256 71.146 370.584 70.81 371.24C70.49 371.88 70.33 372.848 70.33 374.144C70.33 375.424 70.49 376.344 70.81 376.904C71.13 377.464 71.626 377.744 72.298 377.744ZM85.5291 362.96C86.4251 362.752 87.2571 362.648 88.0251 362.648C88.7931 362.648 89.4411 362.672 89.9691 362.72V377.336C90.5931 377.576 91.0331 377.848 91.2891 378.152L91.0491 380H85.5291L85.2891 378.152C85.5131 377.848 85.9531 377.576 86.6091 377.336V365.624C86.0491 365.432 85.6091 365.16 85.2891 364.808L85.5291 362.96ZM98.0403 380.192C96.1203 380.192 94.6723 379.68 93.6963 378.656C92.7363 377.632 92.2563 376.144 92.2563 374.192C92.2563 373.008 92.4243 371.992 92.7603 371.144C93.0963 370.28 93.5523 369.616 94.1283 369.152C95.2483 368.256 96.5523 367.808 98.0403 367.808C99.5283 367.808 100.664 368.192 101.448 368.96C102.248 369.712 102.648 371.072 102.648 373.04C102.648 374.192 102.08 374.768 100.944 374.768H95.7363C95.8003 375.776 96.0563 376.488 96.5043 376.904C96.9683 377.32 97.6963 377.528 98.6883 377.528C99.2323 377.528 99.7523 377.464 100.248 377.336C100.744 377.208 101.104 377.08 101.328 376.952L101.664 376.76L102.384 378.68C102.288 378.792 102.144 378.936 101.952 379.112C101.776 379.272 101.312 379.496 100.56 379.784C99.8243 380.056 98.9843 380.192 98.0403 380.192ZM99.5523 372.632C99.5843 372.408 99.6003 372.136 99.6003 371.816C99.6003 371.496 99.4723 371.16 99.2163 370.808C98.9603 370.44 98.5123 370.256 97.8723 370.256C97.2483 370.256 96.7683 370.448 96.4323 370.832C96.0963 371.216 95.8723 371.864 95.7603 372.776L99.5523 372.632ZM104.362 369.776C104.362 369.536 104.37 369.28 104.386 369.008C105.874 368.208 107.474 367.808 109.186 367.808C110.898 367.808 112.122 368.136 112.858 368.792C113.61 369.432 113.986 370.504 113.986 372.008V377.12C114.546 377.232 114.986 377.368 115.306 377.528V379.616C114.49 380 113.322 380.192 111.802 380.192C111.642 379.776 111.506 379.272 111.394 378.68C110.706 379.688 109.458 380.192 107.65 380.192C106.578 380.192 105.658 379.88 104.89 379.256C104.138 378.632 103.762 377.784 103.762 376.712C103.762 375.64 104.114 374.8 104.818 374.192C105.538 373.568 106.602 373.256 108.01 373.256H110.626V372.104C110.626 370.856 109.962 370.232 108.634 370.232C108.138 370.232 107.73 370.28 107.41 370.376C107.378 371.048 107.282 371.568 107.122 371.936H104.77C104.498 371.376 104.362 370.656 104.362 369.776ZM108.682 377.744C109.498 377.744 110.146 377.504 110.626 377.024V375.056H108.946C107.794 375.056 107.218 375.496 107.218 376.376C107.218 376.776 107.338 377.104 107.578 377.36C107.834 377.616 108.202 377.744 108.682 377.744ZM122.403 362.96C123.315 362.752 124.187 362.648 125.019 362.648C125.851 362.648 126.563 362.672 127.155 362.72V377.12C127.635 377.2 128.075 377.336 128.475 377.528V379.424C127.515 379.936 126.299 380.192 124.827 380.192C124.667 380.112 124.507 379.968 124.347 379.76C124.203 379.552 124.123 379.352 124.107 379.16C123.755 379.448 123.299 379.696 122.739 379.904C122.179 380.096 121.627 380.192 121.083 380.192C119.355 380.192 118.099 379.728 117.315 378.8C116.547 377.856 116.163 376.32 116.163 374.192C116.163 371.776 116.755 370.08 117.939 369.104C118.979 368.24 120.259 367.808 121.779 367.808C122.451 367.808 123.123 367.888 123.795 368.048V365.672C123.059 365.464 122.515 365.176 122.163 364.808L122.403 362.96ZM121.587 377.744C122.499 377.744 123.235 377.472 123.795 376.928V370.496C123.139 370.336 122.443 370.256 121.707 370.256C120.971 370.256 120.435 370.584 120.099 371.24C119.779 371.88 119.619 372.848 119.619 374.144C119.619 375.424 119.779 376.344 120.099 376.904C120.419 377.464 120.915 377.744 121.587 377.744ZM139.234 364.976V368H142.666V370.016H139.234V376.088C139.234 376.6 139.306 376.976 139.45 377.216C139.594 377.44 139.938 377.552 140.482 377.552C141.026 377.552 141.61 377.432 142.234 377.192L142.954 379.064C141.722 379.688 140.458 380 139.162 380C137.882 380 137.01 379.728 136.546 379.184C136.098 378.624 135.874 377.816 135.874 376.76V370.016H134.794L134.53 368.552C134.786 368.248 135.314 367.944 136.114 367.64C136.306 366.328 136.762 365.44 137.482 364.976H139.234ZM149.34 380.192C147.452 380.192 146.052 379.688 145.14 378.68C144.228 377.672 143.772 376.152 143.772 374.12C143.772 372.072 144.276 370.512 145.284 369.44C146.308 368.352 147.772 367.808 149.676 367.808C151.58 367.808 152.988 368.288 153.9 369.248C154.828 370.208 155.292 371.712 155.292 373.76C155.292 375.792 154.772 377.376 153.732 378.512C152.708 379.632 151.244 380.192 149.34 380.192ZM147.228 373.904C147.228 376.464 147.996 377.744 149.532 377.744C150.316 377.744 150.892 377.456 151.26 376.88C151.644 376.288 151.836 375.328 151.836 374C151.836 371.504 151.052 370.256 149.484 370.256C148.716 370.256 148.148 370.536 147.78 371.096C147.412 371.64 147.228 372.576 147.228 373.904ZM158.778 380.24C157.45 380.24 156.786 379.64 156.786 378.44C156.786 377.224 157.45 376.616 158.778 376.616C160.122 376.616 160.794 377.224 160.794 378.44C160.794 379.64 160.122 380.24 158.778 380.24ZM164.544 380.24C163.216 380.24 162.552 379.64 162.552 378.44C162.552 377.224 163.216 376.616 164.544 376.616C165.888 376.616 166.56 377.224 166.56 378.44C166.56 379.64 165.888 380.24 164.544 380.24ZM170.31 380.24C168.982 380.24 168.318 379.64 168.318 378.44C168.318 377.224 168.982 376.616 170.31 376.616C171.654 376.616 172.326 377.224 172.326 378.44C172.326 379.64 171.654 380.24 170.31 380.24ZM179.162 362.96C180.058 362.752 180.89 362.648 181.658 362.648C182.426 362.648 183.074 362.672 183.602 362.72V377.336C184.226 377.576 184.666 377.848 184.922 378.152L184.682 380H179.162L178.922 378.152C179.146 377.848 179.586 377.576 180.242 377.336V365.624C179.682 365.432 179.242 365.16 178.922 364.808L179.162 362.96ZM191.673 380.192C189.753 380.192 188.305 379.68 187.329 378.656C186.369 377.632 185.889 376.144 185.889 374.192C185.889 373.008 186.057 371.992 186.393 371.144C186.729 370.28 187.185 369.616 187.761 369.152C188.881 368.256 190.185 367.808 191.673 367.808C193.161 367.808 194.297 368.192 195.081 368.96C195.881 369.712 196.281 371.072 196.281 373.04C196.281 374.192 195.713 374.768 194.577 374.768H189.369C189.433 375.776 189.689 376.488 190.137 376.904C190.601 377.32 191.329 377.528 192.321 377.528C192.865 377.528 193.385 377.464 193.881 377.336C194.377 377.208 194.737 377.08 194.961 376.952L195.297 376.76L196.017 378.68C195.921 378.792 195.777 378.936 195.585 379.112C195.409 379.272 194.945 379.496 194.193 379.784C193.457 380.056 192.617 380.192 191.673 380.192ZM193.185 372.632C193.217 372.408 193.233 372.136 193.233 371.816C193.233 371.496 193.105 371.16 192.849 370.808C192.593 370.44 192.145 370.256 191.505 370.256C190.881 370.256 190.401 370.448 190.065 370.832C189.729 371.216 189.505 371.864 189.393 372.776L193.185 372.632ZM201.883 364.976V368H205.315V370.016H201.883V376.088C201.883 376.6 201.955 376.976 202.099 377.216C202.243 377.44 202.587 377.552 203.131 377.552C203.675 377.552 204.259 377.432 204.883 377.192L205.603 379.064C204.371 379.688 203.107 380 201.811 380C200.531 380 199.659 379.728 199.195 379.184C198.747 378.624 198.523 377.816 198.523 376.76V370.016H197.443L197.179 368.552C197.435 368.248 197.963 367.944 198.763 367.64C198.955 366.328 199.411 365.44 200.131 364.976H201.883ZM206.636 365.048C206.636 363.832 207.316 363.224 208.676 363.224C210.036 363.224 210.716 363.832 210.716 365.048C210.716 366.12 210.444 367.12 209.9 368.048C209.356 368.96 208.7 369.688 207.932 370.232L206.924 369.608C207.452 368.728 207.716 367.864 207.716 367.016C207.716 366.888 207.708 366.768 207.692 366.656C207.388 366.56 207.132 366.368 206.924 366.08C206.732 365.776 206.636 365.432 206.636 365.048ZM216.799 369.968C215.743 369.968 215.215 370.28 215.215 370.904C215.215 371.496 215.767 371.936 216.871 372.224L218.767 372.728C220.719 373.24 221.695 374.368 221.695 376.112C221.695 377.312 221.271 378.296 220.423 379.064C219.591 379.816 218.255 380.192 216.415 380.192C214.591 380.192 213.167 379.936 212.143 379.424C212.127 379.248 212.119 379.072 212.119 378.896C212.119 378.016 212.295 377.224 212.647 376.52H214.639C214.847 376.904 214.983 377.304 215.047 377.72C215.367 377.816 215.823 377.864 216.415 377.864C217.823 377.864 218.527 377.464 218.527 376.664C218.527 376.408 218.431 376.2 218.239 376.04C218.047 375.864 217.671 375.696 217.111 375.536L215.215 374.984C214.239 374.712 213.479 374.312 212.935 373.784C212.391 373.24 212.119 372.448 212.119 371.408C212.119 370.352 212.543 369.488 213.391 368.816C214.239 368.144 215.447 367.808 217.015 367.808C218.599 367.808 219.935 368.04 221.023 368.504C221.039 368.664 221.047 368.824 221.047 368.984C221.047 369.816 220.871 370.584 220.519 371.288H218.551C218.343 370.92 218.207 370.536 218.143 370.136C217.695 370.024 217.247 369.968 216.799 369.968ZM232.586 364.976V368H236.018V370.016H232.586V376.088C232.586 376.6 232.658 376.976 232.802 377.216C232.946 377.44 233.29 377.552 233.834 377.552C234.378 377.552 234.962 377.432 235.586 377.192L236.306 379.064C235.074 379.688 233.81 380 232.514 380C231.234 380 230.362 379.728 229.898 379.184C229.45 378.624 229.226 377.816 229.226 376.76V370.016H228.146L227.882 368.552C228.138 368.248 228.666 367.944 229.466 367.64C229.658 366.328 230.114 365.44 230.834 364.976H232.586ZM244.347 370.952C243.131 370.952 242.291 371.184 241.827 371.648V377.144C243.123 377.384 244.011 377.72 244.491 378.152L244.251 380H237.387L237.147 378.152C237.371 377.848 237.811 377.576 238.467 377.336V370.664C237.907 370.472 237.467 370.2 237.147 369.848L237.387 368C238.267 367.808 239.059 367.712 239.763 367.712C240.467 367.712 241.051 367.728 241.515 367.76V369.272C241.883 368.84 242.355 368.488 242.931 368.216C243.507 367.928 244.027 367.784 244.491 367.784C244.971 367.784 245.299 367.824 245.475 367.904L245.403 371.024C245.083 370.976 244.731 370.952 244.347 370.952ZM249.692 382.784C249.98 382.784 250.284 382.512 250.604 381.968C250.94 381.44 251.172 380.808 251.3 380.072L247.364 370.76C246.58 370.504 246.052 370.2 245.78 369.848L246.02 368H251.54L251.78 369.848C251.572 370.104 251.22 370.336 250.724 370.544L252.044 374.168C252.332 374.92 252.532 375.664 252.644 376.4L252.716 376.736H253.052C253.18 375.936 253.404 375.096 253.724 374.216L254.996 370.664C254.404 370.44 253.988 370.168 253.748 369.848L253.988 368H259.268L259.508 369.848C259.22 370.216 258.692 370.528 257.924 370.784L253.964 380.144C253.212 381.92 252.636 383.064 252.236 383.576C251.532 384.52 250.548 384.992 249.284 384.992C248.036 384.992 247.084 384.664 246.428 384.008C246.412 383.848 246.404 383.688 246.404 383.528C246.404 382.648 246.588 381.816 246.956 381.032H248.948C249.188 381.464 249.324 382.048 249.356 382.784H249.692ZM269.851 364.976V368H273.283V370.016H269.851V376.088C269.851 376.6 269.923 376.976 270.067 377.216C270.211 377.44 270.555 377.552 271.099 377.552C271.643 377.552 272.227 377.432 272.851 377.192L273.571 379.064C272.339 379.688 271.075 380 269.779 380C268.499 380 267.627 379.728 267.163 379.184C266.715 378.624 266.491 377.816 266.491 376.76V370.016H265.411L265.147 368.552C265.403 368.248 265.931 367.944 266.731 367.64C266.923 366.328 267.379 365.44 268.099 364.976H269.851ZM274.365 362.96C275.261 362.752 276.093 362.648 276.861 362.648C277.629 362.648 278.277 362.672 278.805 362.72V368.72C279.189 368.464 279.701 368.248 280.341 368.072C280.981 367.896 281.549 367.808 282.045 367.808C283.629 367.808 284.725 368.192 285.333 368.96C285.941 369.728 286.245 370.896 286.245 372.464V377.336C286.869 377.576 287.309 377.848 287.565 378.152L287.325 380H281.805L281.565 378.152C281.789 377.848 282.229 377.576 282.885 377.336V372.584C282.885 371.72 282.741 371.144 282.453 370.856C282.181 370.552 281.677 370.4 280.941 370.4C280.205 370.4 279.493 370.656 278.805 371.168V377.336C279.429 377.576 279.869 377.848 280.125 378.152L279.885 380H274.365L274.125 378.152C274.349 377.848 274.789 377.576 275.445 377.336V365.624C274.885 365.432 274.445 365.16 274.125 364.808L274.365 362.96ZM294.165 380.192C292.245 380.192 290.797 379.68 289.821 378.656C288.861 377.632 288.381 376.144 288.381 374.192C288.381 373.008 288.549 371.992 288.885 371.144C289.221 370.28 289.677 369.616 290.253 369.152C291.373 368.256 292.677 367.808 294.165 367.808C295.653 367.808 296.789 368.192 297.573 368.96C298.373 369.712 298.773 371.072 298.773 373.04C298.773 374.192 298.205 374.768 297.069 374.768H291.861C291.925 375.776 292.181 376.488 292.629 376.904C293.093 377.32 293.821 377.528 294.813 377.528C295.357 377.528 295.877 377.464 296.373 377.336C296.869 377.208 297.229 377.08 297.453 376.952L297.789 376.76L298.509 378.68C298.413 378.792 298.269 378.936 298.077 379.112C297.901 379.272 297.437 379.496 296.685 379.784C295.949 380.056 295.109 380.192 294.165 380.192ZM295.677 372.632C295.709 372.408 295.725 372.136 295.725 371.816C295.725 371.496 295.597 371.16 295.341 370.808C295.085 370.44 294.637 370.256 293.997 370.256C293.373 370.256 292.893 370.448 292.557 370.832C292.221 371.216 291.997 371.864 291.885 372.776L295.677 372.632ZM311.637 362.96C312.549 362.752 313.421 362.648 314.253 362.648C315.085 362.648 315.797 362.672 316.389 362.72V377.12C316.869 377.2 317.309 377.336 317.709 377.528V379.424C316.749 379.936 315.533 380.192 314.061 380.192C313.901 380.112 313.741 379.968 313.581 379.76C313.437 379.552 313.357 379.352 313.341 379.16C312.989 379.448 312.533 379.696 311.973 379.904C311.413 380.096 310.861 380.192 310.317 380.192C308.589 380.192 307.333 379.728 306.549 378.8C305.781 377.856 305.397 376.32 305.397 374.192C305.397 371.776 305.989 370.08 307.173 369.104C308.213 368.24 309.493 367.808 311.013 367.808C311.685 367.808 312.357 367.888 313.029 368.048V365.672C312.293 365.464 311.749 365.176 311.397 364.808L311.637 362.96ZM310.821 377.744C311.733 377.744 312.469 377.472 313.029 376.928V370.496C312.373 370.336 311.677 370.256 310.941 370.256C310.205 370.256 309.669 370.584 309.333 371.24C309.013 371.88 308.853 372.848 308.853 374.144C308.853 375.424 309.013 376.344 309.333 376.904C309.653 377.464 310.149 377.744 310.821 377.744ZM324.254 380.192C322.366 380.192 320.966 379.688 320.054 378.68C319.142 377.672 318.686 376.152 318.686 374.12C318.686 372.072 319.19 370.512 320.198 369.44C321.222 368.352 322.686 367.808 324.59 367.808C326.494 367.808 327.902 368.288 328.814 369.248C329.742 370.208 330.206 371.712 330.206 373.76C330.206 375.792 329.686 377.376 328.646 378.512C327.622 379.632 326.158 380.192 324.254 380.192ZM322.142 373.904C322.142 376.464 322.91 377.744 324.446 377.744C325.23 377.744 325.806 377.456 326.174 376.88C326.558 376.288 326.75 375.328 326.75 374C326.75 371.504 325.966 370.256 324.398 370.256C323.63 370.256 323.062 370.536 322.694 371.096C322.326 371.64 322.142 372.576 322.142 373.904ZM336.98 380.192C335.093 380.192 333.693 379.688 332.781 378.68C331.869 377.672 331.413 376.152 331.413 374.12C331.413 372.072 331.917 370.512 332.925 369.44C333.949 368.352 335.413 367.808 337.317 367.808C339.221 367.808 340.629 368.288 341.541 369.248C342.469 370.208 342.932 371.712 342.932 373.76C342.932 375.792 342.413 377.376 341.373 378.512C340.349 379.632 338.885 380.192 336.98 380.192ZM334.869 373.904C334.869 376.464 335.637 377.744 337.173 377.744C337.957 377.744 338.533 377.456 338.901 376.88C339.285 376.288 339.477 375.328 339.477 374C339.477 371.504 338.693 370.256 337.125 370.256C336.357 370.256 335.789 370.536 335.421 371.096C335.053 371.64 334.869 372.576 334.869 373.904ZM351.363 370.952C350.147 370.952 349.307 371.184 348.843 371.648V377.144C350.139 377.384 351.027 377.72 351.507 378.152L351.267 380H344.403L344.163 378.152C344.387 377.848 344.827 377.576 345.483 377.336V370.664C344.923 370.472 344.483 370.2 344.163 369.848L344.403 368C345.283 367.808 346.075 367.712 346.779 367.712C347.483 367.712 348.067 367.728 348.531 367.76V369.272C348.899 368.84 349.371 368.488 349.947 368.216C350.523 367.928 351.043 367.784 351.507 367.784C351.987 367.784 352.315 367.824 352.491 367.904L352.419 371.024C352.099 370.976 351.747 370.952 351.363 370.952ZM358.268 369.968C357.212 369.968 356.684 370.28 356.684 370.904C356.684 371.496 357.236 371.936 358.34 372.224L360.236 372.728C362.188 373.24 363.164 374.368 363.164 376.112C363.164 377.312 362.74 378.296 361.892 379.064C361.06 379.816 359.724 380.192 357.884 380.192C356.06 380.192 354.636 379.936 353.612 379.424C353.596 379.248 353.588 379.072 353.588 378.896C353.588 378.016 353.764 377.224 354.116 376.52H356.108C356.316 376.904 356.452 377.304 356.516 377.72C356.836 377.816 357.292 377.864 357.884 377.864C359.292 377.864 359.996 377.464 359.996 376.664C359.996 376.408 359.9 376.2 359.708 376.04C359.516 375.864 359.14 375.696 358.58 375.536L356.684 374.984C355.708 374.712 354.948 374.312 354.404 373.784C353.86 373.24 353.588 372.448 353.588 371.408C353.588 370.352 354.012 369.488 354.86 368.816C355.708 368.144 356.916 367.808 358.484 367.808C360.068 367.808 361.404 368.04 362.492 368.504C362.508 368.664 362.516 368.824 362.516 368.984C362.516 369.816 362.34 370.584 361.988 371.288H360.02C359.812 370.92 359.676 370.536 359.612 370.136C359.164 370.024 358.716 369.968 358.268 369.968ZM375.23 380.192C373.343 380.192 371.943 379.688 371.031 378.68C370.119 377.672 369.663 376.152 369.663 374.12C369.663 372.072 370.167 370.512 371.175 369.44C372.199 368.352 373.663 367.808 375.567 367.808C377.471 367.808 378.879 368.288 379.791 369.248C380.719 370.208 381.182 371.712 381.182 373.76C381.182 375.792 380.663 377.376 379.623 378.512C378.599 379.632 377.135 380.192 375.23 380.192ZM373.119 373.904C373.119 376.464 373.887 377.744 375.423 377.744C376.207 377.744 376.783 377.456 377.151 376.88C377.535 376.288 377.727 375.328 377.727 374C377.727 371.504 376.943 370.256 375.375 370.256C374.607 370.256 374.039 370.536 373.671 371.096C373.303 371.64 373.119 372.576 373.119 373.904ZM383.733 367.544C383.733 365.88 384.093 364.632 384.813 363.8C385.533 362.952 386.677 362.528 388.245 362.528C389.813 362.528 391.173 362.952 392.325 363.8C392.341 363.912 392.349 364.08 392.349 364.304C392.349 364.512 392.293 364.864 392.181 365.36C392.069 365.856 391.917 366.256 391.725 366.56H389.709C389.421 366.016 389.269 365.504 389.253 365.024C389.061 364.992 388.901 364.976 388.773 364.976C388.165 364.976 387.733 365.144 387.477 365.48C387.221 365.816 387.093 366.424 387.093 367.304V368.216H390.765V370.424H387.093V377.216C388.293 377.456 389.109 377.768 389.541 378.152L389.301 380H382.653L382.413 378.152C382.637 377.848 383.077 377.576 383.733 377.336V370.424H382.677L382.413 368.768C382.765 368.448 383.205 368.264 383.733 368.216V367.544ZM396.944 368C397.824 367.808 398.616 367.712 399.32 367.712C400.024 367.712 400.608 367.728 401.072 367.76V368.936C402.144 368.184 403.288 367.808 404.504 367.808C406.104 367.808 407.264 368.264 407.984 369.176C408.704 370.088 409.064 371.608 409.064 373.736C409.064 374.872 408.896 375.872 408.56 376.736C408.224 377.6 407.768 378.272 407.192 378.752C406.088 379.712 404.776 380.192 403.256 380.192C402.6 380.192 401.976 380.128 401.384 380V382.064C402.328 382.32 402.936 382.616 403.208 382.952L402.968 384.8H396.944L396.704 382.952C396.912 382.664 397.352 382.392 398.024 382.136V370.664C397.464 370.472 397.024 370.2 396.704 369.848L396.944 368ZM403.016 377.744C403.816 377.744 404.448 377.392 404.912 376.688C405.376 375.968 405.608 374.984 405.608 373.736C405.608 372.472 405.48 371.608 405.224 371.144C404.968 370.68 404.504 370.448 403.832 370.448C402.808 370.448 401.992 370.688 401.384 371.168V377.552C401.88 377.68 402.424 377.744 403.016 377.744ZM415.848 380.192C413.96 380.192 412.56 379.688 411.648 378.68C410.736 377.672 410.28 376.152 410.28 374.12C410.28 372.072 410.784 370.512 411.792 369.44C412.816 368.352 414.28 367.808 416.184 367.808C418.088 367.808 419.496 368.288 420.408 369.248C421.336 370.208 421.8 371.712 421.8 373.76C421.8 375.792 421.28 377.376 420.24 378.512C419.216 379.632 417.752 380.192 415.848 380.192ZM413.736 373.904C413.736 376.464 414.504 377.744 416.04 377.744C416.824 377.744 417.4 377.456 417.768 376.88C418.152 376.288 418.344 375.328 418.344 374C418.344 371.504 417.56 370.256 415.992 370.256C415.224 370.256 414.656 370.536 414.288 371.096C413.92 371.64 413.736 372.576 413.736 373.904ZM434.007 380.144L432.783 376.352C432.527 375.584 432.327 374.624 432.183 373.472L432.111 372.896H431.775C431.615 374.144 431.375 375.288 431.055 376.328L429.927 380.144H426.519L423.495 370.712C422.807 370.472 422.335 370.184 422.079 369.848L422.319 368H427.935L428.175 369.848C427.887 370.184 427.399 370.472 426.711 370.712L428.103 376.832H428.439C428.615 375.984 428.823 375.112 429.063 374.216L430.695 368.048H433.383L434.991 374.168L435.591 376.832H435.927C436.519 374.128 436.919 372.312 437.127 371.384L437.271 370.712C436.551 370.456 436.071 370.168 435.831 369.848L436.071 368H441.399L441.639 369.848C441.367 370.216 440.863 370.52 440.127 370.76L437.127 380.144H434.007ZM447.986 380.192C446.066 380.192 444.618 379.68 443.642 378.656C442.682 377.632 442.202 376.144 442.202 374.192C442.202 373.008 442.37 371.992 442.706 371.144C443.042 370.28 443.498 369.616 444.074 369.152C445.194 368.256 446.498 367.808 447.986 367.808C449.474 367.808 450.61 368.192 451.394 368.96C452.194 369.712 452.594 371.072 452.594 373.04C452.594 374.192 452.026 374.768 450.89 374.768H445.682C445.746 375.776 446.002 376.488 446.45 376.904C446.914 377.32 447.642 377.528 448.634 377.528C449.178 377.528 449.698 377.464 450.194 377.336C450.69 377.208 451.05 377.08 451.274 376.952L451.61 376.76L452.33 378.68C452.234 378.792 452.09 378.936 451.898 379.112C451.722 379.272 451.258 379.496 450.506 379.784C449.77 380.056 448.93 380.192 447.986 380.192ZM449.498 372.632C449.53 372.408 449.546 372.136 449.546 371.816C449.546 371.496 449.418 371.16 449.162 370.808C448.906 370.44 448.458 370.256 447.818 370.256C447.194 370.256 446.714 370.448 446.378 370.832C446.042 371.216 445.818 371.864 445.706 372.776L449.498 372.632ZM453.779 362.96C454.675 362.752 455.507 362.648 456.275 362.648C457.043 362.648 457.691 362.672 458.219 362.72V377.336C458.843 377.576 459.283 377.848 459.539 378.152L459.299 380H453.779L453.539 378.152C453.763 377.848 454.203 377.576 454.859 377.336V365.624C454.299 365.432 453.859 365.16 453.539 364.808L453.779 362.96ZM460.482 362.96C461.378 362.752 462.21 362.648 462.978 362.648C463.746 362.648 464.394 362.672 464.922 362.72V377.336C465.546 377.576 465.986 377.848 466.242 378.152L466.002 380H460.482L460.242 378.152C460.466 377.848 460.906 377.576 461.562 377.336V365.624C461.002 365.432 460.562 365.16 460.242 364.808L460.482 362.96ZM468.097 367.76C468.097 366.416 468.153 364.976 468.265 363.44H471.673C471.769 364.864 471.817 366.208 471.817 367.472C471.817 370.464 471.553 373.024 471.025 375.152H468.865C468.353 373.072 468.097 370.608 468.097 367.76ZM469.945 380.24C468.681 380.24 468.049 379.648 468.049 378.464C468.049 377.28 468.681 376.688 469.945 376.688C471.225 376.688 471.865 377.28 471.865 378.464C471.865 379.648 471.225 380.24 469.945 380.24Z" fill="#252D33"/>
</svg>
