<svg width="497" height="495" viewBox="0 0 497 495" fill="none" xmlns="http://www.w3.org/2000/svg">
<mask id="path-1-inside-1" fill="white">
<path fill-rule="evenodd" clip-rule="evenodd" d="M46.9314 594C40.0152 441.848 49.8181 227.766 111.611 102.495C99.7503 96.2903 91.6364 83.7115 91.6364 69.2038C91.6364 48.5442 108.09 31.7963 128.387 31.7963C137.857 31.7963 146.491 35.4423 153.007 41.4303C176.993 16.6257 205.889 1.65362 240.546 0.157016C283.625 -1.70326 318.35 13.0579 346.19 39.5638C352.394 34.6933 360.171 31.7963 368.613 31.7963C388.91 31.7963 405.364 48.5442 405.364 69.2038C405.364 81.8886 399.161 93.0987 389.674 99.8631C455.18 227.524 456.425 449.304 444.917 594H46.9314Z"/>
</mask>
<path fill-rule="evenodd" clip-rule="evenodd" d="M46.9314 594C40.0152 441.848 49.8181 227.766 111.611 102.495C99.7503 96.2903 91.6364 83.7115 91.6364 69.2038C91.6364 48.5442 108.09 31.7963 128.387 31.7963C137.857 31.7963 146.491 35.4423 153.007 41.4303C176.993 16.6257 205.889 1.65362 240.546 0.157016C283.625 -1.70326 318.35 13.0579 346.19 39.5638C352.394 34.6933 360.171 31.7963 368.613 31.7963C388.91 31.7963 405.364 48.5442 405.364 69.2038C405.364 81.8886 399.161 93.0987 389.674 99.8631C455.18 227.524 456.425 449.304 444.917 594H46.9314Z" fill="#4E3930"/>
<path d="M111.611 102.495L112.508 102.938L112.94 102.062L112.075 101.609L111.611 102.495ZM46.9314 594L45.9325 594.045L45.9759 595H46.9314V594ZM153.007 41.4303L152.33 42.1666L153.048 42.8263L153.726 42.1255L153.007 41.4303ZM240.546 0.157016L240.589 1.15609L240.546 0.157016ZM346.19 39.5638L345.5 40.288L346.127 40.8845L346.807 40.3504L346.19 39.5638ZM389.674 99.8631L389.093 99.0488L388.39 99.5506L388.784 100.32L389.674 99.8631ZM444.917 594V595H445.841L445.914 594.079L444.917 594ZM110.714 102.053C79.7403 164.845 61.8256 249.821 52.5108 338.062C43.1941 426.322 42.4727 517.932 45.9325 594.045L47.9304 593.955C44.474 517.916 45.1959 426.41 54.4998 338.272C63.8056 250.116 81.6888 165.416 112.508 102.938L110.714 102.053ZM90.6364 69.2038C90.6364 84.0915 98.964 97.0075 111.147 103.381L112.075 101.609C100.537 95.5731 92.6364 83.3315 92.6364 69.2038H90.6364ZM128.387 30.7963C107.521 30.7963 90.6364 48.0087 90.6364 69.2038H92.6364C92.6364 49.0797 108.659 32.7963 128.387 32.7963V30.7963ZM153.684 40.694C146.992 34.5445 138.12 30.7963 128.387 30.7963V32.7963C137.595 32.7963 145.99 36.34 152.33 42.1666L153.684 40.694ZM240.503 -0.842052C205.552 0.667236 176.424 15.7756 152.288 40.7352L153.726 42.1255C177.562 17.4757 206.226 2.64001 240.589 1.15609L240.503 -0.842052ZM346.879 38.8395C318.853 12.1559 283.867 -2.71463 240.503 -0.842052L240.589 1.15609C283.383 -0.691882 317.847 13.96 345.5 40.288L346.879 38.8395ZM346.807 40.3504C352.843 35.6122 360.405 32.7963 368.613 32.7963V30.7963C359.938 30.7963 351.946 33.7743 345.572 38.7772L346.807 40.3504ZM368.613 32.7963C388.341 32.7963 404.364 49.0797 404.364 69.2038H406.364C406.364 48.0087 389.479 30.7963 368.613 30.7963V32.7963ZM404.364 69.2038C404.364 81.5562 398.325 92.4668 389.093 99.0488L390.255 100.677C399.997 93.7306 406.364 82.2209 406.364 69.2038H404.364ZM445.914 594.079C451.671 521.694 454.239 430.02 447.173 340.465C440.108 250.931 423.407 163.414 390.564 99.4065L388.784 100.32C421.447 163.973 438.121 251.176 445.179 340.622C452.234 430.046 449.671 521.61 443.92 593.921L445.914 594.079ZM46.9314 595H444.917V593H46.9314V595Z" fill="#252D33" mask="url(#path-1-inside-1)"/>
<ellipse cx="248.5" cy="156.176" rx="49.3" ry="36.4722" fill="#F2D8B3"/>
<path d="M246.19 145.211C247.389 146.659 249.611 146.659 250.81 145.211L258.719 135.664C260.339 133.708 258.948 130.75 256.409 130.75H240.591C238.052 130.75 236.661 133.708 238.281 135.664L246.19 145.211Z" fill="#252D33"/>
<ellipse cx="189.34" cy="109.417" rx="9.86" ry="10.287" fill="white"/>
<ellipse cx="189.34" cy="109.417" rx="8.06727" ry="8.41667" fill="#252D33"/>
<ellipse cx="307.66" cy="109.417" rx="9.86" ry="10.287" fill="white"/>
<ellipse cx="307.66" cy="109.417" rx="8.06727" ry="8.41667" fill="#252D33"/>
<path d="M219.731 164.196C218.2 161.824 220.06 159 222.883 159H273.368C276.122 159 277.99 161.704 276.584 164.073C272.238 171.397 263.163 180.5 248.5 180.5C233.918 180.5 224.445 171.498 219.731 164.196Z" fill="#252D33"/>
<path fill-rule="evenodd" clip-rule="evenodd" d="M115.833 276.162C115.521 259.669 137.352 243.83 150.575 237C137.595 251.888 141.109 266.209 147.957 276.162H451.5C475.524 276.162 495 295.638 495 319.662V363.704C495 387.728 475.524 407.204 451.5 407.204H45.5C21.4756 407.204 2 387.728 2 363.704V319.662C2 295.638 21.4756 276.162 45.5 276.162H115.833Z" fill="#F9F5E7"/>
<path d="M150.575 237L151.706 237.986L149.887 235.667L150.575 237ZM115.833 276.162V277.662H117.362L117.333 276.134L115.833 276.162ZM147.957 276.162L146.721 277.012L147.168 277.662H147.957V276.162ZM149.887 235.667C143.179 239.132 134.285 244.88 127.083 251.882C119.934 258.832 114.165 267.298 114.333 276.19L117.333 276.134C117.189 268.533 122.179 260.834 129.174 254.033C136.115 247.285 144.749 241.698 151.264 238.333L149.887 235.667ZM149.192 275.312C145.883 270.502 143.436 264.716 143.33 258.407C143.225 252.132 145.433 245.181 151.706 237.986L149.445 236.014C142.738 243.707 140.212 251.361 140.331 258.457C140.449 265.518 143.182 271.869 146.721 277.012L149.192 275.312ZM147.957 277.662H451.5V274.662H147.957V277.662ZM451.5 277.662C474.696 277.662 493.5 296.466 493.5 319.662H496.5C496.5 294.809 476.353 274.662 451.5 274.662V277.662ZM493.5 319.662V363.704H496.5V319.662H493.5ZM493.5 363.704C493.5 386.9 474.696 405.704 451.5 405.704V408.704C476.353 408.704 496.5 388.557 496.5 363.704H493.5ZM451.5 405.704H45.5V408.704H451.5V405.704ZM45.5 405.704C22.3041 405.704 3.5 386.9 3.5 363.704H0.5C0.5 388.557 20.6472 408.704 45.5 408.704V405.704ZM3.5 363.704V319.662H0.5V363.704H3.5ZM3.5 319.662C3.5 296.466 22.304 277.662 45.5 277.662V274.662C20.6472 274.662 0.5 294.809 0.5 319.662H3.5ZM45.5 277.662H115.833V274.662H45.5V277.662Z" fill="#252D33"/>
<path d="M26.992 306.976V310H30.424V312.016H26.992V318.088C26.992 318.6 27.064 318.976 27.208 319.216C27.352 319.44 27.696 319.552 28.24 319.552C28.784 319.552 29.368 319.432 29.992 319.192L30.712 321.064C29.48 321.688 28.216 322 26.92 322C25.64 322 24.768 321.728 24.304 321.184C23.856 320.624 23.632 319.816 23.632 318.76V312.016H22.552L22.288 310.552C22.544 310.248 23.072 309.944 23.872 309.64C24.064 308.328 24.52 307.44 25.24 306.976H26.992ZM31.5057 304.96C32.4017 304.752 33.2337 304.648 34.0017 304.648C34.7697 304.648 35.4177 304.672 35.9457 304.72V310.72C36.3297 310.464 36.8417 310.248 37.4817 310.072C38.1217 309.896 38.6897 309.808 39.1857 309.808C40.7697 309.808 41.8657 310.192 42.4737 310.96C43.0817 311.728 43.3857 312.896 43.3857 314.464V319.336C44.0097 319.576 44.4497 319.848 44.7057 320.152L44.4657 322H38.9457L38.7057 320.152C38.9297 319.848 39.3697 319.576 40.0257 319.336V314.584C40.0257 313.72 39.8817 313.144 39.5937 312.856C39.3217 312.552 38.8177 312.4 38.0817 312.4C37.3457 312.4 36.6337 312.656 35.9457 313.168V319.336C36.5697 319.576 37.0097 319.848 37.2657 320.152L37.0257 322H31.5057L31.2657 320.152C31.4897 319.848 31.9297 319.576 32.5857 319.336V307.624C32.0257 307.432 31.5857 307.16 31.2657 306.808L31.5057 304.96ZM46.0259 311.776C46.0259 311.536 46.0339 311.28 46.0499 311.008C47.5379 310.208 49.1379 309.808 50.8499 309.808C52.5619 309.808 53.7859 310.136 54.5219 310.792C55.2739 311.432 55.6499 312.504 55.6499 314.008V319.12C56.2099 319.232 56.6499 319.368 56.9699 319.528V321.616C56.1539 322 54.9859 322.192 53.4659 322.192C53.3059 321.776 53.1699 321.272 53.0579 320.68C52.3699 321.688 51.1219 322.192 49.3139 322.192C48.2419 322.192 47.3219 321.88 46.5539 321.256C45.8019 320.632 45.4259 319.784 45.4259 318.712C45.4259 317.64 45.7779 316.8 46.4819 316.192C47.2019 315.568 48.2659 315.256 49.6739 315.256H52.2899V314.104C52.2899 312.856 51.6259 312.232 50.2979 312.232C49.8019 312.232 49.3939 312.28 49.0739 312.376C49.0419 313.048 48.9459 313.568 48.7859 313.936H46.4339C46.1619 313.376 46.0259 312.656 46.0259 311.776ZM50.3459 319.744C51.1619 319.744 51.8099 319.504 52.2899 319.024V317.056H50.6099C49.4579 317.056 48.8819 317.496 48.8819 318.376C48.8819 318.776 49.0019 319.104 49.2419 319.36C49.4979 319.616 49.8659 319.744 50.3459 319.744ZM58.0671 310C58.9471 309.808 59.7391 309.712 60.4431 309.712C61.1471 309.712 61.7311 309.728 62.1951 309.76V310.96C62.5951 310.624 63.1231 310.352 63.7791 310.144C64.4511 309.92 65.0911 309.808 65.6991 309.808C67.2671 309.808 68.3631 310.176 68.9871 310.912C69.6271 311.648 69.9471 312.92 69.9471 314.728V319.336C70.5711 319.576 71.0111 319.848 71.2671 320.152L71.0271 322H65.5071L65.2671 320.152C65.4911 319.848 65.9311 319.576 66.5871 319.336V314.584C66.5871 313.72 66.4431 313.144 66.1551 312.856C65.8831 312.552 65.3871 312.4 64.6671 312.4C63.9471 312.4 63.2271 312.656 62.5071 313.168V319.336C63.1311 319.576 63.5711 319.848 63.8271 320.152L63.5871 322H58.0671L57.8271 320.152C58.0511 319.848 58.4911 319.576 59.1471 319.336V312.664C58.5871 312.472 58.1471 312.2 57.8271 311.848L58.0671 310ZM72.0526 304.96C72.9486 304.752 73.7806 304.648 74.5486 304.648C75.3166 304.648 75.9646 304.672 76.4926 304.72V319.336C77.1166 319.576 77.5566 319.848 77.8126 320.152L77.5726 322H72.0526L71.8126 320.152C72.0366 319.848 72.4766 319.576 73.1326 319.336V307.624C72.5726 307.432 72.1326 307.16 71.8126 306.808L72.0526 304.96ZM80.9566 322L76.7086 315.784L79.3486 312.352C79.0766 312.192 78.8846 312.024 78.7726 311.848L79.0126 310H84.2926L84.5326 311.848C84.1806 312.296 83.5166 312.648 82.5406 312.904L80.2366 315.544L82.9486 319.12C83.9406 319.344 84.6366 319.688 85.0366 320.152L84.7966 322H80.9566ZM94.3484 324.784C94.6364 324.784 94.9404 324.512 95.2604 323.968C95.5964 323.44 95.8284 322.808 95.9564 322.072L92.0204 312.76C91.2364 312.504 90.7084 312.2 90.4364 311.848L90.6764 310H96.1964L96.4364 311.848C96.2284 312.104 95.8764 312.336 95.3804 312.544L96.7004 316.168C96.9884 316.92 97.1884 317.664 97.3004 318.4L97.3724 318.736H97.7084C97.8364 317.936 98.0604 317.096 98.3804 316.216L99.6524 312.664C99.0604 312.44 98.6444 312.168 98.4044 311.848L98.6444 310H103.924L104.164 311.848C103.876 312.216 103.348 312.528 102.58 312.784L98.6204 322.144C97.8684 323.92 97.2924 325.064 96.8924 325.576C96.1884 326.52 95.2044 326.992 93.9404 326.992C92.6924 326.992 91.7404 326.664 91.0844 326.008C91.0684 325.848 91.0604 325.688 91.0604 325.528C91.0604 324.648 91.2444 323.816 91.6124 323.032H93.6044C93.8444 323.464 93.9804 324.048 94.0124 324.784H94.3484ZM109.871 322.192C107.983 322.192 106.583 321.688 105.671 320.68C104.759 319.672 104.303 318.152 104.303 316.12C104.303 314.072 104.807 312.512 105.815 311.44C106.839 310.352 108.303 309.808 110.207 309.808C112.111 309.808 113.519 310.288 114.431 311.248C115.359 312.208 115.823 313.712 115.823 315.76C115.823 317.792 115.303 319.376 114.263 320.512C113.239 321.632 111.775 322.192 109.871 322.192ZM107.759 315.904C107.759 318.464 108.527 319.744 110.063 319.744C110.847 319.744 111.423 319.456 111.791 318.88C112.175 318.288 112.367 317.328 112.367 316C112.367 313.504 111.583 312.256 110.015 312.256C109.247 312.256 108.679 312.536 108.311 313.096C107.943 313.64 107.759 314.576 107.759 315.904ZM125.91 320.992C124.806 321.792 123.502 322.192 121.998 322.192C120.51 322.192 119.47 321.88 118.878 321.256C118.286 320.632 117.99 319.616 117.99 318.208V312.664C117.43 312.472 116.99 312.2 116.67 311.848L116.91 310C117.806 309.792 118.638 309.688 119.406 309.688C120.174 309.688 120.822 309.712 121.35 309.76V317.416C121.35 318.28 121.478 318.856 121.734 319.144C122.006 319.416 122.534 319.552 123.318 319.552C124.102 319.552 124.83 319.296 125.502 318.784V312.664C124.942 312.472 124.502 312.2 124.182 311.848L124.422 310C125.318 309.792 126.15 309.688 126.918 309.688C127.686 309.688 128.334 309.712 128.862 309.76V319.12C129.422 319.232 129.862 319.368 130.182 319.528V321.424C129.222 321.936 128.014 322.192 126.558 322.192C126.158 321.904 125.942 321.504 125.91 320.992ZM137.874 309.544C137.874 307.88 138.234 306.632 138.954 305.8C139.674 304.952 140.818 304.528 142.386 304.528C143.954 304.528 145.314 304.952 146.466 305.8C146.482 305.912 146.49 306.08 146.49 306.304C146.49 306.512 146.434 306.864 146.322 307.36C146.21 307.856 146.058 308.256 145.866 308.56H143.85C143.562 308.016 143.41 307.504 143.394 307.024C143.202 306.992 143.042 306.976 142.914 306.976C142.306 306.976 141.874 307.144 141.618 307.48C141.362 307.816 141.234 308.424 141.234 309.304V310.216H144.906V312.424H141.234V319.216C142.434 319.456 143.25 319.768 143.682 320.152L143.442 322H136.794L136.554 320.152C136.778 319.848 137.218 319.576 137.874 319.336V312.424H136.818L136.554 310.768C136.906 310.448 137.346 310.264 137.874 310.216V309.544ZM151.145 322.192C149.257 322.192 147.857 321.688 146.945 320.68C146.033 319.672 145.577 318.152 145.577 316.12C145.577 314.072 146.081 312.512 147.089 311.44C148.113 310.352 149.577 309.808 151.481 309.808C153.385 309.808 154.793 310.288 155.705 311.248C156.633 312.208 157.097 313.712 157.097 315.76C157.097 317.792 156.577 319.376 155.537 320.512C154.513 321.632 153.049 322.192 151.145 322.192ZM149.033 315.904C149.033 318.464 149.801 319.744 151.337 319.744C152.121 319.744 152.697 319.456 153.065 318.88C153.449 318.288 153.641 317.328 153.641 316C153.641 313.504 152.857 312.256 151.289 312.256C150.521 312.256 149.953 312.536 149.585 313.096C149.217 313.64 149.033 314.576 149.033 315.904ZM165.527 312.952C164.311 312.952 163.471 313.184 163.007 313.648V319.144C164.303 319.384 165.191 319.72 165.671 320.152L165.431 322H158.567L158.327 320.152C158.551 319.848 158.991 319.576 159.647 319.336V312.664C159.087 312.472 158.647 312.2 158.327 311.848L158.567 310C159.447 309.808 160.239 309.712 160.943 309.712C161.647 309.712 162.231 309.728 162.695 309.76V311.272C163.063 310.84 163.535 310.488 164.111 310.216C164.687 309.928 165.207 309.784 165.671 309.784C166.151 309.784 166.479 309.824 166.655 309.904L166.583 313.024C166.263 312.976 165.911 312.952 165.527 312.952ZM172.974 304.96C173.87 304.752 174.702 304.648 175.47 304.648C176.238 304.648 176.886 304.672 177.414 304.72V310.72C177.798 310.464 178.31 310.248 178.95 310.072C179.59 309.896 180.158 309.808 180.654 309.808C182.238 309.808 183.334 310.192 183.942 310.96C184.55 311.728 184.854 312.896 184.854 314.464V319.336C185.478 319.576 185.918 319.848 186.174 320.152L185.934 322H180.414L180.174 320.152C180.398 319.848 180.838 319.576 181.494 319.336V314.584C181.494 313.72 181.35 313.144 181.062 312.856C180.79 312.552 180.286 312.4 179.55 312.4C178.814 312.4 178.102 312.656 177.414 313.168V319.336C178.038 319.576 178.478 319.848 178.734 320.152L178.494 322H172.974L172.734 320.152C172.958 319.848 173.398 319.576 174.054 319.336V307.624C173.494 307.432 173.054 307.16 172.734 306.808L172.974 304.96ZM192.775 322.192C190.855 322.192 189.407 321.68 188.431 320.656C187.471 319.632 186.991 318.144 186.991 316.192C186.991 315.008 187.159 313.992 187.495 313.144C187.831 312.28 188.287 311.616 188.863 311.152C189.983 310.256 191.287 309.808 192.775 309.808C194.263 309.808 195.399 310.192 196.183 310.96C196.983 311.712 197.383 313.072 197.383 315.04C197.383 316.192 196.815 316.768 195.679 316.768H190.471C190.535 317.776 190.791 318.488 191.239 318.904C191.703 319.32 192.431 319.528 193.423 319.528C193.967 319.528 194.487 319.464 194.983 319.336C195.479 319.208 195.839 319.08 196.063 318.952L196.399 318.76L197.119 320.68C197.023 320.792 196.879 320.936 196.687 321.112C196.511 321.272 196.047 321.496 195.295 321.784C194.559 322.056 193.719 322.192 192.775 322.192ZM194.287 314.632C194.319 314.408 194.335 314.136 194.335 313.816C194.335 313.496 194.207 313.16 193.951 312.808C193.695 312.44 193.247 312.256 192.607 312.256C191.983 312.256 191.503 312.448 191.167 312.832C190.831 313.216 190.607 313.864 190.495 314.776L194.287 314.632ZM198.568 304.96C199.464 304.752 200.296 304.648 201.064 304.648C201.832 304.648 202.48 304.672 203.008 304.72V319.336C203.632 319.576 204.072 319.848 204.328 320.152L204.088 322H198.568L198.328 320.152C198.552 319.848 198.992 319.576 199.648 319.336V307.624C199.088 307.432 198.648 307.16 198.328 306.808L198.568 304.96ZM205.295 310C206.175 309.808 206.967 309.712 207.671 309.712C208.375 309.712 208.959 309.728 209.423 309.76V310.936C210.495 310.184 211.639 309.808 212.855 309.808C214.455 309.808 215.615 310.264 216.335 311.176C217.055 312.088 217.415 313.608 217.415 315.736C217.415 316.872 217.247 317.872 216.911 318.736C216.575 319.6 216.119 320.272 215.543 320.752C214.439 321.712 213.127 322.192 211.607 322.192C210.951 322.192 210.327 322.128 209.735 322V324.064C210.679 324.32 211.287 324.616 211.559 324.952L211.319 326.8H205.295L205.055 324.952C205.263 324.664 205.703 324.392 206.375 324.136V312.664C205.815 312.472 205.375 312.2 205.055 311.848L205.295 310ZM211.367 319.744C212.167 319.744 212.799 319.392 213.263 318.688C213.727 317.968 213.959 316.984 213.959 315.736C213.959 314.472 213.831 313.608 213.575 313.144C213.319 312.68 212.855 312.448 212.183 312.448C211.159 312.448 210.343 312.688 209.735 313.168V319.552C210.231 319.68 210.775 319.744 211.367 319.744ZM218.943 310C219.839 309.792 220.671 309.688 221.439 309.688C222.207 309.688 222.855 309.712 223.383 309.76V319.336C224.007 319.576 224.447 319.848 224.703 320.152L224.463 322H218.943L218.703 320.152C218.927 319.848 219.367 319.576 220.023 319.336V312.664C219.463 312.472 219.023 312.2 218.703 311.848L218.943 310ZM221.655 308.344C220.327 308.344 219.663 307.744 219.663 306.544C219.663 305.328 220.327 304.72 221.655 304.72C222.999 304.72 223.671 305.328 223.671 306.544C223.671 307.744 222.999 308.344 221.655 308.344ZM225.903 310C226.783 309.808 227.575 309.712 228.279 309.712C228.983 309.712 229.567 309.728 230.031 309.76V310.96C230.431 310.624 230.959 310.352 231.615 310.144C232.287 309.92 232.927 309.808 233.535 309.808C235.103 309.808 236.199 310.176 236.823 310.912C237.463 311.648 237.783 312.92 237.783 314.728V319.336C238.407 319.576 238.847 319.848 239.103 320.152L238.863 322H233.343L233.103 320.152C233.327 319.848 233.767 319.576 234.423 319.336V314.584C234.423 313.72 234.279 313.144 233.991 312.856C233.719 312.552 233.223 312.4 232.503 312.4C231.783 312.4 231.063 312.656 230.343 313.168V319.336C230.967 319.576 231.407 319.848 231.663 320.152L231.423 322H225.903L225.663 320.152C225.887 319.848 226.327 319.576 226.983 319.336V312.664C226.423 312.472 225.983 312.2 225.663 311.848L225.903 310ZM245.457 324.544C246.881 324.544 247.593 323.688 247.593 321.976V320.92C246.809 321.4 245.825 321.64 244.641 321.64C243.137 321.64 241.977 321.2 241.161 320.32C240.361 319.44 239.961 317.976 239.961 315.928C239.961 311.848 241.833 309.808 245.577 309.808C246.537 309.808 247.433 310.016 248.265 310.432C248.425 310.144 248.665 310 248.985 310H250.953V321.808C250.953 323.568 250.513 324.872 249.633 325.72C248.769 326.568 247.425 326.992 245.601 326.992C244.641 326.992 243.649 326.88 242.625 326.656C241.601 326.432 240.825 326.152 240.297 325.816C240.281 325.672 240.273 325.528 240.273 325.384C240.273 324.504 240.481 323.656 240.896 322.84H243.009C243.185 323.176 243.313 323.624 243.393 324.184C244.001 324.424 244.689 324.544 245.457 324.544ZM243.273 315.784C243.273 316.984 243.433 317.824 243.753 318.304C244.089 318.784 244.649 319.024 245.433 319.024C246.233 319.024 246.953 318.8 247.593 318.352V312.664C246.953 312.392 246.257 312.256 245.505 312.256C244.017 312.256 243.273 313.432 243.273 315.784ZM258.411 310C259.291 309.808 260.083 309.712 260.787 309.712C261.491 309.712 262.075 309.728 262.539 309.76V310.96C262.923 310.64 263.403 310.368 263.979 310.144C264.555 309.92 265.075 309.808 265.539 309.808C267.363 309.808 268.579 310.264 269.187 311.176C269.587 310.792 270.115 310.472 270.771 310.216C271.427 309.944 272.035 309.808 272.595 309.808C274.355 309.808 275.539 310.208 276.147 311.008C276.755 311.792 277.059 313.272 277.059 315.448V319.336C277.683 319.576 278.123 319.848 278.379 320.152L278.139 322H272.619L272.379 320.152C272.603 319.848 273.043 319.576 273.699 319.336V314.584C273.699 313.704 273.579 313.12 273.339 312.832C273.099 312.544 272.619 312.4 271.899 312.4C271.195 312.4 270.523 312.664 269.883 313.192C269.963 313.736 270.003 314.488 270.003 315.448V319.336C270.627 319.576 271.067 319.848 271.323 320.152L271.083 322H265.563L265.323 320.152C265.547 319.848 265.987 319.576 266.643 319.336V314.584C266.643 313.704 266.523 313.12 266.283 312.832C266.043 312.544 265.571 312.4 264.867 312.4C264.163 312.4 263.491 312.656 262.851 313.168V319.336C263.475 319.576 263.915 319.848 264.171 320.152L263.931 322H258.411L258.171 320.152C258.395 319.848 258.835 319.576 259.491 319.336V312.664C258.931 312.472 258.491 312.2 258.171 311.848L258.411 310ZM284.954 322.192C283.034 322.192 281.586 321.68 280.61 320.656C279.65 319.632 279.17 318.144 279.17 316.192C279.17 315.008 279.338 313.992 279.674 313.144C280.01 312.28 280.466 311.616 281.042 311.152C282.162 310.256 283.466 309.808 284.954 309.808C286.442 309.808 287.578 310.192 288.362 310.96C289.162 311.712 289.562 313.072 289.562 315.04C289.562 316.192 288.994 316.768 287.858 316.768H282.65C282.714 317.776 282.97 318.488 283.418 318.904C283.882 319.32 284.61 319.528 285.602 319.528C286.146 319.528 286.666 319.464 287.162 319.336C287.658 319.208 288.018 319.08 288.242 318.952L288.578 318.76L289.298 320.68C289.202 320.792 289.058 320.936 288.866 321.112C288.69 321.272 288.226 321.496 287.474 321.784C286.738 322.056 285.898 322.192 284.954 322.192ZM286.466 314.632C286.498 314.408 286.514 314.136 286.514 313.816C286.514 313.496 286.386 313.16 286.13 312.808C285.874 312.44 285.426 312.256 284.786 312.256C284.162 312.256 283.682 312.448 283.346 312.832C283.01 313.216 282.786 313.864 282.674 314.776L286.466 314.632ZM296.139 304.96C297.035 304.752 297.867 304.648 298.635 304.648C299.403 304.648 300.051 304.672 300.579 304.72V319.336C301.203 319.576 301.643 319.848 301.898 320.152L301.659 322H296.139L295.899 320.152C296.123 319.848 296.563 319.576 297.219 319.336V307.624C296.659 307.432 296.219 307.16 295.899 306.808L296.139 304.96ZM308.434 322.192C306.546 322.192 305.146 321.688 304.234 320.68C303.322 319.672 302.866 318.152 302.866 316.12C302.866 314.072 303.37 312.512 304.378 311.44C305.402 310.352 306.866 309.808 308.77 309.808C310.674 309.808 312.082 310.288 312.994 311.248C313.922 312.208 314.386 313.712 314.386 315.76C314.386 317.792 313.866 319.376 312.826 320.512C311.802 321.632 310.338 322.192 308.434 322.192ZM306.322 315.904C306.322 318.464 307.09 319.744 308.626 319.744C309.41 319.744 309.986 319.456 310.354 318.88C310.738 318.288 310.93 317.328 310.93 316C310.93 313.504 310.146 312.256 308.578 312.256C307.81 312.256 307.242 312.536 306.874 313.096C306.506 313.64 306.322 314.576 306.322 315.904ZM321.16 322.192C319.272 322.192 317.872 321.688 316.96 320.68C316.048 319.672 315.592 318.152 315.592 316.12C315.592 314.072 316.096 312.512 317.104 311.44C318.128 310.352 319.592 309.808 321.496 309.808C323.4 309.808 324.808 310.288 325.72 311.248C326.648 312.208 327.112 313.712 327.112 315.76C327.112 317.792 326.592 319.376 325.552 320.512C324.528 321.632 323.064 322.192 321.16 322.192ZM319.048 315.904C319.048 318.464 319.816 319.744 321.352 319.744C322.136 319.744 322.712 319.456 323.08 318.88C323.464 318.288 323.656 317.328 323.656 316C323.656 313.504 322.872 312.256 321.304 312.256C320.536 312.256 319.968 312.536 319.6 313.096C319.232 313.64 319.048 314.576 319.048 315.904ZM328.295 304.96C329.191 304.752 330.023 304.648 330.791 304.648C331.559 304.648 332.207 304.672 332.735 304.72V319.336C333.359 319.576 333.799 319.848 334.055 320.152L333.815 322H328.295L328.055 320.152C328.279 319.848 328.719 319.576 329.375 319.336V307.624C328.815 307.432 328.375 307.16 328.055 306.808L328.295 304.96ZM337.199 322L332.951 315.784L335.591 312.352C335.319 312.192 335.127 312.024 335.015 311.848L335.255 310H340.535L340.775 311.848C340.423 312.296 339.759 312.648 338.783 312.904L336.479 315.544L339.191 319.12C340.183 319.344 340.879 319.688 341.279 320.152L341.039 322H337.199ZM342.824 309.76C342.824 308.416 342.88 306.976 342.992 305.44H346.4C346.496 306.864 346.544 308.208 346.544 309.472C346.544 312.464 346.28 315.024 345.752 317.152H343.592C343.08 315.072 342.824 312.608 342.824 309.76ZM344.672 322.24C343.408 322.24 342.776 321.648 342.776 320.464C342.776 319.28 343.408 318.688 344.672 318.688C345.952 318.688 346.592 319.28 346.592 320.464C346.592 321.648 345.952 322.24 344.672 322.24ZM354.342 310C355.238 309.792 356.07 309.688 356.838 309.688C357.606 309.688 358.254 309.712 358.782 309.76V319.336C359.406 319.576 359.846 319.848 360.102 320.152L359.862 322H354.342L354.102 320.152C354.326 319.848 354.766 319.576 355.422 319.336V312.664C354.862 312.472 354.422 312.2 354.102 311.848L354.342 310ZM357.054 308.344C355.726 308.344 355.062 307.744 355.062 306.544C355.062 305.328 355.726 304.72 357.054 304.72C358.398 304.72 359.07 305.328 359.07 306.544C359.07 307.744 358.398 308.344 357.054 308.344ZM371.252 311.968C370.196 311.968 369.668 312.28 369.668 312.904C369.668 313.496 370.22 313.936 371.324 314.224L373.22 314.728C375.172 315.24 376.148 316.368 376.148 318.112C376.148 319.312 375.724 320.296 374.876 321.064C374.044 321.816 372.708 322.192 370.868 322.192C369.044 322.192 367.62 321.936 366.596 321.424C366.58 321.248 366.572 321.072 366.572 320.896C366.572 320.016 366.748 319.224 367.1 318.52H369.092C369.3 318.904 369.436 319.304 369.5 319.72C369.82 319.816 370.276 319.864 370.868 319.864C372.276 319.864 372.98 319.464 372.98 318.664C372.98 318.408 372.884 318.2 372.692 318.04C372.5 317.864 372.124 317.696 371.564 317.536L369.668 316.984C368.692 316.712 367.932 316.312 367.388 315.784C366.844 315.24 366.572 314.448 366.572 313.408C366.572 312.352 366.996 311.488 367.844 310.816C368.692 310.144 369.9 309.808 371.468 309.808C373.052 309.808 374.388 310.04 375.476 310.504C375.492 310.664 375.5 310.824 375.5 310.984C375.5 311.816 375.324 312.584 374.972 313.288H373.004C372.796 312.92 372.66 312.536 372.596 312.136C372.148 312.024 371.7 311.968 371.252 311.968ZM381.648 306.976V310H385.08V312.016H381.648V318.088C381.648 318.6 381.72 318.976 381.864 319.216C382.008 319.44 382.352 319.552 382.896 319.552C383.44 319.552 384.024 319.432 384.648 319.192L385.368 321.064C384.136 321.688 382.872 322 381.576 322C380.296 322 379.424 321.728 378.96 321.184C378.512 320.624 378.288 319.816 378.288 318.76V312.016H377.208L376.944 310.552C377.2 310.248 377.728 309.944 378.528 309.64C378.72 308.328 379.176 307.44 379.896 306.976H381.648ZM391.754 322.192C389.866 322.192 388.466 321.688 387.554 320.68C386.642 319.672 386.186 318.152 386.186 316.12C386.186 314.072 386.69 312.512 387.698 311.44C388.722 310.352 390.186 309.808 392.09 309.808C393.994 309.808 395.402 310.288 396.314 311.248C397.242 312.208 397.706 313.712 397.706 315.76C397.706 317.792 397.186 319.376 396.146 320.512C395.122 321.632 393.658 322.192 391.754 322.192ZM389.642 315.904C389.642 318.464 390.41 319.744 391.946 319.744C392.73 319.744 393.306 319.456 393.674 318.88C394.058 318.288 394.25 317.328 394.25 316C394.25 313.504 393.466 312.256 391.898 312.256C391.13 312.256 390.562 312.536 390.194 313.096C389.826 313.64 389.642 314.576 389.642 315.904ZM398.913 310C399.793 309.808 400.585 309.712 401.289 309.712C401.993 309.712 402.577 309.728 403.041 309.76V310.936C404.113 310.184 405.257 309.808 406.473 309.808C408.073 309.808 409.233 310.264 409.953 311.176C410.673 312.088 411.033 313.608 411.033 315.736C411.033 316.872 410.865 317.872 410.529 318.736C410.193 319.6 409.737 320.272 409.161 320.752C408.057 321.712 406.745 322.192 405.225 322.192C404.569 322.192 403.945 322.128 403.353 322V324.064C404.297 324.32 404.905 324.616 405.177 324.952L404.937 326.8H398.913L398.673 324.952C398.881 324.664 399.321 324.392 399.993 324.136V312.664C399.433 312.472 398.993 312.2 398.673 311.848L398.913 310ZM404.985 319.744C405.785 319.744 406.417 319.392 406.881 318.688C407.345 317.968 407.577 316.984 407.577 315.736C407.577 314.472 407.449 313.608 407.193 313.144C406.937 312.68 406.473 312.448 405.801 312.448C404.777 312.448 403.961 312.688 403.353 313.168V319.552C403.849 319.68 404.393 319.744 404.985 319.744ZM412.248 310C413.128 309.808 413.92 309.712 414.624 309.712C415.328 309.712 415.912 309.728 416.376 309.76V310.936C417.448 310.184 418.592 309.808 419.808 309.808C421.408 309.808 422.568 310.264 423.288 311.176C424.008 312.088 424.368 313.608 424.368 315.736C424.368 316.872 424.2 317.872 423.864 318.736C423.528 319.6 423.072 320.272 422.496 320.752C421.392 321.712 420.08 322.192 418.56 322.192C417.904 322.192 417.28 322.128 416.688 322V324.064C417.632 324.32 418.24 324.616 418.512 324.952L418.272 326.8H412.248L412.008 324.952C412.216 324.664 412.656 324.392 413.328 324.136V312.664C412.768 312.472 412.328 312.2 412.008 311.848L412.248 310ZM418.32 319.744C419.12 319.744 419.752 319.392 420.216 318.688C420.68 317.968 420.912 316.984 420.912 315.736C420.912 314.472 420.784 313.608 420.528 313.144C420.272 312.68 419.808 312.448 419.136 312.448C418.112 312.448 417.296 312.688 416.688 313.168V319.552C417.184 319.68 417.728 319.744 418.32 319.744ZM431.368 322.192C429.448 322.192 428 321.68 427.024 320.656C426.064 319.632 425.584 318.144 425.584 316.192C425.584 315.008 425.752 313.992 426.088 313.144C426.424 312.28 426.88 311.616 427.456 311.152C428.576 310.256 429.88 309.808 431.368 309.808C432.856 309.808 433.992 310.192 434.776 310.96C435.576 311.712 435.976 313.072 435.976 315.04C435.976 316.192 435.408 316.768 434.272 316.768H429.064C429.128 317.776 429.384 318.488 429.832 318.904C430.296 319.32 431.024 319.528 432.016 319.528C432.56 319.528 433.08 319.464 433.576 319.336C434.072 319.208 434.432 319.08 434.656 318.952L434.992 318.76L435.712 320.68C435.616 320.792 435.472 320.936 435.28 321.112C435.104 321.272 434.64 321.496 433.888 321.784C433.152 322.056 432.312 322.192 431.368 322.192ZM432.88 314.632C432.912 314.408 432.928 314.136 432.928 313.816C432.928 313.496 432.8 313.16 432.544 312.808C432.288 312.44 431.84 312.256 431.2 312.256C430.576 312.256 430.096 312.448 429.76 312.832C429.424 313.216 429.2 313.864 429.088 314.776L432.88 314.632ZM443.45 304.96C444.362 304.752 445.234 304.648 446.066 304.648C446.898 304.648 447.61 304.672 448.202 304.72V319.12C448.682 319.2 449.122 319.336 449.522 319.528V321.424C448.562 321.936 447.346 322.192 445.874 322.192C445.714 322.112 445.554 321.968 445.394 321.76C445.25 321.552 445.17 321.352 445.154 321.16C444.802 321.448 444.346 321.696 443.786 321.904C443.226 322.096 442.674 322.192 442.13 322.192C440.402 322.192 439.146 321.728 438.362 320.8C437.594 319.856 437.21 318.32 437.21 316.192C437.21 313.776 437.802 312.08 438.986 311.104C440.026 310.24 441.306 309.808 442.826 309.808C443.498 309.808 444.17 309.888 444.842 310.048V307.672C444.106 307.464 443.562 307.176 443.21 306.808L443.45 304.96ZM442.634 319.744C443.546 319.744 444.282 319.472 444.842 318.928V312.496C444.186 312.336 443.49 312.256 442.754 312.256C442.018 312.256 441.482 312.584 441.146 313.24C440.826 313.88 440.666 314.848 440.666 316.144C440.666 317.424 440.826 318.344 441.146 318.904C441.466 319.464 441.962 319.744 442.634 319.744ZM22.12 333.96C23.016 333.752 23.848 333.648 24.616 333.648C25.384 333.648 26.032 333.672 26.56 333.72V339.72C26.896 339.48 27.344 339.272 27.904 339.096C28.464 338.904 29 338.808 29.512 338.808C31.256 338.808 32.48 339.256 33.184 340.152C33.888 341.048 34.24 342.576 34.24 344.736C34.24 345.936 34.072 346.976 33.736 347.856C33.416 348.72 32.976 349.384 32.416 349.848C31.36 350.744 30.112 351.192 28.672 351.192C27.584 351.192 26.512 350.92 25.456 350.376C25.152 350.792 24.8 351 24.4 351H23.2V336.624C22.64 336.432 22.2 336.16 21.88 335.808L22.12 333.96ZM28.48 348.744C30.016 348.744 30.784 347.456 30.784 344.88C30.784 343.52 30.648 342.6 30.376 342.12C30.12 341.624 29.664 341.376 29.008 341.376C28.016 341.376 27.2 341.64 26.56 342.168V348.336C27.248 348.608 27.888 348.744 28.48 348.744ZM38.3328 353.784C38.6208 353.784 38.9248 353.512 39.2448 352.968C39.5808 352.44 39.8128 351.808 39.9408 351.072L36.0048 341.76C35.2208 341.504 34.6928 341.2 34.4207 340.848L34.6608 339H40.1808L40.4208 340.848C40.2128 341.104 39.8608 341.336 39.3648 341.544L40.6848 345.168C40.9728 345.92 41.1728 346.664 41.2848 347.4L41.3568 347.736H41.6928C41.8208 346.936 42.0448 346.096 42.3648 345.216L43.6368 341.664C43.0448 341.44 42.6288 341.168 42.3888 340.848L42.6288 339H47.9088L48.1488 340.848C47.8608 341.216 47.3328 341.528 46.5648 341.784L42.6048 351.144C41.8528 352.92 41.2768 354.064 40.8768 354.576C40.1728 355.52 39.1888 355.992 37.9248 355.992C36.6768 355.992 35.7247 355.664 35.0688 355.008C35.0528 354.848 35.0448 354.688 35.0448 354.528C35.0448 353.648 35.2288 352.816 35.5968 352.032H37.5888C37.8288 352.464 37.9648 353.048 37.9967 353.784H38.3328ZM61.324 341.952C60.108 341.952 59.268 342.184 58.804 342.648V348.144C60.1 348.384 60.988 348.72 61.468 349.152L61.228 351H54.364L54.124 349.152C54.348 348.848 54.788 348.576 55.444 348.336V341.664C54.884 341.472 54.444 341.2 54.124 340.848L54.364 339C55.244 338.808 56.036 338.712 56.74 338.712C57.444 338.712 58.028 338.728 58.492 338.76V340.272C58.86 339.84 59.332 339.488 59.908 339.216C60.484 338.928 61.004 338.784 61.468 338.784C61.948 338.784 62.276 338.824 62.452 338.904L62.38 342.024C62.06 341.976 61.708 341.952 61.324 341.952ZM68.9727 351.192C67.0847 351.192 65.6847 350.688 64.7727 349.68C63.8607 348.672 63.4047 347.152 63.4047 345.12C63.4047 343.072 63.9087 341.512 64.9167 340.44C65.9407 339.352 67.4047 338.808 69.3087 338.808C71.2127 338.808 72.6207 339.288 73.5327 340.248C74.4607 341.208 74.9247 342.712 74.9247 344.76C74.9247 346.792 74.4047 348.376 73.3647 349.512C72.3407 350.632 70.8767 351.192 68.9727 351.192ZM66.8607 344.904C66.8607 347.464 67.6287 348.744 69.1647 348.744C69.9487 348.744 70.5247 348.456 70.8927 347.88C71.2767 347.288 71.4687 346.328 71.4687 345C71.4687 342.504 70.6847 341.256 69.1167 341.256C68.3487 341.256 67.7807 341.536 67.4127 342.096C67.0447 342.64 66.8607 343.576 66.8607 344.904ZM79.0203 353.784C79.3083 353.784 79.6123 353.512 79.9323 352.968C80.2683 352.44 80.5003 351.808 80.6283 351.072L76.6923 341.76C75.9083 341.504 75.3803 341.2 75.1082 340.848L75.3483 339H80.8683L81.1083 340.848C80.9003 341.104 80.5483 341.336 80.0523 341.544L81.3723 345.168C81.6603 345.92 81.8603 346.664 81.9723 347.4L82.0443 347.736H82.3803C82.5083 346.936 82.7323 346.096 83.0523 345.216L84.3243 341.664C83.7323 341.44 83.3163 341.168 83.0763 340.848L83.3163 339H88.5963L88.8363 340.848C88.5483 341.216 88.0203 341.528 87.2523 341.784L83.2923 351.144C82.5403 352.92 81.9643 354.064 81.5643 354.576C80.8603 355.52 79.8763 355.992 78.6123 355.992C77.3643 355.992 76.4122 355.664 75.7563 355.008C75.7403 354.848 75.7323 354.688 75.7323 354.528C75.7323 353.648 75.9163 352.816 76.2843 352.032H78.2763C78.5163 352.464 78.6523 353.048 78.6842 353.784H79.0203ZM95.0609 341.256C93.5889 341.256 92.8529 342.52 92.8529 345.048C92.8529 346.328 93.0529 347.224 93.4529 347.736C93.8689 348.232 94.4609 348.48 95.2289 348.48C96.4449 348.48 97.5169 348.368 98.4449 348.144L99.1649 349.992C98.6529 350.328 97.9649 350.616 97.1009 350.856C96.2369 351.08 95.3969 351.192 94.5809 351.192C91.1249 351.192 89.3969 349.192 89.3969 345.192C89.3969 342.856 89.9969 341.176 91.1969 340.152C92.2689 339.256 93.5729 338.808 95.1089 338.808C96.6449 338.808 97.9249 339.096 98.9489 339.672C98.9649 339.832 98.9729 339.984 98.9729 340.128C98.9729 341.04 98.7649 341.904 98.3489 342.72H96.2369C96.0129 342.32 95.8769 341.84 95.8289 341.28C95.6369 341.264 95.3809 341.256 95.0609 341.256ZM105.986 351.192C104.066 351.192 102.618 350.68 101.642 349.656C100.682 348.632 100.202 347.144 100.202 345.192C100.202 344.008 100.37 342.992 100.706 342.144C101.042 341.28 101.498 340.616 102.074 340.152C103.194 339.256 104.498 338.808 105.986 338.808C107.474 338.808 108.61 339.192 109.394 339.96C110.194 340.712 110.594 342.072 110.594 344.04C110.594 345.192 110.026 345.768 108.89 345.768H103.682C103.746 346.776 104.002 347.488 104.45 347.904C104.914 348.32 105.642 348.528 106.634 348.528C107.178 348.528 107.698 348.464 108.194 348.336C108.69 348.208 109.05 348.08 109.274 347.952L109.61 347.76L110.33 349.68C110.234 349.792 110.09 349.936 109.898 350.112C109.722 350.272 109.258 350.496 108.506 350.784C107.77 351.056 106.93 351.192 105.986 351.192ZM107.498 343.632C107.53 343.408 107.546 343.136 107.546 342.816C107.546 342.496 107.418 342.16 107.162 341.808C106.906 341.44 106.458 341.256 105.818 341.256C105.194 341.256 104.714 341.448 104.378 341.832C104.042 342.216 103.818 342.864 103.706 343.776L107.498 343.632ZM117.17 333.96C118.066 333.752 118.898 333.648 119.666 333.648C120.434 333.648 121.082 333.672 121.61 333.72V339.72C121.994 339.464 122.506 339.248 123.146 339.072C123.786 338.896 124.354 338.808 124.85 338.808C126.434 338.808 127.53 339.192 128.138 339.96C128.746 340.728 129.05 341.896 129.05 343.464V348.336C129.674 348.576 130.114 348.848 130.37 349.152L130.13 351H124.61L124.37 349.152C124.594 348.848 125.034 348.576 125.69 348.336V343.584C125.69 342.72 125.546 342.144 125.258 341.856C124.986 341.552 124.482 341.4 123.746 341.4C123.01 341.4 122.298 341.656 121.61 342.168V348.336C122.234 348.576 122.674 348.848 122.93 349.152L122.69 351H117.17L116.93 349.152C117.154 348.848 117.594 348.576 118.25 348.336V336.624C117.69 336.432 117.25 336.16 116.93 335.808L117.17 333.96ZM131.69 340.776C131.69 340.536 131.698 340.28 131.714 340.008C133.202 339.208 134.802 338.808 136.514 338.808C138.226 338.808 139.45 339.136 140.186 339.792C140.938 340.432 141.314 341.504 141.314 343.008V348.12C141.874 348.232 142.314 348.368 142.634 348.528V350.616C141.818 351 140.65 351.192 139.13 351.192C138.97 350.776 138.834 350.272 138.722 349.68C138.034 350.688 136.786 351.192 134.978 351.192C133.906 351.192 132.986 350.88 132.218 350.256C131.466 349.632 131.09 348.784 131.09 347.712C131.09 346.64 131.442 345.8 132.146 345.192C132.866 344.568 133.93 344.256 135.338 344.256H137.954V343.104C137.954 341.856 137.29 341.232 135.962 341.232C135.466 341.232 135.058 341.28 134.738 341.376C134.706 342.048 134.61 342.568 134.45 342.936H132.098C131.826 342.376 131.69 341.656 131.69 340.776ZM136.01 348.744C136.826 348.744 137.474 348.504 137.954 348.024V346.056H136.274C135.122 346.056 134.546 346.496 134.546 347.376C134.546 347.776 134.666 348.104 134.906 348.36C135.162 348.616 135.53 348.744 136.01 348.744ZM143.443 333.96C144.339 333.752 145.171 333.648 145.939 333.648C146.707 333.648 147.355 333.672 147.883 333.72V348.336C148.507 348.576 148.947 348.848 149.203 349.152L148.963 351H143.443L143.203 349.152C143.427 348.848 143.867 348.576 144.523 348.336V336.624C143.963 336.432 143.523 336.16 143.203 335.808L143.443 333.96ZM150.146 333.96C151.042 333.752 151.874 333.648 152.642 333.648C153.41 333.648 154.058 333.672 154.586 333.72V348.336C155.21 348.576 155.65 348.848 155.906 349.152L155.666 351H150.146L149.906 349.152C150.13 348.848 150.57 348.576 151.226 348.336V336.624C150.666 336.432 150.226 336.16 149.906 335.808L150.146 333.96ZM168.048 351.192C166.128 351.192 164.68 350.68 163.704 349.656C162.744 348.632 162.264 347.144 162.264 345.192C162.264 344.008 162.432 342.992 162.768 342.144C163.104 341.28 163.56 340.616 164.136 340.152C165.256 339.256 166.56 338.808 168.048 338.808C169.536 338.808 170.672 339.192 171.456 339.96C172.256 340.712 172.656 342.072 172.656 344.04C172.656 345.192 172.088 345.768 170.952 345.768H165.744C165.808 346.776 166.064 347.488 166.512 347.904C166.976 348.32 167.704 348.528 168.696 348.528C169.24 348.528 169.76 348.464 170.256 348.336C170.752 348.208 171.112 348.08 171.336 347.952L171.672 347.76L172.392 349.68C172.296 349.792 172.152 349.936 171.96 350.112C171.784 350.272 171.32 350.496 170.568 350.784C169.832 351.056 168.992 351.192 168.048 351.192ZM169.56 343.632C169.592 343.408 169.608 343.136 169.608 342.816C169.608 342.496 169.48 342.16 169.224 341.808C168.968 341.44 168.52 341.256 167.88 341.256C167.256 341.256 166.776 341.448 166.44 341.832C166.104 342.216 165.88 342.864 165.768 343.776L169.56 343.632ZM174.37 340.776C174.37 340.536 174.378 340.28 174.394 340.008C175.882 339.208 177.482 338.808 179.194 338.808C180.906 338.808 182.13 339.136 182.866 339.792C183.618 340.432 183.994 341.504 183.994 343.008V348.12C184.554 348.232 184.994 348.368 185.314 348.528V350.616C184.498 351 183.33 351.192 181.81 351.192C181.65 350.776 181.514 350.272 181.402 349.68C180.714 350.688 179.466 351.192 177.658 351.192C176.586 351.192 175.666 350.88 174.898 350.256C174.146 349.632 173.77 348.784 173.77 347.712C173.77 346.64 174.122 345.8 174.826 345.192C175.546 344.568 176.61 344.256 178.018 344.256H180.634V343.104C180.634 341.856 179.97 341.232 178.642 341.232C178.146 341.232 177.738 341.28 177.418 341.376C177.386 342.048 177.29 342.568 177.13 342.936H174.778C174.506 342.376 174.37 341.656 174.37 340.776ZM178.69 348.744C179.506 348.744 180.154 348.504 180.634 348.024V346.056H178.954C177.802 346.056 177.226 346.496 177.226 347.376C177.226 347.776 177.346 348.104 177.586 348.36C177.842 348.616 178.21 348.744 178.69 348.744ZM193.371 341.952C192.155 341.952 191.315 342.184 190.851 342.648V348.144C192.147 348.384 193.035 348.72 193.515 349.152L193.275 351H186.411L186.171 349.152C186.395 348.848 186.835 348.576 187.491 348.336V341.664C186.931 341.472 186.491 341.2 186.171 340.848L186.411 339C187.291 338.808 188.083 338.712 188.787 338.712C189.491 338.712 190.075 338.728 190.539 338.76V340.272C190.907 339.84 191.379 339.488 191.955 339.216C192.531 338.928 193.051 338.784 193.515 338.784C193.995 338.784 194.323 338.824 194.499 338.904L194.427 342.024C194.107 341.976 193.755 341.952 193.371 341.952ZM195.428 333.96C196.324 333.752 197.156 333.648 197.924 333.648C198.692 333.648 199.34 333.672 199.868 333.72V348.336C200.492 348.576 200.932 348.848 201.188 349.152L200.948 351H195.428L195.188 349.152C195.412 348.848 195.852 348.576 196.508 348.336V336.624C195.948 336.432 195.508 336.16 195.188 335.808L195.428 333.96ZM202.467 339C203.363 338.792 204.195 338.688 204.963 338.688C205.731 338.688 206.379 338.712 206.907 338.76V348.336C207.531 348.576 207.971 348.848 208.227 349.152L207.987 351H202.467L202.227 349.152C202.451 348.848 202.891 348.576 203.547 348.336V341.664C202.987 341.472 202.547 341.2 202.227 340.848L202.467 339ZM205.179 337.344C203.851 337.344 203.187 336.744 203.187 335.544C203.187 334.328 203.851 333.72 205.179 333.72C206.523 333.72 207.195 334.328 207.195 335.544C207.195 336.744 206.523 337.344 205.179 337.344ZM214.947 351.192C213.027 351.192 211.579 350.68 210.603 349.656C209.643 348.632 209.163 347.144 209.163 345.192C209.163 344.008 209.331 342.992 209.667 342.144C210.003 341.28 210.459 340.616 211.035 340.152C212.155 339.256 213.459 338.808 214.947 338.808C216.435 338.808 217.571 339.192 218.355 339.96C219.155 340.712 219.555 342.072 219.555 344.04C219.555 345.192 218.987 345.768 217.851 345.768H212.643C212.707 346.776 212.963 347.488 213.411 347.904C213.875 348.32 214.603 348.528 215.595 348.528C216.139 348.528 216.659 348.464 217.155 348.336C217.651 348.208 218.011 348.08 218.235 347.952L218.571 347.76L219.291 349.68C219.195 349.792 219.051 349.936 218.859 350.112C218.683 350.272 218.219 350.496 217.467 350.784C216.731 351.056 215.891 351.192 214.947 351.192ZM216.459 343.632C216.491 343.408 216.507 343.136 216.507 342.816C216.507 342.496 216.379 342.16 216.123 341.808C215.867 341.44 215.419 341.256 214.779 341.256C214.155 341.256 213.675 341.448 213.339 341.832C213.003 342.216 212.779 342.864 212.667 343.776L216.459 343.632ZM227.988 341.952C226.772 341.952 225.932 342.184 225.468 342.648V348.144C226.764 348.384 227.652 348.72 228.132 349.152L227.892 351H221.028L220.788 349.152C221.012 348.848 221.452 348.576 222.108 348.336V341.664C221.548 341.472 221.108 341.2 220.788 340.848L221.028 339C221.908 338.808 222.7 338.712 223.404 338.712C224.108 338.712 224.692 338.728 225.156 338.76V340.272C225.524 339.84 225.996 339.488 226.572 339.216C227.148 338.928 227.668 338.784 228.132 338.784C228.612 338.784 228.94 338.824 229.116 338.904L229.044 342.024C228.724 341.976 228.372 341.952 227.988 341.952ZM239.851 335.976V339H243.283V341.016H239.851V347.088C239.851 347.6 239.923 347.976 240.067 348.216C240.211 348.44 240.555 348.552 241.099 348.552C241.643 348.552 242.227 348.432 242.851 348.192L243.571 350.064C242.339 350.688 241.075 351 239.779 351C238.499 351 237.627 350.728 237.163 350.184C236.715 349.624 236.491 348.816 236.491 347.76V341.016H235.411L235.147 339.552C235.403 339.248 235.931 338.944 236.731 338.64C236.923 337.328 237.379 336.44 238.099 335.976H239.851ZM249.957 351.192C248.069 351.192 246.669 350.688 245.757 349.68C244.845 348.672 244.389 347.152 244.389 345.12C244.389 343.072 244.893 341.512 245.901 340.44C246.925 339.352 248.389 338.808 250.293 338.808C252.197 338.808 253.605 339.288 254.517 340.248C255.445 341.208 255.909 342.712 255.909 344.76C255.909 346.792 255.389 348.376 254.349 349.512C253.325 350.632 251.861 351.192 249.957 351.192ZM247.845 344.904C247.845 347.464 248.613 348.744 250.149 348.744C250.933 348.744 251.509 348.456 251.877 347.88C252.261 347.288 252.453 346.328 252.453 345C252.453 342.504 251.669 341.256 250.101 341.256C249.333 341.256 248.765 341.536 248.397 342.096C248.029 342.64 247.845 343.576 247.845 344.904ZM263.38 333.96C264.292 333.752 265.164 333.648 265.996 333.648C266.828 333.648 267.54 333.672 268.132 333.72V348.12C268.612 348.2 269.052 348.336 269.452 348.528V350.424C268.492 350.936 267.276 351.192 265.804 351.192C265.644 351.112 265.484 350.968 265.324 350.76C265.18 350.552 265.1 350.352 265.084 350.16C264.732 350.448 264.276 350.696 263.716 350.904C263.156 351.096 262.604 351.192 262.06 351.192C260.332 351.192 259.076 350.728 258.292 349.8C257.524 348.856 257.14 347.32 257.14 345.192C257.14 342.776 257.732 341.08 258.916 340.104C259.956 339.24 261.236 338.808 262.756 338.808C263.428 338.808 264.1 338.888 264.772 339.048V336.672C264.036 336.464 263.492 336.176 263.14 335.808L263.38 333.96ZM262.564 348.744C263.476 348.744 264.212 348.472 264.772 347.928V341.496C264.116 341.336 263.42 341.256 262.684 341.256C261.948 341.256 261.412 341.584 261.076 342.24C260.756 342.88 260.596 343.848 260.596 345.144C260.596 346.424 260.756 347.344 261.076 347.904C261.396 348.464 261.892 348.744 262.564 348.744ZM270.932 340.776C270.932 340.536 270.94 340.28 270.956 340.008C272.444 339.208 274.044 338.808 275.756 338.808C277.468 338.808 278.692 339.136 279.428 339.792C280.18 340.432 280.556 341.504 280.556 343.008V348.12C281.116 348.232 281.556 348.368 281.876 348.528V350.616C281.06 351 279.892 351.192 278.372 351.192C278.212 350.776 278.076 350.272 277.964 349.68C277.276 350.688 276.028 351.192 274.22 351.192C273.148 351.192 272.228 350.88 271.46 350.256C270.708 349.632 270.332 348.784 270.332 347.712C270.332 346.64 270.684 345.8 271.388 345.192C272.108 344.568 273.172 344.256 274.58 344.256H277.196V343.104C277.196 341.856 276.532 341.232 275.204 341.232C274.708 341.232 274.3 341.28 273.98 341.376C273.948 342.048 273.852 342.568 273.692 342.936H271.34C271.068 342.376 270.932 341.656 270.932 340.776ZM275.252 348.744C276.068 348.744 276.716 348.504 277.196 348.024V346.056H275.516C274.364 346.056 273.788 346.496 273.788 347.376C273.788 347.776 273.908 348.104 274.148 348.36C274.404 348.616 274.772 348.744 275.252 348.744ZM285.387 353.784C285.675 353.784 285.979 353.512 286.299 352.968C286.635 352.44 286.867 351.808 286.995 351.072L283.059 341.76C282.275 341.504 281.747 341.2 281.475 340.848L281.715 339H287.235L287.475 340.848C287.267 341.104 286.915 341.336 286.419 341.544L287.739 345.168C288.027 345.92 288.227 346.664 288.339 347.4L288.411 347.736H288.747C288.875 346.936 289.099 346.096 289.419 345.216L290.691 341.664C290.099 341.44 289.683 341.168 289.443 340.848L289.683 339H294.963L295.203 340.848C294.915 341.216 294.387 341.528 293.619 341.784L289.659 351.144C288.907 352.92 288.331 354.064 287.931 354.576C287.227 355.52 286.243 355.992 284.979 355.992C283.731 355.992 282.779 355.664 282.123 355.008C282.107 354.848 282.099 354.688 282.099 354.528C282.099 353.648 282.283 352.816 282.651 352.032H284.643C284.883 352.464 285.019 353.048 285.051 353.784H285.387ZM305.547 335.976V339H308.979V341.016H305.547V347.088C305.547 347.6 305.619 347.976 305.763 348.216C305.907 348.44 306.251 348.552 306.795 348.552C307.339 348.552 307.923 348.432 308.547 348.192L309.267 350.064C308.035 350.688 306.771 351 305.475 351C304.195 351 303.323 350.728 302.859 350.184C302.411 349.624 302.187 348.816 302.187 347.76V341.016H301.107L300.843 339.552C301.099 339.248 301.627 338.944 302.427 338.64C302.619 337.328 303.075 336.44 303.795 335.976H305.547ZM315.652 351.192C313.764 351.192 312.364 350.688 311.452 349.68C310.54 348.672 310.084 347.152 310.084 345.12C310.084 343.072 310.588 341.512 311.596 340.44C312.62 339.352 314.084 338.808 315.988 338.808C317.892 338.808 319.3 339.288 320.212 340.248C321.14 341.208 321.604 342.712 321.604 344.76C321.604 346.792 321.084 348.376 320.044 349.512C319.02 350.632 317.556 351.192 315.652 351.192ZM313.54 344.904C313.54 347.464 314.308 348.744 315.844 348.744C316.628 348.744 317.204 348.456 317.572 347.88C317.956 347.288 318.148 346.328 318.148 345C318.148 342.504 317.364 341.256 315.796 341.256C315.028 341.256 314.46 341.536 314.092 342.096C313.724 342.64 313.54 343.576 313.54 344.904ZM332.594 335.976V339H336.026V341.016H332.594V347.088C332.594 347.6 332.666 347.976 332.81 348.216C332.954 348.44 333.298 348.552 333.842 348.552C334.386 348.552 334.97 348.432 335.594 348.192L336.314 350.064C335.082 350.688 333.818 351 332.522 351C331.242 351 330.37 350.728 329.906 350.184C329.458 349.624 329.234 348.816 329.234 347.76V341.016H328.154L327.89 339.552C328.146 339.248 328.674 338.944 329.474 338.64C329.666 337.328 330.122 336.44 330.842 335.976H332.594ZM337.635 340.776C337.635 340.536 337.643 340.28 337.659 340.008C339.147 339.208 340.747 338.808 342.459 338.808C344.171 338.808 345.395 339.136 346.131 339.792C346.883 340.432 347.259 341.504 347.259 343.008V348.12C347.819 348.232 348.259 348.368 348.579 348.528V350.616C347.763 351 346.595 351.192 345.075 351.192C344.915 350.776 344.779 350.272 344.667 349.68C343.979 350.688 342.731 351.192 340.923 351.192C339.851 351.192 338.931 350.88 338.163 350.256C337.411 349.632 337.035 348.784 337.035 347.712C337.035 346.64 337.387 345.8 338.091 345.192C338.811 344.568 339.875 344.256 341.283 344.256H343.899V343.104C343.899 341.856 343.235 341.232 341.907 341.232C341.411 341.232 341.003 341.28 340.683 341.376C340.651 342.048 340.555 342.568 340.395 342.936H338.043C337.771 342.376 337.635 341.656 337.635 340.776ZM341.955 348.744C342.771 348.744 343.419 348.504 343.899 348.024V346.056H342.219C341.067 346.056 340.491 346.496 340.491 347.376C340.491 347.776 340.611 348.104 340.851 348.36C341.107 348.616 341.475 348.744 341.955 348.744ZM349.389 333.96C350.285 333.752 351.117 333.648 351.885 333.648C352.653 333.648 353.301 333.672 353.829 333.72V348.336C354.453 348.576 354.893 348.848 355.148 349.152L354.909 351H349.389L349.149 349.152C349.373 348.848 349.813 348.576 350.469 348.336V336.624C349.909 336.432 349.469 336.16 349.149 335.808L349.389 333.96ZM358.293 351L354.045 344.784L356.685 341.352C356.413 341.192 356.221 341.024 356.109 340.848L356.349 339H361.629L361.869 340.848C361.517 341.296 360.853 341.648 359.877 341.904L357.573 344.544L360.285 348.12C361.277 348.344 361.973 348.688 362.372 349.152L362.133 351H358.293ZM368.814 351.192C366.894 351.192 365.446 350.68 364.47 349.656C363.51 348.632 363.03 347.144 363.03 345.192C363.03 344.008 363.198 342.992 363.534 342.144C363.87 341.28 364.326 340.616 364.902 340.152C366.022 339.256 367.326 338.808 368.814 338.808C370.302 338.808 371.438 339.192 372.222 339.96C373.022 340.712 373.422 342.072 373.422 344.04C373.422 345.192 372.854 345.768 371.718 345.768H366.51C366.574 346.776 366.83 347.488 367.278 347.904C367.742 348.32 368.47 348.528 369.462 348.528C370.006 348.528 370.526 348.464 371.022 348.336C371.518 348.208 371.878 348.08 372.102 347.952L372.438 347.76L373.158 349.68C373.062 349.792 372.918 349.936 372.726 350.112C372.55 350.272 372.086 350.496 371.334 350.784C370.598 351.056 369.758 351.192 368.814 351.192ZM370.326 343.632C370.358 343.408 370.374 343.136 370.374 342.816C370.374 342.496 370.246 342.16 369.99 341.808C369.734 341.44 369.286 341.256 368.646 341.256C368.022 341.256 367.542 341.448 367.206 341.832C366.87 342.216 366.646 342.864 366.534 343.776L370.326 343.632ZM380.526 340.776C380.526 340.536 380.534 340.28 380.55 340.008C382.038 339.208 383.638 338.808 385.35 338.808C387.062 338.808 388.286 339.136 389.022 339.792C389.774 340.432 390.15 341.504 390.15 343.008V348.12C390.71 348.232 391.15 348.368 391.47 348.528V350.616C390.654 351 389.486 351.192 387.966 351.192C387.806 350.776 387.67 350.272 387.558 349.68C386.87 350.688 385.622 351.192 383.814 351.192C382.742 351.192 381.822 350.88 381.054 350.256C380.302 349.632 379.926 348.784 379.926 347.712C379.926 346.64 380.278 345.8 380.982 345.192C381.702 344.568 382.766 344.256 384.174 344.256H386.79V343.104C386.79 341.856 386.126 341.232 384.798 341.232C384.302 341.232 383.894 341.28 383.574 341.376C383.542 342.048 383.446 342.568 383.286 342.936H380.934C380.662 342.376 380.526 341.656 380.526 340.776ZM384.846 348.744C385.662 348.744 386.31 348.504 386.79 348.024V346.056H385.11C383.958 346.056 383.382 346.496 383.382 347.376C383.382 347.776 383.502 348.104 383.742 348.36C383.998 348.616 384.366 348.744 384.846 348.744ZM402.518 340.968C401.462 340.968 400.934 341.28 400.934 341.904C400.934 342.496 401.486 342.936 402.59 343.224L404.486 343.728C406.438 344.24 407.414 345.368 407.414 347.112C407.414 348.312 406.99 349.296 406.142 350.064C405.31 350.816 403.974 351.192 402.134 351.192C400.31 351.192 398.886 350.936 397.862 350.424C397.846 350.248 397.838 350.072 397.838 349.896C397.838 349.016 398.014 348.224 398.366 347.52H400.358C400.566 347.904 400.702 348.304 400.766 348.72C401.086 348.816 401.542 348.864 402.134 348.864C403.542 348.864 404.246 348.464 404.246 347.664C404.246 347.408 404.15 347.2 403.958 347.04C403.766 346.864 403.39 346.696 402.83 346.536L400.934 345.984C399.958 345.712 399.198 345.312 398.654 344.784C398.11 344.24 397.838 343.448 397.838 342.408C397.838 341.352 398.262 340.488 399.11 339.816C399.958 339.144 401.166 338.808 402.734 338.808C404.318 338.808 405.654 339.04 406.742 339.504C406.758 339.664 406.766 339.824 406.766 339.984C406.766 340.816 406.59 341.584 406.238 342.288H404.27C404.062 341.92 403.926 341.536 403.862 341.136C403.414 341.024 402.966 340.968 402.518 340.968ZM414.306 351.192C412.386 351.192 410.938 350.68 409.962 349.656C409.002 348.632 408.522 347.144 408.522 345.192C408.522 344.008 408.69 342.992 409.026 342.144C409.362 341.28 409.818 340.616 410.394 340.152C411.514 339.256 412.818 338.808 414.306 338.808C415.794 338.808 416.93 339.192 417.714 339.96C418.514 340.712 418.914 342.072 418.914 344.04C418.914 345.192 418.346 345.768 417.21 345.768H412.002C412.066 346.776 412.322 347.488 412.77 347.904C413.234 348.32 413.962 348.528 414.954 348.528C415.498 348.528 416.018 348.464 416.514 348.336C417.01 348.208 417.37 348.08 417.594 347.952L417.93 347.76L418.65 349.68C418.554 349.792 418.41 349.936 418.218 350.112C418.042 350.272 417.578 350.496 416.826 350.784C416.09 351.056 415.25 351.192 414.306 351.192ZM415.818 343.632C415.85 343.408 415.866 343.136 415.866 342.816C415.866 342.496 415.738 342.16 415.482 341.808C415.226 341.44 414.778 341.256 414.138 341.256C413.514 341.256 413.034 341.448 412.698 341.832C412.362 342.216 412.138 342.864 412.026 343.776L415.818 343.632ZM420.099 333.96C420.995 333.752 421.827 333.648 422.595 333.648C423.363 333.648 424.011 333.672 424.539 333.72V348.336C425.163 348.576 425.603 348.848 425.859 349.152L425.619 351H420.099L419.859 349.152C420.083 348.848 420.523 348.576 421.179 348.336V336.624C420.619 336.432 420.179 336.16 419.859 335.808L420.099 333.96ZM428.171 338.544C428.171 336.88 428.531 335.632 429.251 334.8C429.971 333.952 431.115 333.528 432.683 333.528C434.251 333.528 435.611 333.952 436.763 334.8C436.779 334.912 436.787 335.08 436.787 335.304C436.787 335.512 436.731 335.864 436.619 336.36C436.507 336.856 436.355 337.256 436.163 337.56H434.147C433.859 337.016 433.707 336.504 433.691 336.024C433.499 335.992 433.339 335.976 433.211 335.976C432.603 335.976 432.171 336.144 431.915 336.48C431.659 336.816 431.531 337.424 431.531 338.304V339.216H435.203V341.424H431.531V348.216C432.731 348.456 433.547 348.768 433.979 349.152L433.739 351H427.091L426.851 349.152C427.075 348.848 427.515 348.576 428.171 348.336V341.424H427.115L426.851 339.768C427.203 339.448 427.643 339.264 428.171 339.216V338.544ZM436.654 339C437.55 338.792 438.382 338.688 439.15 338.688C439.918 338.688 440.566 338.712 441.094 338.76V348.336C441.718 348.576 442.158 348.848 442.414 349.152L442.174 351H436.654L436.414 349.152C436.638 348.848 437.078 348.576 437.734 348.336V341.664C437.174 341.472 436.734 341.2 436.414 340.848L436.654 339ZM439.366 337.344C438.038 337.344 437.374 336.744 437.374 335.544C437.374 334.328 438.038 333.72 439.366 333.72C440.71 333.72 441.382 334.328 441.382 335.544C441.382 336.744 440.71 337.344 439.366 337.344ZM449.134 351.192C447.214 351.192 445.766 350.68 444.79 349.656C443.83 348.632 443.35 347.144 443.35 345.192C443.35 344.008 443.518 342.992 443.854 342.144C444.19 341.28 444.646 340.616 445.222 340.152C446.342 339.256 447.646 338.808 449.134 338.808C450.622 338.808 451.758 339.192 452.542 339.96C453.342 340.712 453.742 342.072 453.742 344.04C453.742 345.192 453.174 345.768 452.038 345.768H446.83C446.894 346.776 447.15 347.488 447.598 347.904C448.062 348.32 448.79 348.528 449.782 348.528C450.326 348.528 450.846 348.464 451.342 348.336C451.838 348.208 452.198 348.08 452.422 347.952L452.758 347.76L453.478 349.68C453.382 349.792 453.238 349.936 453.046 350.112C452.87 350.272 452.406 350.496 451.654 350.784C450.918 351.056 450.078 351.192 449.134 351.192ZM450.646 343.632C450.678 343.408 450.694 343.136 450.694 342.816C450.694 342.496 450.566 342.16 450.31 341.808C450.054 341.44 449.606 341.256 448.966 341.256C448.342 341.256 447.862 341.448 447.526 341.832C447.19 342.216 446.966 342.864 446.854 343.776L450.646 343.632ZM22.912 368C23.808 367.792 24.64 367.688 25.408 367.688C26.176 367.688 26.824 367.712 27.352 367.76V377.336C27.976 377.576 28.416 377.848 28.672 378.152L28.432 380H22.912L22.672 378.152C22.896 377.848 23.336 377.576 23.992 377.336V370.664C23.432 370.472 22.992 370.2 22.672 369.848L22.912 368ZM25.624 366.344C24.296 366.344 23.632 365.744 23.632 364.544C23.632 363.328 24.296 362.72 25.624 362.72C26.968 362.72 27.64 363.328 27.64 364.544C27.64 365.744 26.968 366.344 25.624 366.344ZM29.8718 368C30.7518 367.808 31.5438 367.712 32.2478 367.712C32.9518 367.712 33.5358 367.728 33.9998 367.76V368.96C34.3998 368.624 34.9278 368.352 35.5838 368.144C36.2558 367.92 36.8958 367.808 37.5038 367.808C39.0718 367.808 40.1678 368.176 40.7918 368.912C41.4318 369.648 41.7518 370.92 41.7518 372.728V377.336C42.3758 377.576 42.8158 377.848 43.0718 378.152L42.8318 380H37.3118L37.0718 378.152C37.2958 377.848 37.7358 377.576 38.3918 377.336V372.584C38.3918 371.72 38.2478 371.144 37.9598 370.856C37.6878 370.552 37.1918 370.4 36.4718 370.4C35.7518 370.4 35.0318 370.656 34.3118 371.168V377.336C34.9358 377.576 35.3758 377.848 35.6318 378.152L35.3918 380H29.8718L29.6318 378.152C29.8558 377.848 30.2958 377.576 30.9518 377.336V370.664C30.3918 370.472 29.9518 370.2 29.6318 369.848L29.8718 368ZM50.6159 367.544C50.6159 365.88 50.9759 364.632 51.6959 363.8C52.4159 362.952 53.5599 362.528 55.1279 362.528C56.6959 362.528 58.0559 362.952 59.2079 363.8C59.2239 363.912 59.2319 364.08 59.2319 364.304C59.2319 364.512 59.1759 364.864 59.0639 365.36C58.9519 365.856 58.7999 366.256 58.6079 366.56H56.5919C56.3039 366.016 56.1519 365.504 56.1359 365.024C55.9439 364.992 55.7839 364.976 55.6559 364.976C55.0479 364.976 54.6159 365.144 54.3599 365.48C54.1039 365.816 53.9759 366.424 53.9759 367.304V368.216H57.6479V370.424H53.9759V377.216C55.1759 377.456 55.9919 377.768 56.4239 378.152L56.1839 380H49.5359L49.2959 378.152C49.5199 377.848 49.9599 377.576 50.6159 377.336V370.424H49.5599L49.2959 368.768C49.6479 368.448 50.0879 368.264 50.6159 368.216V367.544ZM65.6599 370.952C64.4439 370.952 63.6039 371.184 63.1399 371.648V377.144C64.4359 377.384 65.3239 377.72 65.8039 378.152L65.5639 380H58.6999L58.4599 378.152C58.6839 377.848 59.1239 377.576 59.7799 377.336V370.664C59.2199 370.472 58.7799 370.2 58.4599 369.848L58.6999 368C59.5799 367.808 60.3719 367.712 61.0759 367.712C61.7799 367.712 62.3639 367.728 62.8279 367.76V369.272C63.1959 368.84 63.6679 368.488 64.2439 368.216C64.8199 367.928 65.3399 367.784 65.8039 367.784C66.2839 367.784 66.6119 367.824 66.7879 367.904L66.7159 371.024C66.3959 370.976 66.0439 370.952 65.6599 370.952ZM73.3086 380.192C71.4206 380.192 70.0206 379.688 69.1086 378.68C68.1966 377.672 67.7406 376.152 67.7406 374.12C67.7406 372.072 68.2446 370.512 69.2526 369.44C70.2766 368.352 71.7406 367.808 73.6446 367.808C75.5486 367.808 76.9566 368.288 77.8686 369.248C78.7966 370.208 79.2606 371.712 79.2606 373.76C79.2606 375.792 78.7406 377.376 77.7006 378.512C76.6766 379.632 75.2126 380.192 73.3086 380.192ZM71.1966 373.904C71.1966 376.464 71.9646 377.744 73.5006 377.744C74.2846 377.744 74.8606 377.456 75.2286 376.88C75.6126 376.288 75.8046 375.328 75.8046 374C75.8046 371.504 75.0206 370.256 73.4526 370.256C72.6846 370.256 72.1166 370.536 71.7486 371.096C71.3806 371.64 71.1966 372.576 71.1966 373.904ZM80.7312 368C81.6112 367.808 82.4032 367.712 83.1072 367.712C83.8112 367.712 84.3952 367.728 84.8592 367.76V368.96C85.2592 368.624 85.7872 368.352 86.4432 368.144C87.1152 367.92 87.7552 367.808 88.3632 367.808C89.9312 367.808 91.0272 368.176 91.6512 368.912C92.2912 369.648 92.6112 370.92 92.6112 372.728V377.336C93.2352 377.576 93.6752 377.848 93.9312 378.152L93.6912 380H88.1712L87.9312 378.152C88.1552 377.848 88.5952 377.576 89.2512 377.336V372.584C89.2512 371.72 89.1072 371.144 88.8192 370.856C88.5472 370.552 88.0512 370.4 87.3312 370.4C86.6112 370.4 85.8912 370.656 85.1712 371.168V377.336C85.7952 377.576 86.2352 377.848 86.4912 378.152L86.2512 380H80.7312L80.4912 378.152C80.7152 377.848 81.1552 377.576 81.8112 377.336V370.664C81.2512 370.472 80.8112 370.2 80.4912 369.848L80.7312 368ZM99.1326 364.976V368H102.565V370.016H99.1326V376.088C99.1326 376.6 99.2046 376.976 99.3486 377.216C99.4926 377.44 99.8366 377.552 100.381 377.552C100.925 377.552 101.509 377.432 102.133 377.192L102.853 379.064C101.621 379.688 100.357 380 99.0606 380C97.7806 380 96.9086 379.728 96.4446 379.184C95.9966 378.624 95.7726 377.816 95.7726 376.76V370.016H94.6926L94.4286 368.552C94.6846 368.248 95.2126 367.944 96.0126 367.64C96.2046 366.328 96.6606 365.44 97.3806 364.976H99.1326ZM114.629 380.192C112.741 380.192 111.341 379.688 110.429 378.68C109.517 377.672 109.061 376.152 109.061 374.12C109.061 372.072 109.565 370.512 110.573 369.44C111.597 368.352 113.061 367.808 114.965 367.808C116.869 367.808 118.277 368.288 119.189 369.248C120.117 370.208 120.581 371.712 120.581 373.76C120.581 375.792 120.061 377.376 119.021 378.512C117.997 379.632 116.533 380.192 114.629 380.192ZM112.517 373.904C112.517 376.464 113.285 377.744 114.821 377.744C115.605 377.744 116.181 377.456 116.549 376.88C116.933 376.288 117.125 375.328 117.125 374C117.125 371.504 116.341 370.256 114.773 370.256C114.005 370.256 113.437 370.536 113.069 371.096C112.701 371.64 112.517 372.576 112.517 373.904ZM123.132 367.544C123.132 365.88 123.492 364.632 124.212 363.8C124.932 362.952 126.076 362.528 127.644 362.528C129.212 362.528 130.572 362.952 131.724 363.8C131.74 363.912 131.748 364.08 131.748 364.304C131.748 364.512 131.692 364.864 131.58 365.36C131.468 365.856 131.316 366.256 131.124 366.56H129.108C128.82 366.016 128.668 365.504 128.652 365.024C128.46 364.992 128.3 364.976 128.172 364.976C127.564 364.976 127.132 365.144 126.876 365.48C126.62 365.816 126.492 366.424 126.492 367.304V368.216H130.164V370.424H126.492V377.216C127.692 377.456 128.508 377.768 128.94 378.152L128.7 380H122.052L121.812 378.152C122.036 377.848 122.476 377.576 123.132 377.336V370.424H122.076L121.812 368.768C122.164 368.448 122.604 368.264 123.132 368.216V367.544ZM136.654 368C137.55 367.792 138.382 367.688 139.15 367.688C139.918 367.688 140.566 367.712 141.094 367.76V377.336C141.718 377.576 142.158 377.848 142.414 378.152L142.174 380H136.654L136.414 378.152C136.638 377.848 137.078 377.576 137.734 377.336V370.664C137.174 370.472 136.734 370.2 136.414 369.848L136.654 368ZM139.366 366.344C138.038 366.344 137.374 365.744 137.374 364.544C137.374 363.328 138.038 362.72 139.366 362.72C140.71 362.72 141.382 363.328 141.382 364.544C141.382 365.744 140.71 366.344 139.366 366.344ZM147.742 364.976V368H151.174V370.016H147.742V376.088C147.742 376.6 147.814 376.976 147.958 377.216C148.102 377.44 148.446 377.552 148.99 377.552C149.534 377.552 150.118 377.432 150.742 377.192L151.462 379.064C150.23 379.688 148.966 380 147.67 380C146.39 380 145.518 379.728 145.054 379.184C144.606 378.624 144.382 377.816 144.382 376.76V370.016H143.302L143.038 368.552C143.294 368.248 143.822 367.944 144.622 367.64C144.814 366.328 145.27 365.44 145.99 364.976H147.742ZM154.56 380.24C153.232 380.24 152.568 379.64 152.568 378.44C152.568 377.224 153.232 376.616 154.56 376.616C155.904 376.616 156.576 377.224 156.576 378.44C156.576 379.64 155.904 380.24 154.56 380.24ZM160.325 380.24C158.997 380.24 158.333 379.64 158.333 378.44C158.333 377.224 158.997 376.616 160.325 376.616C161.669 376.616 162.341 377.224 162.341 378.44C162.341 379.64 161.669 380.24 160.325 380.24ZM166.091 380.24C164.763 380.24 164.099 379.64 164.099 378.44C164.099 377.224 164.763 376.616 166.091 376.616C167.435 376.616 168.107 377.224 168.107 378.44C168.107 379.64 167.435 380.24 166.091 380.24ZM175.231 368C176.111 367.808 176.903 367.712 177.607 367.712C178.311 367.712 178.895 367.728 179.359 367.76V368.96C179.743 368.64 180.223 368.368 180.799 368.144C181.375 367.92 181.895 367.808 182.359 367.808C184.183 367.808 185.399 368.264 186.007 369.176C186.407 368.792 186.935 368.472 187.591 368.216C188.247 367.944 188.855 367.808 189.415 367.808C191.175 367.808 192.359 368.208 192.967 369.008C193.575 369.792 193.879 371.272 193.879 373.448V377.336C194.503 377.576 194.943 377.848 195.199 378.152L194.959 380H189.439L189.199 378.152C189.423 377.848 189.863 377.576 190.519 377.336V372.584C190.519 371.704 190.399 371.12 190.159 370.832C189.919 370.544 189.439 370.4 188.719 370.4C188.015 370.4 187.343 370.664 186.703 371.192C186.783 371.736 186.823 372.488 186.823 373.448V377.336C187.447 377.576 187.887 377.848 188.143 378.152L187.903 380H182.383L182.143 378.152C182.367 377.848 182.807 377.576 183.463 377.336V372.584C183.463 371.704 183.343 371.12 183.103 370.832C182.863 370.544 182.391 370.4 181.687 370.4C180.983 370.4 180.311 370.656 179.671 371.168V377.336C180.295 377.576 180.735 377.848 180.991 378.152L180.751 380H175.231L174.991 378.152C175.215 377.848 175.655 377.576 176.311 377.336V370.664C175.751 370.472 175.311 370.2 174.991 369.848L175.231 368ZM196.495 369.776C196.495 369.536 196.503 369.28 196.519 369.008C198.007 368.208 199.607 367.808 201.319 367.808C203.031 367.808 204.255 368.136 204.991 368.792C205.743 369.432 206.119 370.504 206.119 372.008V377.12C206.679 377.232 207.119 377.368 207.439 377.528V379.616C206.623 380 205.455 380.192 203.935 380.192C203.775 379.776 203.639 379.272 203.527 378.68C202.839 379.688 201.591 380.192 199.783 380.192C198.711 380.192 197.791 379.88 197.023 379.256C196.271 378.632 195.895 377.784 195.895 376.712C195.895 375.64 196.247 374.8 196.951 374.192C197.671 373.568 198.735 373.256 200.143 373.256H202.759V372.104C202.759 370.856 202.095 370.232 200.767 370.232C200.271 370.232 199.863 370.28 199.543 370.376C199.511 371.048 199.415 371.568 199.255 371.936H196.903C196.631 371.376 196.495 370.656 196.495 369.776ZM200.815 377.744C201.631 377.744 202.279 377.504 202.759 377.024V375.056H201.079C199.927 375.056 199.351 375.496 199.351 376.376C199.351 376.776 199.471 377.104 199.711 377.36C199.967 377.616 200.335 377.744 200.815 377.744ZM210.95 382.784C211.238 382.784 211.542 382.512 211.862 381.968C212.198 381.44 212.43 380.808 212.558 380.072L208.622 370.76C207.838 370.504 207.31 370.2 207.038 369.848L207.278 368H212.798L213.038 369.848C212.83 370.104 212.478 370.336 211.982 370.544L213.302 374.168C213.59 374.92 213.79 375.664 213.902 376.4L213.974 376.736H214.31C214.438 375.936 214.662 375.096 214.982 374.216L216.254 370.664C215.662 370.44 215.246 370.168 215.006 369.848L215.246 368H220.526L220.766 369.848C220.478 370.216 219.95 370.528 219.182 370.784L215.222 380.144C214.47 381.92 213.894 383.064 213.494 383.576C212.79 384.52 211.806 384.992 210.542 384.992C209.294 384.992 208.342 384.664 207.686 384.008C207.67 383.848 207.662 383.688 207.662 383.528C207.662 382.648 207.846 381.816 208.214 381.032H210.206C210.446 381.464 210.582 382.048 210.614 382.784H210.95ZM220.847 362.96C221.743 362.752 222.575 362.648 223.343 362.648C224.111 362.648 224.759 362.672 225.287 362.72V368.72C225.623 368.48 226.071 368.272 226.631 368.096C227.191 367.904 227.727 367.808 228.239 367.808C229.983 367.808 231.207 368.256 231.911 369.152C232.615 370.048 232.967 371.576 232.967 373.736C232.967 374.936 232.799 375.976 232.463 376.856C232.143 377.72 231.703 378.384 231.143 378.848C230.087 379.744 228.839 380.192 227.399 380.192C226.311 380.192 225.239 379.92 224.183 379.376C223.879 379.792 223.527 380 223.127 380H221.927V365.624C221.367 365.432 220.927 365.16 220.607 364.808L220.847 362.96ZM227.207 377.744C228.743 377.744 229.511 376.456 229.511 373.88C229.511 372.52 229.375 371.6 229.103 371.12C228.847 370.624 228.391 370.376 227.735 370.376C226.743 370.376 225.927 370.64 225.287 371.168V377.336C225.975 377.608 226.615 377.744 227.207 377.744ZM240.001 380.192C238.081 380.192 236.633 379.68 235.657 378.656C234.697 377.632 234.217 376.144 234.217 374.192C234.217 373.008 234.385 371.992 234.721 371.144C235.057 370.28 235.513 369.616 236.089 369.152C237.209 368.256 238.513 367.808 240.001 367.808C241.489 367.808 242.625 368.192 243.409 368.96C244.209 369.712 244.609 371.072 244.609 373.04C244.609 374.192 244.041 374.768 242.905 374.768H237.697C237.761 375.776 238.017 376.488 238.465 376.904C238.929 377.32 239.657 377.528 240.649 377.528C241.193 377.528 241.713 377.464 242.209 377.336C242.705 377.208 243.065 377.08 243.289 376.952L243.625 376.76L244.345 378.68C244.249 378.792 244.105 378.936 243.913 379.112C243.737 379.272 243.273 379.496 242.521 379.784C241.785 380.056 240.945 380.192 240.001 380.192ZM241.513 372.632C241.545 372.408 241.561 372.136 241.561 371.816C241.561 371.496 241.433 371.16 241.177 370.808C240.921 370.44 240.473 370.256 239.833 370.256C239.209 370.256 238.729 370.448 238.393 370.832C238.057 371.216 237.833 371.864 237.721 372.776L241.513 372.632ZM251.521 368C252.417 367.792 253.249 367.688 254.017 367.688C254.785 367.688 255.433 367.712 255.961 367.76V377.336C256.585 377.576 257.025 377.848 257.281 378.152L257.041 380H251.521L251.281 378.152C251.505 377.848 251.945 377.576 252.601 377.336V370.664C252.041 370.472 251.601 370.2 251.281 369.848L251.521 368ZM254.233 366.344C252.905 366.344 252.241 365.744 252.241 364.544C252.241 363.328 252.905 362.72 254.233 362.72C255.577 362.72 256.249 363.328 256.249 364.544C256.249 365.744 255.577 366.344 254.233 366.344ZM269.872 362.96C270.784 362.752 271.656 362.648 272.488 362.648C273.32 362.648 274.032 362.672 274.624 362.72V377.12C275.104 377.2 275.544 377.336 275.944 377.528V379.424C274.984 379.936 273.768 380.192 272.296 380.192C272.136 380.112 271.976 379.968 271.816 379.76C271.672 379.552 271.592 379.352 271.576 379.16C271.224 379.448 270.768 379.696 270.208 379.904C269.648 380.096 269.096 380.192 268.552 380.192C266.824 380.192 265.568 379.728 264.784 378.8C264.016 377.856 263.632 376.32 263.632 374.192C263.632 371.776 264.224 370.08 265.408 369.104C266.448 368.24 267.728 367.808 269.248 367.808C269.92 367.808 270.592 367.888 271.264 368.048V365.672C270.528 365.464 269.984 365.176 269.632 364.808L269.872 362.96ZM269.056 377.744C269.968 377.744 270.704 377.472 271.264 376.928V370.496C270.608 370.336 269.912 370.256 269.176 370.256C268.44 370.256 267.904 370.584 267.568 371.24C267.248 371.88 267.088 372.848 267.088 374.144C267.088 375.424 267.248 376.344 267.568 376.904C267.888 377.464 268.384 377.744 269.056 377.744ZM284.144 370.952C282.928 370.952 282.088 371.184 281.624 371.648V377.144C282.92 377.384 283.808 377.72 284.288 378.152L284.048 380H277.184L276.944 378.152C277.168 377.848 277.608 377.576 278.264 377.336V370.664C277.704 370.472 277.264 370.2 276.944 369.848L277.184 368C278.064 367.808 278.856 367.712 279.56 367.712C280.264 367.712 280.848 367.728 281.312 367.76V369.272C281.68 368.84 282.152 368.488 282.728 368.216C283.304 367.928 283.824 367.784 284.288 367.784C284.768 367.784 285.096 367.824 285.272 367.904L285.2 371.024C284.88 370.976 284.528 370.952 284.144 370.952ZM291.793 380.192C289.905 380.192 288.505 379.688 287.593 378.68C286.681 377.672 286.225 376.152 286.225 374.12C286.225 372.072 286.729 370.512 287.737 369.44C288.761 368.352 290.225 367.808 292.129 367.808C294.033 367.808 295.441 368.288 296.353 369.248C297.281 370.208 297.745 371.712 297.745 373.76C297.745 375.792 297.225 377.376 296.185 378.512C295.161 379.632 293.697 380.192 291.793 380.192ZM289.681 373.904C289.681 376.464 290.449 377.744 291.985 377.744C292.769 377.744 293.345 377.456 293.713 376.88C294.097 376.288 294.289 375.328 294.289 374C294.289 371.504 293.505 370.256 291.937 370.256C291.169 370.256 290.601 370.536 290.233 371.096C289.865 371.64 289.681 372.576 289.681 373.904ZM298.952 368C299.832 367.808 300.624 367.712 301.328 367.712C302.032 367.712 302.616 367.728 303.08 367.76V368.936C304.152 368.184 305.296 367.808 306.512 367.808C308.112 367.808 309.272 368.264 309.992 369.176C310.712 370.088 311.072 371.608 311.072 373.736C311.072 374.872 310.904 375.872 310.568 376.736C310.232 377.6 309.776 378.272 309.2 378.752C308.096 379.712 306.784 380.192 305.264 380.192C304.608 380.192 303.984 380.128 303.392 380V382.064C304.336 382.32 304.944 382.616 305.216 382.952L304.976 384.8H298.952L298.712 382.952C298.92 382.664 299.36 382.392 300.032 382.136V370.664C299.472 370.472 299.032 370.2 298.712 369.848L298.952 368ZM305.024 377.744C305.824 377.744 306.456 377.392 306.92 376.688C307.384 375.968 307.616 374.984 307.616 373.736C307.616 372.472 307.488 371.608 307.232 371.144C306.976 370.68 306.512 370.448 305.84 370.448C304.816 370.448 304 370.688 303.392 371.168V377.552C303.888 377.68 304.432 377.744 305.024 377.744ZM312.288 368C313.168 367.808 313.96 367.712 314.664 367.712C315.368 367.712 315.952 367.728 316.416 367.76V368.936C317.488 368.184 318.632 367.808 319.848 367.808C321.448 367.808 322.608 368.264 323.328 369.176C324.048 370.088 324.408 371.608 324.408 373.736C324.408 374.872 324.24 375.872 323.904 376.736C323.568 377.6 323.112 378.272 322.536 378.752C321.432 379.712 320.12 380.192 318.6 380.192C317.944 380.192 317.32 380.128 316.728 380V382.064C317.672 382.32 318.28 382.616 318.552 382.952L318.312 384.8H312.288L312.048 382.952C312.256 382.664 312.696 382.392 313.368 382.136V370.664C312.808 370.472 312.368 370.2 312.048 369.848L312.288 368ZM318.36 377.744C319.16 377.744 319.792 377.392 320.256 376.688C320.72 375.968 320.952 374.984 320.952 373.736C320.952 372.472 320.824 371.608 320.568 371.144C320.312 370.68 319.848 370.448 319.176 370.448C318.152 370.448 317.336 370.688 316.728 371.168V377.552C317.224 377.68 317.768 377.744 318.36 377.744ZM331.407 380.192C329.487 380.192 328.039 379.68 327.063 378.656C326.103 377.632 325.623 376.144 325.623 374.192C325.623 373.008 325.791 371.992 326.127 371.144C326.463 370.28 326.919 369.616 327.495 369.152C328.615 368.256 329.919 367.808 331.407 367.808C332.895 367.808 334.031 368.192 334.815 368.96C335.615 369.712 336.015 371.072 336.015 373.04C336.015 374.192 335.447 374.768 334.311 374.768H329.103C329.167 375.776 329.423 376.488 329.871 376.904C330.335 377.32 331.063 377.528 332.055 377.528C332.599 377.528 333.119 377.464 333.615 377.336C334.111 377.208 334.471 377.08 334.695 376.952L335.031 376.76L335.751 378.68C335.655 378.792 335.511 378.936 335.319 379.112C335.143 379.272 334.679 379.496 333.927 379.784C333.191 380.056 332.351 380.192 331.407 380.192ZM332.919 372.632C332.951 372.408 332.967 372.136 332.967 371.816C332.967 371.496 332.839 371.16 332.583 370.808C332.327 370.44 331.879 370.256 331.239 370.256C330.615 370.256 330.135 370.448 329.799 370.832C329.463 371.216 329.239 371.864 329.127 372.776L332.919 372.632ZM343.489 362.96C344.401 362.752 345.273 362.648 346.105 362.648C346.937 362.648 347.649 362.672 348.241 362.72V377.12C348.721 377.2 349.161 377.336 349.561 377.528V379.424C348.601 379.936 347.385 380.192 345.913 380.192C345.753 380.112 345.593 379.968 345.433 379.76C345.289 379.552 345.209 379.352 345.193 379.16C344.841 379.448 344.385 379.696 343.825 379.904C343.265 380.096 342.713 380.192 342.169 380.192C340.441 380.192 339.185 379.728 338.401 378.8C337.633 377.856 337.249 376.32 337.249 374.192C337.249 371.776 337.841 370.08 339.025 369.104C340.065 368.24 341.345 367.808 342.865 367.808C343.537 367.808 344.209 367.888 344.881 368.048V365.672C344.145 365.464 343.601 365.176 343.249 364.808L343.489 362.96ZM342.673 377.744C343.585 377.744 344.321 377.472 344.881 376.928V370.496C344.225 370.336 343.529 370.256 342.793 370.256C342.057 370.256 341.521 370.584 341.185 371.24C340.865 371.88 340.705 372.848 340.705 374.144C340.705 375.424 340.865 376.344 341.185 376.904C341.505 377.464 342.001 377.744 342.673 377.744ZM356.24 368C357.136 367.792 357.968 367.688 358.736 367.688C359.504 367.688 360.152 367.712 360.68 367.76V377.336C361.304 377.576 361.744 377.848 362 378.152L361.76 380H356.24L356 378.152C356.224 377.848 356.664 377.576 357.32 377.336V370.664C356.76 370.472 356.32 370.2 356 369.848L356.24 368ZM358.952 366.344C357.624 366.344 356.96 365.744 356.96 364.544C356.96 363.328 357.624 362.72 358.952 362.72C360.296 362.72 360.968 363.328 360.968 364.544C360.968 365.744 360.296 366.344 358.952 366.344ZM367.328 364.976V368H370.76V370.016H367.328V376.088C367.328 376.6 367.4 376.976 367.544 377.216C367.688 377.44 368.032 377.552 368.576 377.552C369.12 377.552 369.704 377.432 370.328 377.192L371.048 379.064C369.816 379.688 368.552 380 367.256 380C365.976 380 365.104 379.728 364.64 379.184C364.192 378.624 363.968 377.816 363.968 376.76V370.016H362.888L362.624 368.552C362.88 368.248 363.408 367.944 364.208 367.64C364.4 366.328 364.856 365.44 365.576 364.976H367.328ZM381.648 364.976V368H385.08V370.016H381.648V376.088C381.648 376.6 381.72 376.976 381.864 377.216C382.008 377.44 382.352 377.552 382.896 377.552C383.44 377.552 384.024 377.432 384.648 377.192L385.368 379.064C384.136 379.688 382.872 380 381.576 380C380.296 380 379.424 379.728 378.96 379.184C378.512 378.624 378.288 377.816 378.288 376.76V370.016H377.208L376.944 368.552C377.2 368.248 377.728 367.944 378.528 367.64C378.72 366.328 379.176 365.44 379.896 364.976H381.648ZM386.162 362.96C387.058 362.752 387.89 362.648 388.658 362.648C389.426 362.648 390.074 362.672 390.602 362.72V368.72C390.986 368.464 391.498 368.248 392.138 368.072C392.778 367.896 393.346 367.808 393.842 367.808C395.426 367.808 396.522 368.192 397.13 368.96C397.738 369.728 398.042 370.896 398.042 372.464V377.336C398.666 377.576 399.106 377.848 399.362 378.152L399.122 380H393.602L393.362 378.152C393.586 377.848 394.026 377.576 394.682 377.336V372.584C394.682 371.72 394.538 371.144 394.25 370.856C393.978 370.552 393.474 370.4 392.738 370.4C392.002 370.4 391.29 370.656 390.602 371.168V377.336C391.226 377.576 391.666 377.848 391.922 378.152L391.682 380H386.162L385.922 378.152C386.146 377.848 386.586 377.576 387.242 377.336V365.624C386.682 365.432 386.242 365.16 385.922 364.808L386.162 362.96ZM405.962 380.192C404.042 380.192 402.594 379.68 401.618 378.656C400.658 377.632 400.178 376.144 400.178 374.192C400.178 373.008 400.346 371.992 400.682 371.144C401.018 370.28 401.474 369.616 402.05 369.152C403.17 368.256 404.474 367.808 405.962 367.808C407.45 367.808 408.586 368.192 409.37 368.96C410.17 369.712 410.57 371.072 410.57 373.04C410.57 374.192 410.002 374.768 408.866 374.768H403.658C403.722 375.776 403.978 376.488 404.426 376.904C404.89 377.32 405.618 377.528 406.61 377.528C407.154 377.528 407.674 377.464 408.17 377.336C408.666 377.208 409.026 377.08 409.25 376.952L409.586 376.76L410.306 378.68C410.21 378.792 410.066 378.936 409.874 379.112C409.698 379.272 409.234 379.496 408.482 379.784C407.746 380.056 406.906 380.192 405.962 380.192ZM407.474 372.632C407.506 372.408 407.522 372.136 407.522 371.816C407.522 371.496 407.394 371.16 407.138 370.808C406.882 370.44 406.434 370.256 405.794 370.256C405.17 370.256 404.69 370.448 404.354 370.832C404.018 371.216 403.794 371.864 403.682 372.776L407.474 372.632ZM419.004 370.952C417.788 370.952 416.948 371.184 416.484 371.648V377.144C417.78 377.384 418.668 377.72 419.148 378.152L418.908 380H412.044L411.804 378.152C412.028 377.848 412.468 377.576 413.124 377.336V370.664C412.564 370.472 412.124 370.2 411.804 369.848L412.044 368C412.924 367.808 413.716 367.712 414.42 367.712C415.124 367.712 415.708 367.728 416.172 367.76V369.272C416.54 368.84 417.012 368.488 417.588 368.216C418.164 367.928 418.684 367.784 419.148 367.784C419.628 367.784 419.956 367.824 420.132 367.904L420.06 371.024C419.74 370.976 419.388 370.952 419.004 370.952ZM426.868 380.192C424.948 380.192 423.5 379.68 422.524 378.656C421.564 377.632 421.084 376.144 421.084 374.192C421.084 373.008 421.252 371.992 421.588 371.144C421.924 370.28 422.38 369.616 422.956 369.152C424.076 368.256 425.38 367.808 426.868 367.808C428.356 367.808 429.492 368.192 430.276 368.96C431.076 369.712 431.476 371.072 431.476 373.04C431.476 374.192 430.908 374.768 429.772 374.768H424.564C424.628 375.776 424.884 376.488 425.332 376.904C425.796 377.32 426.524 377.528 427.516 377.528C428.06 377.528 428.58 377.464 429.076 377.336C429.572 377.208 429.932 377.08 430.156 376.952L430.492 376.76L431.212 378.68C431.116 378.792 430.972 378.936 430.78 379.112C430.604 379.272 430.14 379.496 429.388 379.784C428.652 380.056 427.812 380.192 426.868 380.192ZM428.38 372.632C428.412 372.408 428.428 372.136 428.428 371.816C428.428 371.496 428.3 371.16 428.044 370.808C427.788 370.44 427.34 370.256 426.7 370.256C426.076 370.256 425.596 370.448 425.26 370.832C424.924 371.216 424.7 371.864 424.588 372.776L428.38 372.632ZM435.836 375.368C435.676 374.84 435.596 374.408 435.596 374.072C435.596 373.736 435.66 373.384 435.788 373.016C435.916 372.648 436.22 372.224 436.7 371.744C437.196 371.248 437.7 370.832 438.212 370.496C438.74 370.16 439.204 369.744 439.604 369.248C440.004 368.752 440.204 368.224 440.204 367.664C440.204 366.464 439.388 365.864 437.756 365.864C437.084 365.864 436.444 365.992 435.836 366.248C435.788 367.08 435.636 367.744 435.38 368.24H433.1C432.892 367.824 432.732 367.296 432.62 366.656C432.508 366 432.452 365.536 432.452 365.264C432.452 364.992 432.452 364.808 432.452 364.712C433.14 364.248 433.98 363.888 434.972 363.632C435.98 363.376 436.948 363.248 437.876 363.248C439.652 363.248 441.108 363.656 442.244 364.472C443.38 365.272 443.948 366.424 443.948 367.928C443.948 368.584 443.804 369.192 443.516 369.752C443.244 370.296 442.9 370.744 442.484 371.096C442.084 371.432 441.644 371.776 441.164 372.128C440.7 372.48 440.268 372.8 439.868 373.088C439.02 373.664 438.596 374.352 438.596 375.152C438.596 375.216 438.604 375.288 438.62 375.368H435.836ZM437.156 380.192C435.828 380.192 435.164 379.592 435.164 378.392C435.164 377.176 435.828 376.568 437.156 376.568C438.5 376.568 439.172 377.176 439.172 378.392C439.172 379.592 438.5 380.192 437.156 380.192Z" fill="#252D33"/>
</svg>
