<svg width="123" height="59" viewBox="0 0 123 59" fill="none" xmlns="http://www.w3.org/2000/svg">
<path d="M120.452 59H3.45357C-0.0252609 51.621 -3.9069 35.5796 8.39717 30.4463C16.3614 27.1237 21.2264 29.7155 23.9158 33.3493C24.6239 35.6702 25.5893 37.7922 26.5237 39.4295C26.2008 37.6189 25.3813 35.3294 23.9158 33.3493C21.8492 26.5748 21.9756 18.1053 31.4673 15.0466C44.2108 10.94 48.4953 17.1855 49.0446 20.8215C48.0375 12.9078 50.8572 -2.27805 70.1922 0.288568C89.5271 2.85519 91.0652 15.0466 89.4173 20.8215C94.1778 18.041 104.578 14.79 108.093 24.0298C111.609 33.2696 109.558 38.1462 108.093 39.4295C111.297 37.9323 118.475 36.4779 121.551 42.6378C124.627 48.7977 122.1 56.1126 120.452 59Z" fill="#F9F5E7"/>
</svg>
