<svg width="225" height="92" viewBox="0 0 225 92" fill="none" xmlns="http://www.w3.org/2000/svg">
<path d="M5.49997 92H218.5C224.833 80.5 231.9 55.5 209.5 47.5C195.001 42.3217 186.144 46.361 181.248 52.0242C179.959 55.6412 178.201 58.9483 176.5 61.5C177.088 58.6783 178.58 55.1101 181.248 52.0242C185.01 41.4663 184.78 28.2669 167.5 23.5C144.3 17.1 136.5 26.8333 135.5 32.5C137.333 20.1667 132.2 -3.49998 97 0.500017C61.8 4.50002 59 23.5 62 32.5C53.3333 28.1667 34.4 23.1 28 37.5C21.6 51.9 25.3333 59.5 28 61.5C22.1666 59.1667 9.09997 56.9 3.49997 66.5C-2.10003 76.1 2.49997 87.5 5.49997 92Z" fill="#F9F5E7"/>
</svg>
