<svg width="806" height="67" viewBox="0 0 806 67" fill="none" xmlns="http://www.w3.org/2000/svg">
<path d="M805.5 99C805.5 112.379 794.449 125.272 774.079 137.103C753.745 148.913 724.288 159.565 687.845 168.518C614.965 186.421 514.257 197.5 403 197.5C291.743 197.5 191.035 186.421 118.155 168.518C81.7117 159.565 52.2548 148.913 31.9209 137.103C11.5509 125.272 0.5 112.379 0.5 99C0.5 85.6212 11.5509 72.728 31.9209 60.8971C52.2548 49.0872 81.7117 38.4346 118.155 29.482C191.035 11.5786 291.743 0.5 403 0.5C514.257 0.5 614.965 11.5786 687.845 29.482C724.288 38.4346 753.745 49.0872 774.079 60.8971C794.449 72.728 805.5 85.6212 805.5 99Z" fill="#6689C3" fill-opacity="0.9" stroke="black"/>
</svg>
