<svg width="336" height="77" viewBox="0 0 336 77" fill="none" xmlns="http://www.w3.org/2000/svg">
<path d="M972.5 129C972.5 147.21 957.407 164.707 929.724 180.726C902.078 196.724 862.04 211.147 812.522 223.267C713.493 247.504 576.66 262.5 425.5 262.5C274.34 262.5 137.507 247.504 38.4779 223.267C-11.0404 211.147 -51.0782 196.724 -78.7243 180.726C-106.407 164.707 -121.5 147.21 -121.5 129C-121.5 110.79 -106.407 93.2925 -78.7243 77.2739C-51.0782 61.2765 -11.0404 46.8529 38.4779 34.7334C137.507 10.4962 274.34 -4.5 425.5 -4.5C576.66 -4.5 713.493 10.4962 812.522 34.7334C862.04 46.8529 902.078 61.2765 929.724 77.2739C957.407 93.2925 972.5 110.79 972.5 129Z" fill="#F2D8B3" stroke="black"/>
<path d="M833.5 109C833.5 122.379 822.449 135.272 802.079 147.103C781.745 158.913 752.288 169.565 715.845 178.518C642.965 196.421 542.257 207.5 431 207.5C319.743 207.5 219.035 196.421 146.155 178.518C109.712 169.565 80.2548 158.913 59.9209 147.103C39.5509 135.272 28.5 122.379 28.5 109C28.5 95.6212 39.5509 82.728 59.9209 70.8971C80.2548 59.0872 109.712 48.4346 146.155 39.482C219.035 21.5786 319.743 10.5 431 10.5C542.257 10.5 642.965 21.5786 715.845 39.482C752.288 48.4346 781.745 59.0872 802.079 70.8971C822.449 82.728 833.5 95.6212 833.5 109Z" fill="#6689C3" fill-opacity="0.9" stroke="black"/>
<path d="M-73.5 33C-65 25.8333 -5.2 9.9 166 3.5L336 76.5H-73.5V33Z" fill="#6689C3" stroke="black"/>
</svg>
