<svg width="268" height="177" viewBox="0 0 268 177" fill="none" xmlns="http://www.w3.org/2000/svg">
<mask id="path-1-inside-1" fill="white">
<path fill-rule="evenodd" clip-rule="evenodd" d="M1.25987 234C-2.67963 183.234 1.58699 114.663 28.9773 65.6313C26.5516 61.7077 25.1559 57.1092 25.1559 52.1926C25.1559 37.8056 37.1062 26.1426 51.8477 26.1426C54.8979 26.1426 57.8286 26.642 60.5587 27.5614C78.3216 13.5066 100.859 4.77879 129.244 4.0608C165.863 3.1345 193.351 12.8514 213.771 29.1957C217.512 27.2471 221.784 26.1426 226.32 26.1426C241.062 26.1426 253.012 37.8056 253.012 52.1926C253.012 59.0017 250.335 65.2006 245.953 69.8417C271.164 119.649 270.689 187.226 264.338 234H1.25987Z"/>
</mask>
<path fill-rule="evenodd" clip-rule="evenodd" d="M1.25987 234C-2.67963 183.234 1.58699 114.663 28.9773 65.6313C26.5516 61.7077 25.1559 57.1092 25.1559 52.1926C25.1559 37.8056 37.1062 26.1426 51.8477 26.1426C54.8979 26.1426 57.8286 26.642 60.5587 27.5614C78.3216 13.5066 100.859 4.77879 129.244 4.0608C165.863 3.1345 193.351 12.8514 213.771 29.1957C217.512 27.2471 221.784 26.1426 226.32 26.1426C241.062 26.1426 253.012 37.8056 253.012 52.1926C253.012 59.0017 250.335 65.2006 245.953 69.8417C271.164 119.649 270.689 187.226 264.338 234H1.25987Z" fill="#4E3930"/>
<path d="M28.9773 65.6313L29.8503 66.119L30.1371 65.6056L29.8278 65.1054L28.9773 65.6313ZM1.25987 234L0.262863 234.077L0.33446 235H1.25987V234ZM60.5587 27.5614L60.2396 28.5091L60.7538 28.6823L61.1792 28.3457L60.5587 27.5614ZM129.244 4.0608L129.269 5.06048L129.244 4.0608ZM213.771 29.1957L213.146 29.9764L213.655 30.3837L214.233 30.0826L213.771 29.1957ZM245.953 69.8417L245.226 69.1552L244.743 69.6662L245.06 70.2934L245.953 69.8417ZM264.338 234V235H265.212L265.329 234.135L264.338 234ZM28.1042 65.1436C0.569878 114.433 -3.68187 183.244 0.262863 234.077L2.25687 233.923C-1.67738 183.224 2.6041 114.893 29.8503 66.119L28.1042 65.1436ZM24.1559 52.1926C24.1559 57.3014 25.6068 62.0811 28.1267 66.1571L29.8278 65.1054C27.4964 61.3343 26.1559 56.917 26.1559 52.1926H24.1559ZM51.8477 25.1426C36.577 25.1426 24.1559 37.2305 24.1559 52.1926H26.1559C26.1559 38.3807 37.6354 27.1426 51.8477 27.1426V25.1426ZM60.8779 26.6138C58.0461 25.66 55.0076 25.1426 51.8477 25.1426V27.1426C54.7882 27.1426 57.6112 27.6239 60.2396 28.5091L60.8779 26.6138ZM129.219 3.06112C100.629 3.78431 77.8793 12.5813 59.9382 26.7772L61.1792 28.3457C78.7638 14.4318 101.09 5.77327 129.269 5.06048L129.219 3.06112ZM214.396 28.415C193.767 11.9034 166.04 2.12972 129.219 3.06112L129.269 5.06048C165.687 4.13929 192.936 13.7994 213.146 29.9764L214.396 28.415ZM214.233 30.0826C217.834 28.207 221.948 27.1426 226.32 27.1426V25.1426C221.62 25.1426 217.19 26.2873 213.309 28.3088L214.233 30.0826ZM226.32 27.1426C240.533 27.1426 252.012 38.3807 252.012 52.1926H254.012C254.012 37.2305 241.591 25.1426 226.32 25.1426V27.1426ZM252.012 52.1926C252.012 58.7333 249.442 64.6899 245.226 69.1552L246.68 70.5283C251.228 65.7113 254.012 59.2701 254.012 52.1926H252.012ZM265.329 234.135C271.688 187.301 272.196 119.474 246.845 69.3901L245.06 70.2934C270.132 119.824 269.69 187.15 263.347 233.865L265.329 234.135ZM1.25987 235H264.338V233H1.25987V235Z" fill="#252D33" mask="url(#path-1-inside-1)"/>
<ellipse cx="139.084" cy="112.759" rx="35.806" ry="25.3987" fill="#F2D8B3"/>
<path d="M136.814 104.437C138.011 105.822 140.158 105.822 141.354 104.437L145.176 100.013C146.855 98.0698 145.475 95.0522 142.906 95.0522H135.262C132.694 95.0522 131.313 98.0698 132.992 100.013L136.814 104.437Z" fill="#252D33"/>
<ellipse cx="96.117" cy="80.1962" rx="7.16119" ry="7.16375" fill="white"/>
<ellipse cx="96.117" cy="80.1962" rx="5.85916" ry="5.86125" fill="#252D33"/>
<ellipse cx="182.051" cy="80.1962" rx="7.16119" ry="7.16375" fill="white"/>
<ellipse cx="182.051" cy="80.1962" rx="5.85916" ry="5.86125" fill="#252D33"/>
<path d="M119.271 119.834C117.52 117.589 119.334 114.725 122.182 114.725H155.524C158.3 114.725 160.128 117.47 158.502 119.72C155.053 124.492 148.735 129.698 139.084 129.698C129.511 129.698 122.969 124.575 119.271 119.834Z" fill="#252D33"/>
</svg>
