<svg width="358" height="232" viewBox="0 0 358 232" fill="none" xmlns="http://www.w3.org/2000/svg">
<mask id="path-1-inside-1" fill="white">
<path fill-rule="evenodd" clip-rule="evenodd" d="M128.522 113C126.799 86.667 128.865 50.5829 141.991 26.3408C139.795 24.4793 138.419 21.8094 138.419 18.8434C138.419 13.2181 143.369 8.65779 149.474 8.65779C151.443 8.65779 153.292 9.13207 154.893 9.96338C161.954 4.00723 170.718 0.35429 181.53 0.0298701C195.718 -0.395841 206.596 3.7541 214.864 10.8647C216.751 9.48315 219.14 8.65779 221.737 8.65779C227.843 8.65779 232.792 13.2181 232.792 18.8434C232.792 22.4886 230.714 25.6866 227.59 27.4863C240.326 52.2592 240.292 88.4579 237.483 113H128.522Z"/>
</mask>
<path fill-rule="evenodd" clip-rule="evenodd" d="M128.522 113C126.799 86.667 128.865 50.5829 141.991 26.3408C139.795 24.4793 138.419 21.8094 138.419 18.8434C138.419 13.2181 143.369 8.65779 149.474 8.65779C151.443 8.65779 153.292 9.13207 154.893 9.96338C161.954 4.00723 170.718 0.35429 181.53 0.0298701C195.718 -0.395841 206.596 3.7541 214.864 10.8647C216.751 9.48315 219.14 8.65779 221.737 8.65779C227.843 8.65779 232.792 13.2181 232.792 18.8434C232.792 22.4886 230.714 25.6866 227.59 27.4863C240.326 52.2592 240.292 88.4579 237.483 113H128.522Z" fill="#4E3930"/>
<path d="M141.991 26.3408L142.87 26.817L143.257 26.103L142.638 25.578L141.991 26.3408ZM128.522 113L127.524 113.065L127.585 114H128.522V113ZM154.893 9.96338L154.433 10.8509L155.027 11.1593L155.538 10.7278L154.893 9.96338ZM181.53 0.0298701L181.5 -0.96968L181.53 0.0298701ZM214.864 10.8647L214.212 11.6229L214.815 12.1407L215.455 11.6716L214.864 10.8647ZM227.59 27.4863L227.09 26.6198L226.264 27.0957L226.7 27.9436L227.59 27.4863ZM237.483 113V114H238.375L238.477 113.114L237.483 113ZM141.112 25.8647C127.846 50.3647 125.798 86.6874 127.524 113.065L129.52 112.935C127.8 86.6467 129.884 50.8012 142.87 26.817L141.112 25.8647ZM137.419 18.8434C137.419 22.1307 138.946 25.0706 141.344 27.1036L142.638 25.578C140.644 23.888 139.419 21.4881 139.419 18.8434H137.419ZM149.474 7.65779C142.895 7.65779 137.419 12.5902 137.419 18.8434H139.419C139.419 13.8459 143.842 9.65779 149.474 9.65779V7.65779ZM155.354 9.07586C153.611 8.17111 151.605 7.65779 149.474 7.65779V9.65779C151.282 9.65779 152.973 10.093 154.433 10.8509L155.354 9.07586ZM181.5 -0.96968C170.461 -0.638445 161.481 3.09833 154.249 9.19901L155.538 10.7278C162.428 4.91613 170.975 1.34702 181.56 1.02942L181.5 -0.96968ZM215.517 10.1066C207.045 2.82092 195.918 -1.40229 181.5 -0.96968L181.56 1.02942C195.518 0.610613 206.148 4.68729 214.212 11.6229L215.517 10.1066ZM215.455 11.6716C217.171 10.4151 219.353 9.65779 221.737 9.65779V7.65779C218.927 7.65779 216.332 8.55116 214.274 10.0579L215.455 11.6716ZM221.737 9.65779C227.369 9.65779 231.792 13.8459 231.792 18.8434H233.792C233.792 12.5902 228.316 7.65779 221.737 7.65779V9.65779ZM231.792 18.8434C231.792 22.0901 229.942 24.9772 227.09 26.6198L228.089 28.3529C231.486 26.396 233.792 22.8872 233.792 18.8434H231.792ZM238.477 113.114C241.29 88.5355 241.359 52.0807 228.479 27.0291L226.7 27.9436C239.293 52.4376 239.295 88.3803 236.49 112.886L238.477 113.114ZM128.522 114H237.483V112H128.522V114Z" fill="#252D33" mask="url(#path-1-inside-1)"/>
<ellipse cx="185.606" cy="42.5251" rx="14.8301" ry="9.931" fill="#F2D8B3"/>
<path d="M184.209 38.7728C184.96 39.5928 186.252 39.5928 187.002 38.7728C188.114 37.5583 187.252 35.6018 185.606 35.6018C183.959 35.6018 183.098 37.5583 184.209 38.7728Z" fill="#252D33"/>
<ellipse cx="167.81" cy="29.793" rx="2.96602" ry="2.80105" fill="white"/>
<ellipse cx="167.81" cy="29.793" rx="2.42674" ry="2.29177" fill="#252D33"/>
<ellipse cx="203.402" cy="29.793" rx="2.96602" ry="2.80105" fill="white"/>
<ellipse cx="203.402" cy="29.793" rx="2.42674" ry="2.29177" fill="#252D33"/>
<path d="M180.225 47.7094C177.741 46.2441 179.359 43.294 182.242 43.294H188.952C191.761 43.294 193.408 46.1431 191.03 47.6367C189.628 48.5176 187.831 49.1482 185.606 49.1482C183.443 49.1482 181.653 48.5521 180.225 47.7094Z" fill="#252D33"/>
<rect y="62" width="358" height="170" rx="27" fill="#FF893A"/>
<path d="M96.1131 79.976V83H99.5451V85.016H96.1131V91.088C96.1131 91.6 96.1851 91.976 96.3291 92.216C96.4731 92.44 96.8171 92.552 97.3611 92.552C97.9051 92.552 98.4891 92.432 99.1131 92.192L99.8331 94.064C98.6011 94.688 97.3371 95 96.0411 95C94.7611 95 93.8891 94.728 93.4251 94.184C92.9771 93.624 92.7531 92.816 92.7531 91.76V85.016H91.6731L91.4091 83.552C91.6651 83.248 92.1931 82.944 92.9931 82.64C93.1851 81.328 93.6411 80.44 94.3611 79.976H96.1131ZM100.627 77.96C101.523 77.752 102.355 77.648 103.123 77.648C103.891 77.648 104.539 77.672 105.067 77.72V83.72C105.451 83.464 105.963 83.248 106.603 83.072C107.243 82.896 107.811 82.808 108.307 82.808C109.891 82.808 110.987 83.192 111.595 83.96C112.203 84.728 112.507 85.896 112.507 87.464V92.336C113.131 92.576 113.571 92.848 113.827 93.152L113.587 95H108.067L107.827 93.152C108.051 92.848 108.491 92.576 109.147 92.336V87.584C109.147 86.72 109.003 86.144 108.715 85.856C108.443 85.552 107.939 85.4 107.203 85.4C106.467 85.4 105.755 85.656 105.067 86.168V92.336C105.691 92.576 106.131 92.848 106.387 93.152L106.147 95H100.627L100.387 93.152C100.611 92.848 101.051 92.576 101.707 92.336V80.624C101.147 80.432 100.707 80.16 100.387 79.808L100.627 77.96ZM120.427 95.192C118.507 95.192 117.059 94.68 116.083 93.656C115.123 92.632 114.643 91.144 114.643 89.192C114.643 88.008 114.811 86.992 115.147 86.144C115.483 85.28 115.939 84.616 116.515 84.152C117.635 83.256 118.939 82.808 120.427 82.808C121.915 82.808 123.051 83.192 123.835 83.96C124.635 84.712 125.035 86.072 125.035 88.04C125.035 89.192 124.467 89.768 123.331 89.768H118.123C118.187 90.776 118.443 91.488 118.891 91.904C119.355 92.32 120.083 92.528 121.075 92.528C121.619 92.528 122.139 92.464 122.635 92.336C123.131 92.208 123.491 92.08 123.715 91.952L124.051 91.76L124.771 93.68C124.675 93.792 124.531 93.936 124.339 94.112C124.163 94.272 123.699 94.496 122.947 94.784C122.211 95.056 121.371 95.192 120.427 95.192ZM121.939 87.632C121.971 87.408 121.987 87.136 121.987 86.816C121.987 86.496 121.859 86.16 121.603 85.808C121.347 85.44 120.899 85.256 120.259 85.256C119.635 85.256 119.155 85.448 118.819 85.832C118.483 86.216 118.259 86.864 118.147 87.776L121.939 87.632ZM131.611 77.96C132.507 77.752 133.339 77.648 134.107 77.648C134.875 77.648 135.523 77.672 136.051 77.72V92.336C136.675 92.576 137.115 92.848 137.371 93.152L137.131 95H131.611L131.371 93.152C131.595 92.848 132.035 92.576 132.691 92.336V80.624C132.131 80.432 131.691 80.16 131.371 79.808L131.611 77.96ZM140.515 95L136.267 88.784L138.907 85.352C138.635 85.192 138.443 85.024 138.331 84.848L138.571 83H143.851L144.091 84.848C143.739 85.296 143.075 85.648 142.099 85.904L139.795 88.544L142.507 92.12C143.499 92.344 144.195 92.688 144.595 93.152L144.355 95H140.515ZM151.036 95.192C149.116 95.192 147.668 94.68 146.692 93.656C145.732 92.632 145.252 91.144 145.252 89.192C145.252 88.008 145.42 86.992 145.756 86.144C146.092 85.28 146.548 84.616 147.124 84.152C148.244 83.256 149.548 82.808 151.036 82.808C152.524 82.808 153.66 83.192 154.444 83.96C155.244 84.712 155.644 86.072 155.644 88.04C155.644 89.192 155.076 89.768 153.94 89.768H148.732C148.796 90.776 149.052 91.488 149.5 91.904C149.964 92.32 150.692 92.528 151.684 92.528C152.228 92.528 152.748 92.464 153.244 92.336C153.74 92.208 154.1 92.08 154.324 91.952L154.66 91.76L155.38 93.68C155.284 93.792 155.14 93.936 154.948 94.112C154.772 94.272 154.308 94.496 153.556 94.784C152.82 95.056 151.98 95.192 151.036 95.192ZM152.548 87.632C152.58 87.408 152.596 87.136 152.596 86.816C152.596 86.496 152.468 86.16 152.212 85.808C151.956 85.44 151.508 85.256 150.868 85.256C150.244 85.256 149.764 85.448 149.428 85.832C149.092 86.216 148.868 86.864 148.756 87.776L152.548 87.632ZM159.884 97.784C160.172 97.784 160.476 97.512 160.796 96.968C161.132 96.44 161.364 95.808 161.492 95.072L157.556 85.76C156.772 85.504 156.244 85.2 155.972 84.848L156.212 83H161.732L161.972 84.848C161.764 85.104 161.412 85.336 160.916 85.544L162.236 89.168C162.524 89.92 162.724 90.664 162.836 91.4L162.908 91.736H163.244C163.372 90.936 163.596 90.096 163.916 89.216L165.188 85.664C164.596 85.44 164.18 85.168 163.94 84.848L164.18 83H169.46L169.7 84.848C169.412 85.216 168.884 85.528 168.116 85.784L164.156 95.144C163.404 96.92 162.828 98.064 162.428 98.576C161.724 99.52 160.74 99.992 159.476 99.992C158.228 99.992 157.276 99.664 156.62 99.008C156.604 98.848 156.596 98.688 156.596 98.528C156.596 97.648 156.78 96.816 157.148 96.032H159.14C159.38 96.464 159.516 97.048 159.548 97.784H159.884ZM187.003 95.144L185.779 91.352C185.523 90.584 185.323 89.624 185.179 88.472L185.107 87.896H184.771C184.611 89.144 184.371 90.288 184.051 91.328L182.923 95.144H179.515L176.491 85.712C175.803 85.472 175.331 85.184 175.075 84.848L175.315 83H180.931L181.171 84.848C180.883 85.184 180.395 85.472 179.707 85.712L181.099 91.832H181.435C181.611 90.984 181.819 90.112 182.059 89.216L183.691 83.048H186.379L187.987 89.168L188.587 91.832H188.923C189.515 89.128 189.915 87.312 190.123 86.384L190.267 85.712C189.547 85.456 189.067 85.168 188.827 84.848L189.067 83H194.395L194.635 84.848C194.363 85.216 193.859 85.52 193.123 85.76L190.123 95.144H187.003ZM200.391 95.192C198.503 95.192 197.103 94.688 196.191 93.68C195.279 92.672 194.823 91.152 194.823 89.12C194.823 87.072 195.327 85.512 196.335 84.44C197.359 83.352 198.823 82.808 200.727 82.808C202.631 82.808 204.039 83.288 204.951 84.248C205.879 85.208 206.343 86.712 206.343 88.76C206.343 90.792 205.823 92.376 204.783 93.512C203.759 94.632 202.295 95.192 200.391 95.192ZM198.279 88.904C198.279 91.464 199.047 92.744 200.583 92.744C201.367 92.744 201.943 92.456 202.311 91.88C202.695 91.288 202.887 90.328 202.887 89C202.887 86.504 202.103 85.256 200.535 85.256C199.767 85.256 199.199 85.536 198.831 86.096C198.463 86.64 198.279 87.576 198.279 88.904ZM214.773 85.952C213.557 85.952 212.717 86.184 212.253 86.648V92.144C213.549 92.384 214.437 92.72 214.917 93.152L214.677 95H207.813L207.573 93.152C207.797 92.848 208.237 92.576 208.893 92.336V85.664C208.333 85.472 207.893 85.2 207.573 84.848L207.813 83C208.693 82.808 209.485 82.712 210.189 82.712C210.893 82.712 211.477 82.728 211.941 82.76V84.272C212.309 83.84 212.781 83.488 213.357 83.216C213.933 82.928 214.453 82.784 214.917 82.784C215.397 82.784 215.725 82.824 215.901 82.904L215.829 86.024C215.509 85.976 215.157 85.952 214.773 85.952ZM216.83 77.96C217.726 77.752 218.558 77.648 219.326 77.648C220.094 77.648 220.742 77.672 221.27 77.72V92.336C221.894 92.576 222.334 92.848 222.59 93.152L222.35 95H216.83L216.59 93.152C216.814 92.848 217.254 92.576 217.91 92.336V80.624C217.35 80.432 216.91 80.16 216.59 79.808L216.83 77.96ZM225.734 95L221.486 88.784L224.126 85.352C223.854 85.192 223.662 85.024 223.55 84.848L223.79 83H229.07L229.31 84.848C228.958 85.296 228.294 85.648 227.318 85.904L225.014 88.544L227.726 92.12C228.718 92.344 229.414 92.688 229.814 93.152L229.574 95H225.734ZM236.255 95.192C234.335 95.192 232.887 94.68 231.911 93.656C230.951 92.632 230.471 91.144 230.471 89.192C230.471 88.008 230.639 86.992 230.975 86.144C231.311 85.28 231.767 84.616 232.343 84.152C233.463 83.256 234.767 82.808 236.255 82.808C237.743 82.808 238.879 83.192 239.663 83.96C240.463 84.712 240.863 86.072 240.863 88.04C240.863 89.192 240.295 89.768 239.159 89.768H233.951C234.015 90.776 234.271 91.488 234.719 91.904C235.183 92.32 235.911 92.528 236.903 92.528C237.447 92.528 237.967 92.464 238.463 92.336C238.959 92.208 239.319 92.08 239.543 91.952L239.879 91.76L240.599 93.68C240.503 93.792 240.359 93.936 240.167 94.112C239.991 94.272 239.527 94.496 238.775 94.784C238.039 95.056 237.199 95.192 236.255 95.192ZM237.767 87.632C237.799 87.408 237.815 87.136 237.815 86.816C237.815 86.496 237.687 86.16 237.431 85.808C237.175 85.44 236.727 85.256 236.087 85.256C235.463 85.256 234.983 85.448 234.647 85.832C234.311 86.216 234.087 86.864 233.975 87.776L237.767 87.632ZM248.337 77.96C249.249 77.752 250.121 77.648 250.953 77.648C251.785 77.648 252.497 77.672 253.089 77.72V92.12C253.569 92.2 254.009 92.336 254.409 92.528V94.424C253.449 94.936 252.233 95.192 250.761 95.192C250.601 95.112 250.441 94.968 250.281 94.76C250.137 94.552 250.057 94.352 250.041 94.16C249.689 94.448 249.233 94.696 248.673 94.904C248.113 95.096 247.561 95.192 247.017 95.192C245.289 95.192 244.033 94.728 243.249 93.8C242.481 92.856 242.097 91.32 242.097 89.192C242.097 86.776 242.689 85.08 243.873 84.104C244.913 83.24 246.193 82.808 247.713 82.808C248.385 82.808 249.057 82.888 249.729 83.048V80.672C248.993 80.464 248.449 80.176 248.097 79.808L248.337 77.96ZM247.521 92.744C248.433 92.744 249.169 92.472 249.729 91.928V85.496C249.073 85.336 248.377 85.256 247.641 85.256C246.905 85.256 246.369 85.584 246.033 86.24C245.713 86.88 245.553 87.848 245.553 89.144C245.553 90.424 245.713 91.344 246.033 91.904C246.353 92.464 246.849 92.744 247.521 92.744ZM256.273 82.76C256.273 81.416 256.329 79.976 256.441 78.44H259.849C259.945 79.864 259.993 81.208 259.993 82.472C259.993 85.464 259.729 88.024 259.201 90.152H257.041C256.529 88.072 256.273 85.608 256.273 82.76ZM258.121 95.24C256.857 95.24 256.225 94.648 256.225 93.464C256.225 92.28 256.857 91.688 258.121 91.688C259.401 91.688 260.041 92.28 260.041 93.464C260.041 94.648 259.401 95.24 258.121 95.24ZM38.5359 112C39.4159 111.808 40.2079 111.712 40.9119 111.712C41.6159 111.712 42.1999 111.728 42.6639 111.76V112.96C43.0479 112.64 43.5279 112.368 44.1039 112.144C44.6799 111.92 45.1999 111.808 45.6639 111.808C47.4879 111.808 48.7039 112.264 49.3119 113.176C49.7119 112.792 50.2399 112.472 50.8959 112.216C51.5519 111.944 52.1599 111.808 52.7199 111.808C54.4799 111.808 55.6639 112.208 56.2719 113.008C56.8799 113.792 57.1839 115.272 57.1839 117.448V121.336C57.8079 121.576 58.2479 121.848 58.5039 122.152L58.2639 124H52.7439L52.5039 122.152C52.7279 121.848 53.1679 121.576 53.8239 121.336V116.584C53.8239 115.704 53.7039 115.12 53.4639 114.832C53.2239 114.544 52.7439 114.4 52.0239 114.4C51.3199 114.4 50.6479 114.664 50.0079 115.192C50.0879 115.736 50.1279 116.488 50.1279 117.448V121.336C50.7519 121.576 51.1919 121.848 51.4479 122.152L51.2079 124H45.6879L45.4479 122.152C45.6719 121.848 46.1119 121.576 46.7679 121.336V116.584C46.7679 115.704 46.6479 115.12 46.4079 114.832C46.1679 114.544 45.6959 114.4 44.9919 114.4C44.2879 114.4 43.6159 114.656 42.9759 115.168V121.336C43.5999 121.576 44.0399 121.848 44.2959 122.152L44.0559 124H38.5359L38.2959 122.152C38.5199 121.848 38.9599 121.576 39.6159 121.336V114.664C39.0559 114.472 38.6159 114.2 38.2959 113.848L38.5359 112ZM62.5593 126.784C62.8473 126.784 63.1513 126.512 63.4713 125.968C63.8073 125.44 64.0393 124.808 64.1673 124.072L60.2313 114.76C59.4473 114.504 58.9193 114.2 58.6473 113.848L58.8873 112H64.4073L64.6473 113.848C64.4393 114.104 64.0873 114.336 63.5913 114.544L64.9113 118.168C65.1993 118.92 65.3993 119.664 65.5113 120.4L65.5833 120.736H65.9193C66.0473 119.936 66.2713 119.096 66.5913 118.216L67.8633 114.664C67.2713 114.44 66.8553 114.168 66.6153 113.848L66.8553 112H72.1353L72.3753 113.848C72.0873 114.216 71.5593 114.528 70.7913 114.784L66.8313 124.144C66.0793 125.92 65.5033 127.064 65.1033 127.576C64.3993 128.52 63.4153 128.992 62.1513 128.992C60.9033 128.992 59.9513 128.664 59.2953 128.008C59.2793 127.848 59.2713 127.688 59.2713 127.528C59.2713 126.648 59.4553 125.816 59.8233 125.032H61.8153C62.0553 125.464 62.1913 126.048 62.2233 126.784H62.5593ZM77.8466 106.96C78.7426 106.752 79.5746 106.648 80.3426 106.648C81.1106 106.648 81.7586 106.672 82.2866 106.72V112.72C82.6226 112.48 83.0706 112.272 83.6306 112.096C84.1906 111.904 84.7266 111.808 85.2386 111.808C86.9826 111.808 88.2066 112.256 88.9106 113.152C89.6146 114.048 89.9666 115.576 89.9666 117.736C89.9666 118.936 89.7986 119.976 89.4626 120.856C89.1426 121.72 88.7026 122.384 88.1426 122.848C87.0866 123.744 85.8386 124.192 84.3986 124.192C83.3106 124.192 82.2386 123.92 81.1826 123.376C80.8786 123.792 80.5266 124 80.1266 124H78.9266V109.624C78.3666 109.432 77.9266 109.16 77.6066 108.808L77.8466 106.96ZM84.2066 121.744C85.7426 121.744 86.5106 120.456 86.5106 117.88C86.5106 116.52 86.3746 115.6 86.1026 115.12C85.8466 114.624 85.3906 114.376 84.7346 114.376C83.7426 114.376 82.9266 114.64 82.2866 115.168V121.336C82.9746 121.608 83.6146 121.744 84.2066 121.744ZM98.4412 114.952C97.2252 114.952 96.3852 115.184 95.9212 115.648V121.144C97.2172 121.384 98.1052 121.72 98.5852 122.152L98.3452 124H91.4812L91.2412 122.152C91.4652 121.848 91.9052 121.576 92.5612 121.336V114.664C92.0012 114.472 91.5612 114.2 91.2412 113.848L91.4812 112C92.3612 111.808 93.1532 111.712 93.8572 111.712C94.5612 111.712 95.1452 111.728 95.6092 111.76V113.272C95.9772 112.84 96.4492 112.488 97.0252 112.216C97.6012 111.928 98.1212 111.784 98.5852 111.784C99.0652 111.784 99.3932 111.824 99.5692 111.904L99.4972 115.024C99.1772 114.976 98.8252 114.952 98.4412 114.952ZM109.402 122.992C108.298 123.792 106.994 124.192 105.49 124.192C104.002 124.192 102.962 123.88 102.37 123.256C101.778 122.632 101.482 121.616 101.482 120.208V114.664C100.922 114.472 100.482 114.2 100.162 113.848L100.402 112C101.298 111.792 102.13 111.688 102.898 111.688C103.666 111.688 104.314 111.712 104.842 111.76V119.416C104.842 120.28 104.97 120.856 105.226 121.144C105.498 121.416 106.026 121.552 106.81 121.552C107.594 121.552 108.322 121.296 108.994 120.784V114.664C108.434 114.472 107.994 114.2 107.674 113.848L107.914 112C108.81 111.792 109.642 111.688 110.41 111.688C111.178 111.688 111.826 111.712 112.354 111.76V121.12C112.914 121.232 113.354 121.368 113.674 121.528V123.424C112.714 123.936 111.506 124.192 110.05 124.192C109.65 123.904 109.434 123.504 109.402 122.992ZM114.943 112C115.839 111.792 116.671 111.688 117.439 111.688C118.207 111.688 118.855 111.712 119.383 111.76V121.336C120.007 121.576 120.447 121.848 120.703 122.152L120.463 124H114.943L114.703 122.152C114.927 121.848 115.367 121.576 116.023 121.336V114.664C115.463 114.472 115.023 114.2 114.703 113.848L114.943 112ZM117.655 110.344C116.327 110.344 115.663 109.744 115.663 108.544C115.663 107.328 116.327 106.72 117.655 106.72C118.999 106.72 119.671 107.328 119.671 108.544C119.671 109.744 118.999 110.344 117.655 110.344ZM121.903 112C122.783 111.808 123.575 111.712 124.279 111.712C124.983 111.712 125.567 111.728 126.031 111.76V112.96C126.431 112.624 126.959 112.352 127.615 112.144C128.287 111.92 128.927 111.808 129.535 111.808C131.103 111.808 132.199 112.176 132.823 112.912C133.463 113.648 133.783 114.92 133.783 116.728V121.336C134.407 121.576 134.847 121.848 135.103 122.152L134.863 124H129.343L129.103 122.152C129.327 121.848 129.767 121.576 130.423 121.336V116.584C130.423 115.72 130.279 115.144 129.991 114.856C129.719 114.552 129.223 114.4 128.503 114.4C127.783 114.4 127.063 114.656 126.343 115.168V121.336C126.967 121.576 127.407 121.848 127.663 122.152L127.423 124H121.903L121.663 122.152C121.887 121.848 122.327 121.576 122.983 121.336V114.664C122.423 114.472 121.983 114.2 121.663 113.848L121.903 112ZM141.577 114.256C140.105 114.256 139.369 115.52 139.369 118.048C139.369 119.328 139.569 120.224 139.969 120.736C140.385 121.232 140.977 121.48 141.745 121.48C142.961 121.48 144.033 121.368 144.961 121.144L145.681 122.992C145.169 123.328 144.481 123.616 143.617 123.856C142.753 124.08 141.913 124.192 141.097 124.192C137.641 124.192 135.913 122.192 135.913 118.192C135.913 115.856 136.513 114.176 137.713 113.152C138.785 112.256 140.089 111.808 141.625 111.808C143.161 111.808 144.441 112.096 145.465 112.672C145.481 112.832 145.489 112.984 145.489 113.128C145.489 114.04 145.281 114.904 144.865 115.72H142.753C142.529 115.32 142.393 114.84 142.345 114.28C142.153 114.264 141.897 114.256 141.577 114.256ZM147.221 113.776C147.221 113.536 147.229 113.28 147.245 113.008C148.733 112.208 150.333 111.808 152.045 111.808C153.757 111.808 154.981 112.136 155.717 112.792C156.469 113.432 156.845 114.504 156.845 116.008V121.12C157.405 121.232 157.845 121.368 158.165 121.528V123.616C157.349 124 156.181 124.192 154.661 124.192C154.501 123.776 154.365 123.272 154.253 122.68C153.565 123.688 152.317 124.192 150.509 124.192C149.437 124.192 148.517 123.88 147.749 123.256C146.997 122.632 146.621 121.784 146.621 120.712C146.621 119.64 146.973 118.8 147.677 118.192C148.397 117.568 149.461 117.256 150.869 117.256H153.485V116.104C153.485 114.856 152.821 114.232 151.493 114.232C150.997 114.232 150.589 114.28 150.269 114.376C150.237 115.048 150.141 115.568 149.981 115.936H147.629C147.357 115.376 147.221 114.656 147.221 113.776ZM151.541 121.744C152.357 121.744 153.005 121.504 153.485 121.024V119.056H151.805C150.653 119.056 150.077 119.496 150.077 120.376C150.077 120.776 150.197 121.104 150.437 121.36C150.693 121.616 151.061 121.744 151.541 121.744ZM166.222 114.952C165.006 114.952 164.166 115.184 163.702 115.648V121.144C164.998 121.384 165.886 121.72 166.366 122.152L166.126 124H159.262L159.022 122.152C159.246 121.848 159.686 121.576 160.342 121.336V114.664C159.782 114.472 159.342 114.2 159.022 113.848L159.262 112C160.142 111.808 160.934 111.712 161.638 111.712C162.342 111.712 162.926 111.728 163.39 111.76V113.272C163.758 112.84 164.23 112.488 164.806 112.216C165.382 111.928 165.902 111.784 166.366 111.784C166.846 111.784 167.174 111.824 167.35 111.904L167.278 115.024C166.958 114.976 166.606 114.952 166.222 114.952ZM174.567 106.96C175.479 106.752 176.351 106.648 177.183 106.648C178.015 106.648 178.727 106.672 179.319 106.72V121.12C179.799 121.2 180.239 121.336 180.639 121.528V123.424C179.679 123.936 178.463 124.192 176.991 124.192C176.831 124.112 176.671 123.968 176.511 123.76C176.367 123.552 176.287 123.352 176.271 123.16C175.919 123.448 175.463 123.696 174.903 123.904C174.343 124.096 173.791 124.192 173.247 124.192C171.519 124.192 170.263 123.728 169.479 122.8C168.711 121.856 168.327 120.32 168.327 118.192C168.327 115.776 168.919 114.08 170.103 113.104C171.143 112.24 172.423 111.808 173.943 111.808C174.615 111.808 175.287 111.888 175.959 112.048V109.672C175.223 109.464 174.679 109.176 174.327 108.808L174.567 106.96ZM173.751 121.744C174.663 121.744 175.399 121.472 175.959 120.928V114.496C175.303 114.336 174.607 114.256 173.871 114.256C173.135 114.256 172.599 114.584 172.263 115.24C171.943 115.88 171.783 116.848 171.783 118.144C171.783 119.424 171.943 120.344 172.263 120.904C172.583 121.464 173.079 121.744 173.751 121.744ZM186.982 106.96C187.878 106.752 188.71 106.648 189.478 106.648C190.246 106.648 190.894 106.672 191.422 106.72V112.72C191.806 112.464 192.318 112.248 192.958 112.072C193.598 111.896 194.166 111.808 194.662 111.808C196.246 111.808 197.342 112.192 197.95 112.96C198.558 113.728 198.862 114.896 198.862 116.464V121.336C199.486 121.576 199.926 121.848 200.182 122.152L199.942 124H194.422L194.182 122.152C194.406 121.848 194.846 121.576 195.502 121.336V116.584C195.502 115.72 195.358 115.144 195.07 114.856C194.798 114.552 194.294 114.4 193.558 114.4C192.822 114.4 192.11 114.656 191.422 115.168V121.336C192.046 121.576 192.486 121.848 192.742 122.152L192.502 124H186.982L186.742 122.152C186.966 121.848 187.406 121.576 188.062 121.336V109.624C187.502 109.432 187.062 109.16 186.742 108.808L186.982 106.96ZM201.502 113.776C201.502 113.536 201.51 113.28 201.526 113.008C203.014 112.208 204.614 111.808 206.326 111.808C208.038 111.808 209.262 112.136 209.998 112.792C210.75 113.432 211.126 114.504 211.126 116.008V121.12C211.686 121.232 212.126 121.368 212.446 121.528V123.616C211.63 124 210.462 124.192 208.942 124.192C208.782 123.776 208.646 123.272 208.534 122.68C207.846 123.688 206.598 124.192 204.79 124.192C203.718 124.192 202.798 123.88 202.03 123.256C201.278 122.632 200.902 121.784 200.902 120.712C200.902 119.64 201.254 118.8 201.958 118.192C202.678 117.568 203.742 117.256 205.15 117.256H207.766V116.104C207.766 114.856 207.102 114.232 205.774 114.232C205.278 114.232 204.87 114.28 204.55 114.376C204.518 115.048 204.422 115.568 204.262 115.936H201.91C201.638 115.376 201.502 114.656 201.502 113.776ZM205.822 121.744C206.638 121.744 207.286 121.504 207.766 121.024V119.056H206.086C204.934 119.056 204.358 119.496 204.358 120.376C204.358 120.776 204.478 121.104 204.718 121.36C204.974 121.616 205.342 121.744 205.822 121.744ZM218.104 113.968C217.048 113.968 216.52 114.28 216.52 114.904C216.52 115.496 217.072 115.936 218.176 116.224L220.072 116.728C222.024 117.24 223 118.368 223 120.112C223 121.312 222.576 122.296 221.728 123.064C220.896 123.816 219.56 124.192 217.72 124.192C215.896 124.192 214.472 123.936 213.448 123.424C213.432 123.248 213.424 123.072 213.424 122.896C213.424 122.016 213.6 121.224 213.952 120.52H215.944C216.152 120.904 216.288 121.304 216.352 121.72C216.672 121.816 217.128 121.864 217.72 121.864C219.128 121.864 219.832 121.464 219.832 120.664C219.832 120.408 219.736 120.2 219.544 120.04C219.352 119.864 218.976 119.696 218.416 119.536L216.52 118.984C215.544 118.712 214.784 118.312 214.24 117.784C213.696 117.24 213.424 116.448 213.424 115.408C213.424 114.352 213.848 113.488 214.696 112.816C215.544 112.144 216.752 111.808 218.32 111.808C219.904 111.808 221.24 112.04 222.328 112.504C222.344 112.664 222.352 112.824 222.352 112.984C222.352 113.816 222.176 114.584 221.824 115.288H219.856C219.648 114.92 219.512 114.536 219.448 114.136C219 114.024 218.552 113.968 218.104 113.968ZM235.042 126.544C236.466 126.544 237.178 125.688 237.178 123.976V122.92C236.394 123.4 235.41 123.64 234.226 123.64C232.722 123.64 231.562 123.2 230.746 122.32C229.946 121.44 229.546 119.976 229.546 117.928C229.546 113.848 231.418 111.808 235.162 111.808C236.122 111.808 237.018 112.016 237.85 112.432C238.01 112.144 238.25 112 238.57 112H240.538V123.808C240.538 125.568 240.098 126.872 239.218 127.72C238.354 128.568 237.01 128.992 235.186 128.992C234.226 128.992 233.234 128.88 232.21 128.656C231.186 128.432 230.41 128.152 229.882 127.816C229.866 127.672 229.858 127.528 229.858 127.384C229.858 126.504 230.066 125.656 230.482 124.84H232.594C232.77 125.176 232.898 125.624 232.978 126.184C233.586 126.424 234.274 126.544 235.042 126.544ZM232.858 117.784C232.858 118.984 233.018 119.824 233.338 120.304C233.674 120.784 234.234 121.024 235.018 121.024C235.818 121.024 236.538 120.8 237.178 120.352V114.664C236.538 114.392 235.842 114.256 235.09 114.256C233.602 114.256 232.858 115.432 232.858 117.784ZM247.91 124.192C246.022 124.192 244.622 123.688 243.71 122.68C242.798 121.672 242.342 120.152 242.342 118.12C242.342 116.072 242.846 114.512 243.854 113.44C244.878 112.352 246.342 111.808 248.246 111.808C250.15 111.808 251.558 112.288 252.47 113.248C253.398 114.208 253.862 115.712 253.862 117.76C253.862 119.792 253.342 121.376 252.302 122.512C251.278 123.632 249.814 124.192 247.91 124.192ZM245.798 117.904C245.798 120.464 246.566 121.744 248.102 121.744C248.886 121.744 249.462 121.456 249.83 120.88C250.214 120.288 250.406 119.328 250.406 118C250.406 115.504 249.622 114.256 248.054 114.256C247.286 114.256 246.718 114.536 246.35 115.096C245.982 115.64 245.798 116.576 245.798 117.904ZM259.461 108.976V112H262.893V114.016H259.461V120.088C259.461 120.6 259.533 120.976 259.677 121.216C259.821 121.44 260.165 121.552 260.709 121.552C261.253 121.552 261.837 121.432 262.461 121.192L263.181 123.064C261.949 123.688 260.685 124 259.389 124C258.109 124 257.237 123.728 256.773 123.184C256.325 122.624 256.101 121.816 256.101 120.76V114.016H255.021L254.757 112.552C255.013 112.248 255.541 111.944 256.341 111.64C256.533 110.328 256.989 109.44 257.709 108.976H259.461ZM273.781 108.976V112H277.213V114.016H273.781V120.088C273.781 120.6 273.853 120.976 273.997 121.216C274.141 121.44 274.485 121.552 275.029 121.552C275.573 121.552 276.157 121.432 276.781 121.192L277.501 123.064C276.269 123.688 275.005 124 273.709 124C272.429 124 271.557 123.728 271.093 123.184C270.645 122.624 270.421 121.816 270.421 120.76V114.016H269.341L269.077 112.552C269.333 112.248 269.861 111.944 270.661 111.64C270.853 110.328 271.309 109.44 272.029 108.976H273.781ZM283.887 124.192C281.999 124.192 280.599 123.688 279.687 122.68C278.775 121.672 278.319 120.152 278.319 118.12C278.319 116.072 278.823 114.512 279.831 113.44C280.855 112.352 282.319 111.808 284.223 111.808C286.127 111.808 287.535 112.288 288.447 113.248C289.375 114.208 289.839 115.712 289.839 117.76C289.839 119.792 289.319 121.376 288.279 122.512C287.255 123.632 285.791 124.192 283.887 124.192ZM281.775 117.904C281.775 120.464 282.543 121.744 284.079 121.744C284.863 121.744 285.439 121.456 285.807 120.88C286.191 120.288 286.383 119.328 286.383 118C286.383 115.504 285.599 114.256 284.031 114.256C283.263 114.256 282.695 114.536 282.327 115.096C281.959 115.64 281.775 116.576 281.775 117.904ZM295.956 106.96C296.852 106.752 297.684 106.648 298.452 106.648C299.22 106.648 299.868 106.672 300.396 106.72V112.72C300.732 112.48 301.18 112.272 301.74 112.096C302.3 111.904 302.836 111.808 303.348 111.808C305.092 111.808 306.316 112.256 307.02 113.152C307.724 114.048 308.076 115.576 308.076 117.736C308.076 118.936 307.908 119.976 307.572 120.856C307.252 121.72 306.812 122.384 306.252 122.848C305.196 123.744 303.948 124.192 302.508 124.192C301.42 124.192 300.348 123.92 299.292 123.376C298.988 123.792 298.636 124 298.236 124H297.036V109.624C296.476 109.432 296.036 109.16 295.716 108.808L295.956 106.96ZM302.316 121.744C303.852 121.744 304.62 120.456 304.62 117.88C304.62 116.52 304.484 115.6 304.212 115.12C303.956 114.624 303.5 114.376 302.844 114.376C301.852 114.376 301.036 114.64 300.396 115.168V121.336C301.084 121.608 301.724 121.744 302.316 121.744ZM315.111 124.192C313.191 124.192 311.743 123.68 310.767 122.656C309.807 121.632 309.327 120.144 309.327 118.192C309.327 117.008 309.495 115.992 309.831 115.144C310.167 114.28 310.623 113.616 311.199 113.152C312.319 112.256 313.623 111.808 315.111 111.808C316.599 111.808 317.735 112.192 318.519 112.96C319.319 113.712 319.719 115.072 319.719 117.04C319.719 118.192 319.151 118.768 318.015 118.768H312.807C312.871 119.776 313.127 120.488 313.575 120.904C314.039 121.32 314.767 121.528 315.759 121.528C316.303 121.528 316.823 121.464 317.319 121.336C317.815 121.208 318.175 121.08 318.399 120.952L318.735 120.76L319.455 122.68C319.359 122.792 319.215 122.936 319.023 123.112C318.847 123.272 318.383 123.496 317.631 123.784C316.895 124.056 316.055 124.192 315.111 124.192ZM316.623 116.632C316.655 116.408 316.671 116.136 316.671 115.816C316.671 115.496 316.543 115.16 316.287 114.808C316.031 114.44 315.583 114.256 314.943 114.256C314.319 114.256 313.839 114.448 313.503 114.832C313.167 115.216 312.943 115.864 312.831 116.776L316.623 116.632ZM21.0763 142.968C20.0203 142.968 19.4923 143.28 19.4923 143.904C19.4923 144.496 20.0443 144.936 21.1483 145.224L23.0443 145.728C24.9963 146.24 25.9723 147.368 25.9723 149.112C25.9723 150.312 25.5483 151.296 24.7003 152.064C23.8683 152.816 22.5323 153.192 20.6923 153.192C18.8683 153.192 17.4443 152.936 16.4203 152.424C16.4043 152.248 16.3963 152.072 16.3963 151.896C16.3963 151.016 16.5723 150.224 16.9243 149.52H18.9163C19.1243 149.904 19.2603 150.304 19.3243 150.72C19.6443 150.816 20.1003 150.864 20.6923 150.864C22.1003 150.864 22.8043 150.464 22.8043 149.664C22.8043 149.408 22.7083 149.2 22.5163 149.04C22.3243 148.864 21.9483 148.696 21.3883 148.536L19.4923 147.984C18.5163 147.712 17.7563 147.312 17.2123 146.784C16.6683 146.24 16.3963 145.448 16.3963 144.408C16.3963 143.352 16.8203 142.488 17.6683 141.816C18.5163 141.144 19.7243 140.808 21.2923 140.808C22.8763 140.808 24.2123 141.04 25.3003 141.504C25.3163 141.664 25.3243 141.824 25.3243 141.984C25.3243 142.816 25.1483 143.584 24.7963 144.288H22.8283C22.6203 143.92 22.4843 143.536 22.4203 143.136C21.9723 143.024 21.5243 142.968 21.0763 142.968ZM32.6485 153.192C30.7605 153.192 29.3605 152.688 28.4485 151.68C27.5365 150.672 27.0805 149.152 27.0805 147.12C27.0805 145.072 27.5845 143.512 28.5925 142.44C29.6165 141.352 31.0805 140.808 32.9845 140.808C34.8885 140.808 36.2965 141.288 37.2085 142.248C38.1365 143.208 38.6005 144.712 38.6005 146.76C38.6005 148.792 38.0805 150.376 37.0405 151.512C36.0165 152.632 34.5525 153.192 32.6485 153.192ZM30.5365 146.904C30.5365 149.464 31.3045 150.744 32.8405 150.744C33.6245 150.744 34.2005 150.456 34.5685 149.88C34.9525 149.288 35.1445 148.328 35.1445 147C35.1445 144.504 34.3605 143.256 32.7925 143.256C32.0245 143.256 31.4565 143.536 31.0885 144.096C30.7205 144.64 30.5365 145.576 30.5365 146.904ZM40.071 141C40.951 140.808 41.743 140.712 42.447 140.712C43.151 140.712 43.735 140.728 44.199 140.76V141.96C44.583 141.64 45.063 141.368 45.639 141.144C46.215 140.92 46.735 140.808 47.199 140.808C49.023 140.808 50.239 141.264 50.847 142.176C51.247 141.792 51.775 141.472 52.431 141.216C53.087 140.944 53.695 140.808 54.255 140.808C56.015 140.808 57.199 141.208 57.807 142.008C58.415 142.792 58.719 144.272 58.719 146.448V150.336C59.343 150.576 59.783 150.848 60.039 151.152L59.799 153H54.279L54.039 151.152C54.263 150.848 54.703 150.576 55.359 150.336V145.584C55.359 144.704 55.239 144.12 54.999 143.832C54.759 143.544 54.279 143.4 53.559 143.4C52.855 143.4 52.183 143.664 51.543 144.192C51.623 144.736 51.663 145.488 51.663 146.448V150.336C52.287 150.576 52.727 150.848 52.983 151.152L52.743 153H47.223L46.983 151.152C47.207 150.848 47.647 150.576 48.303 150.336V145.584C48.303 144.704 48.183 144.12 47.943 143.832C47.703 143.544 47.231 143.4 46.527 143.4C45.823 143.4 45.151 143.656 44.511 144.168V150.336C45.135 150.576 45.575 150.848 45.831 151.152L45.591 153H40.071L39.831 151.152C40.055 150.848 40.495 150.576 41.151 150.336V143.664C40.591 143.472 40.151 143.2 39.831 142.848L40.071 141ZM66.6145 153.192C64.6945 153.192 63.2465 152.68 62.2705 151.656C61.3105 150.632 60.8305 149.144 60.8305 147.192C60.8305 146.008 60.9985 144.992 61.3345 144.144C61.6705 143.28 62.1265 142.616 62.7025 142.152C63.8225 141.256 65.1265 140.808 66.6145 140.808C68.1025 140.808 69.2385 141.192 70.0225 141.96C70.8225 142.712 71.2225 144.072 71.2225 146.04C71.2225 147.192 70.6545 147.768 69.5185 147.768H64.3105C64.3745 148.776 64.6305 149.488 65.0785 149.904C65.5425 150.32 66.2705 150.528 67.2625 150.528C67.8065 150.528 68.3265 150.464 68.8225 150.336C69.3185 150.208 69.6785 150.08 69.9025 149.952L70.2385 149.76L70.9585 151.68C70.8625 151.792 70.7185 151.936 70.5265 152.112C70.3505 152.272 69.8865 152.496 69.1345 152.784C68.3985 153.056 67.5585 153.192 66.6145 153.192ZM68.1265 145.632C68.1585 145.408 68.1745 145.136 68.1745 144.816C68.1745 144.496 68.0465 144.16 67.7905 143.808C67.5345 143.44 67.0865 143.256 66.4465 143.256C65.8225 143.256 65.3425 143.448 65.0065 143.832C64.6705 144.216 64.4465 144.864 64.3345 145.776L68.1265 145.632ZM83.5497 153.144L82.3257 149.352C82.0697 148.584 81.8697 147.624 81.7257 146.472L81.6537 145.896H81.3177C81.1577 147.144 80.9177 148.288 80.5977 149.328L79.4697 153.144H76.0617L73.0377 143.712C72.3497 143.472 71.8777 143.184 71.6217 142.848L71.8617 141H77.4777L77.7177 142.848C77.4297 143.184 76.9417 143.472 76.2537 143.712L77.6457 149.832H77.9817C78.1577 148.984 78.3657 148.112 78.6057 147.216L80.2377 141.048H82.9257L84.5337 147.168L85.1337 149.832H85.4697C86.0617 147.128 86.4617 145.312 86.6697 144.384L86.8137 143.712C86.0937 143.456 85.6137 143.168 85.3737 142.848L85.6137 141H90.9417L91.1817 142.848C90.9097 143.216 90.4057 143.52 89.6697 143.76L86.6697 153.144H83.5497ZM91.5096 135.96C92.4056 135.752 93.2376 135.648 94.0056 135.648C94.7736 135.648 95.4216 135.672 95.9496 135.72V141.72C96.3336 141.464 96.8456 141.248 97.4856 141.072C98.1256 140.896 98.6936 140.808 99.1896 140.808C100.774 140.808 101.87 141.192 102.478 141.96C103.086 142.728 103.39 143.896 103.39 145.464V150.336C104.014 150.576 104.454 150.848 104.71 151.152L104.47 153H98.9496L98.7096 151.152C98.9336 150.848 99.3736 150.576 100.03 150.336V145.584C100.03 144.72 99.8856 144.144 99.5976 143.856C99.3256 143.552 98.8216 143.4 98.0856 143.4C97.3496 143.4 96.6376 143.656 95.9496 144.168V150.336C96.5736 150.576 97.0136 150.848 97.2696 151.152L97.0296 153H91.5096L91.2696 151.152C91.4936 150.848 91.9336 150.576 92.5896 150.336V138.624C92.0296 138.432 91.5896 138.16 91.2696 137.808L91.5096 135.96ZM111.31 153.192C109.39 153.192 107.942 152.68 106.966 151.656C106.006 150.632 105.526 149.144 105.526 147.192C105.526 146.008 105.694 144.992 106.03 144.144C106.366 143.28 106.822 142.616 107.398 142.152C108.518 141.256 109.822 140.808 111.31 140.808C112.798 140.808 113.934 141.192 114.718 141.96C115.518 142.712 115.918 144.072 115.918 146.04C115.918 147.192 115.35 147.768 114.214 147.768H109.006C109.07 148.776 109.326 149.488 109.774 149.904C110.238 150.32 110.966 150.528 111.958 150.528C112.502 150.528 113.022 150.464 113.518 150.336C114.014 150.208 114.374 150.08 114.598 149.952L114.934 149.76L115.654 151.68C115.558 151.792 115.414 151.936 115.222 152.112C115.046 152.272 114.582 152.496 113.83 152.784C113.094 153.056 112.254 153.192 111.31 153.192ZM112.822 145.632C112.854 145.408 112.87 145.136 112.87 144.816C112.87 144.496 112.742 144.16 112.486 143.808C112.23 143.44 111.782 143.256 111.142 143.256C110.518 143.256 110.038 143.448 109.702 143.832C109.366 144.216 109.142 144.864 109.03 145.776L112.822 145.632ZM124.351 143.952C123.135 143.952 122.295 144.184 121.831 144.648V150.144C123.127 150.384 124.015 150.72 124.495 151.152L124.255 153H117.391L117.151 151.152C117.375 150.848 117.815 150.576 118.471 150.336V143.664C117.911 143.472 117.471 143.2 117.151 142.848L117.391 141C118.271 140.808 119.063 140.712 119.767 140.712C120.471 140.712 121.055 140.728 121.519 140.76V142.272C121.887 141.84 122.359 141.488 122.935 141.216C123.511 140.928 124.031 140.784 124.495 140.784C124.975 140.784 125.303 140.824 125.479 140.904L125.407 144.024C125.087 143.976 124.735 143.952 124.351 143.952ZM132.216 153.192C130.296 153.192 128.848 152.68 127.872 151.656C126.912 150.632 126.432 149.144 126.432 147.192C126.432 146.008 126.6 144.992 126.936 144.144C127.272 143.28 127.728 142.616 128.304 142.152C129.424 141.256 130.728 140.808 132.216 140.808C133.704 140.808 134.84 141.192 135.624 141.96C136.424 142.712 136.824 144.072 136.824 146.04C136.824 147.192 136.256 147.768 135.12 147.768H129.912C129.976 148.776 130.232 149.488 130.68 149.904C131.144 150.32 131.872 150.528 132.864 150.528C133.408 150.528 133.928 150.464 134.424 150.336C134.92 150.208 135.28 150.08 135.504 149.952L135.84 149.76L136.56 151.68C136.464 151.792 136.32 151.936 136.128 152.112C135.952 152.272 135.488 152.496 134.736 152.784C134 153.056 133.16 153.192 132.216 153.192ZM133.728 145.632C133.76 145.408 133.776 145.136 133.776 144.816C133.776 144.496 133.648 144.16 133.392 143.808C133.136 143.44 132.688 143.256 132.048 143.256C131.424 143.256 130.944 143.448 130.608 143.832C130.272 144.216 130.048 144.864 129.936 145.776L133.728 145.632ZM143.928 142.776C143.928 142.536 143.936 142.28 143.952 142.008C145.44 141.208 147.04 140.808 148.752 140.808C150.464 140.808 151.688 141.136 152.424 141.792C153.176 142.432 153.552 143.504 153.552 145.008V150.12C154.112 150.232 154.552 150.368 154.872 150.528V152.616C154.056 153 152.888 153.192 151.368 153.192C151.208 152.776 151.072 152.272 150.96 151.68C150.272 152.688 149.024 153.192 147.216 153.192C146.144 153.192 145.224 152.88 144.456 152.256C143.704 151.632 143.328 150.784 143.328 149.712C143.328 148.64 143.68 147.8 144.384 147.192C145.104 146.568 146.168 146.256 147.576 146.256H150.192V145.104C150.192 143.856 149.528 143.232 148.2 143.232C147.704 143.232 147.296 143.28 146.976 143.376C146.944 144.048 146.848 144.568 146.688 144.936H144.336C144.064 144.376 143.928 143.656 143.928 142.776ZM148.248 150.744C149.064 150.744 149.712 150.504 150.192 150.024V148.056H148.512C147.36 148.056 146.784 148.496 146.784 149.376C146.784 149.776 146.904 150.104 147.144 150.36C147.4 150.616 147.768 150.744 148.248 150.744ZM162.929 143.952C161.713 143.952 160.873 144.184 160.409 144.648V150.144C161.705 150.384 162.593 150.72 163.073 151.152L162.833 153H155.969L155.729 151.152C155.953 150.848 156.393 150.576 157.049 150.336V143.664C156.489 143.472 156.049 143.2 155.729 142.848L155.969 141C156.849 140.808 157.641 140.712 158.345 140.712C159.049 140.712 159.633 140.728 160.097 140.76V142.272C160.465 141.84 160.937 141.488 161.513 141.216C162.089 140.928 162.609 140.784 163.073 140.784C163.553 140.784 163.881 140.824 164.057 140.904L163.985 144.024C163.665 143.976 163.313 143.952 162.929 143.952ZM170.578 153.192C168.69 153.192 167.29 152.688 166.378 151.68C165.466 150.672 165.01 149.152 165.01 147.12C165.01 145.072 165.514 143.512 166.522 142.44C167.546 141.352 169.01 140.808 170.914 140.808C172.818 140.808 174.226 141.288 175.138 142.248C176.066 143.208 176.53 144.712 176.53 146.76C176.53 148.792 176.01 150.376 174.97 151.512C173.946 152.632 172.482 153.192 170.578 153.192ZM168.466 146.904C168.466 149.464 169.234 150.744 170.77 150.744C171.554 150.744 172.13 150.456 172.498 149.88C172.882 149.288 173.074 148.328 173.074 147C173.074 144.504 172.29 143.256 170.722 143.256C169.954 143.256 169.386 143.536 169.018 144.096C168.65 144.64 168.466 145.576 168.466 146.904ZM186.617 151.992C185.513 152.792 184.209 153.192 182.705 153.192C181.217 153.192 180.177 152.88 179.585 152.256C178.993 151.632 178.697 150.616 178.697 149.208V143.664C178.137 143.472 177.697 143.2 177.377 142.848L177.617 141C178.513 140.792 179.345 140.688 180.113 140.688C180.881 140.688 181.529 140.712 182.057 140.76V148.416C182.057 149.28 182.185 149.856 182.441 150.144C182.713 150.416 183.241 150.552 184.025 150.552C184.809 150.552 185.537 150.296 186.209 149.784V143.664C185.649 143.472 185.209 143.2 184.889 142.848L185.129 141C186.025 140.792 186.857 140.688 187.625 140.688C188.393 140.688 189.041 140.712 189.569 140.76V150.12C190.129 150.232 190.569 150.368 190.889 150.528V152.424C189.929 152.936 188.721 153.192 187.265 153.192C186.865 152.904 186.649 152.504 186.617 151.992ZM192.11 141C192.99 140.808 193.782 140.712 194.486 140.712C195.19 140.712 195.774 140.728 196.238 140.76V141.96C196.638 141.624 197.166 141.352 197.822 141.144C198.494 140.92 199.134 140.808 199.742 140.808C201.31 140.808 202.406 141.176 203.03 141.912C203.67 142.648 203.99 143.92 203.99 145.728V150.336C204.614 150.576 205.054 150.848 205.31 151.152L205.07 153H199.55L199.31 151.152C199.534 150.848 199.974 150.576 200.63 150.336V145.584C200.63 144.72 200.486 144.144 200.198 143.856C199.926 143.552 199.43 143.4 198.71 143.4C197.99 143.4 197.27 143.656 196.55 144.168V150.336C197.174 150.576 197.614 150.848 197.87 151.152L197.63 153H192.11L191.87 151.152C192.094 150.848 192.534 150.576 193.19 150.336V143.664C192.63 143.472 192.19 143.2 191.87 142.848L192.11 141ZM212.384 135.96C213.296 135.752 214.168 135.648 215 135.648C215.832 135.648 216.544 135.672 217.136 135.72V150.12C217.616 150.2 218.056 150.336 218.456 150.528V152.424C217.496 152.936 216.28 153.192 214.808 153.192C214.648 153.112 214.488 152.968 214.328 152.76C214.184 152.552 214.104 152.352 214.088 152.16C213.736 152.448 213.28 152.696 212.72 152.904C212.16 153.096 211.608 153.192 211.064 153.192C209.336 153.192 208.08 152.728 207.296 151.8C206.528 150.856 206.144 149.32 206.144 147.192C206.144 144.776 206.736 143.08 207.92 142.104C208.96 141.24 210.24 140.808 211.76 140.808C212.432 140.808 213.104 140.888 213.776 141.048V138.672C213.04 138.464 212.496 138.176 212.144 137.808L212.384 135.96ZM211.568 150.744C212.48 150.744 213.216 150.472 213.776 149.928V143.496C213.12 143.336 212.424 143.256 211.688 143.256C210.952 143.256 210.416 143.584 210.08 144.24C209.76 144.88 209.6 145.848 209.6 147.144C209.6 148.424 209.76 149.344 210.08 149.904C210.4 150.464 210.896 150.744 211.568 150.744ZM224.799 135.96C225.695 135.752 226.527 135.648 227.295 135.648C228.063 135.648 228.711 135.672 229.239 135.72V141.72C229.623 141.464 230.135 141.248 230.775 141.072C231.415 140.896 231.983 140.808 232.479 140.808C234.063 140.808 235.159 141.192 235.767 141.96C236.375 142.728 236.679 143.896 236.679 145.464V150.336C237.303 150.576 237.743 150.848 237.999 151.152L237.759 153H232.239L231.999 151.152C232.223 150.848 232.663 150.576 233.319 150.336V145.584C233.319 144.72 233.175 144.144 232.887 143.856C232.615 143.552 232.111 143.4 231.375 143.4C230.639 143.4 229.927 143.656 229.239 144.168V150.336C229.863 150.576 230.303 150.848 230.559 151.152L230.319 153H224.799L224.559 151.152C224.783 150.848 225.223 150.576 225.879 150.336V138.624C225.319 138.432 224.879 138.16 224.559 137.808L224.799 135.96ZM244.599 153.192C242.679 153.192 241.231 152.68 240.255 151.656C239.295 150.632 238.815 149.144 238.815 147.192C238.815 146.008 238.983 144.992 239.319 144.144C239.655 143.28 240.111 142.616 240.687 142.152C241.807 141.256 243.111 140.808 244.599 140.808C246.087 140.808 247.223 141.192 248.007 141.96C248.807 142.712 249.207 144.072 249.207 146.04C249.207 147.192 248.639 147.768 247.503 147.768H242.295C242.359 148.776 242.615 149.488 243.063 149.904C243.527 150.32 244.255 150.528 245.247 150.528C245.791 150.528 246.311 150.464 246.807 150.336C247.303 150.208 247.663 150.08 247.887 149.952L248.223 149.76L248.943 151.68C248.847 151.792 248.703 151.936 248.511 152.112C248.335 152.272 247.871 152.496 247.119 152.784C246.383 153.056 245.543 153.192 244.599 153.192ZM246.111 145.632C246.143 145.408 246.159 145.136 246.159 144.816C246.159 144.496 246.031 144.16 245.775 143.808C245.519 143.44 245.071 143.256 244.431 143.256C243.807 143.256 243.327 143.448 242.991 143.832C242.655 144.216 242.431 144.864 242.319 145.776L246.111 145.632ZM257.64 143.952C256.424 143.952 255.584 144.184 255.12 144.648V150.144C256.416 150.384 257.304 150.72 257.784 151.152L257.544 153H250.68L250.44 151.152C250.664 150.848 251.104 150.576 251.76 150.336V143.664C251.2 143.472 250.76 143.2 250.44 142.848L250.68 141C251.56 140.808 252.352 140.712 253.056 140.712C253.76 140.712 254.344 140.728 254.808 140.76V142.272C255.176 141.84 255.648 141.488 256.224 141.216C256.8 140.928 257.32 140.784 257.784 140.784C258.264 140.784 258.592 140.824 258.768 140.904L258.696 144.024C258.376 143.976 258.024 143.952 257.64 143.952ZM265.505 153.192C263.585 153.192 262.137 152.68 261.161 151.656C260.201 150.632 259.721 149.144 259.721 147.192C259.721 146.008 259.889 144.992 260.225 144.144C260.561 143.28 261.017 142.616 261.593 142.152C262.713 141.256 264.017 140.808 265.505 140.808C266.993 140.808 268.129 141.192 268.913 141.96C269.713 142.712 270.113 144.072 270.113 146.04C270.113 147.192 269.545 147.768 268.409 147.768H263.201C263.265 148.776 263.521 149.488 263.969 149.904C264.433 150.32 265.161 150.528 266.153 150.528C266.697 150.528 267.217 150.464 267.713 150.336C268.209 150.208 268.569 150.08 268.793 149.952L269.129 149.76L269.849 151.68C269.753 151.792 269.609 151.936 269.417 152.112C269.241 152.272 268.777 152.496 268.025 152.784C267.289 153.056 266.449 153.192 265.505 153.192ZM267.017 145.632C267.049 145.408 267.065 145.136 267.065 144.816C267.065 144.496 266.937 144.16 266.681 143.808C266.425 143.44 265.977 143.256 265.337 143.256C264.713 143.256 264.233 143.448 263.897 143.832C263.561 144.216 263.337 144.864 263.225 145.776L267.017 145.632ZM273.603 153.24C272.275 153.24 271.611 152.64 271.611 151.44C271.611 150.224 272.275 149.616 273.603 149.616C274.947 149.616 275.619 150.224 275.619 151.44C275.619 152.64 274.947 153.24 273.603 153.24ZM279.368 153.24C278.04 153.24 277.376 152.64 277.376 151.44C277.376 150.224 278.04 149.616 279.368 149.616C280.712 149.616 281.384 150.224 281.384 151.44C281.384 152.64 280.712 153.24 279.368 153.24ZM285.134 153.24C283.806 153.24 283.142 152.64 283.142 151.44C283.142 150.224 283.806 149.616 285.134 149.616C286.478 149.616 287.15 150.224 287.15 151.44C287.15 152.64 286.478 153.24 285.134 153.24ZM299.674 143.256C298.202 143.256 297.466 144.52 297.466 147.048C297.466 148.328 297.666 149.224 298.066 149.736C298.482 150.232 299.074 150.48 299.842 150.48C301.058 150.48 302.13 150.368 303.058 150.144L303.778 151.992C303.266 152.328 302.578 152.616 301.714 152.856C300.85 153.08 300.01 153.192 299.194 153.192C295.738 153.192 294.01 151.192 294.01 147.192C294.01 144.856 294.61 143.176 295.81 142.152C296.882 141.256 298.186 140.808 299.722 140.808C301.258 140.808 302.538 141.096 303.562 141.672C303.578 141.832 303.586 141.984 303.586 142.128C303.586 143.04 303.378 143.904 302.962 144.72H300.85C300.626 144.32 300.49 143.84 300.442 143.28C300.25 143.264 299.994 143.256 299.674 143.256ZM304.791 135.96C305.687 135.752 306.519 135.648 307.287 135.648C308.055 135.648 308.703 135.672 309.231 135.72V150.336C309.855 150.576 310.295 150.848 310.551 151.152L310.311 153H304.791L304.551 151.152C304.775 150.848 305.215 150.576 305.871 150.336V138.624C305.311 138.432 304.871 138.16 304.551 137.808L304.791 135.96ZM311.83 141C312.726 140.792 313.558 140.688 314.326 140.688C315.094 140.688 315.742 140.712 316.27 140.76V150.336C316.894 150.576 317.334 150.848 317.59 151.152L317.35 153H311.83L311.59 151.152C311.814 150.848 312.254 150.576 312.91 150.336V143.664C312.35 143.472 311.91 143.2 311.59 142.848L311.83 141ZM314.542 139.344C313.214 139.344 312.55 138.744 312.55 137.544C312.55 136.328 313.214 135.72 314.542 135.72C315.886 135.72 316.558 136.328 316.558 137.544C316.558 138.744 315.886 139.344 314.542 139.344ZM324.19 143.256C322.718 143.256 321.982 144.52 321.982 147.048C321.982 148.328 322.182 149.224 322.582 149.736C322.998 150.232 323.59 150.48 324.358 150.48C325.574 150.48 326.646 150.368 327.574 150.144L328.294 151.992C327.782 152.328 327.094 152.616 326.23 152.856C325.366 153.08 324.526 153.192 323.71 153.192C320.254 153.192 318.526 151.192 318.526 147.192C318.526 144.856 319.126 143.176 320.326 142.152C321.398 141.256 322.702 140.808 324.238 140.808C325.774 140.808 327.054 141.096 328.078 141.672C328.094 141.832 328.102 141.984 328.102 142.128C328.102 143.04 327.894 143.904 327.478 144.72H325.366C325.142 144.32 325.006 143.84 324.958 143.28C324.766 143.264 324.51 143.256 324.19 143.256ZM329.306 135.96C330.202 135.752 331.034 135.648 331.802 135.648C332.57 135.648 333.218 135.672 333.746 135.72V150.336C334.37 150.576 334.81 150.848 335.066 151.152L334.826 153H329.306L329.066 151.152C329.29 150.848 329.73 150.576 330.386 150.336V138.624C329.826 138.432 329.386 138.16 329.066 137.808L329.306 135.96ZM338.21 153L333.962 146.784L336.602 143.352C336.33 143.192 336.138 143.024 336.026 142.848L336.266 141H341.546L341.786 142.848C341.434 143.296 340.77 143.648 339.794 143.904L337.49 146.544L340.202 150.12C341.194 150.344 341.89 150.688 342.29 151.152L342.05 153H338.21ZM15.6899 171.776C15.6899 171.536 15.6979 171.28 15.7139 171.008C17.2019 170.208 18.8019 169.808 20.5139 169.808C22.2259 169.808 23.4499 170.136 24.1859 170.792C24.9379 171.432 25.3139 172.504 25.3139 174.008V179.12C25.8739 179.232 26.3139 179.368 26.6339 179.528V181.616C25.8179 182 24.6499 182.192 23.1299 182.192C22.9699 181.776 22.8339 181.272 22.7219 180.68C22.0339 181.688 20.7859 182.192 18.9779 182.192C17.9059 182.192 16.9859 181.88 16.2179 181.256C15.4659 180.632 15.0899 179.784 15.0899 178.712C15.0899 177.64 15.4419 176.8 16.1459 176.192C16.8659 175.568 17.9299 175.256 19.3379 175.256H21.9539V174.104C21.9539 172.856 21.2899 172.232 19.9619 172.232C19.4659 172.232 19.0579 172.28 18.7379 172.376C18.7059 173.048 18.6099 173.568 18.4499 173.936H16.0979C15.8259 173.376 15.6899 172.656 15.6899 171.776ZM20.0099 179.744C20.8259 179.744 21.4739 179.504 21.9539 179.024V177.056H20.2739C19.1219 177.056 18.5459 177.496 18.5459 178.376C18.5459 178.776 18.6659 179.104 18.9059 179.36C19.1619 179.616 19.5299 179.744 20.0099 179.744ZM34.6912 172.952C33.4752 172.952 32.6352 173.184 32.1712 173.648V179.144C33.4672 179.384 34.3552 179.72 34.8352 180.152L34.5952 182H27.7312L27.4912 180.152C27.7152 179.848 28.1552 179.576 28.8112 179.336V172.664C28.2512 172.472 27.8112 172.2 27.4912 171.848L27.7312 170C28.6112 169.808 29.4032 169.712 30.1072 169.712C30.8112 169.712 31.3952 169.728 31.8592 169.76V171.272C32.2272 170.84 32.6992 170.488 33.2752 170.216C33.8512 169.928 34.3712 169.784 34.8352 169.784C35.3152 169.784 35.6432 169.824 35.8192 169.904L35.7472 173.024C35.4272 172.976 35.0752 172.952 34.6912 172.952ZM42.3399 182.192C40.4519 182.192 39.0519 181.688 38.1399 180.68C37.2279 179.672 36.7719 178.152 36.7719 176.12C36.7719 174.072 37.2759 172.512 38.2839 171.44C39.3079 170.352 40.7719 169.808 42.6759 169.808C44.5799 169.808 45.9879 170.288 46.8999 171.248C47.8279 172.208 48.2919 173.712 48.2919 175.76C48.2919 177.792 47.7719 179.376 46.7319 180.512C45.7079 181.632 44.2439 182.192 42.3399 182.192ZM40.2279 175.904C40.2279 178.464 40.9959 179.744 42.5319 179.744C43.3159 179.744 43.8919 179.456 44.2599 178.88C44.6439 178.288 44.8359 177.328 44.8359 176C44.8359 173.504 44.0519 172.256 42.4839 172.256C41.7159 172.256 41.1479 172.536 40.7799 173.096C40.4119 173.64 40.2279 174.576 40.2279 175.904ZM58.3784 180.992C57.2744 181.792 55.9704 182.192 54.4664 182.192C52.9784 182.192 51.9384 181.88 51.3464 181.256C50.7544 180.632 50.4584 179.616 50.4584 178.208V172.664C49.8984 172.472 49.4584 172.2 49.1384 171.848L49.3784 170C50.2744 169.792 51.1064 169.688 51.8744 169.688C52.6424 169.688 53.2904 169.712 53.8184 169.76V177.416C53.8184 178.28 53.9464 178.856 54.2024 179.144C54.4744 179.416 55.0024 179.552 55.7864 179.552C56.5704 179.552 57.2984 179.296 57.9704 178.784V172.664C57.4104 172.472 56.9704 172.2 56.6504 171.848L56.8904 170C57.7864 169.792 58.6184 169.688 59.3864 169.688C60.1544 169.688 60.8024 169.712 61.3304 169.76V179.12C61.8904 179.232 62.3304 179.368 62.6504 179.528V181.424C61.6904 181.936 60.4824 182.192 59.0264 182.192C58.6264 181.904 58.4104 181.504 58.3784 180.992ZM63.8718 170C64.7518 169.808 65.5438 169.712 66.2478 169.712C66.9518 169.712 67.5358 169.728 67.9998 169.76V170.96C68.3998 170.624 68.9278 170.352 69.5838 170.144C70.2558 169.92 70.8958 169.808 71.5038 169.808C73.0718 169.808 74.1678 170.176 74.7918 170.912C75.4318 171.648 75.7518 172.92 75.7518 174.728V179.336C76.3758 179.576 76.8158 179.848 77.0718 180.152L76.8318 182H71.3118L71.0718 180.152C71.2958 179.848 71.7358 179.576 72.3918 179.336V174.584C72.3918 173.72 72.2478 173.144 71.9598 172.856C71.6878 172.552 71.1918 172.4 70.4718 172.4C69.7518 172.4 69.0318 172.656 68.3118 173.168V179.336C68.9358 179.576 69.3758 179.848 69.6318 180.152L69.3918 182H63.8718L63.6318 180.152C63.8558 179.848 64.2958 179.576 64.9518 179.336V172.664C64.3918 172.472 63.9518 172.2 63.6318 171.848L63.8718 170ZM84.1453 164.96C85.0573 164.752 85.9293 164.648 86.7613 164.648C87.5933 164.648 88.3053 164.672 88.8973 164.72V179.12C89.3773 179.2 89.8173 179.336 90.2173 179.528V181.424C89.2573 181.936 88.0413 182.192 86.5693 182.192C86.4093 182.112 86.2493 181.968 86.0893 181.76C85.9453 181.552 85.8653 181.352 85.8493 181.16C85.4973 181.448 85.0413 181.696 84.4813 181.904C83.9213 182.096 83.3693 182.192 82.8253 182.192C81.0973 182.192 79.8413 181.728 79.0573 180.8C78.2893 179.856 77.9053 178.32 77.9053 176.192C77.9053 173.776 78.4973 172.08 79.6813 171.104C80.7213 170.24 82.0013 169.808 83.5213 169.808C84.1933 169.808 84.8653 169.888 85.5373 170.048V167.672C84.8013 167.464 84.2573 167.176 83.9053 166.808L84.1453 164.96ZM83.3293 179.744C84.2413 179.744 84.9773 179.472 85.5373 178.928V172.496C84.8813 172.336 84.1853 172.256 83.4492 172.256C82.7133 172.256 82.1773 172.584 81.8413 173.24C81.5213 173.88 81.3613 174.848 81.3613 176.144C81.3613 177.424 81.5213 178.344 81.8413 178.904C82.1613 179.464 82.6573 179.744 83.3293 179.744ZM100.976 166.976V170H104.408V172.016H100.976V178.088C100.976 178.6 101.048 178.976 101.192 179.216C101.336 179.44 101.68 179.552 102.224 179.552C102.768 179.552 103.352 179.432 103.976 179.192L104.696 181.064C103.464 181.688 102.2 182 100.904 182C99.6244 182 98.7524 181.728 98.2884 181.184C97.8404 180.624 97.6164 179.816 97.6164 178.76V172.016H96.5364L96.2724 170.552C96.5284 170.248 97.0564 169.944 97.8564 169.64C98.0484 168.328 98.5044 167.44 99.2244 166.976H100.976ZM111.082 182.192C109.194 182.192 107.794 181.688 106.882 180.68C105.97 179.672 105.514 178.152 105.514 176.12C105.514 174.072 106.018 172.512 107.026 171.44C108.05 170.352 109.514 169.808 111.418 169.808C113.322 169.808 114.73 170.288 115.642 171.248C116.57 172.208 117.034 173.712 117.034 175.76C117.034 177.792 116.514 179.376 115.474 180.512C114.45 181.632 112.986 182.192 111.082 182.192ZM108.97 175.904C108.97 178.464 109.738 179.744 111.274 179.744C112.058 179.744 112.634 179.456 113.002 178.88C113.386 178.288 113.578 177.328 113.578 176C113.578 173.504 112.794 172.256 111.226 172.256C110.458 172.256 109.89 172.536 109.522 173.096C109.154 173.64 108.97 174.576 108.97 175.904ZM128.455 171.968C127.399 171.968 126.871 172.28 126.871 172.904C126.871 173.496 127.423 173.936 128.527 174.224L130.423 174.728C132.375 175.24 133.351 176.368 133.351 178.112C133.351 179.312 132.927 180.296 132.079 181.064C131.247 181.816 129.911 182.192 128.071 182.192C126.247 182.192 124.823 181.936 123.799 181.424C123.783 181.248 123.775 181.072 123.775 180.896C123.775 180.016 123.951 179.224 124.303 178.52H126.295C126.503 178.904 126.639 179.304 126.703 179.72C127.023 179.816 127.479 179.864 128.071 179.864C129.479 179.864 130.183 179.464 130.183 178.664C130.183 178.408 130.087 178.2 129.895 178.04C129.703 177.864 129.327 177.696 128.767 177.536L126.871 176.984C125.895 176.712 125.135 176.312 124.591 175.784C124.047 175.24 123.775 174.448 123.775 173.408C123.775 172.352 124.199 171.488 125.047 170.816C125.895 170.144 127.103 169.808 128.671 169.808C130.255 169.808 131.591 170.04 132.679 170.504C132.695 170.664 132.703 170.824 132.703 170.984C132.703 171.816 132.527 172.584 132.175 173.288H130.207C129.999 172.92 129.863 172.536 129.799 172.136C129.351 172.024 128.903 171.968 128.455 171.968ZM140.243 182.192C138.323 182.192 136.875 181.68 135.899 180.656C134.939 179.632 134.459 178.144 134.459 176.192C134.459 175.008 134.627 173.992 134.963 173.144C135.299 172.28 135.755 171.616 136.331 171.152C137.451 170.256 138.755 169.808 140.243 169.808C141.731 169.808 142.867 170.192 143.651 170.96C144.451 171.712 144.851 173.072 144.851 175.04C144.851 176.192 144.283 176.768 143.147 176.768H137.939C138.003 177.776 138.259 178.488 138.707 178.904C139.171 179.32 139.899 179.528 140.891 179.528C141.435 179.528 141.955 179.464 142.451 179.336C142.947 179.208 143.307 179.08 143.531 178.952L143.867 178.76L144.587 180.68C144.491 180.792 144.347 180.936 144.155 181.112C143.979 181.272 143.515 181.496 142.763 181.784C142.027 182.056 141.187 182.192 140.243 182.192ZM141.755 174.632C141.787 174.408 141.803 174.136 141.803 173.816C141.803 173.496 141.675 173.16 141.419 172.808C141.163 172.44 140.715 172.256 140.075 172.256C139.451 172.256 138.971 172.448 138.635 172.832C138.299 173.216 138.075 173.864 137.963 174.776L141.755 174.632ZM151.845 182.192C149.925 182.192 148.477 181.68 147.501 180.656C146.541 179.632 146.061 178.144 146.061 176.192C146.061 175.008 146.229 173.992 146.565 173.144C146.901 172.28 147.357 171.616 147.933 171.152C149.053 170.256 150.357 169.808 151.845 169.808C153.333 169.808 154.469 170.192 155.253 170.96C156.053 171.712 156.453 173.072 156.453 175.04C156.453 176.192 155.885 176.768 154.749 176.768H149.541C149.605 177.776 149.861 178.488 150.309 178.904C150.773 179.32 151.501 179.528 152.493 179.528C153.037 179.528 153.557 179.464 154.053 179.336C154.549 179.208 154.909 179.08 155.133 178.952L155.469 178.76L156.189 180.68C156.093 180.792 155.949 180.936 155.757 181.112C155.581 181.272 155.117 181.496 154.365 181.784C153.629 182.056 152.789 182.192 151.845 182.192ZM153.357 174.632C153.389 174.408 153.405 174.136 153.405 173.816C153.405 173.496 153.277 173.16 153.021 172.808C152.765 172.44 152.317 172.256 151.677 172.256C151.053 172.256 150.573 172.448 150.237 172.832C149.901 173.216 149.677 173.864 149.565 174.776L153.357 174.632ZM163.365 170C164.261 169.792 165.093 169.688 165.861 169.688C166.629 169.688 167.277 169.712 167.805 169.76V179.336C168.429 179.576 168.869 179.848 169.125 180.152L168.885 182H163.365L163.125 180.152C163.349 179.848 163.789 179.576 164.445 179.336V172.664C163.885 172.472 163.445 172.2 163.125 171.848L163.365 170ZM166.077 168.344C164.749 168.344 164.085 167.744 164.085 166.544C164.085 165.328 164.749 164.72 166.077 164.72C167.421 164.72 168.093 165.328 168.093 166.544C168.093 167.744 167.421 168.344 166.077 168.344ZM171.405 169.544C171.405 167.88 171.765 166.632 172.485 165.8C173.205 164.952 174.349 164.528 175.917 164.528C177.485 164.528 178.845 164.952 179.997 165.8C180.013 165.912 180.021 166.08 180.021 166.304C180.021 166.512 179.965 166.864 179.853 167.36C179.741 167.856 179.589 168.256 179.397 168.56H177.381C177.093 168.016 176.941 167.504 176.925 167.024C176.733 166.992 176.573 166.976 176.445 166.976C175.837 166.976 175.405 167.144 175.149 167.48C174.893 167.816 174.765 168.424 174.765 169.304V170.216H178.437V172.424H174.765V179.216C175.965 179.456 176.781 179.768 177.213 180.152L176.973 182H170.325L170.085 180.152C170.309 179.848 170.749 179.576 171.405 179.336V172.424H170.349L170.085 170.768C170.437 170.448 170.877 170.264 171.405 170.216V169.544ZM187.88 184.784C188.168 184.784 188.472 184.512 188.792 183.968C189.128 183.44 189.36 182.808 189.488 182.072L185.552 172.76C184.768 172.504 184.24 172.2 183.968 171.848L184.208 170H189.728L189.968 171.848C189.76 172.104 189.408 172.336 188.912 172.544L190.232 176.168C190.52 176.92 190.72 177.664 190.832 178.4L190.904 178.736H191.24C191.368 177.936 191.592 177.096 191.912 176.216L193.184 172.664C192.592 172.44 192.176 172.168 191.936 171.848L192.176 170H197.456L197.696 171.848C197.408 172.216 196.88 172.528 196.112 172.784L192.152 182.144C191.4 183.92 190.824 185.064 190.424 185.576C189.72 186.52 188.736 186.992 187.472 186.992C186.224 186.992 185.272 186.664 184.616 186.008C184.6 185.848 184.592 185.688 184.592 185.528C184.592 184.648 184.776 183.816 185.144 183.032H187.136C187.376 183.464 187.512 184.048 187.544 184.784H187.88ZM203.402 182.192C201.514 182.192 200.114 181.688 199.202 180.68C198.29 179.672 197.834 178.152 197.834 176.12C197.834 174.072 198.338 172.512 199.346 171.44C200.37 170.352 201.834 169.808 203.738 169.808C205.642 169.808 207.05 170.288 207.962 171.248C208.89 172.208 209.354 173.712 209.354 175.76C209.354 177.792 208.834 179.376 207.794 180.512C206.77 181.632 205.306 182.192 203.402 182.192ZM201.29 175.904C201.29 178.464 202.058 179.744 203.594 179.744C204.378 179.744 204.954 179.456 205.322 178.88C205.706 178.288 205.898 177.328 205.898 176C205.898 173.504 205.114 172.256 203.546 172.256C202.778 172.256 202.21 172.536 201.842 173.096C201.474 173.64 201.29 174.576 201.29 175.904ZM219.441 180.992C218.337 181.792 217.033 182.192 215.529 182.192C214.041 182.192 213.001 181.88 212.409 181.256C211.817 180.632 211.521 179.616 211.521 178.208V172.664C210.961 172.472 210.521 172.2 210.201 171.848L210.441 170C211.337 169.792 212.169 169.688 212.937 169.688C213.705 169.688 214.353 169.712 214.881 169.76V177.416C214.881 178.28 215.009 178.856 215.265 179.144C215.537 179.416 216.065 179.552 216.849 179.552C217.633 179.552 218.361 179.296 219.033 178.784V172.664C218.473 172.472 218.033 172.2 217.713 171.848L217.953 170C218.849 169.792 219.681 169.688 220.449 169.688C221.217 169.688 221.865 169.712 222.393 169.76V179.12C222.953 179.232 223.393 179.368 223.713 179.528V181.424C222.753 181.936 221.545 182.192 220.089 182.192C219.689 181.904 219.473 181.504 219.441 180.992ZM235.725 172.256C234.253 172.256 233.517 173.52 233.517 176.048C233.517 177.328 233.717 178.224 234.117 178.736C234.533 179.232 235.125 179.48 235.893 179.48C237.109 179.48 238.181 179.368 239.109 179.144L239.829 180.992C239.317 181.328 238.629 181.616 237.765 181.856C236.901 182.08 236.061 182.192 235.245 182.192C231.789 182.192 230.061 180.192 230.061 176.192C230.061 173.856 230.661 172.176 231.861 171.152C232.933 170.256 234.237 169.808 235.773 169.808C237.309 169.808 238.589 170.096 239.613 170.672C239.629 170.832 239.637 170.984 239.637 171.128C239.637 172.04 239.429 172.904 239.013 173.72H236.901C236.677 173.32 236.541 172.84 236.493 172.28C236.301 172.264 236.045 172.256 235.725 172.256ZM241.37 171.776C241.37 171.536 241.378 171.28 241.394 171.008C242.882 170.208 244.482 169.808 246.194 169.808C247.906 169.808 249.13 170.136 249.866 170.792C250.618 171.432 250.994 172.504 250.994 174.008V179.12C251.554 179.232 251.994 179.368 252.314 179.528V181.616C251.498 182 250.33 182.192 248.81 182.192C248.65 181.776 248.514 181.272 248.402 180.68C247.714 181.688 246.466 182.192 244.658 182.192C243.586 182.192 242.666 181.88 241.898 181.256C241.146 180.632 240.77 179.784 240.77 178.712C240.77 177.64 241.122 176.8 241.826 176.192C242.546 175.568 243.61 175.256 245.018 175.256H247.634V174.104C247.634 172.856 246.97 172.232 245.642 172.232C245.146 172.232 244.738 172.28 244.418 172.376C244.386 173.048 244.29 173.568 244.13 173.936H241.778C241.506 173.376 241.37 172.656 241.37 171.776ZM245.69 179.744C246.506 179.744 247.154 179.504 247.634 179.024V177.056H245.954C244.802 177.056 244.226 177.496 244.226 178.376C244.226 178.776 244.346 179.104 244.586 179.36C244.842 179.616 245.21 179.744 245.69 179.744ZM253.411 170C254.291 169.808 255.083 169.712 255.787 169.712C256.491 169.712 257.075 169.728 257.539 169.76V170.96C257.939 170.624 258.467 170.352 259.123 170.144C259.795 169.92 260.435 169.808 261.043 169.808C262.611 169.808 263.707 170.176 264.331 170.912C264.971 171.648 265.291 172.92 265.291 174.728V179.336C265.915 179.576 266.355 179.848 266.611 180.152L266.371 182H260.851L260.611 180.152C260.835 179.848 261.275 179.576 261.931 179.336V174.584C261.931 173.72 261.787 173.144 261.499 172.856C261.227 172.552 260.731 172.4 260.011 172.4C259.291 172.4 258.571 172.656 257.851 173.168V179.336C258.475 179.576 258.915 179.848 259.171 180.152L258.931 182H253.411L253.171 180.152C253.395 179.848 253.835 179.576 254.491 179.336V172.664C253.931 172.472 253.491 172.2 253.171 171.848L253.411 170ZM274.155 169.544C274.155 167.88 274.515 166.632 275.235 165.8C275.955 164.952 277.099 164.528 278.667 164.528C280.235 164.528 281.595 164.952 282.747 165.8C282.763 165.912 282.771 166.08 282.771 166.304C282.771 166.512 282.715 166.864 282.603 167.36C282.491 167.856 282.339 168.256 282.147 168.56H280.131C279.843 168.016 279.691 167.504 279.675 167.024C279.483 166.992 279.323 166.976 279.195 166.976C278.587 166.976 278.155 167.144 277.899 167.48C277.643 167.816 277.515 168.424 277.515 169.304V170.216H281.187V172.424H277.515V179.216C278.715 179.456 279.531 179.768 279.963 180.152L279.723 182H273.075L272.835 180.152C273.059 179.848 273.499 179.576 274.155 179.336V172.424H273.099L272.835 170.768C273.187 170.448 273.627 170.264 274.155 170.216V169.544ZM282.639 170C283.535 169.792 284.367 169.688 285.135 169.688C285.903 169.688 286.551 169.712 287.079 169.76V179.336C287.703 179.576 288.143 179.848 288.399 180.152L288.159 182H282.639L282.399 180.152C282.623 179.848 283.063 179.576 283.719 179.336V172.664C283.159 172.472 282.719 172.2 282.399 171.848L282.639 170ZM285.351 168.344C284.023 168.344 283.359 167.744 283.359 166.544C283.359 165.328 284.023 164.72 285.351 164.72C286.695 164.72 287.367 165.328 287.367 166.544C287.367 167.744 286.695 168.344 285.351 168.344ZM289.598 170C290.478 169.808 291.27 169.712 291.974 169.712C292.678 169.712 293.262 169.728 293.726 169.76V170.96C294.126 170.624 294.654 170.352 295.31 170.144C295.982 169.92 296.622 169.808 297.23 169.808C298.798 169.808 299.894 170.176 300.518 170.912C301.158 171.648 301.478 172.92 301.478 174.728V179.336C302.102 179.576 302.542 179.848 302.798 180.152L302.558 182H297.038L296.798 180.152C297.022 179.848 297.462 179.576 298.118 179.336V174.584C298.118 173.72 297.974 173.144 297.686 172.856C297.414 172.552 296.918 172.4 296.198 172.4C295.478 172.4 294.758 172.656 294.038 173.168V179.336C294.662 179.576 295.102 179.848 295.358 180.152L295.118 182H289.598L289.358 180.152C289.582 179.848 290.022 179.576 290.678 179.336V172.664C290.118 172.472 289.678 172.2 289.358 171.848L289.598 170ZM309.872 164.96C310.784 164.752 311.656 164.648 312.488 164.648C313.32 164.648 314.032 164.672 314.624 164.72V179.12C315.104 179.2 315.544 179.336 315.944 179.528V181.424C314.984 181.936 313.768 182.192 312.296 182.192C312.136 182.112 311.976 181.968 311.816 181.76C311.672 181.552 311.592 181.352 311.576 181.16C311.224 181.448 310.768 181.696 310.208 181.904C309.648 182.096 309.096 182.192 308.552 182.192C306.824 182.192 305.568 181.728 304.784 180.8C304.016 179.856 303.632 178.32 303.632 176.192C303.632 173.776 304.224 172.08 305.408 171.104C306.448 170.24 307.728 169.808 309.248 169.808C309.92 169.808 310.592 169.888 311.264 170.048V167.672C310.528 167.464 309.984 167.176 309.632 166.808L309.872 164.96ZM309.056 179.744C309.968 179.744 310.704 179.472 311.264 178.928V172.496C310.608 172.336 309.912 172.256 309.176 172.256C308.44 172.256 307.904 172.584 307.568 173.24C307.248 173.88 307.088 174.848 307.088 176.144C307.088 177.424 307.248 178.344 307.568 178.904C307.888 179.464 308.384 179.744 309.056 179.744ZM322.623 170C323.519 169.792 324.351 169.688 325.119 169.688C325.887 169.688 326.535 169.712 327.063 169.76V179.336C327.687 179.576 328.127 179.848 328.383 180.152L328.143 182H322.623L322.383 180.152C322.607 179.848 323.047 179.576 323.703 179.336V172.664C323.143 172.472 322.703 172.2 322.383 171.848L322.623 170ZM325.335 168.344C324.007 168.344 323.343 167.744 323.343 166.544C323.343 165.328 324.007 164.72 325.335 164.72C326.679 164.72 327.351 165.328 327.351 166.544C327.351 167.744 326.679 168.344 325.335 168.344ZM333.711 166.976V170H337.143V172.016H333.711V178.088C333.711 178.6 333.783 178.976 333.927 179.216C334.071 179.44 334.415 179.552 334.959 179.552C335.503 179.552 336.087 179.432 336.711 179.192L337.431 181.064C336.199 181.688 334.935 182 333.639 182C332.359 182 331.487 181.728 331.023 181.184C330.575 180.624 330.351 179.816 330.351 178.76V172.016H329.271L329.007 170.552C329.263 170.248 329.791 169.944 330.591 169.64C330.783 168.328 331.239 167.44 331.959 166.976H333.711ZM340.528 182.24C339.2 182.24 338.536 181.64 338.536 180.44C338.536 179.224 339.2 178.616 340.528 178.616C341.872 178.616 342.544 179.224 342.544 180.44C342.544 181.64 341.872 182.24 340.528 182.24ZM45.1502 193.96C46.0462 193.752 46.8782 193.648 47.6462 193.648C48.4142 193.648 49.0622 193.672 49.5902 193.72V208.336C50.2142 208.576 50.6542 208.848 50.9102 209.152L50.6702 211H45.1502L44.9102 209.152C45.1342 208.848 45.5742 208.576 46.2302 208.336V196.624C45.6702 196.432 45.2302 196.16 44.9102 195.808L45.1502 193.96ZM54.0542 211L49.8062 204.784L52.4462 201.352C52.1742 201.192 51.9822 201.024 51.8702 200.848L52.1102 199H57.3902L57.6302 200.848C57.2782 201.296 56.6142 201.648 55.6382 201.904L53.3342 204.544L56.0462 208.12C57.0382 208.344 57.7342 208.688 58.1342 209.152L57.8942 211H54.0542ZM64.5754 211.192C62.6554 211.192 61.2074 210.68 60.2314 209.656C59.2714 208.632 58.7914 207.144 58.7914 205.192C58.7914 204.008 58.9594 202.992 59.2954 202.144C59.6314 201.28 60.0874 200.616 60.6634 200.152C61.7834 199.256 63.0874 198.808 64.5754 198.808C66.0634 198.808 67.1994 199.192 67.9834 199.96C68.7834 200.712 69.1834 202.072 69.1834 204.04C69.1834 205.192 68.6154 205.768 67.4794 205.768H62.2714C62.3354 206.776 62.5914 207.488 63.0394 207.904C63.5034 208.32 64.2314 208.528 65.2234 208.528C65.7674 208.528 66.2874 208.464 66.7834 208.336C67.2794 208.208 67.6394 208.08 67.8634 207.952L68.1994 207.76L68.9194 209.68C68.8234 209.792 68.6794 209.936 68.4874 210.112C68.3114 210.272 67.8474 210.496 67.0954 210.784C66.3594 211.056 65.5194 211.192 64.5754 211.192ZM66.0874 203.632C66.1194 203.408 66.1354 203.136 66.1354 202.816C66.1354 202.496 66.0074 202.16 65.7514 201.808C65.4954 201.44 65.0474 201.256 64.4074 201.256C63.7834 201.256 63.3034 201.448 62.9674 201.832C62.6314 202.216 62.4074 202.864 62.2954 203.776L66.0874 203.632ZM76.177 211.192C74.257 211.192 72.809 210.68 71.833 209.656C70.873 208.632 70.393 207.144 70.393 205.192C70.393 204.008 70.561 202.992 70.897 202.144C71.233 201.28 71.689 200.616 72.265 200.152C73.385 199.256 74.689 198.808 76.177 198.808C77.665 198.808 78.801 199.192 79.585 199.96C80.385 200.712 80.785 202.072 80.785 204.04C80.785 205.192 80.217 205.768 79.081 205.768H73.873C73.937 206.776 74.193 207.488 74.641 207.904C75.105 208.32 75.833 208.528 76.825 208.528C77.369 208.528 77.889 208.464 78.385 208.336C78.881 208.208 79.241 208.08 79.465 207.952L79.801 207.76L80.521 209.68C80.425 209.792 80.281 209.936 80.089 210.112C79.913 210.272 79.449 210.496 78.697 210.784C77.961 211.056 77.121 211.192 76.177 211.192ZM77.689 203.632C77.721 203.408 77.737 203.136 77.737 202.816C77.737 202.496 77.609 202.16 77.353 201.808C77.097 201.44 76.649 201.256 76.009 201.256C75.385 201.256 74.905 201.448 74.569 201.832C74.233 202.216 74.009 202.864 73.897 203.776L77.689 203.632ZM81.9945 199C82.8745 198.808 83.6665 198.712 84.3705 198.712C85.0745 198.712 85.6585 198.728 86.1225 198.76V199.936C87.1945 199.184 88.3385 198.808 89.5545 198.808C91.1545 198.808 92.3145 199.264 93.0345 200.176C93.7545 201.088 94.1145 202.608 94.1145 204.736C94.1145 205.872 93.9465 206.872 93.6105 207.736C93.2745 208.6 92.8185 209.272 92.2425 209.752C91.1385 210.712 89.8265 211.192 88.3065 211.192C87.6505 211.192 87.0265 211.128 86.4345 211V213.064C87.3785 213.32 87.9865 213.616 88.2585 213.952L88.0185 215.8H81.9945L81.7545 213.952C81.9625 213.664 82.4025 213.392 83.0745 213.136V201.664C82.5145 201.472 82.0745 201.2 81.7545 200.848L81.9945 199ZM88.0665 208.744C88.8665 208.744 89.4985 208.392 89.9625 207.688C90.4265 206.968 90.6585 205.984 90.6585 204.736C90.6585 203.472 90.5305 202.608 90.2745 202.144C90.0185 201.68 89.5545 201.448 88.8825 201.448C87.8585 201.448 87.0425 201.688 86.4345 202.168V208.552C86.9305 208.68 87.4745 208.744 88.0665 208.744ZM101.225 200.776C101.225 200.536 101.233 200.28 101.249 200.008C102.737 199.208 104.337 198.808 106.049 198.808C107.761 198.808 108.985 199.136 109.721 199.792C110.473 200.432 110.849 201.504 110.849 203.008V208.12C111.409 208.232 111.849 208.368 112.169 208.528V210.616C111.353 211 110.185 211.192 108.665 211.192C108.505 210.776 108.369 210.272 108.257 209.68C107.569 210.688 106.321 211.192 104.513 211.192C103.441 211.192 102.521 210.88 101.753 210.256C101.001 209.632 100.625 208.784 100.625 207.712C100.625 206.64 100.977 205.8 101.681 205.192C102.401 204.568 103.465 204.256 104.873 204.256H107.489V203.104C107.489 201.856 106.825 201.232 105.497 201.232C105.001 201.232 104.593 201.28 104.273 201.376C104.241 202.048 104.145 202.568 103.985 202.936H101.633C101.361 202.376 101.225 201.656 101.225 200.776ZM105.545 208.744C106.361 208.744 107.009 208.504 107.489 208.024V206.056H105.809C104.657 206.056 104.081 206.496 104.081 207.376C104.081 207.776 104.201 208.104 104.441 208.36C104.697 208.616 105.065 208.744 105.545 208.744ZM113.266 199C114.146 198.808 114.938 198.712 115.642 198.712C116.346 198.712 116.93 198.728 117.394 198.76V199.96C117.794 199.624 118.322 199.352 118.978 199.144C119.65 198.92 120.29 198.808 120.898 198.808C122.466 198.808 123.562 199.176 124.186 199.912C124.826 200.648 125.146 201.92 125.146 203.728V208.336C125.77 208.576 126.21 208.848 126.466 209.152L126.226 211H120.706L120.466 209.152C120.69 208.848 121.13 208.576 121.786 208.336V203.584C121.786 202.72 121.642 202.144 121.354 201.856C121.082 201.552 120.586 201.4 119.866 201.4C119.146 201.4 118.426 201.656 117.706 202.168V208.336C118.33 208.576 118.77 208.848 119.026 209.152L118.786 211H113.266L113.026 209.152C113.25 208.848 113.69 208.576 114.346 208.336V201.664C113.786 201.472 113.346 201.2 113.026 200.848L113.266 199ZM138.45 211.192C136.53 211.192 135.082 210.68 134.106 209.656C133.146 208.632 132.666 207.144 132.666 205.192C132.666 204.008 132.834 202.992 133.17 202.144C133.506 201.28 133.962 200.616 134.538 200.152C135.658 199.256 136.962 198.808 138.45 198.808C139.938 198.808 141.074 199.192 141.858 199.96C142.658 200.712 143.058 202.072 143.058 204.04C143.058 205.192 142.49 205.768 141.354 205.768H136.146C136.21 206.776 136.466 207.488 136.914 207.904C137.378 208.32 138.106 208.528 139.098 208.528C139.642 208.528 140.162 208.464 140.658 208.336C141.154 208.208 141.514 208.08 141.738 207.952L142.074 207.76L142.794 209.68C142.698 209.792 142.554 209.936 142.362 210.112C142.186 210.272 141.722 210.496 140.97 210.784C140.234 211.056 139.394 211.192 138.45 211.192ZM139.962 203.632C139.994 203.408 140.01 203.136 140.01 202.816C140.01 202.496 139.882 202.16 139.626 201.808C139.37 201.44 138.922 201.256 138.282 201.256C137.658 201.256 137.178 201.448 136.842 201.832C136.506 202.216 136.282 202.864 136.17 203.776L139.962 203.632ZM147.298 213.784C147.586 213.784 147.89 213.512 148.21 212.968C148.546 212.44 148.778 211.808 148.906 211.072L144.97 201.76C144.186 201.504 143.658 201.2 143.386 200.848L143.626 199H149.146L149.386 200.848C149.178 201.104 148.826 201.336 148.33 201.544L149.65 205.168C149.938 205.92 150.138 206.664 150.25 207.4L150.322 207.736H150.658C150.786 206.936 151.01 206.096 151.33 205.216L152.602 201.664C152.01 201.44 151.594 201.168 151.354 200.848L151.594 199H156.874L157.114 200.848C156.826 201.216 156.298 201.528 155.53 201.784L151.57 211.144C150.818 212.92 150.242 214.064 149.842 214.576C149.138 215.52 148.154 215.992 146.89 215.992C145.642 215.992 144.69 215.664 144.034 215.008C144.018 214.848 144.01 214.688 144.01 214.528C144.01 213.648 144.194 212.816 144.562 212.032H146.554C146.794 212.464 146.93 213.048 146.962 213.784H147.298ZM163.458 211.192C161.538 211.192 160.09 210.68 159.114 209.656C158.154 208.632 157.674 207.144 157.674 205.192C157.674 204.008 157.842 202.992 158.178 202.144C158.514 201.28 158.97 200.616 159.546 200.152C160.666 199.256 161.97 198.808 163.458 198.808C164.946 198.808 166.082 199.192 166.866 199.96C167.666 200.712 168.066 202.072 168.066 204.04C168.066 205.192 167.498 205.768 166.362 205.768H161.154C161.218 206.776 161.474 207.488 161.922 207.904C162.386 208.32 163.114 208.528 164.106 208.528C164.65 208.528 165.17 208.464 165.666 208.336C166.162 208.208 166.522 208.08 166.746 207.952L167.082 207.76L167.802 209.68C167.706 209.792 167.562 209.936 167.37 210.112C167.194 210.272 166.73 210.496 165.978 210.784C165.242 211.056 164.402 211.192 163.458 211.192ZM164.97 203.632C165.002 203.408 165.018 203.136 165.018 202.816C165.018 202.496 164.89 202.16 164.634 201.808C164.378 201.44 163.93 201.256 163.29 201.256C162.666 201.256 162.186 201.448 161.85 201.832C161.514 202.216 161.29 202.864 161.178 203.776L164.97 203.632ZM180.234 211.192C178.346 211.192 176.946 210.688 176.034 209.68C175.122 208.672 174.666 207.152 174.666 205.12C174.666 203.072 175.17 201.512 176.178 200.44C177.202 199.352 178.666 198.808 180.57 198.808C182.474 198.808 183.882 199.288 184.794 200.248C185.722 201.208 186.186 202.712 186.186 204.76C186.186 206.792 185.666 208.376 184.626 209.512C183.602 210.632 182.138 211.192 180.234 211.192ZM178.122 204.904C178.122 207.464 178.89 208.744 180.426 208.744C181.21 208.744 181.786 208.456 182.154 207.88C182.538 207.288 182.73 206.328 182.73 205C182.73 202.504 181.946 201.256 180.378 201.256C179.61 201.256 179.042 201.536 178.674 202.096C178.306 202.64 178.122 203.576 178.122 204.904ZM196.273 209.992C195.169 210.792 193.865 211.192 192.361 211.192C190.873 211.192 189.833 210.88 189.241 210.256C188.649 209.632 188.353 208.616 188.353 207.208V201.664C187.793 201.472 187.353 201.2 187.033 200.848L187.273 199C188.169 198.792 189.001 198.688 189.769 198.688C190.537 198.688 191.185 198.712 191.713 198.76V206.416C191.713 207.28 191.841 207.856 192.097 208.144C192.369 208.416 192.897 208.552 193.681 208.552C194.465 208.552 195.193 208.296 195.865 207.784V201.664C195.305 201.472 194.865 201.2 194.545 200.848L194.785 199C195.681 198.792 196.513 198.688 197.281 198.688C198.049 198.688 198.697 198.712 199.225 198.76V208.12C199.785 208.232 200.225 208.368 200.545 208.528V210.424C199.585 210.936 198.377 211.192 196.921 211.192C196.521 210.904 196.305 210.504 196.273 209.992ZM205.894 195.976V199H209.326V201.016H205.894V207.088C205.894 207.6 205.966 207.976 206.11 208.216C206.254 208.44 206.598 208.552 207.142 208.552C207.686 208.552 208.27 208.432 208.894 208.192L209.614 210.064C208.382 210.688 207.118 211 205.822 211C204.542 211 203.67 210.728 203.206 210.184C202.758 209.624 202.534 208.816 202.534 207.76V201.016H201.454L201.19 199.552C201.446 199.248 201.974 198.944 202.774 198.64C202.966 197.328 203.422 196.44 204.142 195.976H205.894ZM217.167 198.544C217.167 196.88 217.527 195.632 218.247 194.8C218.967 193.952 220.111 193.528 221.679 193.528C223.247 193.528 224.607 193.952 225.759 194.8C225.775 194.912 225.783 195.08 225.783 195.304C225.783 195.512 225.727 195.864 225.615 196.36C225.503 196.856 225.351 197.256 225.159 197.56H223.143C222.855 197.016 222.703 196.504 222.687 196.024C222.495 195.992 222.335 195.976 222.207 195.976C221.599 195.976 221.167 196.144 220.911 196.48C220.655 196.816 220.527 197.424 220.527 198.304V199.216H224.199V201.424H220.527V208.216C221.727 208.456 222.543 208.768 222.975 209.152L222.735 211H216.087L215.847 209.152C216.071 208.848 216.511 208.576 217.167 208.336V201.424H216.111L215.847 199.768C216.199 199.448 216.639 199.264 217.167 199.216V198.544ZM230.438 211.192C228.55 211.192 227.15 210.688 226.238 209.68C225.326 208.672 224.87 207.152 224.87 205.12C224.87 203.072 225.374 201.512 226.382 200.44C227.406 199.352 228.87 198.808 230.774 198.808C232.678 198.808 234.086 199.288 234.998 200.248C235.926 201.208 236.39 202.712 236.39 204.76C236.39 206.792 235.87 208.376 234.83 209.512C233.806 210.632 232.342 211.192 230.438 211.192ZM228.326 204.904C228.326 207.464 229.094 208.744 230.63 208.744C231.414 208.744 231.99 208.456 232.358 207.88C232.742 207.288 232.934 206.328 232.934 205C232.934 202.504 232.15 201.256 230.582 201.256C229.814 201.256 229.246 201.536 228.878 202.096C228.51 202.64 228.326 203.576 228.326 204.904ZM244.82 201.952C243.604 201.952 242.764 202.184 242.3 202.648V208.144C243.596 208.384 244.484 208.72 244.964 209.152L244.724 211H237.86L237.62 209.152C237.844 208.848 238.284 208.576 238.94 208.336V201.664C238.38 201.472 237.94 201.2 237.62 200.848L237.86 199C238.74 198.808 239.532 198.712 240.236 198.712C240.94 198.712 241.524 198.728 241.988 198.76V200.272C242.356 199.84 242.828 199.488 243.404 199.216C243.98 198.928 244.5 198.784 244.964 198.784C245.444 198.784 245.772 198.824 245.948 198.904L245.876 202.024C245.556 201.976 245.204 201.952 244.82 201.952ZM252.267 193.96C253.163 193.752 253.995 193.648 254.763 193.648C255.531 193.648 256.179 193.672 256.707 193.72V199.72C257.091 199.464 257.603 199.248 258.243 199.072C258.883 198.896 259.451 198.808 259.947 198.808C261.531 198.808 262.627 199.192 263.235 199.96C263.843 200.728 264.147 201.896 264.147 203.464V208.336C264.771 208.576 265.211 208.848 265.467 209.152L265.227 211H259.707L259.467 209.152C259.691 208.848 260.131 208.576 260.787 208.336V203.584C260.787 202.72 260.643 202.144 260.355 201.856C260.083 201.552 259.579 201.4 258.843 201.4C258.107 201.4 257.395 201.656 256.707 202.168V208.336C257.331 208.576 257.771 208.848 258.027 209.152L257.787 211H252.267L252.027 209.152C252.251 208.848 252.691 208.576 253.347 208.336V196.624C252.787 196.432 252.347 196.16 252.027 195.808L252.267 193.96ZM266.596 199C267.492 198.792 268.324 198.688 269.092 198.688C269.86 198.688 270.508 198.712 271.036 198.76V208.336C271.66 208.576 272.1 208.848 272.356 209.152L272.116 211H266.596L266.356 209.152C266.58 208.848 267.02 208.576 267.676 208.336V201.664C267.116 201.472 266.676 201.2 266.356 200.848L266.596 199ZM269.308 197.344C267.98 197.344 267.316 196.744 267.316 195.544C267.316 194.328 267.98 193.72 269.308 193.72C270.652 193.72 271.324 194.328 271.324 195.544C271.324 196.744 270.652 197.344 269.308 197.344ZM273.555 199C274.435 198.808 275.227 198.712 275.931 198.712C276.635 198.712 277.219 198.728 277.683 198.76V199.96C278.083 199.624 278.611 199.352 279.267 199.144C279.939 198.92 280.579 198.808 281.187 198.808C282.755 198.808 283.851 199.176 284.475 199.912C285.115 200.648 285.435 201.92 285.435 203.728V208.336C286.059 208.576 286.499 208.848 286.755 209.152L286.515 211H280.995L280.755 209.152C280.979 208.848 281.419 208.576 282.075 208.336V203.584C282.075 202.72 281.931 202.144 281.643 201.856C281.371 201.552 280.875 201.4 280.155 201.4C279.435 201.4 278.715 201.656 277.995 202.168V208.336C278.619 208.576 279.059 208.848 279.315 209.152L279.075 211H273.555L273.315 209.152C273.539 208.848 273.979 208.576 274.635 208.336V201.664C274.075 201.472 273.635 201.2 273.315 200.848L273.555 199ZM291.957 195.976V199H295.389V201.016H291.957V207.088C291.957 207.6 292.029 207.976 292.173 208.216C292.317 208.44 292.661 208.552 293.205 208.552C293.749 208.552 294.333 208.432 294.957 208.192L295.677 210.064C294.445 210.688 293.181 211 291.885 211C290.605 211 289.733 210.728 289.269 210.184C288.821 209.624 288.597 208.816 288.597 207.76V201.016H287.517L287.253 199.552C287.509 199.248 288.037 198.944 288.837 198.64C289.029 197.328 289.485 196.44 290.205 195.976H291.957ZM301.319 200.968C300.263 200.968 299.735 201.28 299.735 201.904C299.735 202.496 300.287 202.936 301.391 203.224L303.287 203.728C305.239 204.24 306.215 205.368 306.215 207.112C306.215 208.312 305.791 209.296 304.943 210.064C304.111 210.816 302.775 211.192 300.935 211.192C299.111 211.192 297.687 210.936 296.663 210.424C296.647 210.248 296.639 210.072 296.639 209.896C296.639 209.016 296.815 208.224 297.167 207.52H299.159C299.367 207.904 299.503 208.304 299.567 208.72C299.887 208.816 300.343 208.864 300.935 208.864C302.343 208.864 303.047 208.464 303.047 207.664C303.047 207.408 302.951 207.2 302.759 207.04C302.567 206.864 302.191 206.696 301.631 206.536L299.735 205.984C298.759 205.712 297.999 205.312 297.455 204.784C296.911 204.24 296.639 203.448 296.639 202.408C296.639 201.352 297.063 200.488 297.911 199.816C298.759 199.144 299.967 198.808 301.535 198.808C303.119 198.808 304.455 199.04 305.543 199.504C305.559 199.664 305.567 199.824 305.567 199.984C305.567 200.816 305.391 201.584 305.039 202.288H303.071C302.863 201.92 302.727 201.536 302.663 201.136C302.215 201.024 301.767 200.968 301.319 200.968ZM308.211 198.76C308.211 197.416 308.267 195.976 308.379 194.44H311.787C311.883 195.864 311.931 197.208 311.931 198.472C311.931 201.464 311.667 204.024 311.139 206.152H308.979C308.467 204.072 308.211 201.608 308.211 198.76ZM310.059 211.24C308.795 211.24 308.163 210.648 308.163 209.464C308.163 208.28 308.795 207.688 310.059 207.688C311.339 207.688 311.979 208.28 311.979 209.464C311.979 210.648 311.339 211.24 310.059 211.24Z" fill="#F9F5E7"/>
</svg>
