<svg width="341" height="224" viewBox="0 0 341 224" fill="none" xmlns="http://www.w3.org/2000/svg">
<mask id="path-1-inside-1" fill="white">
<path fill-rule="evenodd" clip-rule="evenodd" d="M120.522 113C118.799 86.667 120.865 50.5829 133.991 26.3408C131.795 24.4793 130.419 21.8094 130.419 18.8434C130.419 13.2181 135.369 8.65779 141.474 8.65779C143.443 8.65779 145.292 9.13207 146.893 9.96338C153.954 4.00723 162.718 0.35429 173.53 0.0298701C187.718 -0.395841 198.596 3.7541 206.864 10.8647C208.751 9.48315 211.14 8.65779 213.737 8.65779C219.843 8.65779 224.792 13.2181 224.792 18.8434C224.792 22.4886 222.714 25.6866 219.59 27.4863C232.326 52.2592 232.292 88.4579 229.483 113H120.522Z"/>
</mask>
<path fill-rule="evenodd" clip-rule="evenodd" d="M120.522 113C118.799 86.667 120.865 50.5829 133.991 26.3408C131.795 24.4793 130.419 21.8094 130.419 18.8434C130.419 13.2181 135.369 8.65779 141.474 8.65779C143.443 8.65779 145.292 9.13207 146.893 9.96338C153.954 4.00723 162.718 0.35429 173.53 0.0298701C187.718 -0.395841 198.596 3.7541 206.864 10.8647C208.751 9.48315 211.14 8.65779 213.737 8.65779C219.843 8.65779 224.792 13.2181 224.792 18.8434C224.792 22.4886 222.714 25.6866 219.59 27.4863C232.326 52.2592 232.292 88.4579 229.483 113H120.522Z" fill="#4E3930"/>
<path d="M133.991 26.3408L134.87 26.817L135.257 26.103L134.638 25.578L133.991 26.3408ZM120.522 113L119.524 113.065L119.585 114H120.522V113ZM146.893 9.96338L146.433 10.8509L147.027 11.1593L147.538 10.7278L146.893 9.96338ZM173.53 0.0298701L173.5 -0.96968L173.53 0.0298701ZM206.864 10.8647L206.212 11.6229L206.815 12.1407L207.455 11.6716L206.864 10.8647ZM219.59 27.4863L219.09 26.6198L218.264 27.0957L218.7 27.9436L219.59 27.4863ZM229.483 113V114H230.375L230.477 113.114L229.483 113ZM133.112 25.8647C119.846 50.3647 117.798 86.6874 119.524 113.065L121.52 112.935C119.8 86.6467 121.884 50.8012 134.87 26.817L133.112 25.8647ZM129.419 18.8434C129.419 22.1307 130.946 25.0706 133.344 27.1036L134.638 25.578C132.644 23.888 131.419 21.4881 131.419 18.8434H129.419ZM141.474 7.65779C134.895 7.65779 129.419 12.5902 129.419 18.8434H131.419C131.419 13.8459 135.842 9.65779 141.474 9.65779V7.65779ZM147.354 9.07586C145.611 8.17111 143.605 7.65779 141.474 7.65779V9.65779C143.282 9.65779 144.973 10.093 146.433 10.8509L147.354 9.07586ZM173.5 -0.96968C162.461 -0.638445 153.481 3.09833 146.249 9.19901L147.538 10.7278C154.428 4.91613 162.975 1.34702 173.56 1.02942L173.5 -0.96968ZM207.517 10.1066C199.045 2.82092 187.918 -1.40229 173.5 -0.96968L173.56 1.02942C187.518 0.610613 198.148 4.68729 206.212 11.6229L207.517 10.1066ZM207.455 11.6716C209.171 10.4151 211.353 9.65779 213.737 9.65779V7.65779C210.927 7.65779 208.332 8.55116 206.274 10.0579L207.455 11.6716ZM213.737 9.65779C219.369 9.65779 223.792 13.8459 223.792 18.8434H225.792C225.792 12.5902 220.316 7.65779 213.737 7.65779V9.65779ZM223.792 18.8434C223.792 22.0901 221.942 24.9772 219.09 26.6198L220.089 28.3529C223.486 26.396 225.792 22.8872 225.792 18.8434H223.792ZM230.477 113.114C233.29 88.5355 233.359 52.0807 220.479 27.0291L218.7 27.9436C231.293 52.4376 231.295 88.3803 228.49 112.886L230.477 113.114ZM120.522 114H229.483V112H120.522V114Z" fill="#252D33" mask="url(#path-1-inside-1)"/>
<ellipse cx="177.606" cy="42.5251" rx="14.8301" ry="9.931" fill="#F2D8B3"/>
<path d="M176.209 38.7728C176.96 39.5928 178.252 39.5928 179.002 38.7728C180.114 37.5583 179.252 35.6018 177.606 35.6018C175.959 35.6018 175.098 37.5583 176.209 38.7728Z" fill="#252D33"/>
<ellipse cx="159.81" cy="29.793" rx="2.96602" ry="2.80105" fill="white"/>
<ellipse cx="159.81" cy="29.793" rx="2.42674" ry="2.29177" fill="#252D33"/>
<ellipse cx="195.402" cy="29.793" rx="2.96602" ry="2.80105" fill="white"/>
<ellipse cx="195.402" cy="29.793" rx="2.42674" ry="2.29177" fill="#252D33"/>
<path d="M172.225 47.7094C169.741 46.2441 171.358 43.294 174.242 43.294H180.952C183.76 43.294 185.408 46.1431 183.03 47.6367C181.628 48.5176 179.83 49.1482 177.606 49.1482C175.443 49.1482 173.653 48.5521 172.225 47.7094Z" fill="#252D33"/>
<rect y="65" width="341" height="159" rx="27" fill="#FF893A"/>
<path d="M25.7757 98.256C24.3037 98.256 23.5677 99.52 23.5677 102.048C23.5677 103.328 23.7677 104.224 24.1677 104.736C24.5837 105.232 25.1757 105.48 25.9437 105.48C27.1597 105.48 28.2317 105.368 29.1597 105.144L29.8797 106.992C29.3677 107.328 28.6797 107.616 27.8157 107.856C26.9517 108.08 26.1117 108.192 25.2957 108.192C21.8397 108.192 20.1117 106.192 20.1117 102.192C20.1117 99.856 20.7117 98.176 21.9117 97.152C22.9837 96.256 24.2877 95.808 25.8237 95.808C27.3597 95.808 28.6397 96.096 29.6637 96.672C29.6797 96.832 29.6877 96.984 29.6877 97.128C29.6877 98.04 29.4797 98.904 29.0637 99.72H26.9517C26.7277 99.32 26.5917 98.84 26.5437 98.28C26.3517 98.264 26.0957 98.256 25.7757 98.256ZM30.8924 90.96C31.7884 90.752 32.6204 90.648 33.3884 90.648C34.1564 90.648 34.8044 90.672 35.3324 90.72V105.336C35.9564 105.576 36.3964 105.848 36.6524 106.152L36.4124 108H30.8924L30.6524 106.152C30.8764 105.848 31.3164 105.576 31.9724 105.336V93.624C31.4124 93.432 30.9724 93.16 30.6524 92.808L30.8924 90.96ZM37.9315 96C38.8275 95.792 39.6595 95.688 40.4275 95.688C41.1955 95.688 41.8435 95.712 42.3715 95.76V105.336C42.9955 105.576 43.4355 105.848 43.6915 106.152L43.4515 108H37.9315L37.6915 106.152C37.9155 105.848 38.3555 105.576 39.0115 105.336V98.664C38.4515 98.472 38.0115 98.2 37.6915 97.848L37.9315 96ZM40.6435 94.344C39.3155 94.344 38.6515 93.744 38.6515 92.544C38.6515 91.328 39.3155 90.72 40.6435 90.72C41.9875 90.72 42.6595 91.328 42.6595 92.544C42.6595 93.744 41.9875 94.344 40.6435 94.344ZM50.2913 98.256C48.8193 98.256 48.0833 99.52 48.0833 102.048C48.0833 103.328 48.2833 104.224 48.6833 104.736C49.0993 105.232 49.6913 105.48 50.4593 105.48C51.6753 105.48 52.7473 105.368 53.6753 105.144L54.3953 106.992C53.8833 107.328 53.1953 107.616 52.3313 107.856C51.4673 108.08 50.6273 108.192 49.8113 108.192C46.3553 108.192 44.6273 106.192 44.6273 102.192C44.6273 99.856 45.2273 98.176 46.4273 97.152C47.4993 96.256 48.8033 95.808 50.3393 95.808C51.8753 95.808 53.1553 96.096 54.1793 96.672C54.1953 96.832 54.2033 96.984 54.2033 97.128C54.2033 98.04 53.9953 98.904 53.5793 99.72H51.4673C51.2433 99.32 51.1073 98.84 51.0593 98.28C50.8673 98.264 50.6113 98.256 50.2913 98.256ZM55.408 90.96C56.304 90.752 57.136 90.648 57.904 90.648C58.672 90.648 59.32 90.672 59.848 90.72V105.336C60.472 105.576 60.912 105.848 61.168 106.152L60.928 108H55.408L55.168 106.152C55.392 105.848 55.832 105.576 56.488 105.336V93.624C55.928 93.432 55.488 93.16 55.168 92.808L55.408 90.96ZM64.312 108L60.064 101.784L62.704 98.352C62.432 98.192 62.24 98.024 62.128 97.848L62.368 96H67.648L67.888 97.848C67.536 98.296 66.872 98.648 65.896 98.904L63.592 101.544L66.304 105.12C67.296 105.344 67.992 105.688 68.392 106.152L68.152 108H64.312ZM80.0078 108.192C78.1198 108.192 76.7198 107.688 75.8078 106.68C74.8958 105.672 74.4398 104.152 74.4398 102.12C74.4398 100.072 74.9438 98.512 75.9518 97.44C76.9758 96.352 78.4398 95.808 80.3438 95.808C82.2478 95.808 83.6558 96.288 84.5678 97.248C85.4958 98.208 85.9598 99.712 85.9598 101.76C85.9598 103.792 85.4398 105.376 84.3998 106.512C83.3758 107.632 81.9118 108.192 80.0078 108.192ZM77.8958 101.904C77.8958 104.464 78.6638 105.744 80.1998 105.744C80.9838 105.744 81.5598 105.456 81.9278 104.88C82.3118 104.288 82.5038 103.328 82.5038 102C82.5038 99.504 81.7198 98.256 80.1518 98.256C79.3838 98.256 78.8158 98.536 78.4478 99.096C78.0798 99.64 77.8958 100.576 77.8958 101.904ZM87.4304 96C88.3104 95.808 89.1024 95.712 89.8064 95.712C90.5104 95.712 91.0944 95.728 91.5584 95.76V96.96C91.9584 96.624 92.4864 96.352 93.1424 96.144C93.8144 95.92 94.4544 95.808 95.0624 95.808C96.6304 95.808 97.7264 96.176 98.3504 96.912C98.9904 97.648 99.3104 98.92 99.3104 100.728V105.336C99.9344 105.576 100.374 105.848 100.63 106.152L100.39 108H94.8704L94.6304 106.152C94.8544 105.848 95.2944 105.576 95.9504 105.336V100.584C95.9504 99.72 95.8064 99.144 95.5184 98.856C95.2464 98.552 94.7504 98.4 94.0304 98.4C93.3104 98.4 92.5904 98.656 91.8704 99.168V105.336C92.4944 105.576 92.9344 105.848 93.1904 106.152L92.9504 108H87.4304L87.1904 106.152C87.4144 105.848 87.8544 105.576 88.5104 105.336V98.664C87.9504 98.472 87.5104 98.2 87.1904 97.848L87.4304 96ZM111.654 97.968C110.598 97.968 110.07 98.28 110.07 98.904C110.07 99.496 110.622 99.936 111.726 100.224L113.622 100.728C115.574 101.24 116.55 102.368 116.55 104.112C116.55 105.312 116.126 106.296 115.278 107.064C114.446 107.816 113.11 108.192 111.27 108.192C109.446 108.192 108.022 107.936 106.998 107.424C106.982 107.248 106.974 107.072 106.974 106.896C106.974 106.016 107.15 105.224 107.502 104.52H109.494C109.702 104.904 109.838 105.304 109.902 105.72C110.222 105.816 110.678 105.864 111.27 105.864C112.678 105.864 113.382 105.464 113.382 104.664C113.382 104.408 113.286 104.2 113.094 104.04C112.902 103.864 112.526 103.696 111.966 103.536L110.07 102.984C109.094 102.712 108.334 102.312 107.79 101.784C107.246 101.24 106.974 100.448 106.974 99.408C106.974 98.352 107.398 97.488 108.246 96.816C109.094 96.144 110.302 95.808 111.87 95.808C113.454 95.808 114.79 96.04 115.878 96.504C115.894 96.664 115.902 96.824 115.902 96.984C115.902 97.816 115.726 98.584 115.374 99.288H113.406C113.198 98.92 113.062 98.536 112.998 98.136C112.55 98.024 112.102 97.968 111.654 97.968ZM117.659 96C118.539 95.808 119.331 95.712 120.035 95.712C120.739 95.712 121.323 95.728 121.787 95.76V96.936C122.859 96.184 124.003 95.808 125.219 95.808C126.819 95.808 127.979 96.264 128.699 97.176C129.419 98.088 129.779 99.608 129.779 101.736C129.779 102.872 129.611 103.872 129.275 104.736C128.939 105.6 128.483 106.272 127.907 106.752C126.803 107.712 125.491 108.192 123.971 108.192C123.315 108.192 122.691 108.128 122.099 108V110.064C123.043 110.32 123.651 110.616 123.923 110.952L123.683 112.8H117.659L117.419 110.952C117.627 110.664 118.067 110.392 118.739 110.136V98.664C118.179 98.472 117.739 98.2 117.419 97.848L117.659 96ZM123.731 105.744C124.531 105.744 125.163 105.392 125.627 104.688C126.091 103.968 126.323 102.984 126.323 101.736C126.323 100.472 126.195 99.608 125.939 99.144C125.683 98.68 125.219 98.448 124.547 98.448C123.523 98.448 122.707 98.688 122.099 99.168V105.552C122.595 105.68 123.139 105.744 123.731 105.744ZM136.563 108.192C134.675 108.192 133.275 107.688 132.363 106.68C131.451 105.672 130.995 104.152 130.995 102.12C130.995 100.072 131.499 98.512 132.507 97.44C133.531 96.352 134.995 95.808 136.899 95.808C138.803 95.808 140.211 96.288 141.123 97.248C142.051 98.208 142.515 99.712 142.515 101.76C142.515 103.792 141.995 105.376 140.955 106.512C139.931 107.632 138.467 108.192 136.563 108.192ZM134.451 101.904C134.451 104.464 135.219 105.744 136.755 105.744C137.539 105.744 138.115 105.456 138.483 104.88C138.867 104.288 139.059 103.328 139.059 102C139.059 99.504 138.275 98.256 136.707 98.256C135.939 98.256 135.371 98.536 135.003 99.096C134.635 99.64 134.451 100.576 134.451 101.904ZM148.113 92.976V96H151.545V98.016H148.113V104.088C148.113 104.6 148.185 104.976 148.329 105.216C148.473 105.44 148.817 105.552 149.361 105.552C149.905 105.552 150.489 105.432 151.113 105.192L151.833 107.064C150.601 107.688 149.337 108 148.041 108C146.761 108 145.889 107.728 145.425 107.184C144.977 106.624 144.753 105.816 144.753 104.76V98.016H143.673L143.409 96.552C143.665 96.248 144.193 95.944 144.993 95.64C145.185 94.328 145.641 93.44 146.361 92.976H148.113ZM157.475 97.968C156.419 97.968 155.891 98.28 155.891 98.904C155.891 99.496 156.443 99.936 157.547 100.224L159.443 100.728C161.395 101.24 162.371 102.368 162.371 104.112C162.371 105.312 161.947 106.296 161.099 107.064C160.267 107.816 158.931 108.192 157.091 108.192C155.267 108.192 153.843 107.936 152.819 107.424C152.803 107.248 152.795 107.072 152.795 106.896C152.795 106.016 152.971 105.224 153.323 104.52H155.315C155.523 104.904 155.659 105.304 155.723 105.72C156.043 105.816 156.499 105.864 157.091 105.864C158.499 105.864 159.203 105.464 159.203 104.664C159.203 104.408 159.107 104.2 158.915 104.04C158.723 103.864 158.347 103.696 157.787 103.536L155.891 102.984C154.915 102.712 154.155 102.312 153.611 101.784C153.067 101.24 152.795 100.448 152.795 99.408C152.795 98.352 153.219 97.488 154.067 96.816C154.915 96.144 156.123 95.808 157.691 95.808C159.275 95.808 160.611 96.04 161.699 96.504C161.715 96.664 161.723 96.824 161.723 96.984C161.723 97.816 161.547 98.584 161.195 99.288H159.227C159.019 98.92 158.883 98.536 158.819 98.136C158.371 98.024 157.923 97.968 157.475 97.968ZM173.262 92.976V96H176.694V98.016H173.262V104.088C173.262 104.6 173.334 104.976 173.478 105.216C173.622 105.44 173.966 105.552 174.51 105.552C175.054 105.552 175.638 105.432 176.262 105.192L176.982 107.064C175.75 107.688 174.486 108 173.19 108C171.91 108 171.038 107.728 170.574 107.184C170.126 106.624 169.902 105.816 169.902 104.76V98.016H168.822L168.558 96.552C168.814 96.248 169.342 95.944 170.142 95.64C170.334 94.328 170.79 93.44 171.51 92.976H173.262ZM183.367 108.192C181.479 108.192 180.079 107.688 179.167 106.68C178.255 105.672 177.799 104.152 177.799 102.12C177.799 100.072 178.303 98.512 179.311 97.44C180.335 96.352 181.799 95.808 183.703 95.808C185.607 95.808 187.015 96.288 187.927 97.248C188.855 98.208 189.319 99.712 189.319 101.76C189.319 103.792 188.799 105.376 187.759 106.512C186.735 107.632 185.271 108.192 183.367 108.192ZM181.255 101.904C181.255 104.464 182.023 105.744 183.559 105.744C184.343 105.744 184.919 105.456 185.287 104.88C185.671 104.288 185.863 103.328 185.863 102C185.863 99.504 185.079 98.256 183.511 98.256C182.743 98.256 182.175 98.536 181.807 99.096C181.439 99.64 181.255 100.576 181.255 101.904ZM195.892 90.96C196.788 90.752 197.62 90.648 198.388 90.648C199.156 90.648 199.804 90.672 200.332 90.72V105.336C200.956 105.576 201.396 105.848 201.652 106.152L201.412 108H195.892L195.652 106.152C195.876 105.848 196.316 105.576 196.972 105.336V93.624C196.412 93.432 195.972 93.16 195.652 92.808L195.892 90.96ZM208.188 108.192C206.3 108.192 204.9 107.688 203.988 106.68C203.076 105.672 202.62 104.152 202.62 102.12C202.62 100.072 203.124 98.512 204.132 97.44C205.156 96.352 206.62 95.808 208.524 95.808C210.428 95.808 211.836 96.288 212.748 97.248C213.676 98.208 214.14 99.712 214.14 101.76C214.14 103.792 213.62 105.376 212.58 106.512C211.556 107.632 210.092 108.192 208.188 108.192ZM206.076 101.904C206.076 104.464 206.844 105.744 208.38 105.744C209.164 105.744 209.74 105.456 210.108 104.88C210.492 104.288 210.684 103.328 210.684 102C210.684 99.504 209.9 98.256 208.332 98.256C207.564 98.256 206.996 98.536 206.628 99.096C206.26 99.64 206.076 100.576 206.076 101.904ZM220.914 108.192C219.026 108.192 217.626 107.688 216.714 106.68C215.802 105.672 215.346 104.152 215.346 102.12C215.346 100.072 215.85 98.512 216.858 97.44C217.882 96.352 219.346 95.808 221.25 95.808C223.154 95.808 224.562 96.288 225.474 97.248C226.402 98.208 226.866 99.712 226.866 101.76C226.866 103.792 226.346 105.376 225.306 106.512C224.282 107.632 222.818 108.192 220.914 108.192ZM218.802 101.904C218.802 104.464 219.57 105.744 221.106 105.744C221.89 105.744 222.466 105.456 222.834 104.88C223.218 104.288 223.41 103.328 223.41 102C223.41 99.504 222.626 98.256 221.058 98.256C220.29 98.256 219.722 98.536 219.354 99.096C218.986 99.64 218.802 100.576 218.802 101.904ZM228.049 90.96C228.945 90.752 229.777 90.648 230.545 90.648C231.313 90.648 231.961 90.672 232.489 90.72V105.336C233.113 105.576 233.553 105.848 233.809 106.152L233.569 108H228.049L227.809 106.152C228.033 105.848 228.473 105.576 229.129 105.336V93.624C228.569 93.432 228.129 93.16 227.809 92.808L228.049 90.96ZM236.953 108L232.705 101.784L235.345 98.352C235.073 98.192 234.881 98.024 234.769 97.848L235.009 96H240.289L240.529 97.848C240.177 98.296 239.513 98.648 238.537 98.904L236.233 101.544L238.945 105.12C239.937 105.344 240.633 105.688 241.033 106.152L240.793 108H236.953ZM247.584 97.776C247.584 97.536 247.592 97.28 247.608 97.008C249.096 96.208 250.696 95.808 252.408 95.808C254.12 95.808 255.344 96.136 256.08 96.792C256.832 97.432 257.208 98.504 257.208 100.008V105.12C257.768 105.232 258.208 105.368 258.528 105.528V107.616C257.712 108 256.544 108.192 255.024 108.192C254.864 107.776 254.728 107.272 254.616 106.68C253.928 107.688 252.68 108.192 250.872 108.192C249.8 108.192 248.88 107.88 248.112 107.256C247.36 106.632 246.984 105.784 246.984 104.712C246.984 103.64 247.336 102.8 248.04 102.192C248.76 101.568 249.824 101.256 251.232 101.256H253.848V100.104C253.848 98.856 253.184 98.232 251.856 98.232C251.36 98.232 250.952 98.28 250.632 98.376C250.6 99.048 250.504 99.568 250.344 99.936H247.992C247.72 99.376 247.584 98.656 247.584 97.776ZM251.904 105.744C252.72 105.744 253.368 105.504 253.848 105.024V103.056H252.168C251.016 103.056 250.44 103.496 250.44 104.376C250.44 104.776 250.56 105.104 250.8 105.36C251.056 105.616 251.424 105.744 251.904 105.744ZM266.586 98.952C265.37 98.952 264.53 99.184 264.066 99.648V105.144C265.362 105.384 266.25 105.72 266.73 106.152L266.49 108H259.626L259.386 106.152C259.61 105.848 260.05 105.576 260.706 105.336V98.664C260.146 98.472 259.706 98.2 259.386 97.848L259.626 96C260.506 95.808 261.298 95.712 262.002 95.712C262.706 95.712 263.29 95.728 263.754 95.76V97.272C264.122 96.84 264.594 96.488 265.17 96.216C265.746 95.928 266.266 95.784 266.73 95.784C267.21 95.784 267.538 95.824 267.714 95.904L267.642 99.024C267.322 98.976 266.97 98.952 266.586 98.952ZM274.234 108.192C272.346 108.192 270.946 107.688 270.034 106.68C269.122 105.672 268.666 104.152 268.666 102.12C268.666 100.072 269.17 98.512 270.178 97.44C271.202 96.352 272.666 95.808 274.57 95.808C276.474 95.808 277.882 96.288 278.794 97.248C279.722 98.208 280.186 99.712 280.186 101.76C280.186 103.792 279.666 105.376 278.626 106.512C277.602 107.632 276.138 108.192 274.234 108.192ZM272.122 101.904C272.122 104.464 272.89 105.744 274.426 105.744C275.21 105.744 275.786 105.456 276.154 104.88C276.538 104.288 276.73 103.328 276.73 102C276.73 99.504 275.946 98.256 274.378 98.256C273.61 98.256 273.042 98.536 272.674 99.096C272.306 99.64 272.122 100.576 272.122 101.904ZM290.273 106.992C289.169 107.792 287.865 108.192 286.361 108.192C284.873 108.192 283.833 107.88 283.241 107.256C282.649 106.632 282.353 105.616 282.353 104.208V98.664C281.793 98.472 281.353 98.2 281.033 97.848L281.273 96C282.169 95.792 283.001 95.688 283.769 95.688C284.537 95.688 285.185 95.712 285.713 95.76V103.416C285.713 104.28 285.841 104.856 286.097 105.144C286.369 105.416 286.897 105.552 287.681 105.552C288.465 105.552 289.193 105.296 289.865 104.784V98.664C289.305 98.472 288.865 98.2 288.545 97.848L288.785 96C289.681 95.792 290.513 95.688 291.281 95.688C292.049 95.688 292.697 95.712 293.225 95.76V105.12C293.785 105.232 294.225 105.368 294.545 105.528V107.424C293.585 107.936 292.377 108.192 290.921 108.192C290.521 107.904 290.305 107.504 290.273 106.992ZM295.766 96C296.646 95.808 297.438 95.712 298.142 95.712C298.846 95.712 299.43 95.728 299.894 95.76V96.96C300.294 96.624 300.822 96.352 301.478 96.144C302.15 95.92 302.79 95.808 303.398 95.808C304.966 95.808 306.062 96.176 306.686 96.912C307.326 97.648 307.646 98.92 307.646 100.728V105.336C308.27 105.576 308.71 105.848 308.966 106.152L308.726 108H303.206L302.966 106.152C303.19 105.848 303.63 105.576 304.286 105.336V100.584C304.286 99.72 304.142 99.144 303.854 98.856C303.582 98.552 303.086 98.4 302.366 98.4C301.646 98.4 300.926 98.656 300.206 99.168V105.336C300.83 105.576 301.27 105.848 301.526 106.152L301.286 108H295.766L295.526 106.152C295.75 105.848 296.19 105.576 296.846 105.336V98.664C296.286 98.472 295.846 98.2 295.526 97.848L295.766 96ZM316.04 90.96C316.952 90.752 317.824 90.648 318.656 90.648C319.488 90.648 320.2 90.672 320.792 90.72V105.12C321.272 105.2 321.712 105.336 322.112 105.528V107.424C321.152 107.936 319.936 108.192 318.464 108.192C318.304 108.112 318.144 107.968 317.984 107.76C317.84 107.552 317.76 107.352 317.744 107.16C317.392 107.448 316.936 107.696 316.376 107.904C315.816 108.096 315.264 108.192 314.72 108.192C312.992 108.192 311.736 107.728 310.952 106.8C310.184 105.856 309.8 104.32 309.8 102.192C309.8 99.776 310.392 98.08 311.576 97.104C312.616 96.24 313.896 95.808 315.416 95.808C316.088 95.808 316.76 95.888 317.432 96.048V93.672C316.696 93.464 316.152 93.176 315.8 92.808L316.04 90.96ZM315.224 105.744C316.136 105.744 316.872 105.472 317.432 104.928V98.496C316.776 98.336 316.08 98.256 315.344 98.256C314.608 98.256 314.072 98.584 313.736 99.24C313.416 99.88 313.256 100.848 313.256 102.144C313.256 103.424 313.416 104.344 313.736 104.904C314.056 105.464 314.552 105.744 315.224 105.744ZM23.401 124.544C23.401 122.88 23.761 121.632 24.481 120.8C25.201 119.952 26.345 119.528 27.913 119.528C29.481 119.528 30.841 119.952 31.993 120.8C32.009 120.912 32.017 121.08 32.017 121.304C32.017 121.512 31.961 121.864 31.849 122.36C31.737 122.856 31.585 123.256 31.393 123.56H29.377C29.089 123.016 28.937 122.504 28.921 122.024C28.729 121.992 28.569 121.976 28.441 121.976C27.833 121.976 27.401 122.144 27.145 122.48C26.889 122.816 26.761 123.424 26.761 124.304V125.216H30.433V127.424H26.761V134.216C27.961 134.456 28.777 134.768 29.209 135.152L28.969 137H22.321L22.081 135.152C22.305 134.848 22.745 134.576 23.401 134.336V127.424H22.345L22.081 125.768C22.433 125.448 22.873 125.264 23.401 125.216V124.544ZM36.6719 137.192C34.7839 137.192 33.3839 136.688 32.4719 135.68C31.5599 134.672 31.1039 133.152 31.1039 131.12C31.1039 129.072 31.6079 127.512 32.6159 126.44C33.6399 125.352 35.1039 124.808 37.0079 124.808C38.9119 124.808 40.3199 125.288 41.2319 126.248C42.1599 127.208 42.6239 128.712 42.6239 130.76C42.6239 132.792 42.1039 134.376 41.0639 135.512C40.0399 136.632 38.5759 137.192 36.6719 137.192ZM34.5599 130.904C34.5599 133.464 35.3279 134.744 36.8639 134.744C37.6479 134.744 38.2239 134.456 38.5919 133.88C38.9759 133.288 39.1679 132.328 39.1679 131C39.1679 128.504 38.3839 127.256 36.8159 127.256C36.0479 127.256 35.4799 127.536 35.1119 128.096C34.7439 128.64 34.5599 129.576 34.5599 130.904ZM51.0545 127.952C49.8385 127.952 48.9985 128.184 48.5345 128.648V134.144C49.8305 134.384 50.7185 134.72 51.1985 135.152L50.9585 137H44.0945L43.8545 135.152C44.0785 134.848 44.5185 134.576 45.1745 134.336V127.664C44.6145 127.472 44.1745 127.2 43.8545 126.848L44.0945 125C44.9745 124.808 45.7665 124.712 46.4705 124.712C47.1745 124.712 47.7585 124.728 48.2225 124.76V126.272C48.5905 125.84 49.0625 125.488 49.6385 125.216C50.2145 124.928 50.7345 124.784 51.1985 124.784C51.6785 124.784 52.0065 124.824 52.1825 124.904L52.1105 128.024C51.7905 127.976 51.4385 127.952 51.0545 127.952ZM58.7898 125C59.6698 124.808 60.4618 124.712 61.1658 124.712C61.8698 124.712 62.4538 124.728 62.9178 124.76V125.96C63.3018 125.64 63.7818 125.368 64.3578 125.144C64.9338 124.92 65.4538 124.808 65.9178 124.808C67.7418 124.808 68.9578 125.264 69.5658 126.176C69.9658 125.792 70.4938 125.472 71.1498 125.216C71.8058 124.944 72.4138 124.808 72.9738 124.808C74.7338 124.808 75.9178 125.208 76.5258 126.008C77.1338 126.792 77.4378 128.272 77.4378 130.448V134.336C78.0618 134.576 78.5018 134.848 78.7578 135.152L78.5178 137H72.9978L72.7578 135.152C72.9818 134.848 73.4218 134.576 74.0778 134.336V129.584C74.0778 128.704 73.9578 128.12 73.7178 127.832C73.4778 127.544 72.9978 127.4 72.2778 127.4C71.5738 127.4 70.9018 127.664 70.2618 128.192C70.3418 128.736 70.3818 129.488 70.3818 130.448V134.336C71.0058 134.576 71.4458 134.848 71.7018 135.152L71.4618 137H65.9418L65.7018 135.152C65.9258 134.848 66.3658 134.576 67.0218 134.336V129.584C67.0218 128.704 66.9018 128.12 66.6618 127.832C66.4218 127.544 65.9498 127.4 65.2458 127.4C64.5418 127.4 63.8698 127.656 63.2298 128.168V134.336C63.8538 134.576 64.2938 134.848 64.5498 135.152L64.3098 137H58.7898L58.5498 135.152C58.7738 134.848 59.2138 134.576 59.8698 134.336V127.664C59.3098 127.472 58.8698 127.2 58.5498 126.848L58.7898 125ZM82.8132 139.784C83.1012 139.784 83.4052 139.512 83.7252 138.968C84.0612 138.44 84.2932 137.808 84.4212 137.072L80.4852 127.76C79.7012 127.504 79.1732 127.2 78.9012 126.848L79.1412 125H84.6612L84.9012 126.848C84.6932 127.104 84.3412 127.336 83.8452 127.544L85.1652 131.168C85.4532 131.92 85.6532 132.664 85.7652 133.4L85.8372 133.736H86.1732C86.3012 132.936 86.5252 132.096 86.8452 131.216L88.1172 127.664C87.5252 127.44 87.1092 127.168 86.8692 126.848L87.1092 125H92.3892L92.6292 126.848C92.3412 127.216 91.8132 127.528 91.0452 127.784L87.0852 137.144C86.3332 138.92 85.7572 140.064 85.3572 140.576C84.6532 141.52 83.6692 141.992 82.4052 141.992C81.1572 141.992 80.2052 141.664 79.5492 141.008C79.5332 140.848 79.5252 140.688 79.5252 140.528C79.5252 139.648 79.7092 138.816 80.0772 138.032H82.0692C82.3092 138.464 82.4452 139.048 82.4772 139.784H82.8132ZM98.1005 119.96C98.9965 119.752 99.8285 119.648 100.596 119.648C101.364 119.648 102.012 119.672 102.54 119.72V125.72C102.876 125.48 103.324 125.272 103.884 125.096C104.444 124.904 104.98 124.808 105.492 124.808C107.236 124.808 108.46 125.256 109.164 126.152C109.868 127.048 110.22 128.576 110.22 130.736C110.22 131.936 110.052 132.976 109.716 133.856C109.396 134.72 108.956 135.384 108.396 135.848C107.34 136.744 106.092 137.192 104.652 137.192C103.564 137.192 102.492 136.92 101.436 136.376C101.132 136.792 100.78 137 100.38 137H99.1805V122.624C98.6205 122.432 98.1805 122.16 97.8605 121.808L98.1005 119.96ZM104.46 134.744C105.996 134.744 106.764 133.456 106.764 130.88C106.764 129.52 106.628 128.6 106.356 128.12C106.1 127.624 105.644 127.376 104.988 127.376C103.996 127.376 103.18 127.64 102.54 128.168V134.336C103.228 134.608 103.868 134.744 104.46 134.744ZM118.695 127.952C117.479 127.952 116.639 128.184 116.175 128.648V134.144C117.471 134.384 118.359 134.72 118.839 135.152L118.599 137H111.735L111.495 135.152C111.719 134.848 112.159 134.576 112.815 134.336V127.664C112.255 127.472 111.815 127.2 111.495 126.848L111.735 125C112.615 124.808 113.407 124.712 114.111 124.712C114.815 124.712 115.399 124.728 115.863 124.76V126.272C116.231 125.84 116.703 125.488 117.279 125.216C117.855 124.928 118.375 124.784 118.839 124.784C119.319 124.784 119.647 124.824 119.823 124.904L119.751 128.024C119.431 127.976 119.079 127.952 118.695 127.952ZM129.656 135.992C128.552 136.792 127.248 137.192 125.744 137.192C124.256 137.192 123.216 136.88 122.624 136.256C122.032 135.632 121.736 134.616 121.736 133.208V127.664C121.176 127.472 120.736 127.2 120.416 126.848L120.656 125C121.552 124.792 122.384 124.688 123.152 124.688C123.92 124.688 124.568 124.712 125.096 124.76V132.416C125.096 133.28 125.224 133.856 125.48 134.144C125.752 134.416 126.28 134.552 127.064 134.552C127.848 134.552 128.576 134.296 129.248 133.784V127.664C128.688 127.472 128.248 127.2 127.928 126.848L128.168 125C129.064 124.792 129.896 124.688 130.664 124.688C131.432 124.688 132.08 124.712 132.608 124.76V134.12C133.168 134.232 133.608 134.368 133.928 134.528V136.424C132.968 136.936 131.76 137.192 130.304 137.192C129.904 136.904 129.688 136.504 129.656 135.992ZM135.197 125C136.093 124.792 136.925 124.688 137.693 124.688C138.461 124.688 139.109 124.712 139.637 124.76V134.336C140.261 134.576 140.701 134.848 140.957 135.152L140.717 137H135.197L134.957 135.152C135.181 134.848 135.621 134.576 136.277 134.336V127.664C135.717 127.472 135.277 127.2 134.957 126.848L135.197 125ZM137.909 123.344C136.581 123.344 135.917 122.744 135.917 121.544C135.917 120.328 136.581 119.72 137.909 119.72C139.253 119.72 139.925 120.328 139.925 121.544C139.925 122.744 139.253 123.344 137.909 123.344ZM142.157 125C143.037 124.808 143.829 124.712 144.533 124.712C145.237 124.712 145.821 124.728 146.285 124.76V125.96C146.685 125.624 147.213 125.352 147.869 125.144C148.541 124.92 149.181 124.808 149.789 124.808C151.357 124.808 152.453 125.176 153.077 125.912C153.717 126.648 154.037 127.92 154.037 129.728V134.336C154.661 134.576 155.101 134.848 155.357 135.152L155.117 137H149.597L149.357 135.152C149.581 134.848 150.021 134.576 150.677 134.336V129.584C150.677 128.72 150.533 128.144 150.245 127.856C149.973 127.552 149.477 127.4 148.757 127.4C148.037 127.4 147.317 127.656 146.597 128.168V134.336C147.221 134.576 147.661 134.848 147.917 135.152L147.677 137H142.157L141.917 135.152C142.141 134.848 142.581 134.576 143.237 134.336V127.664C142.677 127.472 142.237 127.2 141.917 126.848L142.157 125ZM161.83 127.256C160.358 127.256 159.622 128.52 159.622 131.048C159.622 132.328 159.822 133.224 160.222 133.736C160.638 134.232 161.23 134.48 161.998 134.48C163.214 134.48 164.286 134.368 165.214 134.144L165.934 135.992C165.422 136.328 164.734 136.616 163.87 136.856C163.006 137.08 162.166 137.192 161.35 137.192C157.894 137.192 156.166 135.192 156.166 131.192C156.166 128.856 156.766 127.176 157.966 126.152C159.038 125.256 160.342 124.808 161.878 124.808C163.414 124.808 164.694 125.096 165.718 125.672C165.734 125.832 165.742 125.984 165.742 126.128C165.742 127.04 165.534 127.904 165.118 128.72H163.006C162.782 128.32 162.646 127.84 162.598 127.28C162.406 127.264 162.15 127.256 161.83 127.256ZM167.475 126.776C167.475 126.536 167.483 126.28 167.499 126.008C168.987 125.208 170.587 124.808 172.299 124.808C174.011 124.808 175.235 125.136 175.971 125.792C176.723 126.432 177.099 127.504 177.099 129.008V134.12C177.659 134.232 178.099 134.368 178.419 134.528V136.616C177.603 137 176.435 137.192 174.915 137.192C174.755 136.776 174.619 136.272 174.507 135.68C173.819 136.688 172.571 137.192 170.763 137.192C169.691 137.192 168.771 136.88 168.003 136.256C167.251 135.632 166.875 134.784 166.875 133.712C166.875 132.64 167.227 131.8 167.931 131.192C168.651 130.568 169.715 130.256 171.123 130.256H173.739V129.104C173.739 127.856 173.075 127.232 171.747 127.232C171.251 127.232 170.843 127.28 170.523 127.376C170.491 128.048 170.395 128.568 170.235 128.936H167.883C167.611 128.376 167.475 127.656 167.475 126.776ZM171.795 134.744C172.611 134.744 173.259 134.504 173.739 134.024V132.056H172.059C170.907 132.056 170.331 132.496 170.331 133.376C170.331 133.776 170.451 134.104 170.691 134.36C170.947 134.616 171.315 134.744 171.795 134.744ZM186.476 127.952C185.26 127.952 184.42 128.184 183.956 128.648V134.144C185.252 134.384 186.14 134.72 186.62 135.152L186.38 137H179.516L179.276 135.152C179.5 134.848 179.94 134.576 180.596 134.336V127.664C180.036 127.472 179.596 127.2 179.276 126.848L179.516 125C180.396 124.808 181.188 124.712 181.892 124.712C182.596 124.712 183.18 124.728 183.644 124.76V126.272C184.012 125.84 184.484 125.488 185.06 125.216C185.636 124.928 186.156 124.784 186.62 124.784C187.1 124.784 187.428 124.824 187.604 124.904L187.532 128.024C187.212 127.976 186.86 127.952 186.476 127.952ZM194.821 119.96C195.733 119.752 196.605 119.648 197.437 119.648C198.269 119.648 198.981 119.672 199.573 119.72V134.12C200.053 134.2 200.493 134.336 200.893 134.528V136.424C199.933 136.936 198.717 137.192 197.245 137.192C197.085 137.112 196.925 136.968 196.765 136.76C196.621 136.552 196.541 136.352 196.525 136.16C196.173 136.448 195.717 136.696 195.157 136.904C194.597 137.096 194.045 137.192 193.501 137.192C191.773 137.192 190.517 136.728 189.733 135.8C188.965 134.856 188.581 133.32 188.581 131.192C188.581 128.776 189.173 127.08 190.357 126.104C191.397 125.24 192.677 124.808 194.197 124.808C194.869 124.808 195.541 124.888 196.213 125.048V122.672C195.477 122.464 194.933 122.176 194.581 121.808L194.821 119.96ZM194.005 134.744C194.917 134.744 195.653 134.472 196.213 133.928V127.496C195.557 127.336 194.861 127.256 194.125 127.256C193.389 127.256 192.853 127.584 192.517 128.24C192.197 128.88 192.037 129.848 192.037 131.144C192.037 132.424 192.197 133.344 192.517 133.904C192.837 134.464 193.333 134.744 194.005 134.744ZM202.758 124.76C202.758 123.416 202.814 121.976 202.926 120.44H206.334C206.43 121.864 206.478 123.208 206.478 124.472C206.478 127.464 206.214 130.024 205.686 132.152H203.526C203.014 130.072 202.758 127.608 202.758 124.76ZM204.606 137.24C203.342 137.24 202.71 136.648 202.71 135.464C202.71 134.28 203.342 133.688 204.606 133.688C205.886 133.688 206.526 134.28 206.526 135.464C206.526 136.648 205.886 137.24 204.606 137.24ZM214.275 125C215.171 124.792 216.003 124.688 216.771 124.688C217.539 124.688 218.187 124.712 218.715 124.76V134.336C219.339 134.576 219.779 134.848 220.035 135.152L219.795 137H214.275L214.035 135.152C214.259 134.848 214.699 134.576 215.355 134.336V127.664C214.795 127.472 214.355 127.2 214.035 126.848L214.275 125ZM216.987 123.344C215.659 123.344 214.995 122.744 214.995 121.544C214.995 120.328 215.659 119.72 216.987 119.72C218.331 119.72 219.003 120.328 219.003 121.544C219.003 122.744 218.331 123.344 216.987 123.344ZM222.315 124.544C222.315 122.88 222.675 121.632 223.395 120.8C224.115 119.952 225.259 119.528 226.827 119.528C228.395 119.528 229.755 119.952 230.907 120.8C230.923 120.912 230.931 121.08 230.931 121.304C230.931 121.512 230.875 121.864 230.763 122.36C230.651 122.856 230.499 123.256 230.307 123.56H228.291C228.003 123.016 227.851 122.504 227.835 122.024C227.643 121.992 227.483 121.976 227.355 121.976C226.747 121.976 226.315 122.144 226.059 122.48C225.803 122.816 225.675 123.424 225.675 124.304V125.216H229.347V127.424H225.675V134.216C226.875 134.456 227.691 134.768 228.123 135.152L227.883 137H221.235L220.995 135.152C221.219 134.848 221.659 134.576 222.315 134.336V127.424H221.259L220.995 125.768C221.347 125.448 221.787 125.264 222.315 125.216V124.544ZM238.79 139.784C239.078 139.784 239.382 139.512 239.702 138.968C240.038 138.44 240.27 137.808 240.398 137.072L236.462 127.76C235.678 127.504 235.15 127.2 234.878 126.848L235.118 125H240.638L240.878 126.848C240.67 127.104 240.318 127.336 239.822 127.544L241.142 131.168C241.43 131.92 241.63 132.664 241.742 133.4L241.814 133.736H242.15C242.278 132.936 242.502 132.096 242.822 131.216L244.094 127.664C243.502 127.44 243.086 127.168 242.846 126.848L243.086 125H248.366L248.606 126.848C248.318 127.216 247.79 127.528 247.022 127.784L243.062 137.144C242.31 138.92 241.734 140.064 241.334 140.576C240.63 141.52 239.646 141.992 238.382 141.992C237.134 141.992 236.182 141.664 235.526 141.008C235.51 140.848 235.502 140.688 235.502 140.528C235.502 139.648 235.686 138.816 236.054 138.032H238.046C238.286 138.464 238.422 139.048 238.454 139.784H238.79ZM254.313 137.192C252.425 137.192 251.025 136.688 250.113 135.68C249.201 134.672 248.745 133.152 248.745 131.12C248.745 129.072 249.249 127.512 250.257 126.44C251.281 125.352 252.745 124.808 254.649 124.808C256.553 124.808 257.961 125.288 258.873 126.248C259.801 127.208 260.265 128.712 260.265 130.76C260.265 132.792 259.745 134.376 258.705 135.512C257.681 136.632 256.217 137.192 254.313 137.192ZM252.201 130.904C252.201 133.464 252.969 134.744 254.505 134.744C255.289 134.744 255.865 134.456 256.233 133.88C256.617 133.288 256.809 132.328 256.809 131C256.809 128.504 256.025 127.256 254.457 127.256C253.689 127.256 253.121 127.536 252.753 128.096C252.385 128.64 252.201 129.576 252.201 130.904ZM270.351 135.992C269.247 136.792 267.943 137.192 266.439 137.192C264.951 137.192 263.911 136.88 263.319 136.256C262.727 135.632 262.431 134.616 262.431 133.208V127.664C261.871 127.472 261.431 127.2 261.111 126.848L261.351 125C262.247 124.792 263.079 124.688 263.847 124.688C264.615 124.688 265.263 124.712 265.791 124.76V132.416C265.791 133.28 265.919 133.856 266.175 134.144C266.447 134.416 266.975 134.552 267.759 134.552C268.543 134.552 269.271 134.296 269.943 133.784V127.664C269.383 127.472 268.943 127.2 268.623 126.848L268.863 125C269.759 124.792 270.591 124.688 271.359 124.688C272.127 124.688 272.775 124.712 273.303 124.76V134.12C273.863 134.232 274.303 134.368 274.623 134.528V136.424C273.663 136.936 272.455 137.192 270.999 137.192C270.599 136.904 270.383 136.504 270.351 135.992ZM285.795 126.968C284.739 126.968 284.211 127.28 284.211 127.904C284.211 128.496 284.763 128.936 285.867 129.224L287.763 129.728C289.715 130.24 290.691 131.368 290.691 133.112C290.691 134.312 290.267 135.296 289.419 136.064C288.587 136.816 287.251 137.192 285.411 137.192C283.587 137.192 282.163 136.936 281.139 136.424C281.123 136.248 281.115 136.072 281.115 135.896C281.115 135.016 281.291 134.224 281.643 133.52H283.635C283.843 133.904 283.979 134.304 284.043 134.72C284.363 134.816 284.819 134.864 285.411 134.864C286.819 134.864 287.523 134.464 287.523 133.664C287.523 133.408 287.427 133.2 287.235 133.04C287.043 132.864 286.667 132.696 286.107 132.536L284.211 131.984C283.235 131.712 282.475 131.312 281.931 130.784C281.387 130.24 281.115 129.448 281.115 128.408C281.115 127.352 281.539 126.488 282.387 125.816C283.235 125.144 284.443 124.808 286.011 124.808C287.595 124.808 288.931 125.04 290.019 125.504C290.035 125.664 290.043 125.824 290.043 125.984C290.043 126.816 289.867 127.584 289.515 128.288H287.547C287.339 127.92 287.203 127.536 287.139 127.136C286.691 127.024 286.243 126.968 285.795 126.968ZM296.191 121.976V125H299.623V127.016H296.191V133.088C296.191 133.6 296.263 133.976 296.407 134.216C296.551 134.44 296.895 134.552 297.439 134.552C297.983 134.552 298.567 134.432 299.191 134.192L299.911 136.064C298.679 136.688 297.415 137 296.119 137C294.839 137 293.967 136.728 293.503 136.184C293.055 135.624 292.831 134.816 292.831 133.76V127.016H291.751L291.487 125.552C291.743 125.248 292.271 124.944 293.071 124.64C293.263 123.328 293.719 122.44 294.439 121.976H296.191ZM301.041 125C301.937 124.792 302.769 124.688 303.537 124.688C304.305 124.688 304.953 124.712 305.481 124.76V134.336C306.105 134.576 306.545 134.848 306.801 135.152L306.561 137H301.041L300.801 135.152C301.025 134.848 301.465 134.576 302.121 134.336V127.664C301.561 127.472 301.121 127.2 300.801 126.848L301.041 125ZM303.753 123.344C302.425 123.344 301.761 122.744 301.761 121.544C301.761 120.328 302.425 119.72 303.753 119.72C305.097 119.72 305.769 120.328 305.769 121.544C305.769 122.744 305.097 123.344 303.753 123.344ZM307.713 119.96C308.609 119.752 309.441 119.648 310.209 119.648C310.977 119.648 311.625 119.672 312.153 119.72V134.336C312.777 134.576 313.217 134.848 313.473 135.152L313.233 137H307.713L307.473 135.152C307.697 134.848 308.137 134.576 308.793 134.336V122.624C308.233 122.432 307.793 122.16 307.473 121.808L307.713 119.96ZM314.416 119.96C315.312 119.752 316.144 119.648 316.912 119.648C317.68 119.648 318.328 119.672 318.856 119.72V134.336C319.48 134.576 319.92 134.848 320.176 135.152L319.936 137H314.416L314.176 135.152C314.4 134.848 314.84 134.576 315.496 134.336V122.624C314.936 122.432 314.496 122.16 314.176 121.808L314.416 119.96ZM25.1781 156.256C23.7061 156.256 22.9701 157.52 22.9701 160.048C22.9701 161.328 23.1701 162.224 23.5701 162.736C23.9861 163.232 24.5781 163.48 25.3461 163.48C26.5621 163.48 27.6341 163.368 28.5621 163.144L29.2821 164.992C28.7701 165.328 28.0821 165.616 27.2181 165.856C26.3541 166.08 25.5141 166.192 24.6981 166.192C21.2421 166.192 19.5141 164.192 19.5141 160.192C19.5141 157.856 20.1141 156.176 21.3141 155.152C22.3861 154.256 23.6901 153.808 25.2261 153.808C26.7621 153.808 28.0421 154.096 29.0661 154.672C29.0821 154.832 29.0901 154.984 29.0901 155.128C29.0901 156.04 28.8821 156.904 28.4661 157.72H26.3541C26.1301 157.32 25.9941 156.84 25.9461 156.28C25.7541 156.264 25.4981 156.256 25.1781 156.256ZM30.8228 155.776C30.8228 155.536 30.8308 155.28 30.8468 155.008C32.3348 154.208 33.9348 153.808 35.6468 153.808C37.3588 153.808 38.5828 154.136 39.3188 154.792C40.0708 155.432 40.4468 156.504 40.4468 158.008V163.12C41.0068 163.232 41.4468 163.368 41.7668 163.528V165.616C40.9508 166 39.7828 166.192 38.2628 166.192C38.1028 165.776 37.9668 165.272 37.8548 164.68C37.1668 165.688 35.9188 166.192 34.1108 166.192C33.0388 166.192 32.1188 165.88 31.3508 165.256C30.5988 164.632 30.2228 163.784 30.2228 162.712C30.2228 161.64 30.5748 160.8 31.2788 160.192C31.9988 159.568 33.0628 159.256 34.4708 159.256H37.0868V158.104C37.0868 156.856 36.4228 156.232 35.0948 156.232C34.5988 156.232 34.1908 156.28 33.8708 156.376C33.8388 157.048 33.7428 157.568 33.5828 157.936H31.2308C30.9588 157.376 30.8228 156.656 30.8228 155.776ZM35.1428 163.744C35.9588 163.744 36.6068 163.504 37.0868 163.024V161.056H35.4068C34.2548 161.056 33.6788 161.496 33.6788 162.376C33.6788 162.776 33.7988 163.104 34.0388 163.36C34.2948 163.616 34.6628 163.744 35.1428 163.744ZM42.864 154C43.744 153.808 44.536 153.712 45.24 153.712C45.944 153.712 46.528 153.728 46.992 153.76V154.96C47.392 154.624 47.92 154.352 48.576 154.144C49.248 153.92 49.888 153.808 50.496 153.808C52.064 153.808 53.16 154.176 53.784 154.912C54.424 155.648 54.744 156.92 54.744 158.728V163.336C55.368 163.576 55.808 163.848 56.064 164.152L55.824 166H50.304L50.064 164.152C50.288 163.848 50.728 163.576 51.384 163.336V158.584C51.384 157.72 51.24 157.144 50.952 156.856C50.68 156.552 50.184 156.4 49.464 156.4C48.744 156.4 48.024 156.656 47.304 157.168V163.336C47.928 163.576 48.368 163.848 48.624 164.152L48.384 166H42.864L42.624 164.152C42.848 163.848 43.288 163.576 43.944 163.336V156.664C43.384 156.472 42.944 156.2 42.624 155.848L42.864 154ZM57.0894 151.048C57.0894 149.832 57.7694 149.224 59.1294 149.224C60.4894 149.224 61.1694 149.832 61.1694 151.048C61.1694 152.12 60.8974 153.12 60.3534 154.048C59.8094 154.96 59.1534 155.688 58.3854 156.232L57.3774 155.608C57.9054 154.728 58.1694 153.864 58.1694 153.016C58.1694 152.888 58.1614 152.768 58.1454 152.656C57.8414 152.56 57.5854 152.368 57.3774 152.08C57.1854 151.776 57.0894 151.432 57.0894 151.048ZM66.8201 150.976V154H70.2521V156.016H66.8201V162.088C66.8201 162.6 66.8921 162.976 67.0361 163.216C67.1801 163.44 67.5241 163.552 68.0681 163.552C68.6121 163.552 69.1961 163.432 69.8201 163.192L70.5401 165.064C69.3081 165.688 68.0441 166 66.7481 166C65.4681 166 64.5961 165.728 64.1321 165.184C63.6841 164.624 63.4601 163.816 63.4601 162.76V156.016H62.3801L62.1161 154.552C62.3721 154.248 62.9001 153.944 63.7001 153.64C63.8921 152.328 64.3481 151.44 65.0681 150.976H66.8201ZM78.0924 153.544C78.0924 151.88 78.4524 150.632 79.1724 149.8C79.8924 148.952 81.0364 148.528 82.6044 148.528C84.1724 148.528 85.5324 148.952 86.6844 149.8C86.7004 149.912 86.7084 150.08 86.7084 150.304C86.7084 150.512 86.6524 150.864 86.5404 151.36C86.4284 151.856 86.2764 152.256 86.0844 152.56H84.0684C83.7804 152.016 83.6284 151.504 83.6124 151.024C83.4204 150.992 83.2604 150.976 83.1324 150.976C82.5244 150.976 82.0924 151.144 81.8364 151.48C81.5804 151.816 81.4524 152.424 81.4524 153.304V154.216H85.1244V156.424H81.4524V163.216C82.6524 163.456 83.4684 163.768 83.9004 164.152L83.6604 166H77.0124L76.7724 164.152C76.9964 163.848 77.4364 163.576 78.0924 163.336V156.424H77.0364L76.7724 154.768C77.1244 154.448 77.5644 154.264 78.0924 154.216V153.544ZM86.5761 154C87.4721 153.792 88.3041 153.688 89.0721 153.688C89.8401 153.688 90.4881 153.712 91.0161 153.76V163.336C91.6401 163.576 92.0801 163.848 92.3361 164.152L92.0961 166H86.5761L86.3361 164.152C86.5601 163.848 87.0001 163.576 87.6561 163.336V156.664C87.0961 156.472 86.6561 156.2 86.3361 155.848L86.5761 154ZM89.2881 152.344C87.9601 152.344 87.2961 151.744 87.2961 150.544C87.2961 149.328 87.9601 148.72 89.2881 148.72C90.6321 148.72 91.3041 149.328 91.3041 150.544C91.3041 151.744 90.6321 152.344 89.2881 152.344ZM93.5359 154C94.4159 153.808 95.2079 153.712 95.9119 153.712C96.6159 153.712 97.1999 153.728 97.6639 153.76V154.96C98.0639 154.624 98.5919 154.352 99.2479 154.144C99.9199 153.92 100.56 153.808 101.168 153.808C102.736 153.808 103.832 154.176 104.456 154.912C105.096 155.648 105.416 156.92 105.416 158.728V163.336C106.04 163.576 106.48 163.848 106.736 164.152L106.496 166H100.976L100.736 164.152C100.96 163.848 101.4 163.576 102.056 163.336V158.584C102.056 157.72 101.912 157.144 101.624 156.856C101.352 156.552 100.856 156.4 100.136 156.4C99.4159 156.4 98.6959 156.656 97.9759 157.168V163.336C98.5999 163.576 99.0399 163.848 99.2959 164.152L99.0559 166H93.5359L93.2959 164.152C93.5199 163.848 93.9599 163.576 94.6159 163.336V156.664C94.0559 156.472 93.6159 156.2 93.2959 155.848L93.5359 154ZM113.809 148.96C114.721 148.752 115.593 148.648 116.425 148.648C117.257 148.648 117.969 148.672 118.561 148.72V163.12C119.041 163.2 119.481 163.336 119.881 163.528V165.424C118.921 165.936 117.705 166.192 116.233 166.192C116.073 166.112 115.913 165.968 115.753 165.76C115.609 165.552 115.529 165.352 115.513 165.16C115.161 165.448 114.705 165.696 114.145 165.904C113.585 166.096 113.033 166.192 112.489 166.192C110.761 166.192 109.505 165.728 108.721 164.8C107.953 163.856 107.569 162.32 107.569 160.192C107.569 157.776 108.161 156.08 109.345 155.104C110.385 154.24 111.665 153.808 113.185 153.808C113.857 153.808 114.529 153.888 115.201 154.048V151.672C114.465 151.464 113.921 151.176 113.569 150.808L113.809 148.96ZM112.993 163.744C113.905 163.744 114.641 163.472 115.201 162.928V156.496C114.545 156.336 113.849 156.256 113.113 156.256C112.377 156.256 111.841 156.584 111.505 157.24C111.185 157.88 111.025 158.848 111.025 160.144C111.025 161.424 111.185 162.344 111.505 162.904C111.825 163.464 112.321 163.744 112.993 163.744ZM126.56 154C127.456 153.792 128.288 153.688 129.056 153.688C129.824 153.688 130.472 153.712 131 153.76V163.336C131.624 163.576 132.064 163.848 132.32 164.152L132.08 166H126.56L126.32 164.152C126.544 163.848 126.984 163.576 127.64 163.336V156.664C127.08 156.472 126.64 156.2 126.32 155.848L126.56 154ZM129.272 152.344C127.944 152.344 127.28 151.744 127.28 150.544C127.28 149.328 127.944 148.72 129.272 148.72C130.616 148.72 131.288 149.328 131.288 150.544C131.288 151.744 130.616 152.344 129.272 152.344ZM137.648 150.976V154H141.08V156.016H137.648V162.088C137.648 162.6 137.72 162.976 137.864 163.216C138.008 163.44 138.352 163.552 138.896 163.552C139.44 163.552 140.024 163.432 140.648 163.192L141.368 165.064C140.136 165.688 138.872 166 137.576 166C136.296 166 135.424 165.728 134.96 165.184C134.512 164.624 134.288 163.816 134.288 162.76V156.016H133.208L132.944 154.552C133.2 154.248 133.728 153.944 134.528 153.64C134.72 152.328 135.176 151.44 135.896 150.976H137.648ZM142.45 164.44C142.45 163.224 143.13 162.616 144.49 162.616C145.85 162.616 146.53 163.224 146.53 164.44C146.53 165.512 146.258 166.504 145.714 167.416C145.17 168.344 144.514 169.08 143.746 169.624L142.738 169C143.266 168.12 143.53 167.256 143.53 166.408C143.53 166.28 143.522 166.16 143.506 166.048C143.202 165.952 142.946 165.76 142.738 165.472C142.546 165.168 142.45 164.824 142.45 164.44ZM153.7 154C154.58 153.808 155.372 153.712 156.076 153.712C156.78 153.712 157.364 153.728 157.828 153.76V154.96C158.212 154.64 158.692 154.368 159.268 154.144C159.844 153.92 160.364 153.808 160.828 153.808C162.652 153.808 163.868 154.264 164.476 155.176C164.876 154.792 165.404 154.472 166.06 154.216C166.716 153.944 167.324 153.808 167.884 153.808C169.644 153.808 170.828 154.208 171.436 155.008C172.044 155.792 172.348 157.272 172.348 159.448V163.336C172.972 163.576 173.412 163.848 173.668 164.152L173.428 166H167.908L167.668 164.152C167.892 163.848 168.332 163.576 168.988 163.336V158.584C168.988 157.704 168.868 157.12 168.628 156.832C168.388 156.544 167.908 156.4 167.188 156.4C166.484 156.4 165.812 156.664 165.172 157.192C165.252 157.736 165.292 158.488 165.292 159.448V163.336C165.916 163.576 166.356 163.848 166.612 164.152L166.372 166H160.852L160.612 164.152C160.836 163.848 161.276 163.576 161.932 163.336V158.584C161.932 157.704 161.812 157.12 161.572 156.832C161.332 156.544 160.86 156.4 160.156 156.4C159.452 156.4 158.78 156.656 158.14 157.168V163.336C158.764 163.576 159.204 163.848 159.46 164.152L159.22 166H153.7L153.46 164.152C153.684 163.848 154.124 163.576 154.78 163.336V156.664C154.22 156.472 153.78 156.2 153.46 155.848L153.7 154ZM174.963 155.776C174.963 155.536 174.971 155.28 174.987 155.008C176.475 154.208 178.075 153.808 179.787 153.808C181.499 153.808 182.723 154.136 183.459 154.792C184.211 155.432 184.587 156.504 184.587 158.008V163.12C185.147 163.232 185.587 163.368 185.907 163.528V165.616C185.091 166 183.923 166.192 182.403 166.192C182.243 165.776 182.107 165.272 181.995 164.68C181.307 165.688 180.059 166.192 178.251 166.192C177.179 166.192 176.259 165.88 175.491 165.256C174.739 164.632 174.363 163.784 174.363 162.712C174.363 161.64 174.715 160.8 175.419 160.192C176.139 159.568 177.203 159.256 178.611 159.256H181.227V158.104C181.227 156.856 180.563 156.232 179.235 156.232C178.739 156.232 178.331 156.28 178.011 156.376C177.979 157.048 177.883 157.568 177.723 157.936H175.371C175.099 157.376 174.963 156.656 174.963 155.776ZM179.283 163.744C180.099 163.744 180.747 163.504 181.227 163.024V161.056H179.547C178.395 161.056 177.819 161.496 177.819 162.376C177.819 162.776 177.939 163.104 178.179 163.36C178.435 163.616 178.803 163.744 179.283 163.744ZM189.419 168.784C189.707 168.784 190.011 168.512 190.331 167.968C190.667 167.44 190.899 166.808 191.027 166.072L187.091 156.76C186.307 156.504 185.779 156.2 185.507 155.848L185.747 154H191.267L191.507 155.848C191.299 156.104 190.947 156.336 190.451 156.544L191.771 160.168C192.059 160.92 192.259 161.664 192.371 162.4L192.443 162.736H192.779C192.907 161.936 193.131 161.096 193.451 160.216L194.723 156.664C194.131 156.44 193.715 156.168 193.475 155.848L193.715 154H198.995L199.235 155.848C198.947 156.216 198.419 156.528 197.651 156.784L193.691 166.144C192.939 167.92 192.363 169.064 191.963 169.576C191.259 170.52 190.275 170.992 189.011 170.992C187.763 170.992 186.811 170.664 186.155 170.008C186.139 169.848 186.131 169.688 186.131 169.528C186.131 168.648 186.315 167.816 186.683 167.032H188.675C188.915 167.464 189.051 168.048 189.083 168.784H189.419ZM199.315 148.96C200.211 148.752 201.043 148.648 201.811 148.648C202.579 148.648 203.227 148.672 203.755 148.72V154.72C204.091 154.48 204.539 154.272 205.099 154.096C205.659 153.904 206.195 153.808 206.707 153.808C208.451 153.808 209.675 154.256 210.379 155.152C211.083 156.048 211.435 157.576 211.435 159.736C211.435 160.936 211.267 161.976 210.931 162.856C210.611 163.72 210.171 164.384 209.611 164.848C208.555 165.744 207.307 166.192 205.867 166.192C204.779 166.192 203.707 165.92 202.651 165.376C202.347 165.792 201.995 166 201.595 166H200.395V151.624C199.835 151.432 199.395 151.16 199.075 150.808L199.315 148.96ZM205.675 163.744C207.211 163.744 207.979 162.456 207.979 159.88C207.979 158.52 207.843 157.6 207.571 157.12C207.315 156.624 206.859 156.376 206.203 156.376C205.211 156.376 204.395 156.64 203.755 157.168V163.336C204.443 163.608 205.083 163.744 205.675 163.744ZM218.47 166.192C216.55 166.192 215.102 165.68 214.126 164.656C213.166 163.632 212.686 162.144 212.686 160.192C212.686 159.008 212.854 157.992 213.19 157.144C213.526 156.28 213.982 155.616 214.558 155.152C215.678 154.256 216.982 153.808 218.47 153.808C219.958 153.808 221.094 154.192 221.878 154.96C222.678 155.712 223.078 157.072 223.078 159.04C223.078 160.192 222.51 160.768 221.374 160.768H216.166C216.23 161.776 216.486 162.488 216.934 162.904C217.398 163.32 218.126 163.528 219.118 163.528C219.662 163.528 220.182 163.464 220.678 163.336C221.174 163.208 221.534 163.08 221.758 162.952L222.094 162.76L222.814 164.68C222.718 164.792 222.574 164.936 222.382 165.112C222.206 165.272 221.742 165.496 220.99 165.784C220.254 166.056 219.414 166.192 218.47 166.192ZM219.982 158.632C220.014 158.408 220.03 158.136 220.03 157.816C220.03 157.496 219.902 157.16 219.646 156.808C219.39 156.44 218.942 156.256 218.302 156.256C217.678 156.256 217.198 156.448 216.862 156.832C216.526 157.216 216.302 157.864 216.19 158.776L219.982 158.632ZM234.07 150.976V154H237.502V156.016H234.07V162.088C234.07 162.6 234.142 162.976 234.286 163.216C234.43 163.44 234.774 163.552 235.318 163.552C235.862 163.552 236.446 163.432 237.07 163.192L237.79 165.064C236.558 165.688 235.294 166 233.998 166C232.718 166 231.846 165.728 231.382 165.184C230.934 164.624 230.71 163.816 230.71 162.76V156.016H229.63L229.366 154.552C229.622 154.248 230.15 153.944 230.95 153.64C231.142 152.328 231.598 151.44 232.318 150.976H234.07ZM238.584 148.96C239.48 148.752 240.312 148.648 241.08 148.648C241.848 148.648 242.496 148.672 243.024 148.72V154.72C243.408 154.464 243.92 154.248 244.56 154.072C245.2 153.896 245.768 153.808 246.264 153.808C247.848 153.808 248.944 154.192 249.552 154.96C250.16 155.728 250.464 156.896 250.464 158.464V163.336C251.088 163.576 251.528 163.848 251.784 164.152L251.544 166H246.024L245.784 164.152C246.008 163.848 246.448 163.576 247.104 163.336V158.584C247.104 157.72 246.96 157.144 246.672 156.856C246.4 156.552 245.896 156.4 245.16 156.4C244.424 156.4 243.712 156.656 243.024 157.168V163.336C243.648 163.576 244.088 163.848 244.344 164.152L244.104 166H238.584L238.344 164.152C238.568 163.848 239.008 163.576 239.664 163.336V151.624C239.104 151.432 238.664 151.16 238.344 150.808L238.584 148.96ZM258.384 166.192C256.464 166.192 255.016 165.68 254.04 164.656C253.08 163.632 252.6 162.144 252.6 160.192C252.6 159.008 252.768 157.992 253.104 157.144C253.44 156.28 253.896 155.616 254.472 155.152C255.592 154.256 256.896 153.808 258.384 153.808C259.872 153.808 261.008 154.192 261.792 154.96C262.592 155.712 262.992 157.072 262.992 159.04C262.992 160.192 262.424 160.768 261.288 160.768H256.08C256.144 161.776 256.4 162.488 256.848 162.904C257.312 163.32 258.04 163.528 259.032 163.528C259.576 163.528 260.096 163.464 260.592 163.336C261.088 163.208 261.448 163.08 261.672 162.952L262.008 162.76L262.728 164.68C262.632 164.792 262.488 164.936 262.296 165.112C262.12 165.272 261.656 165.496 260.904 165.784C260.168 166.056 259.328 166.192 258.384 166.192ZM259.896 158.632C259.928 158.408 259.944 158.136 259.944 157.816C259.944 157.496 259.816 157.16 259.56 156.808C259.304 156.44 258.856 156.256 258.216 156.256C257.592 156.256 257.112 156.448 256.776 156.832C256.44 157.216 256.216 157.864 256.104 158.776L259.896 158.632ZM271.426 156.952C270.21 156.952 269.37 157.184 268.906 157.648V163.144C270.202 163.384 271.09 163.72 271.57 164.152L271.33 166H264.466L264.226 164.152C264.45 163.848 264.89 163.576 265.546 163.336V156.664C264.986 156.472 264.546 156.2 264.226 155.848L264.466 154C265.346 153.808 266.138 153.712 266.842 153.712C267.546 153.712 268.13 153.728 268.594 153.76V155.272C268.962 154.84 269.434 154.488 270.01 154.216C270.586 153.928 271.106 153.784 271.57 153.784C272.05 153.784 272.378 153.824 272.554 153.904L272.482 157.024C272.162 156.976 271.81 156.952 271.426 156.952ZM279.29 166.192C277.37 166.192 275.922 165.68 274.946 164.656C273.986 163.632 273.506 162.144 273.506 160.192C273.506 159.008 273.674 157.992 274.01 157.144C274.346 156.28 274.802 155.616 275.378 155.152C276.498 154.256 277.802 153.808 279.29 153.808C280.778 153.808 281.914 154.192 282.698 154.96C283.498 155.712 283.898 157.072 283.898 159.04C283.898 160.192 283.33 160.768 282.194 160.768H276.986C277.05 161.776 277.306 162.488 277.754 162.904C278.218 163.32 278.946 163.528 279.938 163.528C280.482 163.528 281.002 163.464 281.498 163.336C281.994 163.208 282.354 163.08 282.578 162.952L282.914 162.76L283.634 164.68C283.538 164.792 283.394 164.936 283.202 165.112C283.026 165.272 282.562 165.496 281.81 165.784C281.074 166.056 280.234 166.192 279.29 166.192ZM280.802 158.632C280.834 158.408 280.85 158.136 280.85 157.816C280.85 157.496 280.722 157.16 280.466 156.808C280.21 156.44 279.762 156.256 279.122 156.256C278.498 156.256 278.018 156.448 277.682 156.832C277.346 157.216 277.122 157.864 277.01 158.776L280.802 158.632ZM291.002 155.776C291.002 155.536 291.01 155.28 291.026 155.008C292.514 154.208 294.114 153.808 295.826 153.808C297.538 153.808 298.762 154.136 299.498 154.792C300.25 155.432 300.626 156.504 300.626 158.008V163.12C301.186 163.232 301.626 163.368 301.946 163.528V165.616C301.13 166 299.962 166.192 298.442 166.192C298.282 165.776 298.146 165.272 298.034 164.68C297.346 165.688 296.098 166.192 294.29 166.192C293.218 166.192 292.298 165.88 291.53 165.256C290.778 164.632 290.402 163.784 290.402 162.712C290.402 161.64 290.754 160.8 291.458 160.192C292.178 159.568 293.242 159.256 294.65 159.256H297.266V158.104C297.266 156.856 296.602 156.232 295.274 156.232C294.778 156.232 294.37 156.28 294.05 156.376C294.018 157.048 293.922 157.568 293.762 157.936H291.41C291.138 157.376 291.002 156.656 291.002 155.776ZM295.322 163.744C296.138 163.744 296.786 163.504 297.266 163.024V161.056H295.586C294.434 161.056 293.858 161.496 293.858 162.376C293.858 162.776 293.978 163.104 294.218 163.36C294.474 163.616 294.842 163.744 295.322 163.744ZM310.004 156.952C308.788 156.952 307.948 157.184 307.484 157.648V163.144C308.78 163.384 309.668 163.72 310.148 164.152L309.908 166H303.044L302.804 164.152C303.028 163.848 303.468 163.576 304.124 163.336V156.664C303.564 156.472 303.124 156.2 302.804 155.848L303.044 154C303.924 153.808 304.716 153.712 305.42 153.712C306.124 153.712 306.708 153.728 307.172 153.76V155.272C307.54 154.84 308.012 154.488 308.588 154.216C309.164 153.928 309.684 153.784 310.148 153.784C310.628 153.784 310.956 153.824 311.132 153.904L311.06 157.024C310.74 156.976 310.388 156.952 310.004 156.952ZM317.868 166.192C315.948 166.192 314.5 165.68 313.524 164.656C312.564 163.632 312.084 162.144 312.084 160.192C312.084 159.008 312.252 157.992 312.588 157.144C312.924 156.28 313.38 155.616 313.956 155.152C315.076 154.256 316.38 153.808 317.868 153.808C319.356 153.808 320.492 154.192 321.276 154.96C322.076 155.712 322.476 157.072 322.476 159.04C322.476 160.192 321.908 160.768 320.772 160.768H315.564C315.628 161.776 315.884 162.488 316.332 162.904C316.796 163.32 317.524 163.528 318.516 163.528C319.06 163.528 319.58 163.464 320.076 163.336C320.572 163.208 320.932 163.08 321.156 162.952L321.492 162.76L322.212 164.68C322.116 164.792 321.972 164.936 321.78 165.112C321.604 165.272 321.14 165.496 320.388 165.784C319.652 166.056 318.812 166.192 317.868 166.192ZM319.38 158.632C319.412 158.408 319.428 158.136 319.428 157.816C319.428 157.496 319.3 157.16 319.044 156.808C318.788 156.44 318.34 156.256 317.7 156.256C317.076 156.256 316.596 156.448 316.26 156.832C315.924 157.216 315.7 157.864 315.588 158.776L319.38 158.632ZM70.5217 184.968C69.4657 184.968 68.9377 185.28 68.9377 185.904C68.9377 186.496 69.4897 186.936 70.5937 187.224L72.4897 187.728C74.4417 188.24 75.4177 189.368 75.4177 191.112C75.4177 192.312 74.9937 193.296 74.1457 194.064C73.3137 194.816 71.9777 195.192 70.1377 195.192C68.3137 195.192 66.8897 194.936 65.8657 194.424C65.8497 194.248 65.8417 194.072 65.8417 193.896C65.8417 193.016 66.0177 192.224 66.3697 191.52H68.3617C68.5697 191.904 68.7057 192.304 68.7697 192.72C69.0897 192.816 69.5457 192.864 70.1377 192.864C71.5457 192.864 72.2497 192.464 72.2497 191.664C72.2497 191.408 72.1537 191.2 71.9617 191.04C71.7697 190.864 71.3937 190.696 70.8337 190.536L68.9377 189.984C67.9617 189.712 67.2017 189.312 66.6577 188.784C66.1137 188.24 65.8417 187.448 65.8417 186.408C65.8417 185.352 66.2657 184.488 67.1137 183.816C67.9617 183.144 69.1697 182.808 70.7377 182.808C72.3217 182.808 73.6577 183.04 74.7457 183.504C74.7617 183.664 74.7697 183.824 74.7697 183.984C74.7697 184.816 74.5937 185.584 74.2417 186.288H72.2737C72.0657 185.92 71.9297 185.536 71.8657 185.136C71.4177 185.024 70.9697 184.968 70.5217 184.968ZM82.0938 195.192C80.2058 195.192 78.8058 194.688 77.8938 193.68C76.9818 192.672 76.5258 191.152 76.5258 189.12C76.5258 187.072 77.0298 185.512 78.0378 184.44C79.0618 183.352 80.5258 182.808 82.4298 182.808C84.3338 182.808 85.7418 183.288 86.6538 184.248C87.5818 185.208 88.0458 186.712 88.0458 188.76C88.0458 190.792 87.5258 192.376 86.4858 193.512C85.4618 194.632 83.9978 195.192 82.0938 195.192ZM79.9818 188.904C79.9818 191.464 80.7498 192.744 82.2858 192.744C83.0698 192.744 83.6458 192.456 84.0138 191.88C84.3978 191.288 84.5898 190.328 84.5898 189C84.5898 186.504 83.8058 185.256 82.2378 185.256C81.4698 185.256 80.9018 185.536 80.5338 186.096C80.1658 186.64 79.9818 187.576 79.9818 188.904ZM89.5163 183C90.3963 182.808 91.1883 182.712 91.8923 182.712C92.5963 182.712 93.1803 182.728 93.6443 182.76V183.96C94.0283 183.64 94.5083 183.368 95.0843 183.144C95.6603 182.92 96.1803 182.808 96.6443 182.808C98.4683 182.808 99.6843 183.264 100.292 184.176C100.692 183.792 101.22 183.472 101.876 183.216C102.532 182.944 103.14 182.808 103.7 182.808C105.46 182.808 106.644 183.208 107.252 184.008C107.86 184.792 108.164 186.272 108.164 188.448V192.336C108.788 192.576 109.228 192.848 109.484 193.152L109.244 195H103.724L103.484 193.152C103.708 192.848 104.148 192.576 104.804 192.336V187.584C104.804 186.704 104.684 186.12 104.444 185.832C104.204 185.544 103.724 185.4 103.004 185.4C102.3 185.4 101.628 185.664 100.988 186.192C101.068 186.736 101.108 187.488 101.108 188.448V192.336C101.732 192.576 102.172 192.848 102.428 193.152L102.188 195H96.6683L96.4283 193.152C96.6523 192.848 97.0923 192.576 97.7483 192.336V187.584C97.7483 186.704 97.6283 186.12 97.3883 185.832C97.1483 185.544 96.6763 185.4 95.9723 185.4C95.2683 185.4 94.5963 185.656 93.9563 186.168V192.336C94.5803 192.576 95.0203 192.848 95.2763 193.152L95.0363 195H89.5163L89.2763 193.152C89.5003 192.848 89.9403 192.576 90.5963 192.336V185.664C90.0363 185.472 89.5963 185.2 89.2763 184.848L89.5163 183ZM116.06 195.192C114.14 195.192 112.692 194.68 111.716 193.656C110.756 192.632 110.276 191.144 110.276 189.192C110.276 188.008 110.444 186.992 110.78 186.144C111.116 185.28 111.572 184.616 112.148 184.152C113.268 183.256 114.572 182.808 116.06 182.808C117.548 182.808 118.684 183.192 119.468 183.96C120.268 184.712 120.668 186.072 120.668 188.04C120.668 189.192 120.1 189.768 118.964 189.768H113.756C113.82 190.776 114.076 191.488 114.524 191.904C114.988 192.32 115.716 192.528 116.708 192.528C117.252 192.528 117.772 192.464 118.268 192.336C118.764 192.208 119.124 192.08 119.348 191.952L119.684 191.76L120.404 193.68C120.308 193.792 120.164 193.936 119.972 194.112C119.796 194.272 119.332 194.496 118.58 194.784C117.844 195.056 117.004 195.192 116.06 195.192ZM117.572 187.632C117.604 187.408 117.62 187.136 117.62 186.816C117.62 186.496 117.492 186.16 117.236 185.808C116.98 185.44 116.532 185.256 115.892 185.256C115.268 185.256 114.788 185.448 114.452 185.832C114.116 186.216 113.892 186.864 113.78 187.776L117.572 187.632ZM127.244 177.96C128.14 177.752 128.972 177.648 129.74 177.648C130.508 177.648 131.156 177.672 131.684 177.72V183.72C132.068 183.464 132.58 183.248 133.22 183.072C133.86 182.896 134.428 182.808 134.924 182.808C136.508 182.808 137.604 183.192 138.212 183.96C138.82 184.728 139.124 185.896 139.124 187.464V192.336C139.748 192.576 140.188 192.848 140.444 193.152L140.204 195H134.684L134.444 193.152C134.668 192.848 135.108 192.576 135.764 192.336V187.584C135.764 186.72 135.62 186.144 135.332 185.856C135.06 185.552 134.556 185.4 133.82 185.4C133.084 185.4 132.372 185.656 131.684 186.168V192.336C132.308 192.576 132.748 192.848 133.004 193.152L132.764 195H127.244L127.004 193.152C127.228 192.848 127.668 192.576 128.324 192.336V180.624C127.764 180.432 127.324 180.16 127.004 179.808L127.244 177.96ZM141.572 183C142.468 182.792 143.3 182.688 144.068 182.688C144.836 182.688 145.484 182.712 146.012 182.76V192.336C146.636 192.576 147.076 192.848 147.332 193.152L147.092 195H141.572L141.332 193.152C141.556 192.848 141.996 192.576 142.652 192.336V185.664C142.092 185.472 141.652 185.2 141.332 184.848L141.572 183ZM144.284 181.344C142.956 181.344 142.292 180.744 142.292 179.544C142.292 178.328 142.956 177.72 144.284 177.72C145.628 177.72 146.3 178.328 146.3 179.544C146.3 180.744 145.628 181.344 144.284 181.344ZM154.532 177.96C155.444 177.752 156.316 177.648 157.148 177.648C157.98 177.648 158.692 177.672 159.284 177.72V192.12C159.764 192.2 160.204 192.336 160.604 192.528V194.424C159.644 194.936 158.428 195.192 156.956 195.192C156.796 195.112 156.636 194.968 156.476 194.76C156.332 194.552 156.252 194.352 156.236 194.16C155.884 194.448 155.428 194.696 154.868 194.904C154.308 195.096 153.756 195.192 153.212 195.192C151.484 195.192 150.228 194.728 149.444 193.8C148.676 192.856 148.292 191.32 148.292 189.192C148.292 186.776 148.884 185.08 150.068 184.104C151.108 183.24 152.388 182.808 153.908 182.808C154.58 182.808 155.252 182.888 155.924 183.048V180.672C155.188 180.464 154.644 180.176 154.292 179.808L154.532 177.96ZM153.716 192.744C154.628 192.744 155.364 192.472 155.924 191.928V185.496C155.268 185.336 154.572 185.256 153.836 185.256C153.1 185.256 152.564 185.584 152.228 186.24C151.908 186.88 151.748 187.848 151.748 189.144C151.748 190.424 151.908 191.344 152.228 191.904C152.548 192.464 153.044 192.744 153.716 192.744ZM167.844 177.96C168.756 177.752 169.628 177.648 170.46 177.648C171.292 177.648 172.004 177.672 172.596 177.72V192.12C173.076 192.2 173.516 192.336 173.916 192.528V194.424C172.956 194.936 171.74 195.192 170.268 195.192C170.108 195.112 169.948 194.968 169.788 194.76C169.644 194.552 169.564 194.352 169.548 194.16C169.196 194.448 168.74 194.696 168.18 194.904C167.62 195.096 167.068 195.192 166.524 195.192C164.796 195.192 163.54 194.728 162.756 193.8C161.988 192.856 161.604 191.32 161.604 189.192C161.604 186.776 162.196 185.08 163.38 184.104C164.42 183.24 165.7 182.808 167.22 182.808C167.892 182.808 168.564 182.888 169.236 183.048V180.672C168.5 180.464 167.956 180.176 167.604 179.808L167.844 177.96ZM167.028 192.744C167.94 192.744 168.676 192.472 169.236 191.928V185.496C168.58 185.336 167.884 185.256 167.148 185.256C166.412 185.256 165.876 185.584 165.54 186.24C165.22 186.88 165.06 187.848 165.06 189.144C165.06 190.424 165.22 191.344 165.54 191.904C165.86 192.464 166.356 192.744 167.028 192.744ZM180.677 195.192C178.757 195.192 177.309 194.68 176.333 193.656C175.373 192.632 174.893 191.144 174.893 189.192C174.893 188.008 175.061 186.992 175.397 186.144C175.733 185.28 176.189 184.616 176.765 184.152C177.885 183.256 179.189 182.808 180.677 182.808C182.165 182.808 183.301 183.192 184.085 183.96C184.885 184.712 185.285 186.072 185.285 188.04C185.285 189.192 184.717 189.768 183.581 189.768H178.373C178.437 190.776 178.693 191.488 179.141 191.904C179.605 192.32 180.333 192.528 181.325 192.528C181.869 192.528 182.389 192.464 182.885 192.336C183.381 192.208 183.741 192.08 183.965 191.952L184.301 191.76L185.021 193.68C184.925 193.792 184.781 193.936 184.589 194.112C184.413 194.272 183.949 194.496 183.197 194.784C182.461 195.056 181.621 195.192 180.677 195.192ZM182.189 187.632C182.221 187.408 182.237 187.136 182.237 186.816C182.237 186.496 182.109 186.16 181.853 185.808C181.597 185.44 181.149 185.256 180.509 185.256C179.885 185.256 179.405 185.448 179.069 185.832C178.733 186.216 178.509 186.864 178.397 187.776L182.189 187.632ZM186.759 183C187.639 182.808 188.431 182.712 189.135 182.712C189.839 182.712 190.423 182.728 190.887 182.76V183.96C191.287 183.624 191.815 183.352 192.471 183.144C193.143 182.92 193.783 182.808 194.391 182.808C195.959 182.808 197.055 183.176 197.679 183.912C198.319 184.648 198.639 185.92 198.639 187.728V192.336C199.263 192.576 199.703 192.848 199.959 193.152L199.719 195H194.199L193.959 193.152C194.183 192.848 194.623 192.576 195.279 192.336V187.584C195.279 186.72 195.135 186.144 194.847 185.856C194.575 185.552 194.079 185.4 193.359 185.4C192.639 185.4 191.919 185.656 191.199 186.168V192.336C191.823 192.576 192.263 192.848 192.519 193.152L192.279 195H186.759L186.519 193.152C186.743 192.848 187.183 192.576 187.839 192.336V185.664C187.279 185.472 186.839 185.2 186.519 184.848L186.759 183ZM211.823 185.256C210.351 185.256 209.615 186.52 209.615 189.048C209.615 190.328 209.815 191.224 210.215 191.736C210.631 192.232 211.223 192.48 211.991 192.48C213.207 192.48 214.279 192.368 215.207 192.144L215.927 193.992C215.415 194.328 214.727 194.616 213.863 194.856C212.999 195.08 212.159 195.192 211.343 195.192C207.887 195.192 206.159 193.192 206.159 189.192C206.159 186.856 206.759 185.176 207.959 184.152C209.031 183.256 210.335 182.808 211.871 182.808C213.407 182.808 214.687 183.096 215.711 183.672C215.727 183.832 215.735 183.984 215.735 184.128C215.735 185.04 215.527 185.904 215.111 186.72H212.999C212.775 186.32 212.639 185.84 212.591 185.28C212.399 185.264 212.143 185.256 211.823 185.256ZM216.939 177.96C217.835 177.752 218.667 177.648 219.435 177.648C220.203 177.648 220.851 177.672 221.379 177.72V192.336C222.003 192.576 222.443 192.848 222.699 193.152L222.459 195H216.939L216.699 193.152C216.923 192.848 217.363 192.576 218.019 192.336V180.624C217.459 180.432 217.019 180.16 216.699 179.808L216.939 177.96ZM232.546 193.992C231.442 194.792 230.138 195.192 228.634 195.192C227.146 195.192 226.106 194.88 225.514 194.256C224.922 193.632 224.626 192.616 224.626 191.208V185.664C224.066 185.472 223.626 185.2 223.306 184.848L223.546 183C224.442 182.792 225.274 182.688 226.042 182.688C226.81 182.688 227.458 182.712 227.986 182.76V190.416C227.986 191.28 228.114 191.856 228.37 192.144C228.642 192.416 229.17 192.552 229.954 192.552C230.738 192.552 231.466 192.296 232.138 191.784V185.664C231.578 185.472 231.138 185.2 230.818 184.848L231.058 183C231.954 182.792 232.786 182.688 233.554 182.688C234.322 182.688 234.97 182.712 235.498 182.76V192.12C236.058 192.232 236.498 192.368 236.818 192.528V194.424C235.858 194.936 234.65 195.192 233.194 195.192C232.794 194.904 232.578 194.504 232.546 193.992ZM243.56 195.192C241.64 195.192 240.192 194.68 239.216 193.656C238.256 192.632 237.776 191.144 237.776 189.192C237.776 188.008 237.944 186.992 238.28 186.144C238.616 185.28 239.072 184.616 239.648 184.152C240.768 183.256 242.072 182.808 243.56 182.808C245.048 182.808 246.184 183.192 246.968 183.96C247.768 184.712 248.168 186.072 248.168 188.04C248.168 189.192 247.6 189.768 246.464 189.768H241.256C241.32 190.776 241.576 191.488 242.024 191.904C242.488 192.32 243.216 192.528 244.208 192.528C244.752 192.528 245.272 192.464 245.768 192.336C246.264 192.208 246.624 192.08 246.848 191.952L247.184 191.76L247.904 193.68C247.808 193.792 247.664 193.936 247.472 194.112C247.296 194.272 246.832 194.496 246.08 194.784C245.344 195.056 244.504 195.192 243.56 195.192ZM245.072 187.632C245.104 187.408 245.12 187.136 245.12 186.816C245.12 186.496 244.992 186.16 244.736 185.808C244.48 185.44 244.032 185.256 243.392 185.256C242.768 185.256 242.288 185.448 241.952 185.832C241.616 186.216 241.392 186.864 241.28 187.776L245.072 187.632ZM254.201 184.968C253.145 184.968 252.617 185.28 252.617 185.904C252.617 186.496 253.169 186.936 254.273 187.224L256.169 187.728C258.121 188.24 259.097 189.368 259.097 191.112C259.097 192.312 258.673 193.296 257.825 194.064C256.993 194.816 255.657 195.192 253.817 195.192C251.993 195.192 250.569 194.936 249.545 194.424C249.529 194.248 249.521 194.072 249.521 193.896C249.521 193.016 249.697 192.224 250.049 191.52H252.041C252.249 191.904 252.385 192.304 252.449 192.72C252.769 192.816 253.225 192.864 253.817 192.864C255.225 192.864 255.929 192.464 255.929 191.664C255.929 191.408 255.833 191.2 255.641 191.04C255.449 190.864 255.073 190.696 254.513 190.536L252.617 189.984C251.641 189.712 250.881 189.312 250.337 188.784C249.793 188.24 249.521 187.448 249.521 186.408C249.521 185.352 249.945 184.488 250.793 183.816C251.641 183.144 252.849 182.808 254.417 182.808C256.001 182.808 257.337 183.04 258.425 183.504C258.441 183.664 258.449 183.824 258.449 183.984C258.449 184.816 258.273 185.584 257.921 186.288H255.953C255.745 185.92 255.609 185.536 255.545 185.136C255.097 185.024 254.649 184.968 254.201 184.968ZM262.485 195.24C261.157 195.24 260.493 194.64 260.493 193.44C260.493 192.224 261.157 191.616 262.485 191.616C263.829 191.616 264.501 192.224 264.501 193.44C264.501 194.64 263.829 195.24 262.485 195.24ZM268.251 195.24C266.923 195.24 266.259 194.64 266.259 193.44C266.259 192.224 266.923 191.616 268.251 191.616C269.595 191.616 270.267 192.224 270.267 193.44C270.267 194.64 269.595 195.24 268.251 195.24ZM274.017 195.24C272.689 195.24 272.025 194.64 272.025 193.44C272.025 192.224 272.689 191.616 274.017 191.616C275.361 191.616 276.033 192.224 276.033 193.44C276.033 194.64 275.361 195.24 274.017 195.24Z" fill="#F9F5E7"/>
</svg>
