<svg width="401" height="305" viewBox="0 0 401 305" fill="none" xmlns="http://www.w3.org/2000/svg">
<mask id="path-1-inside-1" fill="white">
<path fill-rule="evenodd" clip-rule="evenodd" d="M42.9769 106.62C33.6381 102.476 29.4579 91.4763 33.6026 82.1375C37.7473 72.7986 48.7084 68.5194 58.0472 72.6641L58.5413 72.8834L65.4655 57.2818L60.8662 55.2406C55.8182 53.0002 53.5422 47.0918 55.7825 42.0437L62.3324 27.2858C62.6781 26.5068 63.1112 25.7938 63.6149 25.1533C63.752 24.3499 63.9902 23.5503 64.3359 22.7712L69.6638 10.7664C71.9042 5.71843 77.8126 3.44239 82.8606 5.68278L87.4795 7.73272C92.5276 9.9731 94.8036 15.8815 92.5632 20.9296L89.2883 28.3086L92.9522 29.9347L96.2271 22.5556C98.4675 17.5076 104.376 15.2316 109.424 17.472L114.043 19.5219C119.091 21.7623 121.367 27.6707 119.127 32.7187L115.852 40.0978L119.516 41.724L122.791 34.345C125.031 29.2969 130.939 27.0209 135.987 29.2613L140.606 31.3112C145.654 33.5516 147.93 39.46 145.69 44.5081L140.362 56.5128C140.016 57.2919 139.583 58.0049 139.079 58.6455C138.942 59.4488 138.704 60.2483 138.358 61.0273L131.809 75.7853C129.568 80.8333 123.66 83.1093 118.612 80.8689L117.676 80.4537L110.752 96.0553L265.737 164.84C264.297 156.862 265.158 148.352 268.712 140.346C278.047 119.311 302.429 109.722 323.17 118.927C343.911 128.132 353.157 152.646 343.822 173.681C343.754 173.834 343.685 173.986 343.615 174.138L343.618 174.139C364.359 183.344 373.605 207.858 364.27 228.893C354.935 249.927 330.553 259.516 309.812 250.311L309.809 250.31C300.325 271.025 276.147 280.409 255.557 271.271C234.816 262.066 225.57 237.552 234.905 216.517C238.283 208.907 243.631 202.794 250.063 198.528L42.9769 106.62ZM289.049 242.744C293.661 232.354 288.992 220.2 278.622 215.597C268.251 210.994 256.106 215.686 251.494 226.077C246.883 236.467 251.552 248.621 261.922 253.224C272.293 257.827 284.438 253.135 289.049 242.744ZM313.65 136.672C324.02 141.274 328.689 153.429 324.078 163.819C319.466 174.209 307.321 178.901 296.95 174.299C286.58 169.696 281.911 157.542 286.523 147.151C291.134 136.761 303.279 132.069 313.65 136.672ZM348.8 224.224C353.411 213.833 348.743 201.679 338.372 197.076C328.002 192.474 315.856 197.166 311.245 207.556C306.633 217.947 311.302 230.101 321.673 234.704C332.043 239.306 344.188 234.614 348.8 224.224Z"/>
</mask>
<path fill-rule="evenodd" clip-rule="evenodd" d="M42.9769 106.62C33.6381 102.476 29.4579 91.4763 33.6026 82.1375C37.7473 72.7986 48.7084 68.5194 58.0472 72.6641L58.5413 72.8834L65.4655 57.2818L60.8662 55.2406C55.8182 53.0002 53.5422 47.0918 55.7825 42.0437L62.3324 27.2858C62.6781 26.5068 63.1112 25.7938 63.6149 25.1533C63.752 24.3499 63.9902 23.5503 64.3359 22.7712L69.6638 10.7664C71.9042 5.71843 77.8126 3.44239 82.8606 5.68278L87.4795 7.73272C92.5276 9.9731 94.8036 15.8815 92.5632 20.9296L89.2883 28.3086L92.9522 29.9347L96.2271 22.5556C98.4675 17.5076 104.376 15.2316 109.424 17.472L114.043 19.5219C119.091 21.7623 121.367 27.6707 119.127 32.7187L115.852 40.0978L119.516 41.724L122.791 34.345C125.031 29.2969 130.939 27.0209 135.987 29.2613L140.606 31.3112C145.654 33.5516 147.93 39.46 145.69 44.5081L140.362 56.5128C140.016 57.2919 139.583 58.0049 139.079 58.6455C138.942 59.4488 138.704 60.2483 138.358 61.0273L131.809 75.7853C129.568 80.8333 123.66 83.1093 118.612 80.8689L117.676 80.4537L110.752 96.0553L265.737 164.84C264.297 156.862 265.158 148.352 268.712 140.346C278.047 119.311 302.429 109.722 323.17 118.927C343.911 128.132 353.157 152.646 343.822 173.681C343.754 173.834 343.685 173.986 343.615 174.138L343.618 174.139C364.359 183.344 373.605 207.858 364.27 228.893C354.935 249.927 330.553 259.516 309.812 250.311L309.809 250.31C300.325 271.025 276.147 280.409 255.557 271.271C234.816 262.066 225.57 237.552 234.905 216.517C238.283 208.907 243.631 202.794 250.063 198.528L42.9769 106.62ZM289.049 242.744C293.661 232.354 288.992 220.2 278.622 215.597C268.251 210.994 256.106 215.686 251.494 226.077C246.883 236.467 251.552 248.621 261.922 253.224C272.293 257.827 284.438 253.135 289.049 242.744ZM313.65 136.672C324.02 141.274 328.689 153.429 324.078 163.819C319.466 174.209 307.321 178.901 296.95 174.299C286.58 169.696 281.911 157.542 286.523 147.151C291.134 136.761 303.279 132.069 313.65 136.672ZM348.8 224.224C353.411 213.833 348.743 201.679 338.372 197.076C328.002 192.474 315.856 197.166 311.245 207.556C306.633 217.947 311.302 230.101 321.673 234.704C332.043 239.306 344.188 234.614 348.8 224.224Z" fill="#FFE289"/>
<path d="M42.9769 106.62L41.7599 109.362L42.9769 106.62ZM58.5413 72.8834L57.3243 75.6254L60.0664 76.8424L61.2834 74.1003L58.5413 72.8834ZM65.4655 57.2818L68.2076 58.4988L69.4246 55.7567L66.6825 54.5397L65.4655 57.2818ZM60.8662 55.2406L62.0832 52.4985L60.8662 55.2406ZM63.6149 25.1533L65.973 27.0078L66.4441 26.4088L66.5722 25.6576L63.6149 25.1533ZM82.8606 5.68278L84.0776 2.94071L82.8606 5.68278ZM87.4795 7.73272L86.2626 10.4748L87.4795 7.73272ZM89.2883 28.3086L86.5462 27.0917L85.3292 29.8337L88.0713 31.0507L89.2883 28.3086ZM92.9522 29.9347L91.7352 32.6768L94.4773 33.8938L95.6943 31.1517L92.9522 29.9347ZM115.852 40.0978L113.11 38.8809L111.893 41.6229L114.635 42.8399L115.852 40.0978ZM119.516 41.724L118.299 44.4661L121.041 45.683L122.258 42.941L119.516 41.724ZM122.791 34.345L125.533 35.5619L122.791 34.345ZM139.079 58.6455L136.721 56.7909L136.25 57.3898L136.122 58.141L139.079 58.6455ZM117.676 80.4537L118.893 77.7116L116.151 76.4946L114.934 79.2367L117.676 80.4537ZM110.752 96.0553L108.01 94.8383L106.793 97.5803L109.535 98.7973L110.752 96.0553ZM265.737 164.84L264.52 167.582L269.695 169.879L268.689 164.307L265.737 164.84ZM343.615 174.138L340.888 172.889L339.624 175.649L342.398 176.88L343.615 174.138ZM309.809 250.31L311.026 247.568L308.316 246.365L307.081 249.061L309.809 250.31ZM250.063 198.528L251.721 201.028L256.28 198.005L251.28 195.786L250.063 198.528ZM30.8605 80.9205C26.0501 91.7593 30.8922 104.539 41.7599 109.362L44.1939 103.878C36.3839 100.412 32.8656 91.1934 36.3447 83.3545L30.8605 80.9205ZM59.2642 69.922C48.3965 65.0988 35.6709 70.0817 30.8605 80.9205L36.3447 83.3545C39.8237 75.5156 49.0202 71.94 56.8302 75.4062L59.2642 69.922ZM59.7583 70.1413L59.2642 69.922L56.8302 75.4062L57.3243 75.6254L59.7583 70.1413ZM62.7234 56.0648L55.7992 71.6664L61.2834 74.1003L68.2076 58.4988L62.7234 56.0648ZM59.6492 57.9827L64.2485 60.0239L66.6825 54.5397L62.0832 52.4985L59.6492 57.9827ZM53.0405 40.8268C50.128 47.3892 53.0868 55.0701 59.6492 57.9827L62.0832 52.4985C58.5496 50.9302 56.9563 46.7943 58.5246 43.2607L53.0405 40.8268ZM59.5903 26.0688L53.0405 40.8268L58.5246 43.2607L65.0744 28.5028L59.5903 26.0688ZM61.2569 23.2987C60.6004 24.1334 60.0379 25.0603 59.5903 26.0688L65.0744 28.5028C65.3183 27.9533 65.6219 27.4543 65.973 27.0078L61.2569 23.2987ZM61.5939 21.5542C61.1462 22.5628 60.8362 23.602 60.6576 24.6489L66.5722 25.6576C66.6677 25.0978 66.8341 24.5377 67.078 23.9882L61.5939 21.5542ZM66.9217 9.54947L61.5939 21.5542L67.078 23.9882L72.4059 11.9834L66.9217 9.54947ZM84.0776 2.94071C77.5152 0.0281993 69.8342 2.98704 66.9217 9.54947L72.4059 11.9834C73.9742 8.44982 78.1101 6.85658 81.6437 8.42485L84.0776 2.94071ZM88.6965 4.99064L84.0776 2.94071L81.6437 8.42485L86.2626 10.4748L88.6965 4.99064ZM95.3053 22.1465C98.2178 15.5841 95.2589 7.90315 88.6965 4.99064L86.2626 10.4748C89.7962 12.0431 91.3894 16.179 89.8211 19.7126L95.3053 22.1465ZM92.0303 29.5256L95.3053 22.1465L89.8211 19.7126L86.5462 27.0917L92.0303 29.5256ZM94.1692 27.1927L90.5052 25.5666L88.0713 31.0507L91.7352 32.6768L94.1692 27.1927ZM93.4851 21.3387L90.2101 28.7178L95.6943 31.1517L98.9692 23.7726L93.4851 21.3387ZM110.641 14.7299C104.079 11.8174 96.3976 14.7762 93.4851 21.3387L98.9692 23.7726C100.537 20.239 104.673 18.6458 108.207 20.214L110.641 14.7299ZM115.26 16.7798L110.641 14.7299L108.207 20.214L112.826 22.264L115.26 16.7798ZM121.869 33.9357C124.781 27.3733 121.822 19.6923 115.26 16.7798L112.826 22.264C116.36 23.8322 117.953 27.9681 116.384 31.5018L121.869 33.9357ZM118.594 41.3148L121.869 33.9357L116.384 31.5018L113.11 38.8809L118.594 41.3148ZM120.733 38.9819L117.069 37.3558L114.635 42.8399L118.299 44.4661L120.733 38.9819ZM120.048 33.128L116.774 40.507L122.258 42.941L125.533 35.5619L120.048 33.128ZM137.204 26.5192C130.642 23.6067 122.961 26.5656 120.048 33.128L125.533 35.5619C127.101 32.0283 131.237 30.4351 134.77 32.0034L137.204 26.5192ZM141.823 28.5692L137.204 26.5192L134.77 32.0034L139.389 34.0533L141.823 28.5692ZM148.432 45.725C151.344 39.1626 148.386 31.4817 141.823 28.5692L139.389 34.0533C142.923 35.6216 144.516 39.7575 142.948 43.2911L148.432 45.725ZM143.104 57.7298L148.432 45.725L142.948 43.2911L137.62 55.2958L143.104 57.7298ZM141.437 60.5001C142.094 59.6654 142.656 58.7384 143.104 57.7298L137.62 55.2958C137.376 55.8453 137.072 56.3444 136.721 56.7909L141.437 60.5001ZM141.1 62.2443C141.548 61.2358 141.858 60.1968 142.037 59.15L136.122 58.141C136.027 58.7009 135.86 59.2609 135.616 59.8103L141.1 62.2443ZM134.551 77.0022L141.1 62.2443L135.616 59.8103L129.066 74.5683L134.551 77.0022ZM117.395 83.611C123.957 86.5235 131.638 83.5647 134.551 77.0022L129.066 74.5683C127.498 78.1019 123.362 79.6951 119.829 78.1269L117.395 83.611ZM116.459 83.1958L117.395 83.611L119.829 78.1269L118.893 77.7116L116.459 83.1958ZM113.494 97.2722L120.418 81.6707L114.934 79.2367L108.01 94.8383L113.494 97.2722ZM266.954 162.098L111.969 93.3132L109.535 98.7973L264.52 167.582L266.954 162.098ZM265.97 139.129C262.166 147.698 261.241 156.819 262.785 165.373L268.689 164.307C267.353 156.904 268.151 149.005 271.454 141.562L265.97 139.129ZM324.387 116.185C302.095 106.292 275.961 116.616 265.97 139.129L271.454 141.562C280.133 122.006 302.762 113.152 321.953 121.669L324.387 116.185ZM346.564 174.897C356.555 152.385 346.678 126.078 324.387 116.185L321.953 121.669C341.143 130.186 349.759 152.907 341.08 172.464L346.564 174.897ZM346.343 175.387C346.418 175.224 346.491 175.061 346.564 174.897L341.08 172.464C341.016 172.606 340.952 172.748 340.888 172.889L346.343 175.387ZM344.835 171.397L344.832 171.396L342.398 176.88L342.401 176.881L344.835 171.397ZM367.012 230.11C377.003 207.597 367.127 181.29 344.835 171.397L342.401 176.881C361.592 185.398 370.207 208.119 361.528 227.676L367.012 230.11ZM308.595 253.053C330.886 262.947 357.021 252.622 367.012 230.11L361.528 227.676C352.848 247.232 330.219 256.086 311.029 247.569L308.595 253.053ZM308.592 253.052L308.595 253.053L311.029 247.569L311.026 247.568L308.592 253.052ZM254.34 274.013C276.47 283.834 302.386 273.731 312.537 251.559L307.081 249.061C298.264 268.32 275.825 276.984 256.774 268.529L254.34 274.013ZM232.163 215.3C222.172 237.813 232.049 264.119 254.34 274.013L256.774 268.529C237.584 260.012 228.968 237.291 237.648 217.734L232.163 215.3ZM248.405 196.028C241.509 200.602 235.779 207.154 232.163 215.3L237.648 217.734C240.788 210.659 245.753 204.987 251.721 201.028L248.405 196.028ZM41.7599 109.362L248.846 201.27L251.28 195.786L44.1939 103.878L41.7599 109.362ZM277.405 218.339C286.256 222.267 290.249 232.646 286.307 241.527L291.792 243.961C297.073 232.061 291.729 218.132 279.839 212.855L277.405 218.339ZM254.236 227.294C258.178 218.413 268.554 214.411 277.405 218.339L279.839 212.855C267.949 207.578 254.034 212.96 248.752 224.86L254.236 227.294ZM263.139 250.482C254.288 246.554 250.295 236.175 254.236 227.294L248.752 224.86C243.471 236.76 248.815 250.689 260.705 255.966L263.139 250.482ZM286.307 241.527C282.366 250.408 271.99 254.41 263.139 250.482L260.705 255.966C272.595 261.243 286.51 255.861 291.792 243.961L286.307 241.527ZM326.82 165.036C332.101 153.136 326.757 139.207 314.867 133.93L312.433 139.414C321.284 143.342 325.277 153.721 321.335 162.602L326.82 165.036ZM295.733 177.041C307.623 182.318 321.538 176.936 326.82 165.036L321.335 162.602C317.394 171.483 307.018 175.485 298.167 171.557L295.733 177.041ZM283.78 145.935C278.499 157.834 283.843 171.764 295.733 177.041L298.167 171.557C289.316 167.628 285.323 157.249 289.265 148.368L283.78 145.935ZM314.867 133.93C302.977 128.653 289.062 134.035 283.78 145.935L289.265 148.368C293.206 139.487 303.582 135.485 312.433 139.414L314.867 133.93ZM337.155 199.819C346.006 203.747 349.999 214.126 346.058 223.007L351.542 225.441C356.823 213.541 351.479 199.611 339.589 194.334L337.155 199.819ZM313.987 208.773C317.928 199.892 328.304 195.89 337.155 199.819L339.589 194.334C327.699 189.057 313.784 194.439 308.503 206.339L313.987 208.773ZM322.89 231.961C314.038 228.033 310.045 217.654 313.987 208.773L308.503 206.339C303.221 218.239 308.566 232.169 320.456 237.446L322.89 231.961ZM346.058 223.007C342.116 231.888 331.741 235.89 322.89 231.961L320.456 237.446C332.346 242.723 346.261 237.341 351.542 225.441L346.058 223.007Z" fill="#FF893A" mask="url(#path-1-inside-1)"/>
</svg>
