<svg width="255" height="295" viewBox="0 0 255 295" fill="none" xmlns="http://www.w3.org/2000/svg">
<path d="M110.11 175.004L57.6025 210.152L200.453 308.564L253.733 257.015L110.11 175.004Z" fill="#4E3930" stroke="black"/>
<path d="M71.2954 78.1263V80.5616H77.2954V78.1263H71.2954ZM71.2954 82.5099V87.3807H77.2954V82.5099H71.2954ZM71.2954 89.329V94.1998H77.2954V89.329H71.2954ZM71.2954 96.1481V101.019H77.2954V96.1481H71.2954ZM71.2954 102.967V107.838H77.2954V102.967H71.2954ZM71.2954 109.786V114.657H77.2954V109.786H71.2954ZM71.2954 116.605V121.476H77.2954V116.605H71.2954ZM71.2954 123.424V128.295H77.2954V123.424H71.2954ZM71.2954 130.244V132.679H77.2954V130.244H71.2954Z" fill="#F1A000"/>
<rect x="140.52" y="60.7555" width="29.2542" height="177.707" fill="#8AC3B0" stroke="black"/>
<path d="M117.736 225.076L172.804 259.119L172.515 251.599L117.501 218.966L117.718 224.606L117.736 225.076Z" fill="#4E3930"/>
<path d="M172.804 259.119L192.683 246.733L192.358 238.273L172.515 251.599L172.804 259.119Z" fill="#4E3930"/>
<path d="M172.515 251.599L192.358 238.273L170.011 227.208L170.319 235.198C166.966 237.25 138.44 237.432 140.583 222.01L140.258 213.55L131.233 209.597L118.004 218.48L117.501 218.966L172.515 251.599Z" fill="#4E3930"/>
<path d="M172.804 259.119L117.736 225.076L117.718 224.606L117.501 218.966M172.804 259.119L192.683 246.733L192.358 238.273M172.804 259.119L172.515 251.599M192.358 238.273L172.515 251.599M192.358 238.273L170.011 227.208L170.319 235.198C166.966 237.25 138.44 237.432 140.583 222.01L140.258 213.55L131.233 209.597L118.004 218.48L117.501 218.966M172.515 251.599L117.501 218.966" stroke="black"/>
<path d="M65.4283 1C43.5202 15.7355 0.0167386 51.6964 1.26864 77.6559H150.453H190.618H217.221V1H65.4283Z" fill="#7EAA77" fill-opacity="0.9" stroke="black"/>
<rect x="60.7329" y="18.8707" width="169.006" height="42.3254" rx="21.1627" fill="url(#paint0_radial)"/>
<defs>
<radialGradient id="paint0_radial" cx="0" cy="0" r="1" gradientUnits="userSpaceOnUse" gradientTransform="translate(145.236 40.5037) rotate(93.341) scale(35.8023 142.868)">
<stop stop-color="#FBD266"/>
<stop offset="1" stop-color="#FBD266" stop-opacity="0"/>
</radialGradient>
</defs>
</svg>
