<svg width="569" height="308" viewBox="0 0 569 308" fill="none" xmlns="http://www.w3.org/2000/svg">
<path d="M69 2.12997C130.137 -1.9563 327.176 91.0307 260.563 179.63C258.05 182.971 255.163 186.306 251.879 189.63C249.899 191.635 247.774 193.635 245.5 195.63C176.7 259.63 99.1667 93.2966 69 2.12997Z" fill="#7EAA77"/>
<path d="M286 202.13L260.563 179.63C258.05 182.971 255.163 186.306 251.879 189.63L275.5 213.13L286 202.13Z" fill="#7EAA77"/>
<path d="M260.563 179.63C327.176 91.0307 130.137 -1.9563 69 2.12997C99.1667 93.2966 176.7 259.63 245.5 195.63C247.774 193.635 249.899 191.635 251.879 189.63M260.563 179.63L286 202.13L275.5 213.13L251.879 189.63M260.563 179.63C258.05 182.971 255.163 186.306 251.879 189.63" stroke="#F1A000" stroke-width="3"/>
<path d="M348.078 12.0447C375.064 55.3905 395.087 231.61 312.612 213.328C309.501 212.639 306.245 211.673 302.838 210.412C300.783 209.652 298.673 208.785 296.507 207.807C228.673 179.463 302.623 65.4888 348.078 12.0447Z" fill="#7EAA77"/>
<path d="M308.577 239.689L312.612 213.328C309.501 212.639 306.245 211.673 302.838 210.412L297.447 235.787L308.577 239.689Z" fill="#7EAA77"/>
<path d="M312.612 213.328C395.087 231.61 375.064 55.3905 348.078 12.0447C302.623 65.4888 228.673 179.463 296.507 207.807C298.673 208.785 300.783 209.652 302.838 210.412M312.612 213.328L308.577 239.689L297.447 235.787L302.838 210.412M312.612 213.328C309.501 212.639 306.245 211.673 302.838 210.412" stroke="#F1A000" stroke-width="3"/>
<path d="M470.629 41.3028C471.564 78.269 415.288 195.244 367.271 153.25C365.46 151.666 363.661 149.856 361.877 147.808C360.801 146.572 359.73 145.249 358.666 143.837C324.436 101.025 419.045 57.6427 470.629 41.3028Z" fill="#7EAA77"/>
<path d="M354.144 168.137L367.271 153.25C365.46 151.666 363.661 149.856 361.877 147.808L348.231 161.578L354.144 168.137Z" fill="#7EAA77"/>
<path d="M367.271 153.25C415.288 195.244 471.564 78.269 470.629 41.3028C419.045 57.6427 324.436 101.025 358.666 143.837C359.73 145.249 360.801 146.572 361.877 147.808M367.271 153.25L354.144 168.137L348.231 161.578L361.877 147.808M367.271 153.25C365.46 151.666 363.661 149.856 361.877 147.808" stroke="#F1A000" stroke-width="3"/>
<path d="M150 159.055C191.415 157.314 324.894 196.952 279.768 234.72C278.066 236.144 276.11 237.566 273.886 238.982C272.544 239.837 271.105 240.69 269.565 241.54C222.958 268.822 170.435 197.918 150 159.055Z" fill="#7EAA77"/>
<path d="M297 244.311L279.768 234.72C278.066 236.144 276.11 237.566 273.886 238.982L289.887 249L297 244.311Z" fill="#7EAA77"/>
<path d="M279.768 234.72C324.894 196.952 191.415 157.314 150 159.055C170.435 197.918 222.958 268.822 269.565 241.54C271.105 240.69 272.544 239.837 273.886 238.982M279.768 234.72L297 244.311L289.887 249L273.886 238.982M279.768 234.72C278.066 236.144 276.11 237.566 273.886 238.982" stroke="#F1A000" stroke-width="3"/>
<path d="M274.062 157.247C325.911 124.595 543.468 112.763 526.966 222.376C526.344 226.51 525.389 230.816 524.079 235.301C523.289 238.006 522.37 240.776 521.318 243.612C491.202 332.62 343.932 223.122 274.062 157.247Z" fill="#7EAA77"/>
<path d="M560.041 230.083L526.966 222.376C526.344 226.51 525.389 230.816 524.079 235.301L556.03 244.751L560.041 230.083Z" fill="#7EAA77"/>
<path d="M526.966 222.376C543.468 112.763 325.911 124.595 274.062 157.247C343.932 223.122 491.202 332.62 521.318 243.612C522.37 240.776 523.289 238.006 524.079 235.301M526.966 222.376L560.041 230.083L556.03 244.751L524.079 235.301M526.966 222.376C526.344 226.51 525.389 230.816 524.079 235.301" stroke="#F1A000" stroke-width="3"/>
<path d="M191 258.964C163.953 260.087 76.7837 234.542 106.253 210.203C107.365 209.285 108.642 208.369 110.095 207.456C110.971 206.905 111.911 206.355 112.917 205.807C143.354 188.226 177.654 233.92 191 258.964Z" fill="#7EAA77"/>
<path d="M95 204.022L106.253 210.203C107.365 209.285 108.642 208.369 110.095 207.456L99.6452 201L95 204.022Z" fill="#7EAA77"/>
<path d="M106.253 210.203C76.7837 234.542 163.953 260.087 191 258.964C177.654 233.92 143.354 188.226 112.917 205.807C111.911 206.355 110.971 206.905 110.095 207.456M106.253 210.203L95 204.022L99.6452 201L110.095 207.456M106.253 210.203C107.365 209.285 108.642 208.369 110.095 207.456" stroke="#F1A000" stroke-width="3"/>
<path d="M136.682 69.0045C141.226 104.84 101.695 224.039 53.8003 187.927C51.994 186.565 50.1758 184.983 48.3477 183.166C47.2449 182.071 46.1386 180.89 45.029 179.621C9.60026 141.365 91.3693 89.9367 136.682 69.0045Z" fill="#7EAA77"/>
<path d="M43.3405 203.682L53.8003 187.927C51.994 186.565 50.1758 184.983 48.3477 183.166L37.3045 197.886L43.3405 203.682Z" fill="#7EAA77"/>
<path d="M53.8003 187.927C101.695 224.039 141.226 104.84 136.682 69.0045C91.3693 89.9367 9.60026 141.365 45.029 179.621C46.1386 180.89 47.2449 182.071 48.3477 183.166M53.8003 187.927L43.3405 203.682L37.3045 197.886L48.3477 183.166M53.8003 187.927C51.994 186.565 50.1758 184.983 48.3477 183.166" stroke="#F1A000" stroke-width="3"/>
<path d="M296.08 293.223C299.952 252.759 377.481 132.697 424.823 184.992C426.609 186.965 428.351 189.182 430.045 191.658C431.067 193.151 432.071 194.739 433.057 196.424C465.098 247.753 355.089 282.344 296.08 293.223Z" fill="#7EAA77"/>
<path d="M441.263 170.516L424.823 184.992C426.609 186.965 428.351 189.182 430.045 191.658L446.909 178.47L441.263 170.516Z" fill="#7EAA77"/>
<path d="M424.823 184.992C377.481 132.697 299.952 252.759 296.08 293.223C355.089 282.344 465.098 247.753 433.057 196.424C432.071 194.739 431.067 193.151 430.045 191.658M424.823 184.992L441.263 170.516L446.909 178.47L430.045 191.658M424.823 184.992C426.609 186.965 428.351 189.182 430.045 191.658" stroke="#F1A000" stroke-width="3"/>
<path d="M394.68 220.602C395.071 221.025 391.708 224.528 384.59 231.113C381.583 233.894 379.774 235.59 379.161 236.2L379.813 236.905C380.117 237.234 380.356 237.492 380.53 237.68C380.681 237.89 380.897 238.147 381.18 238.453C381.417 238.756 381.599 239.024 381.726 239.255C381.831 239.463 381.935 239.693 382.039 239.947C382.224 240.429 382.14 240.834 381.788 241.16C381.341 241.572 380.444 241.051 379.097 239.594C378.51 238.96 378.001 238.363 377.57 237.803C377.079 238.214 376.469 238.756 375.741 239.43C374.967 240.102 374.37 240.611 373.949 240.956C373.505 241.324 372.978 241.768 372.369 242.288C371.738 242.784 371.226 243.149 370.832 243.383C370.416 243.593 369.943 243.812 369.413 244.041C368.86 244.291 368.369 244.397 367.941 244.357C367.512 244.318 367.051 244.243 366.557 244.134C365.657 243.963 364.632 243.255 363.48 242.01C362.307 240.741 361.766 239.52 361.857 238.346C361.902 237.17 362.448 235.663 363.493 233.824C364.242 233.785 364.834 234.001 365.268 234.471C365.42 234.635 365.549 234.821 365.654 235.029C364.918 236.495 364.513 237.589 364.439 238.311C364.344 239.009 364.568 239.652 365.112 240.239C365.655 240.826 366.174 241.175 366.667 241.285C367.14 241.371 367.616 241.344 368.097 241.204C369.128 240.905 370.994 239.505 373.695 237.006C373.813 236.898 374.024 236.702 374.329 236.42C374.635 236.137 374.917 235.876 375.175 235.637L372.123 232.903C371.036 231.729 370.763 230.892 371.303 230.392C371.655 230.066 372.151 230.13 372.79 230.585C373.429 231.041 374.162 231.692 374.99 232.539C375.796 233.363 376.409 233.885 376.831 234.105C377.532 233.544 378.423 232.763 379.504 231.764C380.561 230.786 382.198 229.163 384.415 226.894C386.608 224.647 388.315 222.958 389.537 221.828C390.758 220.698 391.747 220.023 392.503 219.804C393.237 219.561 393.962 219.827 394.68 220.602Z" fill="black"/>
<path d="M114.486 45.148L113.972 39.6468C113.592 36.8887 113.02 35.0778 112.255 34.214C111.788 33.6323 111.221 33.3872 110.555 33.4788C110.365 33.505 110.102 33.5896 109.767 33.7327C109.127 34.0145 108.559 33.9957 108.063 33.6763C108.132 32.5362 109.166 31.8288 111.163 31.5541C112.526 31.3666 113.508 31.8129 114.109 32.8931C114.575 33.7011 114.975 34.7282 115.308 35.9744C115.645 37.2524 115.894 38.1226 116.055 38.585C117.574 34.3706 119.242 31.7024 121.058 30.5804C121.98 30.0014 123.091 29.6225 124.391 29.4437C125.69 29.2649 126.79 29.7436 127.689 30.8796C128.561 32.0517 129.163 33.8425 129.494 36.2518C129.825 38.6611 129.776 41.2359 129.345 43.9761C128.919 46.748 128.069 49.1422 126.796 51.1585C125.528 53.2065 123.99 54.3548 122.183 54.6033C119.583 54.9609 117.707 54.1208 116.555 52.0828C115.573 50.3444 114.883 48.0328 114.486 45.148ZM126.346 45.067C126.554 43.2941 126.663 41.6157 126.671 40.0318C126.683 38.4796 126.607 37.1011 126.441 35.8965C126.28 34.7235 125.902 33.7418 125.309 32.9513C124.684 32.1651 123.975 31.8265 123.183 31.9356C121.471 32.171 120.045 34.0146 118.905 37.4662C117.764 40.9178 117.386 44.0384 117.77 46.8282C118.019 48.6351 118.699 50.0597 119.811 51.1018C120.55 51.7754 121.443 52.0403 122.489 51.8964C123.503 51.7568 124.355 51.0259 125.046 49.7035C125.709 48.4171 126.142 46.8716 126.346 45.067Z" fill="black"/>
<path d="M442.223 85.3839C441.919 85.4656 441.65 85.4345 441.415 85.2904C440.974 85.021 440.791 84.5852 440.864 83.9828C440.937 83.3804 441.16 82.7289 441.533 82.0284C441.915 81.334 442.308 80.646 442.711 79.9642C443.115 79.2824 443.409 78.6747 443.595 78.1413C443.791 77.6141 443.756 77.269 443.49 77.1062C443.132 76.8869 442.627 77.0214 441.977 77.5097C441.336 78.0042 440.724 78.6141 440.139 79.3396C438.506 81.3648 437.475 82.4291 437.046 82.5323C436.805 82.5117 436.618 82.4607 436.485 82.3792C436.352 82.2978 436.249 82.2135 436.176 82.1265C436.537 81.0533 437.392 79.3464 438.74 77.0059C439.421 75.847 439.854 75.0924 440.041 74.7421C440.343 74.7303 440.571 74.7714 440.725 74.8654C440.878 74.9593 440.992 75.0499 441.065 75.137C440.847 75.6084 440.321 76.5248 439.488 77.8861C438.665 79.2536 438.196 80.0429 438.081 80.2539C438.264 80.0703 438.539 79.7598 438.905 79.3226C439.281 78.8917 439.594 78.5415 439.843 78.272C440.099 77.9923 440.421 77.6833 440.811 77.3451C441.201 77.0069 441.553 76.765 441.867 76.6196C442.188 76.464 442.544 76.3868 442.937 76.3882C443.337 76.3794 443.715 76.4846 444.074 76.7038C444.555 76.9982 444.768 77.4312 444.714 78.0029C444.676 78.5706 444.47 79.1831 444.096 79.8405C443.721 80.4978 443.331 81.1592 442.924 81.8245C442.527 82.496 442.236 83.1551 442.051 83.8018C441.877 84.4547 441.934 84.9821 442.223 85.3839Z" fill="black"/>
<path d="M512.879 226.487C513.06 228.152 512.674 229.546 511.721 230.668C509.939 232.765 507.492 233.373 504.378 232.492C501.264 231.61 498.014 229.9 494.629 227.36C491.285 224.772 487.983 222.135 484.722 219.449C481.462 216.764 478.502 214.712 475.844 213.294C473.227 211.827 471.38 211.727 470.303 212.996C468.853 214.703 469.146 217.471 471.184 221.301C473.262 225.082 475.973 228.812 479.314 232.49C488.641 242.763 493.401 249.073 493.592 251.419C493.285 252.669 492.862 253.612 492.324 254.246C491.785 254.88 491.256 255.355 490.737 255.669C485.379 252.882 477.088 246.973 465.864 237.944C460.318 233.401 456.699 230.495 455.007 229.225C455.194 227.621 455.598 226.452 456.22 225.721C456.841 224.989 457.411 224.466 457.931 224.151C460.235 225.689 464.631 229.213 471.119 234.724C477.648 240.185 481.421 243.306 482.438 244.086C481.621 242.972 480.211 241.271 478.208 238.982C476.247 236.644 474.659 234.708 473.444 233.172C472.181 231.595 470.818 229.64 469.357 227.307C467.896 224.974 466.911 222.92 466.404 221.146C465.847 219.329 465.734 217.386 466.065 215.316C466.347 213.204 467.213 211.295 468.663 209.588C470.611 207.295 473.068 206.527 476.036 207.285C478.996 207.952 482.054 209.542 485.21 212.054C488.366 214.567 491.529 217.17 494.7 219.863C497.912 222.507 501.145 224.582 504.401 226.088C507.698 227.545 510.524 227.678 512.879 226.487Z" fill="black"/>
<path d="M348.317 48.3668C347.082 50.2 345.763 52.2629 344.36 54.5557C342.957 56.8484 341.627 59.2982 340.369 61.905C338.421 62.5136 336.464 62.2165 334.499 61.0138C332.042 59.5105 332.017 56.7936 334.422 52.8632C334.523 52.6994 334.898 52.0853 335.55 51.0208C336.201 49.9564 336.778 49.0147 337.279 48.1959C337.912 47.3453 338.702 46.422 339.649 45.4259C341.425 43.8115 343.296 43.6057 345.261 44.8084C347.226 46.011 348.245 47.1972 348.317 48.3668ZM303.624 103.74C313.446 87.691 319.927 78.9393 323.068 77.4851C324.192 76.9351 325.164 76.9107 325.983 77.4118C326.802 77.913 327.877 79.1902 329.209 81.2434C324.54 87.9529 319.7 95.4018 314.689 103.59C314.689 103.59 309.234 112.688 298.323 130.885C296.769 133.423 295.094 134.874 293.296 135.237C291.63 135.568 290.306 135.433 289.323 134.831C288.423 134.28 287.631 133.458 286.949 132.365C293.054 121.47 298.613 111.928 303.624 103.74Z" fill="black"/>
<path d="M45.5011 152.17C45.0405 151.888 44.7972 151.585 44.7713 151.259C44.8715 151.095 45.0163 151.008 45.2058 150.998C45.4054 150.993 45.5934 151.031 45.7697 151.111C45.9523 151.18 46.2341 151.317 46.6151 151.522C46.8149 151.265 47.0463 150.921 47.3094 150.491C47.589 150.057 47.8279 149.69 48.026 149.389C48.5516 148.599 48.9782 148.178 49.3059 148.125C49.4482 148.1 49.5704 148.119 49.6728 148.181C49.7854 148.25 49.8764 148.32 49.9457 148.39C49.5254 149.146 49.2683 149.601 49.1743 149.754L47.6728 152.001C47.687 152.024 47.7402 152.063 47.8323 152.12L48.9659 152.75C49.7643 153.239 50.0883 153.606 49.9379 153.851C49.725 154.199 49.4564 154.316 49.1322 154.202C48.9804 154.152 48.8123 154.07 48.6281 153.957C48.4541 153.851 48.2363 153.689 47.9748 153.473C47.7298 153.253 47.5458 153.105 47.423 153.03C47.3002 152.955 47.2152 152.91 47.168 152.895C46.9556 153.173 46.7586 153.46 46.5769 153.757C46.4015 154.044 46.1843 154.41 45.9252 154.857C45.6826 155.299 45.4072 155.841 45.099 156.482C44.8011 157.13 44.63 157.743 44.5859 158.321C44.5479 158.889 44.703 159.279 45.051 159.492C45.225 159.598 45.4704 159.657 45.7873 159.668C46.1104 159.669 46.3333 159.707 46.4562 159.782C46.5892 159.863 46.683 159.963 46.7376 160.081C46.8086 160.195 46.8222 160.287 46.7783 160.359C46.6468 160.574 46.2983 160.649 45.7329 160.584C45.184 160.516 44.756 160.388 44.449 160.2C43.3231 159.511 43.2734 158.017 44.3 155.719C44.5939 155.055 45.1777 153.963 46.0513 152.444C45.8687 152.374 45.6853 152.283 45.5011 152.17Z" fill="black"/>
<path d="M222.84 210.149C224.524 213.274 227.948 216.56 233.112 220.006C240.883 225.194 248.062 227.869 254.647 228.033C258.499 228.141 261.206 227.025 262.77 224.682C264.369 222.287 264.397 219.536 262.854 216.428C260.904 212.664 257.214 208.97 251.784 205.346C244.971 200.798 239.301 198.399 234.775 198.148C232.662 197.969 231.207 197.728 230.408 197.426C229.645 197.071 229.264 196.547 229.264 195.855C229.265 195.162 229.638 194.257 230.384 193.139C232.552 189.892 237.326 190.002 244.709 193.467C246.785 194.391 248.755 195.475 250.618 196.719C255.462 199.952 259.666 204.143 263.231 209.293C268.073 216.449 268.54 222.955 264.631 228.81C262.571 231.898 259.667 233.769 255.922 234.423C248.821 235.609 240.879 233.27 232.096 227.408C228.263 224.849 225.513 222.629 223.845 220.747C222.178 218.864 221.176 217.541 220.839 216.778C220.449 215.979 220.165 215.135 219.988 214.248C219.811 213.36 219.989 212.632 220.522 212.065C221.09 211.444 221.863 210.805 222.84 210.149Z" fill="black"/>
<path d="M134.839 233.121C134.475 233.152 134.104 233.092 133.725 232.941C133.334 232.79 132.976 232.539 132.65 232.186C132.009 231.493 131.771 230.624 131.936 229.577C132.09 228.53 132.581 227.623 133.409 226.857C133.95 226.358 134.575 225.997 135.286 225.776C135.985 225.554 136.7 225.519 137.43 225.672C138.16 225.825 138.794 226.192 139.331 226.774C139.864 227.349 140.026 228.043 139.819 228.856C139.601 229.669 138.966 230.561 137.915 231.533C136.864 232.506 135.838 233.035 134.839 233.121ZM138.833 227.136C138.431 226.702 137.926 226.444 137.318 226.364C136.698 226.283 136.093 226.353 135.501 226.574C134.898 226.794 134.391 227.094 133.98 227.474C133.563 227.86 133.25 228.329 133.042 228.881C132.822 229.433 132.735 229.999 132.781 230.578C132.826 231.157 133.017 231.629 133.354 231.993C133.593 232.251 133.893 232.399 134.254 232.435C134.609 232.466 134.971 232.404 135.34 232.248C136.059 231.954 136.706 231.54 137.282 231.008C137.61 230.704 137.927 230.362 138.23 229.983C138.528 229.61 138.753 229.276 138.906 228.982C139.053 228.693 139.136 228.377 139.155 228.032C139.169 227.682 139.061 227.383 138.833 227.136Z" fill="black"/>
</svg>
