<svg width="38" height="57" viewBox="0 0 38 57" fill="none" xmlns="http://www.w3.org/2000/svg">
<rect y="17" width="38" height="40" rx="7" fill="#A7858F" fill-opacity="0.75"/>
<path d="M17.7188 0C8.65625 0 6.13021 11.3333 6 17H9.28891C10.0678 10.4848 12.3468 4.25 17.7188 4.25C26.1562 4.25 27.7448 12.75 27.4844 17H31C30.2188 9.71429 29.0469 0 17.7188 0Z" fill="#A7858F" fill-opacity="0.75"/>
<path fill-rule="evenodd" clip-rule="evenodd" d="M21.9273 38.8385C23.2231 37.8486 24.0649 36.248 24.0649 34.4419C24.0649 31.4364 21.734 29 18.8588 29C15.9835 29 13.6527 31.4364 13.6527 34.4419C13.6527 36.248 14.4944 37.8486 15.7903 38.8385L13.1338 45.7857C12.6331 47.0951 13.6 48.5 15.0019 48.5H22.7157C24.1176 48.5 25.0845 47.0951 24.5838 45.7857L21.9273 38.8385Z" fill="#252D33" fill-opacity="0.5"/>
</svg>
