<svg width="306" height="267" viewBox="0 0 306 267" fill="none" xmlns="http://www.w3.org/2000/svg">
<path d="M1 2.74084C1 1.38558 2.31952 0.422722 3.61017 0.836197L156.61 49.8513C157.438 50.1166 158 50.8865 158 51.756V264.416C158 265.724 156.765 266.68 155.499 266.352L2.49852 226.723C1.61621 226.494 1 225.698 1 224.787V2.74084Z" fill="#6689C3" stroke="black"/>
<path d="M305 2.79814C305 1.42636 303.65 0.461752 302.353 0.905837L159.353 49.8338C158.544 50.1106 158 50.8711 158 51.7261V264.372C158 265.693 159.259 266.652 160.533 266.299L303.533 226.74C304.4 226.501 305 225.712 305 224.813V2.79814Z" fill="#6689C3" stroke="black"/>
<rect x="144.5" y="44.5" width="27" height="222" rx="4.5" fill="#6689C3" stroke="black"/>
<path d="M6.5 12.2145C6.5 10.8669 7.80556 9.90503 9.0926 10.3043L156.593 56.0634C157.43 56.323 158 57.0973 158 57.9736V256.436C158 257.738 156.776 258.693 155.513 258.376L8.01343 221.38C7.12383 221.156 6.5 220.357 6.5 219.44V12.2145Z" fill="#F9F5E7" stroke="black"/>
<path d="M302 11.7704C302 10.4066 300.665 9.44278 299.37 9.8721L161.37 55.6397C160.552 55.911 160 56.676 160 57.538V256.393C160 257.708 161.248 258.665 162.518 258.325L300.518 221.321C301.392 221.087 302 220.295 302 219.389V11.7704Z" fill="#F9F5E7" stroke="black"/>
<path d="M302 11.7609C302 10.3998 300.67 9.43628 299.377 9.86049L160.377 55.4543C159.555 55.7237 159 56.4902 159 57.3546V255.4C159 256.713 160.244 257.67 161.513 257.334L300.513 220.471C301.389 220.238 302 219.445 302 218.537V11.7609Z" fill="#F9F5E7" stroke="black"/>
<path d="M299 11.7704C299 10.4066 297.665 9.44278 296.37 9.8721L158.37 55.6397C157.552 55.911 157 56.676 157 57.538V256.393C157 257.708 158.248 258.665 159.518 258.325L297.518 221.321C298.392 221.087 299 220.295 299 219.389V11.7704Z" fill="#F9F5E7" stroke="black"/>
<path d="M296 11.7922C296 10.4221 294.654 9.45765 293.356 9.89856L159.356 55.4448C158.545 55.7204 158 56.4819 158 57.3384V255.376C158 256.697 159.257 257.655 160.53 257.305L294.53 220.48C295.398 220.242 296 219.452 296 218.552V11.7922Z" fill="#F9F5E7" stroke="black"/>
<path d="M297 11.7704C297 10.4066 295.665 9.44278 294.37 9.8721L156.37 55.6397C155.552 55.911 155 56.676 155 57.538V256.393C155 257.708 156.248 258.665 157.518 258.325L295.518 221.321C296.392 221.087 297 220.295 297 219.389V11.7704Z" fill="#F9F5E7" stroke="black"/>
<line x1="163.844" y1="76.5249" x2="288.844" y2="35.5249" stroke="black"/>
<line y1="-0.5" x2="129.007" y2="-0.5" transform="matrix(0.961186 -0.275902 0.350959 0.936391 165 150.594)" stroke="black"/>
<line x1="165.856" y1="86.5212" x2="288.856" y2="49.5212" stroke="black"/>
<line y1="-0.5" x2="126.173" y2="-0.5" transform="matrix(0.967052 -0.254578 0.325066 0.945691 167 161.121)" stroke="black"/>
<line x1="165.865" y1="99.5186" x2="286.865" y2="65.5186" stroke="black"/>
<line x1="165.883" y1="172.03" x2="288.883" y2="142.514" stroke="black"/>
<line x1="165.883" y1="183.03" x2="288.883" y2="153.514" stroke="black"/>
<line x1="164.883" y1="192.03" x2="287.883" y2="162.514" stroke="black"/>
<line x1="164.886" y1="201.03" x2="273.886" y2="175.513" stroke="black"/>
<line x1="165.868" y1="112.518" x2="286.868" y2="79.5176" stroke="black"/>
<line x1="165.883" y1="210.162" x2="288.883" y2="180.514" stroke="black"/>
<line x1="164.884" y1="223.162" x2="288.884" y2="193.514" stroke="black"/>
<line x1="164.884" y1="236.162" x2="288.884" y2="206.514" stroke="black"/>
<line x1="164.884" y1="245.162" x2="288.884" y2="215.514" stroke="black"/>
<path d="M164 64.5L289 22" stroke="black"/>
<path d="M165 126L289 92" stroke="black"/>
<path d="M165 137L255 111" stroke="black"/>
<path d="M102.5 60.5L13.1792 33.5272" stroke="black"/>
<line x1="102.871" y1="137.483" x2="12.8879" y2="113.483" stroke="black"/>
<line y1="-0.5" x2="134.093" y2="-0.5" transform="matrix(-0.961178 -0.275927 -0.30063 0.953741 141.904 85)" stroke="black"/>
<line y1="-0.5" x2="131.829" y2="-0.5" transform="matrix(-0.969862 -0.243655 -0.338875 0.940831 140.856 159.121)" stroke="black"/>
<line y1="-0.5" x2="131.271" y2="-0.5" transform="matrix(-0.965876 -0.259006 -0.282452 0.959281 141.904 98)" stroke="black"/>
<line y1="-0.5" x2="132.224" y2="-0.5" transform="matrix(-0.974765 -0.223232 -0.243867 0.969809 141.904 170.517)" stroke="black"/>
<line y1="-0.5" x2="132.224" y2="-0.5" transform="matrix(-0.974765 -0.223232 -0.243867 0.969809 141.904 181.517)" stroke="black"/>
<line y1="-0.5" x2="132.224" y2="-0.5" transform="matrix(-0.974765 -0.223232 -0.243867 0.969809 142.952 190.517)" stroke="black"/>
<line x1="123.893" y1="194.488" x2="13.958" y2="170.488" stroke="black"/>
<line y1="-0.5" x2="131.016" y2="-0.5" transform="matrix(-0.967759 -0.251878 -0.274781 0.961507 141.904 111)" stroke="black"/>
<line y1="-0.5" x2="132.254" y2="-0.5" transform="matrix(-0.974548 -0.224179 -0.244891 0.969551 141.904 208.648)" stroke="black"/>
<line y1="-0.5" x2="133.275" y2="-0.5" transform="matrix(-0.974942 -0.222461 -0.243033 0.970018 142.952 221.648)" stroke="black"/>
<line y1="-0.5" x2="133.275" y2="-0.5" transform="matrix(-0.974942 -0.222461 -0.243033 0.970018 142.952 234.648)" stroke="black"/>
<line y1="-0.5" x2="133.275" y2="-0.5" transform="matrix(-0.974942 -0.222461 -0.243033 0.970018 142.952 243.648)" stroke="black"/>
<path d="M144 62.5L13.0168 20" stroke="black"/>
<path d="M142.952 124L13.0168 90" stroke="black"/>
<path d="M142.952 135L13.0168 101" stroke="black"/>
</svg>
