<svg width="265" height="311" viewBox="0 0 265 311" fill="none" xmlns="http://www.w3.org/2000/svg">
<rect y="50.6063" width="204.739" height="267.852" rx="20" transform="rotate(-14.3104 0 50.6063)" fill="#E5E5E5"/>
<rect x="18.2884" y="62.111" width="174.984" height="201.449" transform="rotate(-14.3104 18.2884 62.111)" fill="#8AC3B0"/>
<path d="M90.7042 273.374C90.4106 272.222 90.0564 271.489 89.6416 271.174C89.7364 270.915 89.9698 270.737 90.3419 270.642C90.4117 270.625 90.4887 270.611 90.5731 270.602C90.9379 270.819 91.2983 271.624 91.6543 273.02C91.847 273.776 92.0361 274.662 92.2214 275.68C92.5268 277.46 92.7833 278.757 92.9909 279.571C93.5515 281.768 94.2562 282.759 95.1051 282.542C95.1051 282.542 95.3098 282.447 95.7192 282.256C95.8239 282.229 95.923 282.253 96.0165 282.328C96.0884 282.756 95.7987 283.053 95.1476 283.219C94.5081 283.382 93.9649 283.316 93.5182 283.021C93.0686 282.715 92.7231 282.283 92.4817 281.725C92.2491 281.153 92.0838 280.675 91.9859 280.291C91.888 279.908 91.7871 279.488 91.683 279.031C91.576 278.563 91.4593 277.887 91.3328 277.003C91.0739 275.211 90.8644 274.001 90.7042 273.374ZM95.6918 275.501C96.0535 274.443 96.7924 273.771 97.9087 273.486C99.025 273.202 100.03 273.428 100.924 274.166C101.83 274.901 102.431 275.85 102.728 277.013C103.021 278.164 102.904 279.234 102.376 280.223C101.849 281.212 101.021 281.851 99.8928 282.138C98.7649 282.426 97.8651 282.321 97.1933 281.824C96.5186 281.315 96.0344 280.485 95.7407 279.334C95.3581 277.834 95.3418 276.556 95.6918 275.501ZM96.6951 276.229C96.6596 276.721 96.659 277.205 96.6933 277.679C96.7392 278.15 96.8126 278.583 96.9134 278.979C97.0113 279.362 97.1308 279.71 97.272 280.02C97.4102 280.32 97.5892 280.608 97.8088 280.887C98.0254 281.153 98.297 281.344 98.6235 281.459C98.9471 281.562 99.3007 281.565 99.6844 281.467C100.463 281.268 101.033 280.782 101.393 280.009C101.765 279.234 101.835 278.392 101.604 277.485C101.372 276.578 100.904 275.763 100.199 275.038C99.5032 274.299 98.8062 274.019 98.1086 274.197C97.69 274.304 97.3608 274.543 97.121 274.913C96.8812 275.284 96.7392 275.723 96.6951 276.229ZM104.242 273.32C104.604 272.261 105.343 271.59 106.459 271.305C107.575 271.02 108.581 271.247 109.475 271.985C110.38 272.72 110.982 273.669 111.278 274.831C111.572 275.983 111.455 277.053 110.927 278.042C110.399 279.031 109.571 279.67 108.443 279.957C107.315 280.245 106.416 280.14 105.744 279.643C105.069 279.134 104.585 278.304 104.291 277.153C103.909 275.653 103.892 274.375 104.242 273.32ZM105.245 274.048C105.21 274.54 105.209 275.023 105.244 275.498C105.29 275.969 105.363 276.402 105.464 276.798C105.562 277.181 105.681 277.529 105.822 277.839C105.961 278.138 106.14 278.427 106.359 278.706C106.576 278.972 106.847 279.163 107.174 279.278C107.497 279.381 107.851 279.384 108.235 279.286C109.014 279.087 109.583 278.601 109.944 277.828C110.315 277.052 110.386 276.211 110.154 275.304C109.923 274.397 109.455 273.581 108.75 272.857C108.054 272.118 107.357 271.838 106.659 272.016C106.24 272.123 105.911 272.361 105.671 272.732C105.432 273.103 105.29 273.542 105.245 274.048ZM112.158 265.226C112.377 266.037 112.538 266.646 112.642 267.053C112.743 267.448 112.838 267.845 112.927 268.243C113.028 268.639 113.206 269.411 113.462 270.559C113.715 271.696 113.92 272.597 114.078 273.263C114.442 272.848 114.853 272.248 115.309 271.463C115.762 270.666 116.181 269.977 116.565 269.396C117.175 268.485 117.684 268.126 118.092 268.319C118.247 268.391 118.313 268.48 118.29 268.585C118.236 268.858 118.044 269.223 117.715 269.679C117.397 270.131 117.015 270.65 116.569 271.234C116.124 271.818 115.786 272.338 115.555 272.793C116.434 272.693 117.236 272.996 117.961 273.703C118.28 274.03 118.593 274.359 118.9 274.689C119.693 275.564 120.449 276.102 121.169 276.302C120.996 276.594 120.758 276.779 120.456 276.856C120.153 276.933 119.814 276.865 119.437 276.651C119.073 276.435 118.726 276.145 118.399 275.783C118.083 275.418 117.761 275.054 117.433 274.692C116.675 273.808 115.964 273.45 115.302 273.619C114.988 273.699 114.747 273.872 114.579 274.138C114.409 274.392 114.352 274.629 114.408 274.85C114.764 276.246 115.005 277.287 115.13 277.973C115.024 278.235 114.878 278.39 114.692 278.438C114.634 278.452 114.567 278.457 114.491 278.452C114.208 278.412 114.026 278.23 113.943 277.904C113.871 277.576 113.654 276.578 113.291 274.912C112.342 270.659 111.718 267.945 111.418 266.771C111.279 266.224 111.238 265.845 111.295 265.632C111.364 265.416 111.474 265.289 111.625 265.25C111.788 265.209 111.965 265.201 112.158 265.226ZM120.237 263.277C120.293 263.547 120.363 263.845 120.446 264.171C120.529 264.496 120.633 264.829 120.756 265.169C120.641 265.396 120.444 265.546 120.165 265.617C119.816 265.706 119.57 265.471 119.428 264.913C119.422 264.89 119.4 264.803 119.361 264.652C119.323 264.501 119.289 264.367 119.259 264.251C119.238 264.12 119.224 263.968 119.218 263.797C119.228 263.497 119.372 263.311 119.651 263.24C119.93 263.169 120.126 263.181 120.237 263.277ZM121.3 272.108C120.719 269.829 120.5 268.485 120.644 268.077C120.693 267.928 120.775 267.839 120.891 267.809C121.008 267.78 121.216 267.795 121.516 267.855C121.71 268.858 121.955 269.941 122.252 271.103C122.252 271.103 122.591 272.385 123.27 274.949C123.362 275.31 123.346 275.586 123.221 275.779C123.106 275.957 122.978 276.064 122.839 276.099C122.711 276.132 122.568 276.131 122.411 276.097C121.967 274.6 121.597 273.27 121.3 272.108ZM132.808 273.222C132.655 273.496 132.445 273.667 132.178 273.736C131.678 273.863 131.238 273.691 130.857 273.218C130.476 272.745 130.165 272.131 129.923 271.376C129.692 270.617 129.473 269.856 129.266 269.091C129.058 268.327 128.828 267.692 128.575 267.187C128.334 266.679 128.063 266.463 127.76 266.54C127.353 266.644 127.098 267.099 126.994 267.906C126.902 268.71 126.912 269.574 127.024 270.499C127.336 273.082 127.38 274.563 127.154 274.943C126.972 275.101 126.805 275.199 126.654 275.238C126.503 275.276 126.37 275.291 126.257 275.283C125.74 274.276 125.112 272.473 124.375 269.874C124.02 268.578 123.782 267.741 123.66 267.363C123.863 267.138 124.052 267.003 124.226 266.959C124.4 266.914 124.544 266.896 124.658 266.904C124.844 267.39 125.134 268.405 125.528 269.952C125.934 271.495 126.173 272.382 126.244 272.611C126.24 272.352 126.209 271.939 126.151 271.372C126.104 270.802 126.071 270.333 126.052 269.967C126.03 269.589 126.034 269.142 126.063 268.626C126.093 268.111 126.165 267.69 126.28 267.364C126.392 267.026 126.585 266.716 126.86 266.435C127.133 266.143 127.472 265.945 127.879 265.841C128.426 265.702 128.885 265.851 129.256 266.289C129.637 266.712 129.932 267.287 130.142 268.013C130.352 268.74 130.554 269.481 130.747 270.237C130.951 270.99 131.221 271.658 131.555 272.241C131.901 272.822 132.319 273.148 132.808 273.222ZM134.887 263.923C135.945 263.654 136.788 263.897 137.414 264.654C137.751 265.051 138.041 265.435 138.284 265.806C138.527 266.178 138.763 266.712 138.99 267.409C139.336 268.473 139.685 269.697 140.038 271.08C140.388 272.452 140.335 273.63 139.88 274.613C139.44 275.605 138.586 276.262 137.318 276.585C136.063 276.906 134.912 276.766 133.867 276.165C134.041 275.874 134.261 275.693 134.528 275.625C134.807 275.554 135.215 275.574 135.751 275.685C136.302 275.804 136.85 275.795 137.397 275.655C137.943 275.516 138.364 275.272 138.659 274.924C138.958 274.588 139.136 274.171 139.195 273.673C139.281 272.797 139.174 271.771 138.874 270.597C138.83 270.423 138.648 269.782 138.328 268.674C138.257 269.708 138.012 270.613 137.59 271.389C137.166 272.154 136.588 272.629 135.855 272.816C135.123 273.003 134.499 272.815 133.984 272.253C133.478 271.676 133.118 270.969 132.904 270.132C132.691 269.295 132.599 268.451 132.63 267.601C132.658 266.74 132.861 265.957 133.239 265.254C133.617 264.551 134.166 264.107 134.887 263.923ZM133.715 267.046C133.694 267.596 133.707 268.107 133.753 268.578C133.798 269.05 133.881 269.518 133.999 269.983C134.115 270.436 134.337 270.918 134.665 271.429C135.006 271.937 135.362 272.143 135.734 272.048C136.466 271.861 136.978 271.149 137.269 269.911C137.557 268.661 137.558 267.477 137.274 266.361C137.176 265.977 136.886 265.593 136.404 265.208C135.93 264.809 135.426 264.678 134.891 264.814C134.519 264.909 134.232 265.168 134.031 265.591C133.841 266.011 133.735 266.496 133.715 267.046ZM146.946 260.847C148.004 260.577 148.847 260.821 149.473 261.577C149.81 261.975 150.1 262.359 150.343 262.73C150.586 263.102 150.822 263.636 151.049 264.333C151.395 265.397 151.744 266.621 152.097 268.004C152.447 269.376 152.395 270.554 151.939 271.537C151.499 272.528 150.645 273.186 149.377 273.509C148.122 273.83 146.971 273.69 145.927 273.089C146.1 272.797 146.32 272.617 146.588 272.549C146.867 272.478 147.274 272.498 147.81 272.609C148.361 272.728 148.909 272.718 149.456 272.579C150.002 272.44 150.423 272.196 150.718 271.848C151.017 271.512 151.195 271.095 151.254 270.597C151.34 269.721 151.233 268.695 150.934 267.521C150.889 267.346 150.707 266.706 150.387 265.598C150.317 266.632 150.071 267.537 149.649 268.313C149.225 269.077 148.647 269.553 147.914 269.74C147.182 269.927 146.558 269.739 146.043 269.177C145.537 268.6 145.177 267.893 144.963 267.056C144.75 266.219 144.659 265.375 144.689 264.525C144.717 263.664 144.92 262.881 145.298 262.178C145.676 261.475 146.225 261.031 146.946 260.847ZM145.774 263.97C145.753 264.52 145.766 265.031 145.812 265.502C145.858 265.973 145.94 266.442 146.058 266.907C146.174 267.36 146.396 267.842 146.725 268.353C147.065 268.861 147.421 269.067 147.793 268.972C148.525 268.785 149.037 268.073 149.328 266.834C149.616 265.584 149.618 264.401 149.333 263.285C149.235 262.901 148.945 262.517 148.463 262.132C147.99 261.733 147.485 261.601 146.951 261.738C146.578 261.833 146.292 262.092 146.09 262.515C145.9 262.935 145.794 263.42 145.774 263.97ZM152.99 260.885C153.351 259.826 154.09 259.155 155.207 258.87C156.323 258.585 157.328 258.812 158.222 259.55C159.128 260.285 159.729 261.234 160.026 262.396C160.319 263.548 160.202 264.618 159.674 265.607C159.147 266.596 158.319 267.235 157.191 267.522C156.063 267.81 155.163 267.705 154.491 267.208C153.817 266.699 153.332 265.869 153.039 264.718C152.656 263.218 152.64 261.94 152.99 260.885ZM153.993 261.613C153.958 262.105 153.957 262.588 153.991 263.063C154.037 263.534 154.111 263.967 154.211 264.363C154.309 264.746 154.429 265.094 154.57 265.404C154.708 265.703 154.887 265.992 155.107 266.271C155.323 266.537 155.595 266.728 155.922 266.843C156.245 266.946 156.599 266.949 156.982 266.851C157.761 266.652 158.331 266.166 158.691 265.393C159.063 264.617 159.133 263.776 158.902 262.869C158.67 261.962 158.202 261.146 157.497 260.422C156.801 259.683 156.104 259.403 155.407 259.581C154.988 259.688 154.659 259.926 154.419 260.297C154.179 260.668 154.037 261.107 153.993 261.613ZM161.54 258.704C161.902 257.645 162.641 256.974 163.757 256.689C164.873 256.404 165.879 256.631 166.773 257.369C167.678 258.104 168.28 259.053 168.576 260.215C168.87 261.366 168.753 262.437 168.225 263.426C167.697 264.415 166.869 265.053 165.741 265.341C164.613 265.629 163.714 265.524 163.042 265.027C162.367 264.518 161.883 263.688 161.589 262.536C161.206 261.036 161.19 259.759 161.54 258.704ZM162.543 259.432C162.508 259.924 162.507 260.407 162.542 260.882C162.588 261.353 162.661 261.786 162.762 262.182C162.86 262.565 162.979 262.912 163.12 263.223C163.259 263.522 163.438 263.811 163.657 264.089C163.874 264.356 164.145 264.547 164.472 264.662C164.795 264.765 165.149 264.768 165.533 264.67C166.312 264.471 166.881 263.985 167.242 263.212C167.613 262.436 167.683 261.595 167.452 260.688C167.221 259.781 166.753 258.965 166.048 258.241C165.352 257.502 164.655 257.222 163.957 257.4C163.538 257.507 163.209 257.745 162.969 258.116C162.73 258.487 162.588 258.926 162.543 259.432ZM174.338 248.268C174.917 252.381 175.424 255.292 175.86 257.001C176.293 258.699 176.883 260.356 177.63 261.974C177.457 262.266 177.283 262.434 177.109 262.479C176.934 262.523 176.783 262.537 176.655 262.52C176.191 261.722 175.807 260.823 175.502 259.823C175.336 260.336 175.207 260.704 175.115 260.925C175.034 261.144 174.877 261.475 174.644 261.918C174.229 262.767 173.614 263.296 172.8 263.503C172.184 263.66 171.664 263.49 171.239 262.991C170.823 262.478 170.501 261.774 170.273 260.879C170.042 259.972 169.921 259.086 169.911 258.222C169.91 257.343 170.083 256.543 170.432 255.822C170.778 255.09 171.317 254.631 172.05 254.444C172.491 254.331 172.922 254.32 173.342 254.411C173.761 254.502 174.081 254.687 174.3 254.966C174.244 254.646 174.144 254.157 174.001 253.5C173.858 252.843 173.735 252.262 173.63 251.756C173.535 251.235 173.455 250.704 173.391 250.163C173.234 249.014 173.377 248.384 173.819 248.271C173.97 248.232 174.143 248.232 174.338 248.268ZM174.059 255.696C173.855 255.476 173.615 255.338 173.342 255.284C173.065 255.219 172.723 255.238 172.316 255.342C171.921 255.443 171.606 255.764 171.373 256.307C170.915 257.377 170.903 258.761 171.336 260.459C171.476 261.005 171.702 261.529 172.016 262.031C172.327 262.522 172.651 262.724 172.988 262.638C173.477 262.513 173.872 262.072 174.174 261.314C174.476 260.556 174.649 259.731 174.694 258.84C174.737 257.938 174.673 257.155 174.504 256.493C174.424 256.179 174.276 255.913 174.059 255.696ZM179.773 262.17C179.746 262.066 179.69 261.919 179.605 261.73C179.517 261.53 179.44 261.351 179.375 261.194C179.322 261.035 179.281 260.872 179.251 260.706C179.182 260.34 179.369 260.1 179.811 259.987C180.183 259.893 180.51 260.397 180.791 261.502C181.278 263.409 181.01 265.007 179.989 266.295C179.873 266.424 179.751 266.504 179.624 266.537C179.496 266.569 179.366 266.572 179.235 266.543C179.104 266.515 179.027 266.454 179.003 266.361C178.982 266.279 179.027 266.163 179.136 266.011C179.949 264.974 180.161 263.694 179.773 262.17ZM187.981 257.848L188.287 258.828C188.352 259.084 188.322 259.284 188.198 259.427C188.082 259.556 187.949 259.639 187.797 259.678C187.658 259.713 187.507 259.727 187.344 259.719C186.744 258.436 186.117 256.806 185.465 254.83C184.824 252.851 184.457 251.731 184.366 251.469C184.499 251.262 184.658 251.134 184.844 251.087C185.042 251.037 185.222 251.015 185.385 251.023C185.518 251.349 185.743 252.084 186.06 253.229C186.376 254.374 186.589 255.088 186.698 255.37C186.612 254.351 186.67 253.364 186.872 252.409C186.983 251.873 187.189 251.418 187.49 251.044C187.799 250.655 188.169 250.406 188.599 250.296C189.041 250.184 189.493 250.279 189.954 250.582C190.424 250.871 190.699 251.173 190.779 251.486C190.809 251.603 190.763 251.714 190.641 251.819C190.516 251.913 190.367 251.982 190.193 252.026C190.03 252.068 189.886 252.036 189.76 251.932C189.634 251.828 189.535 251.705 189.461 251.563C189.385 251.409 189.272 251.283 189.123 251.184C188.974 251.086 188.801 251.062 188.603 251.113C188.08 251.246 187.753 251.831 187.621 252.868C187.41 254.42 187.53 256.08 187.981 257.848ZM192.335 250.848C192.697 249.79 193.436 249.118 194.552 248.834C195.668 248.549 196.674 248.775 197.568 249.513C198.474 250.248 199.075 251.197 199.371 252.36C199.665 253.511 199.548 254.581 199.02 255.57C198.492 256.559 197.664 257.198 196.536 257.486C195.408 257.773 194.509 257.668 193.837 257.171C193.162 256.662 192.678 255.832 192.384 254.681C192.002 253.181 191.985 251.903 192.335 250.848ZM193.339 251.577C193.303 252.069 193.302 252.552 193.337 253.026C193.383 253.497 193.456 253.931 193.557 254.326C193.655 254.71 193.774 255.057 193.916 255.368C194.054 255.667 194.233 255.956 194.452 256.234C194.669 256.501 194.941 256.691 195.267 256.806C195.591 256.909 195.944 256.912 196.328 256.814C197.107 256.616 197.677 256.13 198.037 255.357C198.408 254.581 198.479 253.739 198.247 252.832C198.016 251.925 197.548 251.11 196.843 250.386C196.147 249.647 195.45 249.366 194.752 249.544C194.333 249.651 194.004 249.89 193.764 250.261C193.525 250.631 193.383 251.07 193.339 251.577ZM204.439 247.668C204.225 246.83 204.386 246.344 204.921 246.207C205.026 246.18 205.133 246.165 205.244 246.162C205.279 246.302 205.376 246.679 205.533 247.296C205.69 247.912 206.086 249.124 206.72 250.931C207.355 252.738 207.789 254.101 208.023 255.02C208.397 256.485 208.399 257.562 208.03 258.25C207.661 258.939 206.86 259.44 205.628 259.755C204.407 260.066 203.155 259.965 201.872 259.45C202.016 259.141 202.256 258.943 202.593 258.857C202.724 258.836 202.95 258.871 203.271 258.963C204.221 259.241 204.969 259.31 205.516 259.17C206.33 258.963 206.84 258.56 207.047 257.963C207.253 257.365 207.202 256.461 206.894 255.252C206.82 254.961 206.524 253.922 206.006 252.135C206.003 252.173 206.001 252.334 205.999 252.62C205.995 252.893 205.986 253.075 205.971 253.165C205.957 253.256 205.932 253.423 205.895 253.668C205.87 253.91 205.823 254.089 205.754 254.206C205.685 254.322 205.591 254.464 205.472 254.63C205.276 254.928 204.98 255.127 204.584 255.228C204.201 255.326 203.879 255.352 203.62 255.307C203.361 255.262 203.121 255.149 202.902 254.97C202.695 254.788 202.496 254.591 202.306 254.379C202.127 254.165 201.956 253.88 201.791 253.526C201.623 253.16 201.476 252.826 201.35 252.524C201.235 252.219 201.108 251.843 200.969 251.395C200.841 250.945 200.733 250.57 200.645 250.27C200.567 249.968 200.47 249.584 200.351 249.119L200.084 248.073C200.15 247.845 200.334 247.693 200.636 247.616C201.055 247.509 201.303 247.607 201.38 247.909L201.707 249.628C202.083 251.105 202.565 252.338 203.152 253.327C203.739 254.317 204.201 254.769 204.538 254.683C204.794 254.618 204.985 254.42 205.111 254.091C205.238 253.761 205.29 253.333 205.267 252.806C205.241 252.268 205.205 251.763 205.159 251.292C205.113 250.821 205.025 250.28 204.894 249.669C204.694 248.742 204.543 248.075 204.439 247.668ZM214.047 246.053C213.882 246.33 213.69 246.497 213.469 246.553C213.248 246.61 213.044 246.562 212.857 246.412C212.678 246.247 212.52 246.064 212.383 245.864C212.242 245.652 212.037 245.482 211.769 245.352C211.509 245.208 211.217 245.177 210.891 245.26C210.449 245.422 210.12 245.853 209.902 246.553C209.681 247.241 209.575 247.967 209.585 248.733C209.594 249.498 209.681 250.201 209.844 250.84C210.004 251.468 210.318 251.97 210.785 252.346C211.261 252.708 211.802 252.811 212.406 252.657C213.104 252.479 213.6 252.093 213.894 251.497C214.015 251.244 214.124 250.993 214.222 250.745C214.47 250.162 214.745 249.832 215.047 249.754C215.151 249.728 215.31 249.718 215.523 249.726C215.632 250.156 215.382 250.827 214.773 251.738C214.171 252.634 213.412 253.199 212.493 253.434C211.574 253.668 210.774 253.563 210.09 253.118C209.416 252.658 208.96 251.963 208.723 251.033C208.417 249.836 208.402 248.564 208.678 247.218C208.821 246.562 209.094 245.985 209.499 245.485C209.902 244.974 210.411 244.64 211.027 244.482C211.643 244.325 212.191 244.408 212.67 244.732C213.157 245.041 213.616 245.481 214.047 246.053ZM217.625 248.335C217.661 248.574 217.69 248.733 217.71 248.815C217.888 249.513 218.236 250 218.752 250.277C219.28 250.551 219.835 250.614 220.416 250.465C220.998 250.317 221.448 250.115 221.767 249.861C222.097 249.603 222.32 249.36 222.436 249.133C222.721 248.503 223.038 248.143 223.387 248.054C223.514 248.022 223.675 248.018 223.867 248.043C223.896 248.643 223.587 249.279 222.942 249.951C222.304 250.609 221.41 251.085 220.259 251.378C219.445 251.586 218.677 251.51 217.953 251.149C217.238 250.774 216.767 250.139 216.538 249.244C216.31 248.349 216.263 247.438 216.398 246.512C216.542 245.571 216.87 244.719 217.382 243.957C217.902 243.181 218.505 242.705 219.191 242.53C219.889 242.352 220.484 242.355 220.977 242.539C221.478 242.708 221.798 243.066 221.938 243.613C222.196 244.624 221.956 245.577 221.218 246.471C220.489 247.351 219.618 247.919 218.607 248.178C218.339 248.246 218.012 248.298 217.625 248.335ZM218.804 247.421C219.35 247.282 219.794 246.983 220.136 246.524C220.477 246.066 220.686 245.622 220.762 245.194C220.85 244.763 220.854 244.39 220.774 244.077C220.694 243.763 220.502 243.52 220.199 243.35C219.892 243.168 219.576 243.119 219.251 243.202C218.67 243.35 218.231 243.889 217.936 244.819C217.652 245.746 217.515 246.666 217.526 247.58C218.064 247.554 218.49 247.501 218.804 247.421ZM223.402 238.019C223.378 237.876 223.432 237.745 223.562 237.625C223.689 237.494 223.846 237.404 224.032 237.357C224.346 237.277 224.533 237.353 224.592 237.585C225.444 241.022 226.014 243.619 226.302 245.379C226.323 245.51 226.258 245.644 226.107 245.781C225.965 245.904 225.813 245.986 225.65 246.028C225.359 246.102 225.184 246.023 225.125 245.79C224.852 244.04 224.277 241.449 223.402 238.019ZM226.256 248.623C226.378 248.567 226.526 248.517 226.701 248.472C226.887 248.425 227.096 248.445 227.329 248.535C227.563 248.624 227.711 248.79 227.773 249.035C227.835 249.279 227.764 249.532 227.558 249.795C227.367 250.067 227.162 250.231 226.941 250.287C226.731 250.34 226.484 250.317 226.198 250.216C225.915 250.128 225.752 249.996 225.707 249.821C225.565 249.263 225.748 248.864 226.256 248.623Z" fill="#252D33"/>
<mask id="mask0" mask-type="alpha" maskUnits="userSpaceOnUse" x="19" y="21" width="220" height="240">
<rect x="19.0261" y="65.0029" width="174.984" height="201.449" transform="rotate(-14.3104 19.0261 65.0029)" fill="#C4C4C4"/>
</mask>
<g mask="url(#mask0)">
<mask id="path-5-inside-1" fill="white">
<path fill-rule="evenodd" clip-rule="evenodd" d="M74.7369 75.7437L32.7291 85.8874L51.2746 162.266L8.59566 173.153L31.2791 262.077L75.8988 250.695L75.6587 249.754L105.962 242.436L106.103 242.99L188.669 221.928L188.691 222.007L192.673 220.907L198.775 219.35L198.744 219.229L224.014 212.246L224.173 212.871L268.793 201.489L246.11 112.566L206.274 122.727L185.551 47.164L143.897 58.6753L157.288 107.503L134.663 113.275L121.666 111.97L110.883 119.341L86.8135 125.481L74.7369 75.7437Z"/>
</mask>
<path fill-rule="evenodd" clip-rule="evenodd" d="M74.7369 75.7437L32.7291 85.8874L51.2746 162.266L8.59566 173.153L31.2791 262.077L75.8988 250.695L75.6587 249.754L105.962 242.436L106.103 242.99L188.669 221.928L188.691 222.007L192.673 220.907L198.775 219.35L198.744 219.229L224.014 212.246L224.173 212.871L268.793 201.489L246.11 112.566L206.274 122.727L185.551 47.164L143.897 58.6753L157.288 107.503L134.663 113.275L121.666 111.97L110.883 119.341L86.8135 125.481L74.7369 75.7437Z" fill="#FF7D51"/>
<path d="M32.7291 85.8874L32.4944 84.9154L31.5211 85.1504L31.7574 86.1234L32.7291 85.8874ZM74.7369 75.7437L75.7087 75.5078L75.473 74.5372L74.5022 74.7717L74.7369 75.7437ZM51.2746 162.266L51.5218 163.235L52.4796 162.991L52.2464 162.03L51.2746 162.266ZM8.59566 173.153L8.34848 172.184L7.37951 172.431L7.62669 173.4L8.59566 173.153ZM31.2791 262.077L30.3101 262.324L30.5573 263.293L31.5263 263.046L31.2791 262.077ZM75.8988 250.695L76.146 251.664L77.115 251.416L76.8678 250.447L75.8988 250.695ZM75.6587 249.754L75.424 248.781L74.4394 249.019L74.6898 250.001L75.6587 249.754ZM105.962 242.436L106.931 242.189L106.687 241.232L105.727 241.464L105.962 242.436ZM106.103 242.99L105.134 243.237L105.381 244.206L106.35 243.959L106.103 242.99ZM188.669 221.928L189.634 221.664L189.374 220.716L188.422 220.959L188.669 221.928ZM188.691 222.007L187.726 222.272L187.991 223.238L188.957 222.971L188.691 222.007ZM192.673 220.907L192.425 219.938L192.416 219.94L192.406 219.943L192.673 220.907ZM198.775 219.35L199.022 220.319L199.991 220.072L199.744 219.103L198.775 219.35ZM198.744 219.229L198.477 218.265L197.532 218.526L197.775 219.476L198.744 219.229ZM224.014 212.246L224.983 211.998L224.731 211.01L223.747 211.282L224.014 212.246ZM224.173 212.871L223.204 213.118L223.452 214.087L224.421 213.84L224.173 212.871ZM268.793 201.489L269.04 202.458L270.009 202.211L269.762 201.242L268.793 201.489ZM246.11 112.566L247.079 112.319L246.831 111.35L245.863 111.597L246.11 112.566ZM206.274 122.727L205.31 122.992L205.57 123.939L206.522 123.696L206.274 122.727ZM185.551 47.164L186.515 46.8995L186.25 45.9332L185.285 46.2001L185.551 47.164ZM143.897 58.6753L143.63 57.7115L142.668 57.9773L142.932 58.9398L143.897 58.6753ZM157.288 107.503L157.535 108.472L158.522 108.221L158.252 107.239L157.288 107.503ZM134.663 113.275L134.563 114.27L134.739 114.288L134.91 114.244L134.663 113.275ZM121.666 111.97L121.766 110.975L121.403 110.939L121.102 111.145L121.666 111.97ZM110.883 119.341L111.13 120.31L111.302 120.266L111.447 120.166L110.883 119.341ZM86.8135 125.481L85.8418 125.717L86.0804 126.7L87.0607 126.45L86.8135 125.481ZM32.9639 86.8595L74.9716 76.7158L74.5022 74.7717L32.4944 84.9154L32.9639 86.8595ZM52.2464 162.03L33.7009 85.6515L31.7574 86.1234L50.3028 162.502L52.2464 162.03ZM8.84283 174.122L51.5218 163.235L51.0274 161.297L8.34848 172.184L8.84283 174.122ZM32.2481 261.83L9.56463 172.906L7.62669 173.4L30.3101 262.324L32.2481 261.83ZM75.6516 249.726L31.0319 261.108L31.5263 263.046L76.146 251.664L75.6516 249.726ZM74.6898 250.001L74.9298 250.942L76.8678 250.447L76.6277 249.506L74.6898 250.001ZM105.727 241.464L75.424 248.781L75.8935 250.726L106.196 243.408L105.727 241.464ZM107.072 242.743L106.931 242.189L104.993 242.683L105.134 243.237L107.072 242.743ZM188.422 220.959L105.856 242.021L106.35 243.959L188.916 222.897L188.422 220.959ZM189.655 221.743L189.634 221.664L187.705 222.193L187.726 222.272L189.655 221.743ZM192.406 219.943L188.424 221.043L188.957 222.971L192.939 221.871L192.406 219.943ZM198.527 218.381L192.425 219.938L192.92 221.876L199.022 220.319L198.527 218.381ZM197.775 219.476L197.806 219.597L199.744 219.103L199.713 218.982L197.775 219.476ZM223.747 211.282L198.477 218.265L199.01 220.193L224.28 213.209L223.747 211.282ZM225.142 212.624L224.983 211.998L223.045 212.493L223.204 213.118L225.142 212.624ZM268.546 200.52L223.926 211.902L224.421 213.84L269.04 202.458L268.546 200.52ZM245.141 112.813L267.824 201.736L269.762 201.242L247.079 112.319L245.141 112.813ZM206.522 123.696L246.357 113.535L245.863 111.597L206.027 121.758L206.522 123.696ZM184.587 47.4285L205.31 122.992L207.239 122.463L186.515 46.8995L184.587 47.4285ZM144.163 59.6392L185.817 48.1278L185.285 46.2001L143.63 57.7115L144.163 59.6392ZM158.252 107.239L144.861 58.4109L142.932 58.9398L156.324 107.768L158.252 107.239ZM134.91 114.244L157.535 108.472L157.041 106.534L134.416 112.306L134.91 114.244ZM121.567 112.965L134.563 114.27L134.763 112.28L121.766 110.975L121.567 112.965ZM111.447 120.166L122.231 112.796L121.102 111.145L110.319 118.515L111.447 120.166ZM87.0607 126.45L111.13 120.31L110.636 118.372L86.5663 124.512L87.0607 126.45ZM73.7652 75.9797L85.8418 125.717L87.7853 125.245L75.7087 75.5078L73.7652 75.9797Z" fill="black" mask="url(#path-5-inside-1)"/>
<path fill-rule="evenodd" clip-rule="evenodd" d="M126.303 131.577C120.426 133.076 116.878 139.055 118.377 144.932L119.72 150.197L126.359 176.223L136.999 173.509L147.639 170.795L144.929 160.171C144.928 160.166 144.926 160.16 144.925 160.155L139.657 139.503C138.158 133.627 132.179 130.078 126.303 131.577Z" fill="#252D33"/>
<path fill-rule="evenodd" clip-rule="evenodd" d="M153.412 134.672C148.294 135.978 145.204 141.185 146.509 146.303L148.018 152.218L148.018 152.218L152.813 171.015L162.066 168.655C162.07 168.653 162.075 168.652 162.08 168.651C162.085 168.65 162.09 168.648 162.095 168.647L171.347 166.287L168.988 157.037C168.986 157.032 168.985 157.026 168.983 157.02L165.044 141.575C163.738 136.457 158.531 133.366 153.412 134.672Z" fill="#252D33"/>
<path fill-rule="evenodd" clip-rule="evenodd" d="M102.933 146.009C97.4355 147.411 94.1159 153.004 95.5182 158.502L96.4831 162.284L96.4825 162.284L101.646 182.527L111.577 179.994C111.585 179.992 111.593 179.99 111.6 179.988C111.608 179.986 111.616 179.984 111.623 179.982L121.553 177.449L119.042 167.603C119.033 167.567 119.024 167.531 119.015 167.495L115.425 153.423C114.023 147.926 108.43 144.607 102.933 146.009Z" fill="#252D33"/>
<path fill-rule="evenodd" clip-rule="evenodd" d="M113.89 193.264C107.824 194.811 104.161 200.983 105.708 207.049L108.623 218.477L108.623 218.477L113.603 237.997L124.573 235.198C124.577 235.197 124.582 235.196 124.586 235.195C124.59 235.194 124.595 235.193 124.599 235.192L135.569 232.393L132.774 221.434C132.772 221.426 132.77 221.418 132.768 221.41L127.675 201.445C126.127 195.379 119.956 191.716 113.89 193.264Z" fill="#252D33"/>
<path fill-rule="evenodd" clip-rule="evenodd" d="M140.293 184.989C134.606 186.439 131.172 192.225 132.623 197.912L135.713 210.027L138.434 220.696L141.061 230.992L151.349 228.368C151.352 228.367 151.355 228.367 151.358 228.366C151.361 228.365 151.364 228.364 151.367 228.364L161.655 225.739L159.028 215.442L156.307 204.774L153.216 192.659C151.766 186.972 145.98 183.538 140.293 184.989Z" fill="#252D33"/>
<path fill-rule="evenodd" clip-rule="evenodd" d="M166.194 177.611C160.507 179.062 157.073 184.848 158.523 190.535L164.52 214.042C164.521 214.046 164.522 214.051 164.524 214.056L167.146 224.338L187.74 219.085L180.917 192.336L179.117 185.282C177.667 179.595 171.881 176.161 166.194 177.611Z" fill="#252D33"/>
<path fill-rule="evenodd" clip-rule="evenodd" d="M160.656 62.7543C159.329 63.0928 158.528 64.4429 158.867 65.7698L162.251 79.0385C162.253 79.0449 162.255 79.0514 162.256 79.0578L162.864 81.4411L167.67 80.2153L164.719 68.648L164.719 68.6481L163.672 64.544C163.333 63.2171 161.983 62.4158 160.656 62.7543Z" fill="#252D33"/>
<path fill-rule="evenodd" clip-rule="evenodd" d="M64.0504 88.1675C62.7235 88.506 61.9222 89.8561 62.2607 91.183L63.3076 95.287L63.3075 95.287L66.2582 106.854L68.6496 106.244C68.6534 106.243 68.6571 106.242 68.6609 106.241C68.6646 106.24 68.6684 106.239 68.6721 106.238L71.0634 105.628L70.4544 103.241C70.4531 103.236 70.4519 103.231 70.4506 103.226L67.0659 89.9572C66.7274 88.6303 65.3773 87.829 64.0504 88.1675Z" fill="#252D33"/>
<path fill-rule="evenodd" clip-rule="evenodd" d="M55.8129 90.2688C54.486 90.6073 53.6847 91.9574 54.0232 93.2843L57.4079 106.553C57.4083 106.555 57.4087 106.556 57.4092 106.558L58.0207 108.956L60.4191 108.344C60.4205 108.343 60.4219 108.343 60.4233 108.343C60.4248 108.342 60.4262 108.342 60.4276 108.342L62.8259 107.73L59.8752 96.1625L59.8752 96.1625L58.8284 92.0585C58.4899 90.7316 57.1398 89.9303 55.8129 90.2688Z" fill="#252D33"/>
<path fill-rule="evenodd" clip-rule="evenodd" d="M46.889 92.5452C45.562 92.8837 44.7608 94.2338 45.0992 95.5607L46.1461 99.6647L46.1461 99.6647L49.0968 111.232L51.4909 110.621C51.4937 110.621 51.4966 110.62 51.4994 110.619C51.5023 110.618 51.5051 110.618 51.5079 110.617L53.902 110.006L53.2922 107.616C53.2912 107.612 53.2902 107.608 53.2891 107.604L49.9044 94.3349C49.566 93.008 48.2159 92.2067 46.889 92.5452Z" fill="#252D33"/>
<path fill-rule="evenodd" clip-rule="evenodd" d="M174.386 59.2521C173.059 59.5906 172.257 60.9407 172.596 62.2676L175.98 75.5363C175.982 75.5439 175.984 75.5515 175.986 75.559L176.593 77.9389L181.399 76.7131L178.448 65.1459L178.448 65.1459L177.401 61.0419C177.063 59.7149 175.712 58.9137 174.386 59.2521Z" fill="#252D33"/>
<path fill-rule="evenodd" clip-rule="evenodd" d="M200.506 188.879C198.231 189.459 196.858 191.773 197.438 194.048L198.969 200.051L200.685 206.776L201.736 210.895L205.849 209.846C205.851 209.845 205.852 209.845 205.854 209.844C205.856 209.844 205.858 209.843 205.86 209.843L209.973 208.794L208.922 204.675L207.207 197.949L205.676 191.947C205.095 189.672 202.781 188.298 200.506 188.879Z" fill="#252D33"/>
<path fill-rule="evenodd" clip-rule="evenodd" d="M82.3024 221.341C80.0277 221.922 78.654 224.236 79.2343 226.511L82.4811 239.239C82.4826 239.245 82.4841 239.25 82.4856 239.256L83.5318 243.358L91.7693 241.256L89.003 230.412L89.003 230.412L87.4718 224.409C86.8915 222.135 84.5771 220.761 82.3024 221.341Z" fill="#252D33"/>
<path fill-rule="evenodd" clip-rule="evenodd" d="M210.117 186.427C208.221 186.911 207.076 188.839 207.56 190.735L211.157 204.836C211.159 204.844 211.161 204.852 211.163 204.86L212.033 208.268L218.897 206.517L216.869 198.565L216.868 198.565L214.424 188.984C213.941 187.088 212.012 185.944 210.117 186.427Z" fill="#252D33"/>
<path fill-rule="evenodd" clip-rule="evenodd" d="M91.9128 218.89C90.0173 219.373 88.8726 221.302 89.3561 223.198L91.8001 232.778L91.8 232.778L93.8286 240.731L97.2461 239.859C97.2511 239.858 97.256 239.857 97.261 239.855C97.2659 239.854 97.2709 239.853 97.2758 239.852L100.693 238.98L99.8242 235.573C99.8221 235.565 99.8199 235.556 99.8177 235.548L96.2207 221.446C95.7371 219.551 93.8084 218.406 91.9128 218.89Z" fill="#252D33"/>
<path fill-rule="evenodd" clip-rule="evenodd" d="M228.994 181.612C226.53 182.24 225.042 184.748 225.67 187.212L227.483 194.317L227.483 194.317L229.88 203.716L234.327 202.581C234.332 202.58 234.337 202.579 234.342 202.577C234.347 202.576 234.353 202.575 234.358 202.573L238.804 201.439L237.671 196.995C237.669 196.989 237.668 196.983 237.666 196.977L234.594 184.935C233.966 182.471 231.459 180.983 228.994 181.612Z" fill="#252D33"/>
<path fill-rule="evenodd" clip-rule="evenodd" d="M236.889 179.598C235.751 179.888 235.064 181.045 235.354 182.183L236.858 188.076L236.858 188.076L239.44 198.197L241.492 197.674C241.494 197.673 241.497 197.672 241.499 197.672C241.501 197.671 241.504 197.671 241.506 197.67L243.558 197.146L243.036 195.099C243.035 195.095 243.034 195.091 243.033 195.087L239.473 181.132C239.183 179.995 238.026 179.308 236.889 179.598Z" fill="#252D33"/>
<path fill-rule="evenodd" clip-rule="evenodd" d="M59.7825 224.776C57.5078 225.356 56.1341 227.671 56.7144 229.945L59.9612 242.673C59.9626 242.679 59.9639 242.684 59.9653 242.689L61.0119 246.792L69.2494 244.691L66.4831 233.847L66.4831 233.847L64.9519 227.844C64.3716 225.569 62.0572 224.196 59.7825 224.776Z" fill="#252D33"/>
<path fill-rule="evenodd" clip-rule="evenodd" d="M49.7727 182.669C47.1189 183.346 45.5163 186.046 46.1933 188.7L48.9055 199.333C48.9063 199.336 48.9071 199.339 48.908 199.342L50.1313 204.138L54.9322 202.913C54.9336 202.913 54.935 202.912 54.9364 202.912C54.9379 202.912 54.9393 202.911 54.9407 202.911L59.7417 201.686L56.791 190.119L56.7909 190.119L55.8037 186.249C55.1267 183.595 52.4266 181.992 49.7727 182.669Z" fill="#252D33"/>
<path fill-rule="evenodd" clip-rule="evenodd" d="M218.139 140.491C215.485 141.168 213.883 143.868 214.56 146.522L217.087 156.431C217.089 156.439 217.091 156.447 217.093 156.454L218.313 161.236L227.924 158.785L225.342 148.663L225.342 148.663L224.17 144.07C223.493 141.416 220.793 139.814 218.139 140.491Z" fill="#252D33"/>
<path d="M110.944 120.095L85.0383 137.484L111.41 240.866M135.657 113.791L165.011 117.083L191.382 220.466" stroke="black"/>
</g>
<path fill-rule="evenodd" clip-rule="evenodd" d="M192.628 212.448C190.353 213.029 188.98 215.343 189.56 217.618L190.009 219.377L190.008 219.377L191.644 225.789L195.757 224.74C195.759 224.74 195.761 224.739 195.763 224.739C195.765 224.738 195.767 224.737 195.769 224.737L199.881 223.688L198.848 219.64C198.843 219.616 198.837 219.593 198.831 219.569L197.797 215.516C197.217 213.242 194.903 211.868 192.628 212.448Z" fill="#7EAA77"/>
<path fill-rule="evenodd" clip-rule="evenodd" d="M166.689 228.279C166.691 228.287 166.693 228.295 166.696 228.303C166.698 228.311 166.7 228.32 166.702 228.328L167.618 231.918L195.762 224.739L194.8 220.967L194.797 220.968C194.224 219.065 192.247 217.935 190.303 218.431L169.388 223.766C167.444 224.262 166.25 226.201 166.659 228.145L166.656 228.146L166.689 228.279Z" fill="#7EAA77"/>
<path fill-rule="evenodd" clip-rule="evenodd" d="M177.437 221.688C177.439 221.696 177.441 221.704 177.443 221.712C177.445 221.72 177.447 221.728 177.449 221.735L178.365 225.327L191.408 221.999L190.446 218.228L190.442 218.228C189.87 216.326 187.893 215.196 185.949 215.692L180.136 217.175C178.192 217.671 176.998 219.609 177.406 221.554L177.403 221.555L177.437 221.688Z" fill="#7EAA77"/>
<mask id="mask1" mask-type="alpha" maskUnits="userSpaceOnUse" x="18" y="18" width="220" height="240">
<path d="M18.2884 62.111L187.843 18.8593L237.636 214.057L68.0814 257.309L18.2884 62.111Z" fill="#8AC3B0"/>
</mask>
<g mask="url(#mask1)">
<mask id="path-32-inside-2" fill="white">
<path fill-rule="evenodd" clip-rule="evenodd" d="M39.3415 308.837C38.0614 263.734 42.0062 200.566 60.8032 164.446C57.3453 162.433 55.021 158.59 55.0929 154.3C55.1954 148.19 60.1182 143.484 66.0884 143.789C68.874 143.931 71.3954 145.139 73.2823 147.008C80.4606 140.032 89.0343 136.039 99.2359 136.117C111.916 136.214 122.058 141.102 130.115 149.359C131.964 148.012 134.266 147.272 136.749 147.399C142.719 147.704 147.476 152.904 147.374 159.015C147.311 162.766 145.431 165.988 142.607 167.846C161.242 206.587 160.508 272.197 156.406 314.818L39.3415 308.837Z"/>
</mask>
<path fill-rule="evenodd" clip-rule="evenodd" d="M39.3415 308.837C38.0614 263.734 42.0062 200.566 60.8032 164.446C57.3453 162.433 55.021 158.59 55.0929 154.3C55.1954 148.19 60.1182 143.484 66.0884 143.789C68.874 143.931 71.3954 145.139 73.2823 147.008C80.4606 140.032 89.0343 136.039 99.2359 136.117C111.916 136.214 122.058 141.102 130.115 149.359C131.964 148.012 134.266 147.272 136.749 147.399C142.719 147.704 147.476 152.904 147.374 159.015C147.311 162.766 145.431 165.988 142.607 167.846C161.242 206.587 160.508 272.197 156.406 314.818L39.3415 308.837Z" fill="#4E3930"/>
<path d="M60.8032 164.446L61.6923 164.932L62.1354 164.081L61.2826 163.584L60.8032 164.446ZM39.3415 308.837L38.343 308.831L38.3702 309.788L39.3247 309.837L39.3415 308.837ZM73.2823 147.008L72.5927 147.708L73.3001 148.409L73.9901 147.738L73.2823 147.008ZM99.2359 136.117L99.2094 135.116L99.2359 136.117ZM130.115 149.359L129.413 150.047L130.03 150.679L130.72 150.176L130.115 149.359ZM142.607 167.846L142.039 167.004L141.331 167.469L141.71 168.256L142.607 167.846ZM156.406 314.818L156.389 315.818L157.312 315.865L157.4 314.948L156.406 314.818ZM59.9142 163.959C50.4362 182.172 44.733 207.131 41.552 233.118C38.3688 259.123 37.702 286.242 38.343 308.831L40.3399 308.843C39.701 286.329 40.3665 259.313 43.5349 233.428C46.7056 207.525 52.3732 182.84 61.6923 164.932L59.9142 163.959ZM54.0942 154.249C54.016 158.917 56.5459 163.108 60.3239 165.307L61.2826 163.584C58.1447 161.758 56.026 158.264 56.0916 154.351L54.0942 154.249ZM66.1052 142.789C59.5628 142.455 54.2056 147.607 54.0942 154.249L56.0916 154.351C56.1851 148.772 60.6736 144.513 66.0716 144.789L66.1052 142.789ZM73.972 146.308C71.9126 144.268 69.1541 142.945 66.1052 142.789L66.0716 144.789C68.5938 144.918 70.8782 146.01 72.5927 147.708L73.972 146.308ZM99.2094 135.116C88.7128 135.035 79.9046 139.155 72.5745 146.278L73.9901 147.738C81.0167 140.91 89.3557 137.042 99.2624 137.118L99.2094 135.116ZM130.817 148.672C122.577 140.227 112.176 135.215 99.2094 135.116L99.2624 137.118C111.657 137.213 121.538 141.977 129.413 150.047L130.817 148.672ZM130.72 150.176C132.399 148.953 134.483 148.284 136.732 148.399L136.766 146.399C134.049 146.26 131.53 147.071 129.51 148.542L130.72 150.176ZM136.732 148.399C142.13 148.675 146.468 153.385 146.375 158.964L148.372 159.066C148.484 152.424 143.308 146.733 136.766 146.399L136.732 148.399ZM146.375 158.964C146.318 162.385 144.604 165.316 142.039 167.004L143.174 168.689C146.257 166.661 148.304 163.148 148.372 159.066L146.375 158.964ZM157.4 314.948C159.455 293.6 160.667 266.488 159.03 239.849C157.394 213.233 152.908 186.988 143.504 167.437L141.71 168.256C150.94 187.445 155.405 213.375 157.036 239.904C158.665 266.411 157.459 293.414 155.412 314.688L157.4 314.948ZM39.3247 309.837L156.389 315.818L156.423 313.818L39.3582 307.837L39.3247 309.837Z" fill="#252D33" mask="url(#path-32-inside-2)"/>
<ellipse rx="14.5202" ry="10.7882" transform="matrix(0.998697 0.0510253 -0.0167606 0.99986 100.802 182.379)" fill="#F2D8B3"/>
<path d="M99.6258 179.274C100.39 179.706 101.303 179.752 102.081 179.399L103.232 178.876C104.497 178.302 105.046 176.811 104.475 175.504C104.063 174.559 103.148 173.921 102.131 173.869L99.7604 173.748C98.7436 173.696 97.8093 174.239 97.3657 175.141C96.7522 176.388 97.2507 177.931 98.4934 178.634L99.6258 179.274Z" fill="#252D33"/>
<ellipse rx="2.90403" ry="3.04283" transform="matrix(0.998697 0.0510253 -0.0167606 0.99986 83.6325 167.661)" fill="white"/>
<ellipse rx="2.37603" ry="2.48959" transform="matrix(0.998697 0.0510253 -0.0167606 0.99986 83.6325 167.661)" fill="#252D33"/>
<ellipse rx="2.90403" ry="3.04283" transform="matrix(0.998697 0.0510253 -0.0167606 0.99986 118.435 169.439)" fill="white"/>
<ellipse rx="2.37603" ry="2.48959" transform="matrix(0.998697 0.0510253 -0.0167606 0.99986 118.435 169.439)" fill="#252D33"/>
<path d="M95.0652 187.456C92.8099 185.688 94.5716 182.897 97.3885 183.041L104.143 183.386C106.891 183.526 108.583 186.394 106.376 187.958C104.938 188.977 103.051 189.694 100.682 189.573C98.3671 189.455 96.5031 188.584 95.0652 187.456Z" fill="#252D33"/>
</g>
<rect x="18" y="62" width="174.475" height="203.39" transform="rotate(-14.5591 18 62)" fill="#C4C4C4" fill-opacity="0.23"/>
<path fill-rule="evenodd" clip-rule="evenodd" d="M207.22 221.816L197.822 224.213L195.32 214.406L195.329 214.404C194.267 209.348 197.372 204.308 202.425 203.019L215.206 199.759C220.259 198.47 225.399 201.407 226.888 206.354L226.897 206.351L226.995 206.733C226.997 206.742 226.999 206.751 227.001 206.76C227.004 206.769 227.006 206.778 227.008 206.787L229.399 216.158L220 218.556L207.22 221.816Z" fill="#7EAA77"/>
<path fill-rule="evenodd" clip-rule="evenodd" d="M227.585 200.451C224.173 201.321 222.113 204.793 222.983 208.205L223.704 211.031C223.707 211.041 223.709 211.051 223.712 211.061L225.28 217.209L237.636 214.057L235.616 206.136L235.616 206.136L235.339 205.053C234.469 201.641 230.997 199.581 227.585 200.451Z" fill="#7EAA77"/>
</svg>
