<svg width="780" height="458" viewBox="0 0 780 458" fill="none" xmlns="http://www.w3.org/2000/svg">
<path d="M159.539 32.679L180.238 59.8805L167.189 252.596H138.391L159.539 32.679Z" fill="#CEB188"/>
<path d="M579.814 22.9972L562.715 75.0949L574.415 260.895H603.213L590.614 18.8478L579.814 22.9972Z" fill="#CEB188"/>
<path d="M159.539 32.679L180.238 59.8805L167.189 252.596H138.391L159.539 32.679Z" stroke="black"/>
<path d="M579.814 22.9972L562.715 75.0949L574.415 260.895H603.213L590.614 18.8478L579.814 22.9972Z" stroke="black"/>
<path d="M584.764 15.6205L590.613 258.129L627.511 241.992H747.654H794.001V-147.588H637.861L584.764 15.6205Z" fill="#F2D8B3"/>
<path d="M486.22 116.128V258.129H580.714L573.514 60.3416L486.22 116.128Z" fill="#F2D8B3"/>
<path d="M259.433 147.94V258.129H486.22V116.128L332.329 91.2314L259.433 147.94Z" fill="#F2D8B3"/>
<path d="M173.488 38.2116L159.989 250.752L259.433 258.129V147.94L173.488 38.2116Z" fill="#F2D8B3"/>
<path d="M-12.8005 217.557V-152.199L168.989 -144.361L164.039 42.822L148.74 250.752L-12.8005 245.681V217.557Z" fill="#F2D8B3"/>
<path d="M259.433 147.94L173.488 38.2116L159.989 250.752L259.433 258.129M259.433 147.94V258.129M259.433 147.94L332.329 91.2314L486.22 116.128M259.433 258.129H486.22M486.22 116.128V258.129M486.22 116.128L573.514 60.3416L580.714 258.129H486.22M-12.8005 217.557V-152.199L168.989 -144.361L164.039 42.822L148.74 250.752L-12.8005 245.681V217.557ZM584.764 15.6205L590.613 258.129L627.511 241.992H747.654H794.001V-147.588H637.861L584.764 15.6205Z" stroke="black"/>
<path d="M629.311 235.538V139.18L643.71 132.264L651.81 139.18L662.159 117.972L676.108 121.199L682.858 124.887L695.007 105.063H712.556L720.656 132.264L725.155 217.096V245.681L626.611 235.538H629.311Z" fill="#252D33" stroke="black"/>
<path fill-rule="evenodd" clip-rule="evenodd" d="M624.812 248.908V139.641C627.961 129.344 637.771 113.361 651.81 131.803C653.76 114.898 662.429 87.9119 681.508 115.206C686.908 92.4608 703.737 61.7247 727.855 120.738C731.305 169.301 737.575 273.251 735.055 300.545C732.535 327.838 660.509 277.492 624.812 248.908ZM633.361 153.933V248.908L684.208 264.583L720.656 248.908L714.356 126.271C701.099 93.0756 690.533 116.128 686.908 131.803V234.155H678.358V142.868C668.999 112.255 661.259 130.113 658.56 142.868V248.908H647.31V151.167C639.031 128.668 634.561 143.637 633.361 153.933Z" fill="#9D4E33" stroke="black"/>
<path d="M-20 190.355L15.9978 -44.315C19.5976 -51.6917 30.127 -65.7996 43.4462 -63.2177C56.7654 -60.6359 60.9952 -15.7304 61.4451 6.39966L37.1466 206.031L-20 190.355Z" fill="#A4CBCA"/>
<path d="M51.5457 206.031L75.3943 6.39966C76.4442 0.0987473 81.4239 -12.5031 92.9433 -12.5031C104.463 -12.5031 103.143 39.1337 101.043 64.952L86.6436 218.479L51.5457 206.031Z" fill="#A4CBCA"/>
<path d="M101.043 218.479L127.141 227.7L137.041 44.6662C137.791 38.5189 136.861 25.8556 127.141 24.3803C117.422 22.905 114.392 37.2895 114.092 44.6662L101.043 218.479Z" fill="#A4CBCA"/>
<path d="M317.48 252.135H344.028V177.907C343.278 172.836 339.349 163.523 329.629 166.842C319.91 170.162 317.48 175.602 317.48 177.907V252.135Z" fill="#A4CBCA"/>
<path d="M359.327 252.135H385.876V177.907C385.126 172.836 381.196 163.523 371.477 166.842C361.757 170.162 359.327 175.602 359.327 177.907V252.135Z" fill="#A4CBCA"/>
<path d="M399.825 252.135H426.373V177.907C425.623 172.836 421.694 163.523 411.974 166.842C402.255 170.162 399.825 175.602 399.825 177.907V252.135Z" fill="#A4CBCA"/>
<path d="M174.388 233.693L179.338 107.829C180.238 104.294 183.298 97.5016 188.338 98.6081C193.377 99.7146 194.637 106.138 194.637 109.212L188.338 235.999L174.388 233.693Z" fill="#A4CBCA"/>
<path d="M194.637 235.999L199.137 124.888C199.437 120.738 201.117 112.624 205.437 113.361C209.756 114.099 210.836 121.353 210.836 124.888L205.437 238.765L194.637 235.999Z" fill="#A4CBCA"/>
<path d="M210.836 238.765L215.786 137.797C216.536 135.338 218.936 130.697 222.536 131.803C226.135 132.91 226.735 136.26 226.585 137.797L222.536 241.07L210.836 238.765Z" fill="#A4CBCA"/>
<path d="M227.935 241.531L234.685 242.914L239.634 151.167C240.234 148.093 240.624 141.762 237.385 141.024C234.145 140.286 232.249 145.327 231.706 147.94L227.935 241.531Z" fill="#A4CBCA"/>
<path d="M239.634 244.758H244.584L247.734 163.615C248.184 161.31 247.104 155.777 244.584 155.777C242.064 155.777 241.884 161.771 241.884 163.615L239.634 244.758Z" fill="#A4CBCA"/>
<path d="M247.734 244.758H254.034L256.283 169.148C256.583 167.15 256.553 162.785 254.034 161.31C251.514 159.835 249.984 164.383 249.534 166.842L247.734 244.758Z" fill="#A4CBCA"/>
<path d="M-20 190.355L15.9978 -44.315C19.5976 -51.6917 30.127 -65.7996 43.4462 -63.2177C56.7654 -60.6359 60.9952 -15.7304 61.4451 6.39966L37.1466 206.031L-20 190.355Z" stroke="black"/>
<path d="M51.5457 206.031L75.3943 6.39966C76.4442 0.0987473 81.4239 -12.5031 92.9433 -12.5031C104.463 -12.5031 103.143 39.1337 101.043 64.952L86.6436 218.479L51.5457 206.031Z" stroke="black"/>
<path d="M101.043 218.479L127.141 227.7L137.041 44.6662C137.791 38.5189 136.861 25.8556 127.141 24.3803C117.422 22.905 114.392 37.2895 114.092 44.6662L101.043 218.479Z" stroke="black"/>
<path d="M317.48 252.135H344.028V177.907C343.278 172.836 339.349 163.523 329.629 166.842C319.91 170.162 317.48 175.602 317.48 177.907V252.135Z" stroke="black"/>
<path d="M359.327 252.135H385.876V177.907C385.126 172.836 381.196 163.523 371.477 166.842C361.757 170.162 359.327 175.602 359.327 177.907V252.135Z" stroke="black"/>
<path d="M399.825 252.135H426.373V177.907C425.623 172.836 421.694 163.523 411.974 166.842C402.255 170.162 399.825 175.602 399.825 177.907V252.135Z" stroke="black"/>
<path d="M174.388 233.693L179.338 107.829C180.238 104.294 183.298 97.5016 188.338 98.6081C193.377 99.7146 194.637 106.138 194.637 109.212L188.338 235.999L174.388 233.693Z" stroke="black"/>
<path d="M194.637 235.999L199.137 124.888C199.437 120.738 201.117 112.624 205.437 113.361C209.756 114.099 210.836 121.353 210.836 124.888L205.437 238.765L194.637 235.999Z" stroke="black"/>
<path d="M210.836 238.765L215.786 137.797C216.536 135.338 218.936 130.697 222.536 131.803C226.135 132.91 226.735 136.26 226.585 137.797L222.536 241.07L210.836 238.765Z" stroke="black"/>
<path d="M227.935 241.531L234.685 242.914L239.634 151.167C240.234 148.093 240.624 141.762 237.385 141.024C234.145 140.286 232.249 145.327 231.706 147.94L227.935 241.531Z" stroke="black"/>
<path d="M239.634 244.758H244.584L247.734 163.615C248.184 161.31 247.104 155.777 244.584 155.777C242.064 155.777 241.884 161.771 241.884 163.615L239.634 244.758Z" stroke="black"/>
<path d="M247.734 244.758H254.034L256.283 169.148C256.583 167.15 256.553 162.785 254.034 161.31C251.514 159.835 249.984 164.383 249.534 166.842L247.734 244.758Z" stroke="black"/>
<rect x="-19.55" y="264.122" width="836.05" height="115.261" fill="#71624D"/>
<path d="M109.592 214.33H-13.7004V229.544V241.992V263.661V279.337V297.778H109.592V284.408V274.265V261.817V254.901V247.064V214.33Z" fill="#4E3930"/>
<path d="M109.592 297.778H159.989V279.798V274.265V261.817V254.901V247.064H109.592V254.901V261.817V274.265V284.408V297.778Z" fill="#4E3930"/>
<path d="M159.989 247.064V254.901V261.817V274.265V279.798V297.778L254.484 280.94L263.483 279.337V268.272V261.817V254.901V247.064H159.989Z" fill="#4E3930"/>
<path d="M263.483 254.901V261.817V268.272V279.337L482.62 283.025V254.901H263.483Z" fill="#4E3930"/>
<path d="M482.62 254.901V283.025H590.163V275.187V266.427V247.064H482.62V254.901Z" fill="#4E3930"/>
<path d="M590.163 247.064V266.427V275.187V283.025H629.761V236.921H590.163V247.064Z" fill="#4E3930"/>
<path d="M659.909 217.557V311.149H763.403V217.557H659.909Z" fill="#4E3930"/>
<path d="M763.403 217.557V311.149V338.811H790.401V210.18H763.403V217.557Z" fill="#4E3930"/>
<path d="M109.592 297.778H159.989M109.592 297.778H-13.7004V279.337M109.592 297.778V284.408M159.989 297.778V279.798M159.989 297.778L254.484 280.94M159.989 247.064H109.592M159.989 247.064H263.483V254.901M159.989 247.064V254.901M109.592 247.064V214.33H-13.7004V229.544M109.592 247.064V254.901M263.483 279.337L482.62 283.025M263.483 279.337L254.484 280.94M263.483 279.337V268.272M263.483 254.901H482.62M263.483 254.901V261.817M482.62 254.901V283.025M482.62 254.901V247.064H590.163M482.62 283.025H590.163M590.163 247.064V236.921H629.761V283.025H590.163M590.163 247.064V266.427M590.163 283.025V275.187M763.403 217.557H659.909V311.149H763.403M763.403 217.557V311.149M763.403 217.557V210.18H790.402V338.811H763.403V311.149M-13.7004 229.544H99.2428V241.992H-13.7004M-13.7004 229.544V241.992M-13.7004 241.992V263.661M-13.7004 263.661L96.543 261.817V279.337H-13.7004M-13.7004 263.661V279.337M109.592 254.901H155.039V261.817H109.592M109.592 254.901V261.817M109.592 261.817V274.265M109.592 274.265H155.039V284.408H109.592M109.592 274.265V284.408M159.989 254.901H254.484V261.817H159.989M159.989 254.901V261.817M159.989 261.817V274.265M159.989 279.798L254.484 280.94M159.989 279.798V274.265M251.784 272.882L159.989 274.265M263.483 261.817H288.681V268.272H263.483M263.483 261.817V268.272M590.163 266.427H564.965V275.187H590.163M590.163 266.427V275.187M298.131 261.817V268.272H348.978V261.817H298.131ZM359.777 261.817V268.272H399.375V261.817H359.777ZM410.624 261.817V268.272H476.77V261.817H410.624ZM489.819 253.057V259.973H528.067V253.057H489.819ZM540.666 253.057V259.973L585.214 261.817V253.057H540.666ZM489.819 268.272V275.187H550.116V266.427L489.819 268.272Z" stroke="black"/>
<path d="M151.44 -158.192L157.739 -140.212L288.682 -79.8152H459.221L591.513 -130.991L607.712 -158.192H151.44Z" fill="#9D4E33"/>
<path d="M-9.65063 -158.192V-148.972H66.8448L132.541 -58.6073L288.682 -1.43806V-79.8152L157.739 -140.212L151.44 -158.192H-9.65063Z" fill="#9D4E33"/>
<path d="M288.682 -1.43806H459.221V-79.8152H288.682V-1.43806Z" fill="#9D4E33"/>
<path d="M614.012 -58.6073L681.058 -140.212H786.802V-158.192H607.712L591.513 -130.991L614.012 -58.6073Z" fill="#9D4E33"/>
<path d="M170.789 64.952L288.682 -1.43806L132.541 -58.6073L170.789 64.952Z" fill="#9D4E33"/>
<path d="M288.682 -1.43806L170.789 64.952L257.633 156.238L325.579 115.667L288.682 -1.43806Z" fill="#9D4E33"/>
<path d="M459.221 -1.43806H288.682L325.579 115.667H422.324L459.221 -1.43806Z" fill="#9D4E33"/>
<path d="M573.964 64.952L459.221 -1.43806L422.324 115.667L490.27 156.238L573.964 64.952Z" fill="#9D4E33"/>
<path d="M459.221 -1.43806L573.964 64.952L614.012 -58.6073L459.221 -1.43806Z" fill="#9D4E33"/>
<path d="M459.221 -1.43806L614.012 -58.6073L591.513 -130.991L459.221 -79.8152V-1.43806Z" fill="#9D4E33"/>
<path d="M170.789 64.952L288.682 -1.43807M170.789 64.952L257.633 156.238L325.579 115.667M170.789 64.952L132.541 -58.6073M288.682 -1.43807H459.221M288.682 -1.43807L325.579 115.667M288.682 -1.43807L132.541 -58.6073M288.682 -1.43807V-79.8152M459.221 -1.43807L573.964 64.952M459.221 -1.43807L422.324 115.667M459.221 -1.43807L614.012 -58.6073M459.221 -1.43807V-79.8152M573.964 64.952L490.269 156.238L422.324 115.667M573.964 64.952L614.012 -58.6073M422.324 115.667H325.579M614.012 -58.6073L681.058 -140.212H786.802V-158.192H607.712M614.012 -58.6073L591.513 -130.991M132.541 -58.6073L66.8448 -148.972H-9.65063V-158.192H151.44M151.44 -158.192L157.739 -140.212L288.682 -79.8152M151.44 -158.192H607.712M288.682 -79.8152H459.221M459.221 -79.8152L591.513 -130.991M591.513 -130.991L607.712 -158.192" stroke="black"/>
<rect x="628.012" y="232.349" width="47.5971" height="77.3772" fill="#D76735" stroke="black"/>
<rect x="280.132" y="271.499" width="82.7951" height="16.5975" fill="#9D4E33"/>
<rect x="183.838" y="271.499" width="82.7951" height="16.5975" fill="#9D4E33"/>
<rect x="380.026" y="271.499" width="82.7951" height="16.5975" fill="#9D4E33"/>
<rect x="484.42" y="271.499" width="82.7951" height="16.5975" fill="#9D4E33"/>
<rect x="580.714" y="271.499" width="82.7951" height="16.5975" fill="#9D4E33"/>
<path d="M371.027 -0.515976V118.433H374.626V-0.515976H371.027Z" fill="#4E3930" stroke="black"/>
<path d="M332.779 122.582V135.03C334.101 134.38 335.419 133.766 336.732 133.186C366.049 120.244 392.711 124.624 407.024 130.232C409.515 131.208 411.632 132.221 413.324 133.186V122.582C382.726 107.091 346.878 116.128 332.779 122.582Z" fill="#F2E4B3"/>
<path d="M336.732 133.186V141.024C338.54 140.367 340.694 139.675 343.128 138.997C357.352 135.036 381.105 131.557 400.725 138.386C402.881 139.137 404.986 140.012 407.024 141.024V130.232C392.711 124.624 366.049 120.244 336.732 133.186Z" fill="#F2E4B3"/>
<path d="M343.128 138.997V143.79C347.403 143.337 353.476 142.825 360.227 142.457C368.441 142.01 377.662 141.777 385.876 142.126C391.517 142.367 396.684 142.881 400.725 143.79V138.386C381.105 131.557 357.352 135.036 343.128 138.997Z" fill="#F2E4B3"/>
<path d="M360.227 142.457L372.376 153.933L385.876 142.126C377.662 141.777 368.441 142.01 360.227 142.457Z" fill="#F2E4B3"/>
<path d="M336.732 133.186C335.419 133.766 334.101 134.38 332.779 135.03V122.582C346.878 116.128 382.726 107.091 413.324 122.582V133.186C411.632 132.221 409.515 131.208 407.024 130.232M336.732 133.186V141.024C338.54 140.367 340.694 139.675 343.128 138.997M336.732 133.186C366.049 120.244 392.711 124.624 407.024 130.232M407.024 130.232V141.024C404.986 140.012 402.881 139.137 400.725 138.386M343.128 138.997V143.79C347.403 143.337 353.476 142.825 360.227 142.457M343.128 138.997C357.352 135.036 381.105 131.557 400.725 138.386M400.725 138.386V143.79C396.684 142.881 391.517 142.367 385.876 142.126M360.227 142.457L372.376 153.933L385.876 142.126M360.227 142.457C368.441 142.01 377.662 141.777 385.876 142.126" stroke="black"/>
<path d="M262.133 285.791V277.954L250.434 279.429L246.384 279.94L235.585 281.303L232.885 281.643L217.586 283.573L213.086 284.141L200.006 285.791L194.187 286.525L177.538 288.626L169.439 289.648L158.639 291.01L150.99 291.975L130.741 294.53L121.292 295.722L98.7929 298.56L91.1433 299.525L34.8967 306.621L25.8972 307.756L-8.30074 312.071V341.116H21.8475L262.133 285.791Z" fill="#703318"/>
<path d="M25.8972 268.272V307.756L34.8967 306.621V268.272H91.1433V299.525L98.7929 298.56V268.272H121.292V295.722L130.741 294.53V268.272H150.99V291.975L158.639 291.01V268.272H169.439V289.648L177.538 288.626V268.272H194.187V286.525L200.006 285.791V268.272H213.086V284.141L217.586 283.573V268.272H232.885V281.643L235.585 281.303V268.272H246.834L246.461 277.954L246.384 279.94L250.434 279.429V278.876V277.954V268.272H258.983V277.954H262.133V268.272V263.2L-14.1504 247.986V271.038L21.8475 268.272H25.8972Z" fill="#703318"/>
<path d="M496.569 262.739V270.116H517.718V294.551H526.717V270.116H535.267V294.551H542.916V270.116H557.315V295.357L564.065 296.163V270.116H582.514V298.367L592.863 299.603V270.116H615.362V302.291L625.261 303.473V270.116H663.509V308.042L677.938 309.765V270.116H717.506V247.064L496.569 262.739Z" fill="#703318"/>
<path d="M517.718 309.765L637.411 344.805V315.298H724.255L677.938 309.765L663.509 308.042L625.261 303.473L615.362 302.291L592.863 299.603L582.514 298.367L564.065 296.163L557.315 295.357L550.566 294.551H542.916H535.267H526.717H517.718V309.765Z" fill="#703318"/>
<path d="M724.255 344.805V315.298H637.411V344.805V349.415L724.255 344.805Z" fill="#703318"/>
<path d="M-8.30074 312.071V341.116H21.8475L262.133 285.791V277.954M-8.30074 312.071L25.8972 307.756M-8.30074 312.071L246.384 279.94M262.133 277.954H258.983V268.272H250.434V277.954V278.876V279.429M262.133 277.954L250.434 279.429M262.133 277.954V268.272V263.2L-14.1504 247.986V271.038L21.8475 268.272H25.8972V307.756M25.8972 307.756L34.8967 306.621M34.8967 306.621V268.272H91.1433V299.525M34.8967 306.621L91.1433 299.525M91.1433 299.525L98.7929 298.56M98.7929 298.56V268.272H121.292V295.722M98.7929 298.56L121.292 295.722M121.292 295.722L130.741 294.53M130.741 294.53V268.272H150.99V291.975M130.741 294.53L150.99 291.975M150.99 291.975L158.639 291.01M158.639 291.01V268.272H169.439V289.648M158.639 291.01L169.439 289.648M169.439 289.648L177.538 288.626M177.538 288.626V268.272H194.187V286.525M177.538 288.626L194.187 286.525M194.187 286.525L200.006 285.791M200.006 285.791V268.272H213.086V284.141M200.006 285.791L213.086 284.141M213.086 284.141L217.586 283.573M217.586 283.573V268.272H232.885V281.643M217.586 283.573L232.885 281.643M232.885 281.643L235.585 281.303M235.585 281.303V268.272H246.834L246.461 277.954L246.384 279.94M235.585 281.303L246.384 279.94M246.384 279.94L250.434 279.429M517.718 294.551V270.116H496.569V262.739L717.506 247.064V270.116H677.938V309.765M517.718 294.551V309.765L637.411 344.805M517.718 294.551H526.717M517.718 294.551L637.411 315.298M724.255 315.298V344.805L637.411 349.415M724.255 315.298H637.411M724.255 315.298L677.938 309.765M637.411 349.415V344.805M637.411 349.415V315.298M637.411 344.805V315.298M526.717 294.551V270.116H535.267V294.551M526.717 294.551H535.267M535.267 294.551H542.916M542.916 294.551H550.566L557.315 295.357M542.916 294.551V270.116H557.315V295.357M557.315 295.357L564.065 296.163M564.065 296.163V270.116H582.514V298.367M564.065 296.163L582.514 298.367M582.514 298.367L592.863 299.603M592.863 299.603V270.116H615.362V302.291M592.863 299.603L615.362 302.291M615.362 302.291L625.261 303.473M625.261 303.473V270.116H663.509V308.042M625.261 303.473L663.509 308.042M663.509 308.042L677.938 309.765" stroke="black"/>
<path d="M9.69824 343.422L263.033 286.252L293.181 292.246L131.641 351.72L9.69824 343.422Z" fill="#AF5026"/>
<path d="M470.471 313.454L519.968 306.999L525.367 302.85L336.379 306.999L344.928 313.454H470.471Z" fill="#AF5026"/>
<path d="M470.471 313.454L488.02 322.641L532.117 345.727H647.31L519.968 306.999L470.471 313.454Z" fill="#AF5026"/>
<path d="M470.471 313.454H344.928L346.278 342.96L488.02 345.727V322.641L470.471 313.454Z" fill="#AF5026"/>
<path d="M344.928 313.454L336.379 306.999V343.422L346.278 342.96L344.928 313.454Z" fill="#AF5026"/>
<path d="M470.471 313.454L519.968 306.999M470.471 313.454H344.928M470.471 313.454L488.02 322.641M519.968 306.999L647.31 345.727H532.117L488.02 322.641M519.968 306.999L525.367 302.85L336.379 306.999M336.379 306.999L344.928 313.454M336.379 306.999V343.422L346.278 342.96M344.928 313.454L346.278 342.96M346.278 342.96L488.02 345.727V322.641M9.69824 343.422L263.033 286.252L293.181 292.246L131.641 351.72L9.69824 343.422Z" stroke="black"/>
<path d="M350.778 342.96V294.551H382.726V342.96H375.076V327.285H359.327V342.96H350.778Z" fill="#D76735" stroke="black"/>
<path d="M413.324 343.883V295.473H445.272V343.883H437.623V328.207H421.874V343.883H413.324Z" fill="#D76735" stroke="black"/>
<path fill-rule="evenodd" clip-rule="evenodd" d="M488.02 322.73V343.883H496.569V328.207H498.459L488.02 322.73ZM488.02 311.149L519.968 307.113V295.473H488.02V311.149ZM519.968 339.492L512.318 335.478V343.883H519.968V339.492Z" fill="#D76735"/>
<path d="M488.02 343.883H487.52V344.383H488.02V343.883ZM488.02 322.73L488.252 322.287L487.52 321.903V322.73H488.02ZM496.569 343.883V344.383H497.069V343.883H496.569ZM496.569 328.207V327.707H496.069V328.207H496.569ZM498.459 328.207V328.707L498.691 327.764L498.459 328.207ZM488.02 311.149H487.52V311.716L488.082 311.645L488.02 311.149ZM519.968 307.113L520.031 307.609L520.468 307.554V307.113H519.968ZM519.968 295.473H520.468V294.973H519.968V295.473ZM488.02 295.473V294.973H487.52V295.473H488.02ZM519.968 339.492H520.468V339.189L520.2 339.049L519.968 339.492ZM512.318 335.478L512.551 335.036L511.818 334.651V335.478H512.318ZM512.318 343.883H511.818V344.383H512.318V343.883ZM519.968 343.883V344.383H520.468V343.883H519.968ZM488.52 343.883V322.73H487.52V343.883H488.52ZM496.569 343.383H488.02V344.383H496.569V343.383ZM496.069 328.207V343.883H497.069V328.207H496.069ZM498.459 327.707H496.569V328.707H498.459V327.707ZM498.691 327.764L488.252 322.287L487.787 323.173L498.227 328.65L498.691 327.764ZM488.082 311.645L520.031 307.609L519.905 306.617L487.957 310.652L488.082 311.645ZM519.468 295.473V307.113H520.468V295.473H519.468ZM488.02 295.973H519.968V294.973H488.02V295.973ZM488.52 311.149V295.473H487.52V311.149H488.52ZM520.2 339.049L512.551 335.036L512.086 335.921L519.736 339.934L520.2 339.049ZM512.818 343.883V335.478H511.818V343.883H512.818ZM519.968 343.383H512.318V344.383H519.968V343.383ZM519.468 339.492V343.883H520.468V339.492H519.468Z" fill="black"/>
<path d="M492.969 318.064V344.344L528.967 346.649V335.584L492.969 318.064Z" fill="#D76735" stroke="black"/>
<path d="M271.133 330.051V312.993L277.725 314.601L279.153 314.949L280.582 315.298V308.382L278.332 307.46L269.333 311.61V330.051H271.133Z" fill="#D76735"/>
<path d="M280.582 301.467V307.46V308.382V315.298V336.506L282.382 335.584V315.298L289.582 311.61V334.201H291.381V296.856L280.582 301.467Z" fill="#D76735"/>
<path d="M277.725 314.601V326.363H279.232V315.298L279.153 314.949L277.725 314.601Z" fill="#D76735"/>
<path d="M280.582 315.298V336.506L282.382 335.584V315.298L289.582 311.61V334.201H291.381V296.856L280.582 301.467V307.46V308.382M280.582 315.298V308.382M280.582 315.298L279.153 314.949M280.582 308.382L278.332 307.46L269.333 311.61V330.051H271.133V312.993L277.725 314.601M277.725 314.601V326.363H279.232V315.298L279.153 314.949M277.725 314.601L279.153 314.949" stroke="black"/>
<path d="M253.244 336.517V318.268L260.24 319.988L261.756 320.361L263.272 320.734V313.336L260.884 312.349L251.334 316.788V336.517H253.244Z" fill="#D76735"/>
<path d="M263.272 305.938V312.349V313.336V320.734V343.422L265.182 342.435V320.734L272.822 316.788V340.955H274.732V301.006L263.272 305.938Z" fill="#D76735"/>
<path d="M260.24 319.988V332.571H261.839V320.734L261.756 320.361L260.24 319.988Z" fill="#D76735"/>
<path d="M263.272 320.734V343.422L265.182 342.435V320.734L272.822 316.788V340.955H274.732V301.006L263.272 305.938V312.349V313.336M263.272 320.734V313.336M263.272 320.734L261.756 320.361M263.272 313.336L260.884 312.349L251.334 316.788V336.517H253.244V318.268L260.24 319.988M260.24 319.988V332.571H261.839V320.734L261.756 320.361M260.24 319.988L261.756 320.361" stroke="black"/>
<path d="M235.392 342.049V323.8L242.926 325.521L244.559 325.894L246.191 326.266V318.868L243.62 317.882L233.335 322.321V342.049H235.392Z" fill="#D76735"/>
<path d="M246.191 311.47V317.882V318.868V326.266V348.954L248.248 347.968V326.266L256.476 322.321V346.488H258.533V306.538L246.191 311.47Z" fill="#D76735"/>
<path d="M242.926 325.521V338.103H244.649V326.266L244.559 325.894L242.926 325.521Z" fill="#D76735"/>
<path d="M246.191 326.266V348.954L248.248 347.968V326.266L256.476 322.321V346.488H258.533V306.538L246.191 311.47V317.882V318.868M246.191 326.266V318.868M246.191 326.266L244.559 325.894M246.191 318.868L243.62 317.882L233.335 322.321V342.049H235.392V323.8L242.926 325.521M242.926 325.521V338.103H244.649V326.266L244.559 325.894M242.926 325.521L244.559 325.894" stroke="black"/>
<path d="M218.293 350.82V331.381L225.827 333.213L227.46 333.611L229.092 334.008V326.127L226.521 325.076L216.236 329.805V350.82H218.293Z" fill="#D76735"/>
<path d="M229.092 318.246V325.076V326.127V334.008V358.175L231.149 357.124V334.008L239.377 329.805V355.548H241.434V312.993L229.092 318.246Z" fill="#D76735"/>
<path d="M225.827 333.213V346.617H227.549V334.008L227.46 333.611L225.827 333.213Z" fill="#D76735"/>
<path d="M229.092 334.008V358.175L231.149 357.124V334.008L239.377 329.805V355.548H241.434V312.993L229.092 318.246V325.076V326.127M229.092 334.008V326.127M229.092 334.008L227.46 333.611M229.092 326.127L226.521 325.076L216.236 329.805V350.82H218.293V331.381L225.827 333.213M225.827 333.213V346.617H227.549V334.008L227.46 333.611M225.827 333.213L227.46 333.611" stroke="black"/>
<path d="M194.655 360.984V339.165L204.611 341.222L206.769 341.668L208.926 342.113V333.268L205.528 332.088L191.937 337.396V360.984H194.655Z" fill="#D76735"/>
<path d="M208.926 324.422V332.088V333.268V342.113V369.24L211.644 368.06V342.113L222.517 337.396V366.291H225.235V318.525L208.926 324.422Z" fill="#D76735"/>
<path d="M204.611 341.222V356.266H206.887V342.113L206.769 341.668L204.611 341.222Z" fill="#D76735"/>
<path d="M208.926 342.113V369.24L211.644 368.06V342.113L222.517 337.396V366.291H225.235V318.525L208.926 324.422V332.088V333.268M208.926 342.113V333.268M208.926 342.113L206.769 341.668M208.926 333.268L205.528 332.088L191.937 337.396V360.984H194.655V339.165L204.611 341.222M204.611 341.222V356.266H206.887V342.113L206.769 341.668M204.611 341.222L206.769 341.668" stroke="black"/>
<path d="M159.466 370.226V346.027L172.381 348.308L175.18 348.803L177.979 349.297V339.487L173.571 338.179L155.939 344.065V370.226H159.466Z" fill="#D76735"/>
<path d="M177.979 329.676V338.179V339.487V349.297V379.383L181.505 378.075V349.297L195.611 344.065V376.113H199.137V323.136L177.979 329.676Z" fill="#D76735"/>
<path d="M172.381 348.308V364.994H175.334V349.297L175.18 348.803L172.381 348.308Z" fill="#D76735"/>
<path d="M177.979 349.297V379.383L181.505 378.075V349.297L195.611 344.065V376.113H199.137V323.136L177.979 329.676V338.179V339.487M177.979 349.297V339.487M177.979 349.297L175.18 348.803M177.979 339.487L173.571 338.179L155.939 344.065V370.226H159.466V346.027L172.381 348.308M172.381 348.308V364.994H175.334V349.297L175.18 348.803M172.381 348.308L175.18 348.803" stroke="black"/>
<rect x="771.503" y="220.784" width="26.0984" height="22.13" fill="#7EAA77"/>
<rect x="771.503" y="247.525" width="28.7983" height="19.3638" fill="#B54918"/>
<rect x="770.603" y="276.109" width="28.7983" height="19.3638" fill="#6689C3"/>
<rect x="770.603" y="300.084" width="28.7983" height="19.3638" fill="#F1A000"/>
<rect x="-1.42505" y="314.847" width="857.827" height="141.514" fill="#916856" stroke="black" stroke-width="4"/>
<path d="M-1.38718 427.66L-2.99219 429.772V430.827L-1.38718 432.235L-2.99219 432.939V433.994H-2.18969L-1.38718 435.754L-2.18969 437.161H-2.99219L-2.18969 438.569H-1.38718L-2.18969 439.977H117.784C119.122 436.34 120.994 428.786 117.784 427.66C114.574 426.534 115.644 426.253 116.581 426.253H-1.38718V427.66Z" fill="#F9F5E7"/>
<path d="M-1.38718 432.235L-2.99219 430.827V429.772L-1.38718 427.66V426.253H116.581C115.644 426.253 114.574 426.534 117.784 427.66C120.994 428.786 119.122 436.34 117.784 439.977H-2.18969L-1.38718 438.569H-2.18969L-2.99219 437.161H-2.18969L-1.38718 435.754M-1.38718 432.235L-2.99219 432.939V433.994H-2.18969L-1.38718 435.754M-1.38718 432.235H112.167M-1.38718 435.754H86.8881" stroke="black"/>
<path d="M74.8506 334.057L-6.20212 425.197H114.976L118.988 425.197L185.195 334.057L74.8506 334.057Z" fill="#FF7D51"/>
<path d="M-6.20212 438.921L-6.20215 441.384H114.976L118.988 441.384C122.471 434.014 123.245 430.237 118.988 425.197L114.976 425.197H-6.20212L-6.20215 427.66H114.976C118.451 431.581 117.403 434.191 114.976 438.921H-6.20212Z" fill="#FF7D51"/>
<path d="M185.195 334.057L118.988 425.197C123.245 430.237 122.471 434.014 118.988 441.384L185.195 347.781C189.074 341.301 189.315 338.204 185.195 334.057Z" fill="#FF7D51"/>
<path d="M-6.20212 425.197L74.8506 334.057L185.195 334.057M-6.20212 425.197L-6.20215 427.66H114.976C118.451 431.581 117.403 434.191 114.976 438.921H-6.20212L-6.20215 441.384H114.976L118.988 441.384M-6.20212 425.197H114.976L118.988 425.197M118.988 425.197L185.195 334.057M118.988 425.197C123.245 430.237 122.471 434.014 118.988 441.384M185.195 334.057C189.315 338.204 189.074 341.301 185.195 347.781L118.988 441.384" stroke="black"/>
<path d="M-6.38252 411.02L-7.86523 412.847V413.76L-6.38252 414.978L-7.86523 415.587V416.5H-7.12388L-6.38252 418.022L-7.12388 419.24H-7.86523L-7.12388 420.458H-6.38252L-7.12388 421.676H103.709C104.945 418.53 106.675 411.994 103.709 411.02C100.744 410.046 101.732 409.802 102.597 409.802H-6.38252V411.02Z" fill="#F9F5E7"/>
<path d="M-6.38252 414.978L-7.86523 413.76V412.847L-6.38252 411.02V409.802H102.597C101.732 409.802 100.744 410.046 103.709 411.02C106.675 411.994 104.945 418.53 103.709 421.676H-7.12388L-6.38252 420.458H-7.12388L-7.86523 419.24H-7.12388L-6.38252 418.022M-6.38252 414.978L-7.86523 415.587V416.5H-7.12388L-6.38252 418.022M-6.38252 414.978H98.5198M-6.38252 418.022H75.167" stroke="black"/>
<path d="M64.0465 330.038L-10.8308 408.889H101.114L104.821 408.889L165.983 330.038L64.0465 330.038Z" fill="#7EAA77"/>
<path d="M-10.8308 420.762L-10.8308 422.893H101.114L104.821 422.893C108.038 416.517 108.754 413.249 104.821 408.889L101.114 408.889H-10.8308L-10.8308 411.02H101.114C104.325 414.412 103.357 416.67 101.114 420.762H-10.8308Z" fill="#7EAA77"/>
<path d="M165.983 330.038L104.821 408.889C108.754 413.249 108.038 416.517 104.821 422.893L165.983 341.911C169.567 336.305 169.789 333.625 165.983 330.038Z" fill="#7EAA77"/>
<path d="M-10.8308 408.889L64.0465 330.038L165.983 330.038M-10.8308 408.889L-10.8308 411.02H101.114C104.325 414.412 103.357 416.67 101.114 420.762H-10.8308L-10.8308 422.893H101.114L104.821 422.893M-10.8308 408.889H101.114L104.821 408.889M104.821 408.889L165.983 330.038M104.821 408.889C108.754 413.249 108.038 416.517 104.821 422.893M165.983 330.038C169.789 333.625 169.567 336.305 165.983 341.911L104.821 422.893" stroke="black"/>
<path d="M-15.1951 397.783L-16.5173 399.42V400.238L-15.1951 401.329L-16.5173 401.875V402.693H-15.8562L-15.1951 404.057L-15.8562 405.149H-16.5173L-15.8562 406.24H-15.1951L-15.8562 407.331H82.9796C84.0814 404.512 85.624 398.656 82.9796 397.783C80.3351 396.91 81.2166 396.691 81.9879 396.691H-15.1951V397.783Z" fill="#F9F5E7"/>
<path d="M-15.1951 401.329L-16.5173 400.238V399.42L-15.1951 397.783V396.691H81.9879C81.2166 396.691 80.3351 396.91 82.9796 397.783C85.624 398.656 84.0814 404.512 82.9796 407.331H-15.8562L-15.1951 406.24H-15.8562L-16.5173 405.149H-15.8562L-15.1951 404.057M-15.1951 401.329L-16.5173 401.875V402.693H-15.8562L-15.1951 404.057M-15.1951 401.329H78.3518M-15.1951 404.057H57.5269" stroke="black"/>
<path d="M47.6102 325.214L-19.1618 395.873H80.6656L83.9712 395.873L138.513 325.214L47.6102 325.214Z" fill="#6689C3"/>
<path d="M-19.1618 406.513L-19.1619 408.422H80.6656L83.9712 408.422C86.84 402.709 87.4779 399.78 83.9712 395.873L80.6656 395.873H-19.1618L-19.1619 397.783H80.6656C83.5284 400.822 82.6654 402.845 80.6656 406.513H-19.1618Z" fill="#6689C3"/>
<path d="M138.513 325.214L83.9712 395.873C87.4779 399.78 86.84 402.709 83.9712 408.422L138.513 335.854C141.708 330.83 141.907 328.428 138.513 325.214Z" fill="#6689C3"/>
<path d="M-19.1618 395.873L47.6102 325.214L138.513 325.214M-19.1618 395.873L-19.1619 397.783H80.6656C83.5284 400.822 82.6654 402.845 80.6656 406.513H-19.1618L-19.1619 408.422H80.6656L83.9712 408.422M-19.1618 395.873H80.6656L83.9712 395.873M83.9712 395.873L138.513 325.214M83.9712 395.873C87.4779 399.78 86.84 402.709 83.9712 408.422M138.513 325.214C141.907 328.428 141.708 330.83 138.513 335.854L83.9712 408.422" stroke="black"/>
<path d="M-22.9448 380.834L-24.1523 382.234V382.933L-22.9448 383.867L-24.1523 384.333V385.033H-23.5486L-22.9448 386.199L-23.5486 387.132H-24.1523L-23.5486 388.066H-22.9448L-23.5486 388.999H66.7176C67.724 386.588 69.1328 381.58 66.7176 380.834C64.3025 380.087 65.1075 379.901 65.812 379.901H-22.9448V380.834Z" fill="#F9F5E7"/>
<path d="M-22.9448 383.867L-24.1523 382.933V382.234L-22.9448 380.834V379.901H65.812C65.1075 379.901 64.3025 380.087 66.7176 380.834C69.1328 381.58 67.724 386.588 66.7176 388.999H-23.5486L-22.9448 388.066H-23.5486L-24.1523 387.132H-23.5486L-22.9448 386.199M-22.9448 383.867L-24.1523 384.333V385.033H-23.5486L-22.9448 386.199M-22.9448 383.867H62.4911M-22.9448 386.199H43.4718" stroke="black"/>
<path d="M34.4149 318.782L-26.5676 379.201H64.6043L67.6232 379.201L117.436 318.782L34.4149 318.782Z" fill="#FBD266"/>
<path d="M-26.5676 388.299L-26.5676 389.932H64.6043L67.6232 389.932C70.2434 385.046 70.8259 382.542 67.6232 379.201L64.6043 379.201H-26.5676L-26.5676 380.834H64.6043C67.2188 383.433 66.4307 385.163 64.6043 388.299H-26.5676Z" fill="#FBD266"/>
<path d="M117.436 318.782L67.6232 379.201C70.8259 382.542 70.2434 385.046 67.6232 389.932L117.436 327.88C120.354 323.585 120.535 321.531 117.436 318.782Z" fill="#FBD266"/>
<path d="M-26.5676 379.201L34.4149 318.782L117.436 318.782M-26.5676 379.201L-26.5676 380.834H64.6043C67.2188 383.433 66.4307 385.163 64.6043 388.299H-26.5676L-26.5676 389.932H64.6043L67.6232 389.932M-26.5676 379.201H64.6043L67.6232 379.201M67.6232 379.201L117.436 318.782M67.6232 379.201C70.8259 382.542 70.2434 385.046 67.6232 389.932M117.436 318.782C120.535 321.531 120.354 323.585 117.436 327.88L67.6232 389.932" stroke="black"/>
<path d="M107.852 387.042C108.001 386.707 108.172 386.412 108.366 386.158C108.561 385.904 108.734 385.694 108.885 385.528L111.124 386.64C111.126 386.466 111.174 386.256 111.271 386.011C111.367 385.767 111.478 385.562 111.603 385.398C112.004 384.874 112.424 384.582 112.865 384.523C113.305 384.464 113.818 384.58 114.403 384.871L116.221 385.774C116.468 385.612 116.681 385.517 116.859 385.488L117.488 385.91L116.092 387.738L115.342 387.475C115.285 387.344 115.295 387.148 115.371 386.886L113.598 386.006C113.275 385.845 113.024 385.786 112.844 385.828C112.661 385.862 112.477 386.001 112.291 386.244C112.105 386.488 112.02 386.771 112.037 387.094L114.339 388.237C114.586 388.075 114.799 387.98 114.977 387.952L115.606 388.374L114.21 390.201L113.46 389.938C113.403 389.808 113.413 389.612 113.489 389.35L109.119 387.179C108.905 387.329 108.693 387.424 108.48 387.465L107.852 387.042ZM113.356 383.233C113.505 382.897 113.677 382.603 113.871 382.348C114.066 382.094 114.238 381.884 114.39 381.718L117.963 383.493C118.211 383.331 118.423 383.236 118.602 383.207L119.23 383.629L117.834 385.457L117.084 385.194C117.027 385.064 117.037 384.867 117.113 384.606L114.624 383.369C114.41 383.519 114.198 383.614 113.985 383.655L113.356 383.233ZM113.424 382.028C113.088 382.467 112.697 382.576 112.249 382.353C111.795 382.128 111.736 381.795 112.072 381.356C112.412 380.911 112.809 380.801 113.263 381.026C113.71 381.249 113.764 381.583 113.424 382.028ZM113.163 380.089C113.312 379.754 113.484 379.459 113.678 379.205C113.872 378.951 114.045 378.74 114.197 378.574L119.651 381.284C119.898 381.122 120.111 381.027 120.289 380.998L120.918 381.42L119.522 383.248L118.771 382.985C118.715 382.854 118.724 382.658 118.801 382.397L114.43 380.225C114.217 380.375 114.004 380.47 113.792 380.511L113.163 380.089ZM121.774 380.3L118.38 380.554L117.767 379.044C117.638 379.104 117.527 379.137 117.433 379.141L116.804 378.719L118.14 376.971L118.89 377.234C118.968 377.433 118.932 377.718 118.78 378.089L119.183 379.341L121.203 379.106C121.538 378.819 121.842 378.653 122.116 378.606L122.745 379.028L121.774 380.3ZM118.573 376.403C118.722 376.068 118.894 375.773 119.088 375.519C119.282 375.265 119.455 375.055 119.607 374.889L123.18 376.664C123.427 376.502 123.64 376.407 123.818 376.378L124.447 376.8L123.051 378.628L122.301 378.365C122.244 378.234 122.254 378.038 122.33 377.777L119.84 376.54C119.627 376.689 119.414 376.785 119.202 376.825L118.573 376.403ZM118.641 375.198C118.305 375.638 117.913 375.747 117.466 375.524C117.012 375.299 116.953 374.966 117.289 374.527C117.629 374.082 118.026 373.972 118.479 374.197C118.927 374.42 118.981 374.753 118.641 375.198ZM120.334 374.099C120.484 373.772 120.649 373.492 120.827 373.259C121.005 373.026 121.159 372.835 121.288 372.688L121.736 372.91C121.712 372.715 121.744 372.49 121.832 372.234C121.918 371.97 122.039 371.738 122.192 371.536C122.589 371.017 123.003 370.722 123.436 370.652C123.872 370.577 124.428 370.707 125.103 371.042L126.822 371.896C127.07 371.734 127.282 371.639 127.461 371.61L128.089 372.032L126.693 373.86L125.943 373.597C125.886 373.466 125.896 373.27 125.972 373.009L124.199 372.128C123.877 371.967 123.625 371.908 123.445 371.95C123.263 371.984 123.081 372.12 122.898 372.359C122.716 372.597 122.63 372.883 122.639 373.216L124.94 374.36C125.188 374.197 125.401 374.102 125.579 374.074L126.208 374.496L124.811 376.324L124.061 376.06C124.004 375.93 124.014 375.734 124.09 375.472L121.601 374.235C121.388 374.385 121.175 374.48 120.962 374.521L120.334 374.099ZM130.706 370.321C131.067 369.849 130.927 369.455 130.288 369.137L129.894 368.942C129.875 369.29 129.716 369.661 129.416 370.053C129.036 370.551 128.578 370.853 128.044 370.96C127.513 371.062 126.865 370.923 126.101 370.543C124.579 369.787 124.291 368.789 125.238 367.549C125.481 367.231 125.785 366.973 126.151 366.775C126.084 366.669 126.091 366.562 126.172 366.456L126.669 365.805L131.076 367.994C131.732 368.32 132.108 368.708 132.202 369.156C132.299 369.599 132.118 370.123 131.656 370.727C131.414 371.045 131.121 371.353 130.778 371.65C130.436 371.948 130.135 372.153 129.876 372.265C129.818 372.244 129.762 372.22 129.709 372.193C129.38 372.03 129.116 371.804 128.917 371.515L129.451 370.815C129.621 370.819 129.821 370.86 130.05 370.937C130.293 370.781 130.512 370.575 130.706 370.321ZM126.885 369.42C127.333 369.642 127.687 369.745 127.947 369.728C128.211 369.706 128.442 369.565 128.641 369.305C128.843 369.041 128.941 368.761 128.936 368.466L126.814 367.411C126.55 367.573 126.323 367.778 126.133 368.027C125.757 368.52 126.008 368.984 126.885 369.42ZM127.859 361.126C127.969 360.983 128.089 360.841 128.22 360.702L128.229 360.706L128.226 360.694L133.367 363.248C133.624 363.083 133.834 362.987 133.996 362.958L134.679 363.406L133.101 365.472L132.297 365.183C132.238 365.022 132.288 364.751 132.448 364.37L128.525 362.421C128.263 362.7 128.018 362.907 127.791 363.043L127.11 362.705C127.229 362.15 127.479 361.624 127.859 361.126ZM136.691 360.902C136.157 361.601 135.545 361.976 134.855 362.028C134.168 362.075 133.261 361.817 132.133 361.257C131.004 360.696 130.308 360.131 130.043 359.561C129.782 358.986 129.921 358.346 130.459 357.641C131.002 356.931 131.604 356.547 132.266 356.489C132.933 356.425 133.83 356.674 134.958 357.234C136.087 357.795 136.791 358.371 137.072 358.964C137.356 359.551 137.229 360.197 136.691 360.902ZM131.254 358.979C131.503 359.234 132.061 359.577 132.927 360.007C133.793 360.437 134.448 360.69 134.893 360.765C135.338 360.84 135.676 360.726 135.907 360.424C136.101 360.17 136.128 359.924 135.989 359.686C135.829 359.41 135.272 359.034 134.317 358.56C133.361 358.085 132.67 357.815 132.243 357.749C131.816 357.683 131.481 357.809 131.238 358.126C130.999 358.439 131.004 358.723 131.254 358.979ZM133.462 353.792C133.571 353.649 133.691 353.508 133.822 353.368L133.831 353.373L133.828 353.36L138.969 355.914C139.226 355.75 139.436 355.653 139.598 355.624L140.281 356.073L138.703 358.139L137.899 357.849C137.84 357.688 137.891 357.417 138.05 357.036L134.127 355.088C133.865 355.366 133.62 355.574 133.393 355.709L132.712 355.371C132.831 354.816 133.081 354.29 133.462 353.792Z" fill="black"/>
<path d="M90.2733 379.307C90.2926 379.821 90.1121 380.327 89.7316 380.825C89.3553 381.318 88.9758 381.604 88.5932 381.684C88.2106 381.765 87.7566 381.674 87.2312 381.413L85.1625 380.386C84.9492 380.536 84.7364 380.631 84.5241 380.671L83.8952 380.249C84.0442 379.914 84.2159 379.619 84.4101 379.365C84.6044 379.111 84.7772 378.901 84.9287 378.735L87.7856 380.154C88.108 380.314 88.3553 380.379 88.5275 380.347C88.6978 380.308 88.8821 380.158 89.0804 379.898C89.2787 379.639 89.3673 379.35 89.3462 379.033L87.0625 377.898C86.8492 378.048 86.6364 378.143 86.4241 378.184L85.7953 377.762C85.9443 377.427 86.1159 377.132 86.3102 376.878C86.5044 376.624 86.6773 376.413 86.8287 376.247L90.3215 377.983C90.5049 377.818 90.6669 377.698 90.8076 377.621L91.5151 377.973C91.4633 378.386 91.2533 378.833 90.885 379.315C90.6764 379.394 90.4725 379.391 90.2733 379.307ZM89.7688 374.081C89.3965 374.568 89.682 375.046 90.6253 375.515C91.103 375.752 91.4879 375.852 91.7801 375.814C92.0704 375.769 92.3127 375.619 92.507 375.364C92.8145 374.962 93.0439 374.586 93.195 374.237L94.0667 374.341C94.0626 374.573 93.996 374.854 93.8671 375.185C93.7321 375.513 93.5614 375.811 93.355 376.082C92.4809 377.226 91.2975 377.427 89.8049 376.686C88.9332 376.253 88.4581 375.743 88.3795 375.155C88.3163 374.634 88.4789 374.12 88.8675 373.611C89.256 373.102 89.6872 372.732 90.1611 372.5C90.2249 372.524 90.2836 372.55 90.3374 372.576C90.6777 372.745 90.9475 372.974 91.1467 373.263L90.6125 373.963C90.4066 373.963 90.1931 373.919 89.972 373.831C89.9175 373.891 89.8497 373.975 89.7688 374.081ZM88.3405 371.034C88.4895 370.699 88.6611 370.404 88.8554 370.15C89.0496 369.895 89.2225 369.685 89.3739 369.519L94.828 372.229C95.0753 372.067 95.2881 371.972 95.4663 371.943L96.0952 372.365L94.699 374.193L93.9487 373.93C93.8919 373.799 93.9017 373.603 93.9781 373.341L89.6077 371.17C89.3944 371.32 89.1816 371.415 88.9693 371.456L88.3405 371.034ZM92.7129 369.903C92.6233 369.859 92.5298 369.809 92.4324 369.753C92.5102 369.112 92.7657 368.508 93.1987 367.941C93.6317 367.374 94.0637 367.03 94.4946 366.908C94.9237 366.777 95.4188 366.852 95.98 367.13L97.8876 368.078C98.071 367.913 98.2331 367.793 98.3737 367.717L99.1529 368.104C99.0898 368.445 98.866 368.867 98.4815 369.371C98.2858 369.347 98.0633 369.298 97.8141 369.226C98.0162 369.64 97.8886 370.147 97.4313 370.746C97.1602 371.1 96.811 371.347 96.3839 371.486C95.9609 371.619 95.5493 371.586 95.1493 371.388C94.7493 371.189 94.5249 370.917 94.4761 370.571C94.4253 370.217 94.578 369.807 94.9342 369.34L95.5959 368.474L95.166 368.261C94.7003 368.029 94.2995 368.134 93.9636 368.573C93.8381 368.738 93.7528 368.882 93.7077 369.005C93.9504 369.14 94.1202 369.269 94.217 369.39L93.6221 370.169C93.3443 370.155 93.0413 370.066 92.7129 369.903ZM96.7789 369.95C96.9853 369.68 97.0596 369.421 97.0019 369.173L96.2675 368.808L95.8426 369.364C95.5512 369.746 95.5697 370.018 95.8981 370.181C96.0474 370.255 96.2001 370.276 96.3563 370.244C96.5166 370.207 96.6575 370.109 96.7789 369.95ZM94.5058 362.963C94.6548 362.628 94.8264 362.333 95.0207 362.079C95.2149 361.825 95.3878 361.614 95.5393 361.449L97.7782 362.561C97.7798 362.386 97.8287 362.177 97.9249 361.932C98.0211 361.688 98.1319 361.483 98.2574 361.319C98.658 360.794 99.0785 360.503 99.5189 360.444C99.9593 360.385 100.472 360.501 101.057 360.791L102.875 361.695C103.123 361.533 103.335 361.437 103.513 361.409L104.142 361.831L102.746 363.659L101.996 363.396C101.939 363.265 101.949 363.069 102.025 362.807L100.252 361.926C99.9296 361.766 99.6783 361.707 99.4979 361.749C99.3157 361.783 99.1315 361.921 98.9453 362.165C98.7592 362.409 98.6746 362.692 98.6917 363.015L100.993 364.158C101.241 363.996 101.453 363.901 101.632 363.872L102.261 364.294L100.864 366.122L100.114 365.859C100.057 365.728 100.067 365.532 100.143 365.271L95.773 363.099C95.5597 363.249 95.3469 363.345 95.1347 363.385L94.5058 362.963ZM100.011 359.153C100.16 358.818 100.331 358.523 100.525 358.269C100.72 358.015 100.893 357.805 101.044 357.639L104.617 359.414C104.865 359.252 105.078 359.156 105.256 359.128L105.885 359.55L104.488 361.378L103.738 361.115C103.681 360.984 103.691 360.788 103.768 360.526L101.278 359.29C101.065 359.439 100.852 359.535 100.639 359.575L100.011 359.153ZM100.079 357.948C99.7427 358.388 99.3509 358.497 98.9031 358.274C98.4493 358.049 98.3904 357.716 98.7263 357.276C99.0662 356.831 99.4631 356.722 99.9168 356.947C100.365 357.17 100.419 357.503 100.079 357.948ZM103.659 355.704C103.392 356.053 103.375 356.286 103.607 356.402C103.828 356.512 104.132 356.41 104.519 356.098L105.186 355.564C105.871 355.012 106.539 354.898 107.19 355.222C107.638 355.444 107.897 355.767 107.97 356.19C108.04 356.605 107.842 357.117 107.377 357.726C106.915 358.33 106.46 358.754 106.01 358.998C105.94 358.971 105.872 358.941 105.807 358.908C105.478 358.745 105.227 358.54 105.053 358.293L105.557 357.634C105.753 357.636 105.937 357.665 106.108 357.721C106.225 357.633 106.358 357.491 106.508 357.295C106.864 356.829 106.893 356.521 106.594 356.373C106.499 356.325 106.397 356.319 106.289 356.353C106.175 356.384 106.017 356.477 105.815 356.633L105.13 357.158C104.781 357.431 104.44 357.608 104.105 357.691C103.765 357.77 103.4 357.713 103.012 357.52C102.618 357.325 102.403 357.024 102.367 356.619C102.331 356.213 102.511 355.751 102.907 355.232C103.308 354.707 103.732 354.308 104.181 354.034C104.245 354.058 104.306 354.085 104.366 354.115C104.676 354.269 104.919 354.47 105.092 354.717L104.594 355.368C104.405 355.369 104.227 355.343 104.061 355.29C103.906 355.417 103.772 355.555 103.659 355.704ZM104.425 351.336L105.554 351.897L106.422 350.76L107.174 351.134L106.306 352.27L108.572 353.396C108.763 353.491 108.922 353.537 109.048 353.534C109.168 353.527 109.296 353.434 109.434 353.254C109.572 353.074 109.674 352.858 109.743 352.607L110.623 352.716C110.545 353.24 110.341 353.716 110.014 354.145C109.69 354.569 109.368 354.807 109.047 354.86C108.725 354.905 108.367 354.829 107.973 354.633L105.456 353.383L105.183 353.741L104.57 353.557C104.521 353.415 104.542 353.184 104.63 352.863C104.189 352.556 103.973 352.241 103.982 351.916L104.425 351.336ZM112.66 350.811C112.182 351.436 111.64 351.806 111.033 351.921C110.426 352.036 109.744 351.905 108.985 351.529C108.221 351.149 107.767 350.693 107.621 350.16C107.474 349.62 107.642 349.034 108.123 348.404C108.605 347.773 109.14 347.396 109.729 347.272C110.322 347.143 111.001 347.268 111.765 347.648C112.523 348.024 112.983 348.49 113.143 349.045C113.302 349.592 113.141 350.18 112.66 350.811ZM109.779 350.344C110.734 350.819 111.406 350.802 111.795 350.293C111.993 350.034 112.031 349.79 111.909 349.561C111.785 349.324 111.476 349.083 110.98 348.836C110.049 348.374 109.385 348.402 108.988 348.921C108.794 349.175 108.755 349.415 108.871 349.641C108.981 349.864 109.283 350.098 109.779 350.344ZM112.849 344.336C112.542 344.738 112.416 345.059 112.472 345.299L114.523 346.318C114.94 345.933 115.29 345.702 115.573 345.623L116.201 346.045L114.465 348.317L113.715 348.054C113.658 347.924 113.668 347.728 113.744 347.466L111.255 346.229C111.041 346.379 110.829 346.474 110.616 346.515L109.987 346.093C110.138 345.766 110.303 345.486 110.481 345.253C110.659 345.02 110.813 344.829 110.942 344.682L111.506 344.962C111.438 344.76 111.426 344.538 111.47 344.297C111.509 344.053 111.586 343.854 111.704 343.701C111.825 343.542 111.923 343.44 111.997 343.397L113.143 343.999C113.045 344.096 112.947 344.208 112.849 344.336ZM118.616 344.759C118.689 344.664 118.665 344.513 118.543 344.306C118.431 344.097 118.253 343.903 118.011 343.724L113.541 343.301C113.247 343.513 113 343.632 112.8 343.657L112.171 343.234L113.567 341.407L114.317 341.67C114.36 341.786 114.358 341.946 114.31 342.149L115.996 342.383C116.35 342.427 116.678 342.499 116.981 342.598L117.124 342.637L117.209 342.526C116.943 342.335 116.687 342.105 116.439 341.836L115.435 340.756C115.202 340.911 114.995 340.998 114.815 341.018L114.186 340.596L115.522 338.848L116.272 339.111C116.337 339.275 116.319 339.507 116.221 339.809L118.712 342.855C119.184 343.434 119.466 343.836 119.555 344.064C119.73 344.472 119.657 344.885 119.337 345.304C119.022 345.717 118.658 345.971 118.248 346.067C118.184 346.043 118.122 346.016 118.062 345.986C117.734 345.823 117.47 345.608 117.271 345.34L117.774 344.681C117.996 344.682 118.249 344.745 118.531 344.871L118.616 344.759Z" fill="black"/>
<path d="M112.627 416.714C112.773 416.378 112.942 416.081 113.134 415.825C113.326 415.569 113.497 415.358 113.647 415.191L115.894 416.286C115.894 416.111 115.941 415.901 116.036 415.656C116.13 415.41 116.239 415.205 116.363 415.039C116.759 414.511 117.177 414.216 117.616 414.154C118.056 414.091 118.57 414.203 119.157 414.489L120.982 415.378C121.228 415.214 121.44 415.117 121.617 415.087L122.25 415.505L120.869 417.345L120.117 417.087C120.059 416.957 120.068 416.761 120.142 416.498L118.362 415.631C118.038 415.473 117.786 415.416 117.606 415.46C117.425 415.495 117.242 415.635 117.058 415.88C116.874 416.126 116.791 416.41 116.811 416.733L119.121 417.858C119.367 417.694 119.579 417.597 119.757 417.567L120.389 417.984L119.009 419.824L118.257 419.567C118.199 419.437 118.207 419.241 118.281 418.978L113.894 416.841C113.682 416.992 113.471 417.089 113.259 417.132L112.627 416.714ZM123.978 413.332C123.506 413.961 122.967 414.336 122.361 414.456C121.756 414.576 121.072 414.45 120.311 414.08C119.544 413.706 119.086 413.253 118.936 412.721C118.785 412.182 118.947 411.594 119.423 410.96C119.899 410.325 120.431 409.943 121.019 409.815C121.61 409.681 122.29 409.8 123.057 410.174C123.818 410.545 124.281 411.007 124.447 411.561C124.61 412.107 124.454 412.697 123.978 413.332ZM121.095 412.888C122.053 413.355 122.725 413.333 123.109 412.821C123.305 412.56 123.341 412.315 123.217 412.087C123.092 411.851 122.78 411.612 122.283 411.37C121.348 410.914 120.684 410.948 120.292 411.47C120.1 411.726 120.063 411.967 120.181 412.192C120.293 412.414 120.597 412.646 121.095 412.888ZM128.5 407.271L126.774 406.987C126.422 406.932 126.013 406.823 125.545 406.661L125.311 406.58L125.227 406.692C125.655 406.973 126.023 407.262 126.333 407.558L127.48 408.631L126.628 409.766L122.339 409.053C122.077 409.238 121.851 409.343 121.661 409.367L121.029 408.95L122.433 407.078L123.186 407.335C123.239 407.493 123.225 407.708 123.143 407.981L125.784 408.634L125.868 408.522C125.594 408.309 125.319 408.08 125.044 407.837L123.141 406.167L123.814 405.271L126.508 405.852L127.656 406.138L127.74 406.026C126.875 405.335 126.295 404.871 125.999 404.632L125.784 404.461C125.508 404.655 125.28 404.762 125.1 404.784L124.468 404.366L125.8 402.59L126.552 402.848C126.622 403.006 126.61 403.229 126.516 403.518L129.28 406.231L128.5 407.271ZM127.314 398.51L128.447 399.062L129.305 397.918L130.06 398.286L129.202 399.43L131.476 400.538C131.668 400.632 131.827 400.676 131.953 400.672C132.073 400.665 132.201 400.571 132.337 400.39C132.473 400.208 132.574 399.992 132.64 399.74L133.521 399.842C133.447 400.366 133.248 400.844 132.923 401.276C132.603 401.703 132.284 401.944 131.964 401.999C131.642 402.047 131.283 401.974 130.888 401.781L128.362 400.55L128.092 400.91L127.477 400.731C127.427 400.59 127.446 400.359 127.532 400.036C127.088 399.733 126.87 399.419 126.876 399.094L127.314 398.51ZM135.54 397.919C135.068 398.548 134.529 398.923 133.924 399.043C133.318 399.163 132.635 399.038 131.874 398.667C131.107 398.293 130.648 397.84 130.499 397.309C130.347 396.769 130.51 396.182 130.986 395.547C131.462 394.912 131.994 394.531 132.581 394.402C133.173 394.268 133.852 394.388 134.619 394.761C135.38 395.132 135.844 395.595 136.009 396.149C136.173 396.694 136.016 397.285 135.54 397.919ZM132.657 397.475C133.616 397.943 134.287 397.92 134.671 397.408C134.867 397.147 134.903 396.903 134.78 396.675C134.654 396.439 134.342 396.2 133.845 395.957C132.91 395.502 132.247 395.535 131.855 396.058C131.663 396.314 131.625 396.554 131.743 396.779C131.855 397.001 132.159 397.233 132.657 397.475ZM134.111 391.511C134.259 391.183 134.421 390.901 134.598 390.667C134.774 390.432 134.926 390.24 135.054 390.092L135.494 390.306C135.48 389.812 135.626 389.362 135.93 388.956C136.33 388.423 136.791 388.12 137.312 388.046C137.834 387.973 138.493 388.13 139.29 388.519C139.716 388.726 140.048 388.964 140.288 389.234C140.528 389.504 140.665 389.778 140.701 390.058C140.785 390.601 140.636 391.126 140.256 391.633C140.092 391.851 139.912 392.048 139.716 392.222L140.489 392.598C140.821 392.33 141.084 392.182 141.278 392.152L141.91 392.57L140.404 394.577L139.652 394.32C139.596 394.198 139.604 394.002 139.676 393.731L135.379 391.638C135.167 391.789 134.955 391.886 134.743 391.929L134.111 391.511ZM139.279 391.266C139.479 390.999 139.506 390.724 139.358 390.441C139.204 390.155 138.894 389.898 138.426 389.67C137.953 389.44 137.597 389.325 137.359 389.325C137.121 389.326 136.919 389.438 136.751 389.662C136.494 390.004 136.38 390.319 136.408 390.61L138.799 391.775C138.971 391.633 139.131 391.463 139.279 391.266ZM135.552 386.155C135.698 385.818 135.867 385.522 136.059 385.266C136.251 385.01 136.422 384.798 136.572 384.631L142.047 387.298C142.293 387.134 142.505 387.037 142.683 387.007L143.315 387.425L141.935 389.265L141.182 389.007C141.125 388.877 141.133 388.681 141.207 388.418L136.82 386.281C136.608 386.432 136.396 386.529 136.184 386.572L135.552 386.155ZM139.913 384.988C139.823 384.945 139.729 384.895 139.631 384.84C139.704 384.198 139.954 383.592 140.382 383.021C140.81 382.451 141.239 382.103 141.669 381.977C142.097 381.843 142.592 381.913 143.155 382.188L145.07 383.121C145.252 382.955 145.413 382.833 145.553 382.755L146.335 383.137C146.275 383.479 146.055 383.903 145.675 384.41C145.479 384.387 145.256 384.34 145.007 384.27C145.212 384.683 145.089 385.191 144.637 385.793C144.369 386.151 144.022 386.4 143.596 386.543C143.174 386.679 142.763 386.65 142.361 386.454C141.96 386.259 141.733 385.988 141.681 385.642C141.627 385.288 141.777 384.877 142.129 384.408L142.783 383.536L142.351 383.325C141.884 383.098 141.484 383.205 141.152 383.648C141.028 383.813 140.944 383.958 140.9 384.082C141.144 384.215 141.314 384.342 141.412 384.463L140.824 385.247C140.546 385.235 140.243 385.149 139.913 384.988ZM143.978 385.003C144.182 384.731 144.254 384.471 144.194 384.223L143.457 383.864L143.037 384.424C142.749 384.808 142.77 385.08 143.099 385.241C143.249 385.314 143.402 385.334 143.558 385.301C143.718 385.262 143.858 385.163 143.978 385.003ZM148.4 382.544C148.472 382.448 148.446 382.297 148.322 382.092C148.208 381.883 148.03 381.691 147.786 381.514L143.314 381.126C143.022 381.34 142.776 381.461 142.576 381.487L141.944 381.07L143.324 379.23L144.077 379.488C144.12 379.604 144.119 379.763 144.073 379.967L145.761 380.188C146.114 380.229 146.443 380.298 146.747 380.395L146.891 380.433L146.975 380.321C146.707 380.132 146.448 379.904 146.199 379.637L145.186 378.565C144.954 378.721 144.748 378.81 144.569 378.832L143.936 378.414L145.257 376.654L146.009 376.912C146.075 377.075 146.06 377.308 145.963 377.611L148.479 380.639C148.956 381.214 149.241 381.614 149.333 381.841C149.51 382.248 149.441 382.662 149.125 383.083C148.813 383.499 148.452 383.757 148.042 383.856C147.978 383.832 147.916 383.805 147.856 383.776C147.527 383.616 147.261 383.402 147.06 383.137L147.558 382.473C147.779 382.472 148.032 382.533 148.316 382.656L148.4 382.544ZM146.77 372.575L147.903 373.127L148.761 371.983L149.516 372.351L148.658 373.495L150.932 374.603C151.124 374.697 151.283 374.741 151.409 374.737C151.529 374.73 151.657 374.636 151.793 374.454C151.929 374.273 152.03 374.057 152.096 373.805L152.977 373.906C152.903 374.431 152.704 374.909 152.38 375.341C152.06 375.768 151.74 376.009 151.42 376.064C151.098 376.111 150.739 376.038 150.344 375.846L147.818 374.615L147.548 374.975L146.933 374.796C146.884 374.655 146.902 374.423 146.988 374.101C146.544 373.798 146.326 373.484 146.332 373.159L146.77 372.575ZM147.144 370.703C147.29 370.366 147.459 370.07 147.651 369.814C147.843 369.558 148.014 369.346 148.164 369.179L150.411 370.274C150.411 370.099 150.459 369.889 150.553 369.644C150.647 369.398 150.756 369.193 150.88 369.028C151.276 368.5 151.694 368.205 152.133 368.142C152.573 368.08 153.087 368.192 153.674 368.478L155.499 369.367C155.745 369.203 155.957 369.106 156.135 369.076L156.767 369.493L155.387 371.333L154.634 371.076C154.576 370.946 154.585 370.749 154.659 370.487L152.879 369.619C152.555 369.462 152.303 369.405 152.124 369.448C151.942 369.483 151.759 369.624 151.575 369.869C151.391 370.114 151.308 370.398 151.328 370.721L153.639 371.847C153.884 371.682 154.096 371.585 154.274 371.556L154.906 371.973L153.526 373.813L152.774 373.555C152.716 373.425 152.724 373.229 152.798 372.967L148.412 370.829C148.2 370.981 147.988 371.078 147.776 371.12L147.144 370.703ZM158.549 367.248C158.069 367.888 157.515 368.277 156.887 368.416C156.264 368.549 155.587 368.437 154.855 368.081C154.412 367.865 154.073 367.624 153.84 367.357C153.6 367.087 153.465 366.814 153.436 366.537C153.38 366 153.538 365.484 153.91 364.988C154.282 364.492 154.71 364.184 155.194 364.062C155.676 363.933 156.285 364.048 157.022 364.407C157.454 364.617 157.527 364.912 157.243 365.29L155.941 367.026C156.335 367.189 156.666 367.234 156.933 367.16C157.205 367.081 157.465 366.877 157.713 366.546C157.849 366.365 157.955 366.18 158.031 365.991C158.107 365.802 158.149 365.659 158.158 365.561L158.17 365.414L159.069 365.524C159.087 365.577 159.105 365.651 159.123 365.747C159.139 365.835 159.106 366.031 159.026 366.334C158.944 366.629 158.785 366.934 158.549 367.248ZM156.095 365.365C156.019 365.313 155.922 365.258 155.802 365.2C155.682 365.141 155.524 365.123 155.328 365.144C155.126 365.162 154.945 365.278 154.785 365.491C154.629 365.699 154.581 365.894 154.641 366.076C154.701 366.258 154.888 366.451 155.201 366.655L156.095 365.365ZM156.785 361.287C156.933 360.959 157.095 360.678 157.271 360.443C157.447 360.208 157.599 360.017 157.727 359.868L158.167 360.082C158.154 359.588 158.299 359.138 158.603 358.733C159.003 358.199 159.464 357.896 159.986 357.822C160.507 357.749 161.167 357.906 161.964 358.295C162.389 358.502 162.722 358.74 162.961 359.01C163.201 359.28 163.339 359.554 163.374 359.834C163.458 360.377 163.31 360.902 162.93 361.409C162.766 361.627 162.586 361.824 162.39 361.998L163.163 362.374C163.495 362.106 163.758 361.958 163.952 361.928L164.584 362.346L163.077 364.354L162.325 364.096C162.269 363.974 162.278 363.778 162.35 363.507L158.053 361.414C157.841 361.565 157.629 361.662 157.417 361.705L156.785 361.287ZM161.953 361.042C162.153 360.775 162.179 360.5 162.031 360.217C161.878 359.931 161.567 359.674 161.1 359.447C160.626 359.216 160.271 359.101 160.033 359.101C159.795 359.102 159.592 359.214 159.424 359.438C159.168 359.78 159.054 360.095 159.082 360.386L161.473 361.551C161.645 361.409 161.805 361.239 161.953 361.042ZM160.197 356.738C160.343 356.402 160.512 356.106 160.704 355.85C160.897 355.594 161.068 355.382 161.218 355.215L164.804 356.963C165.05 356.798 165.262 356.701 165.44 356.671L166.072 357.089L164.692 358.929L163.94 358.671C163.882 358.541 163.89 358.345 163.964 358.082L161.465 356.865C161.253 357.016 161.041 357.113 160.829 357.156L160.197 356.738ZM160.255 355.532C159.923 355.975 159.532 356.087 159.083 355.868C158.627 355.646 158.566 355.314 158.898 354.871C159.234 354.423 159.629 354.31 160.085 354.532C160.534 354.751 160.591 355.084 160.255 355.532ZM162.663 354.663C162.573 354.619 162.479 354.57 162.381 354.515C162.453 353.873 162.704 353.266 163.132 352.696C163.56 352.125 163.989 351.777 164.418 351.652C164.846 351.518 165.342 351.588 165.905 351.863L167.82 352.796C168.002 352.629 168.163 352.507 168.303 352.43L169.085 352.811C169.025 353.153 168.805 353.578 168.425 354.084C168.229 354.062 168.006 354.015 167.756 353.944C167.962 354.357 167.838 354.865 167.386 355.468C167.118 355.825 166.771 356.075 166.346 356.217C165.924 356.354 165.512 356.324 165.111 356.129C164.709 355.933 164.483 355.662 164.431 355.317C164.377 354.963 164.526 354.551 164.878 354.082L165.532 353.21L165.101 353C164.634 352.772 164.234 352.88 163.902 353.322C163.778 353.488 163.694 353.632 163.65 353.756C163.893 353.89 164.064 354.017 164.162 354.137L163.574 354.921C163.296 354.91 162.992 354.823 162.663 354.663ZM166.727 354.677C166.931 354.405 167.004 354.146 166.944 353.898L166.207 353.539L165.787 354.099C165.499 354.483 165.519 354.755 165.849 354.916C165.999 354.989 166.152 355.008 166.308 354.975C166.467 354.937 166.607 354.837 166.727 354.677ZM165.008 350.325C165.156 349.997 165.318 349.715 165.494 349.481C165.671 349.246 165.823 349.054 165.951 348.906L166.4 349.125C166.374 348.93 166.404 348.704 166.49 348.448C166.575 348.183 166.693 347.949 166.845 347.747C167.237 347.224 167.649 346.926 168.08 346.852C168.516 346.773 169.072 346.899 169.75 347.229L171.476 348.07C171.722 347.905 171.934 347.808 172.111 347.779L172.744 348.196L171.363 350.036L170.611 349.778C170.553 349.648 170.561 349.452 170.636 349.19L168.856 348.322C168.532 348.165 168.28 348.107 168.1 348.151C167.918 348.186 167.738 348.324 167.557 348.564C167.377 348.804 167.293 349.09 167.305 349.424L169.615 350.549C169.861 350.385 170.073 350.288 170.251 350.258L170.883 350.676L169.503 352.515L168.751 352.258C168.693 352.128 168.701 351.932 168.775 351.669L166.276 350.452C166.064 350.603 165.852 350.7 165.64 350.743L165.008 350.325ZM174.47 346.025C173.998 346.655 173.459 347.029 172.854 347.149C172.248 347.269 171.565 347.144 170.804 346.773C170.036 346.399 169.578 345.946 169.429 345.415C169.277 344.875 169.439 344.288 169.915 343.653C170.392 343.018 170.923 342.637 171.511 342.508C172.103 342.374 172.782 342.494 173.549 342.868C174.31 343.238 174.774 343.701 174.939 344.255C175.102 344.801 174.946 345.391 174.47 346.025ZM171.587 345.582C172.546 346.049 173.217 346.026 173.601 345.515C173.797 345.253 173.833 345.009 173.71 344.781C173.584 344.545 173.272 344.306 172.775 344.063C171.84 343.608 171.176 343.641 170.784 344.164C170.592 344.42 170.555 344.66 170.673 344.885C170.785 345.107 171.089 345.339 171.587 345.582Z" fill="black"/>
<path d="M43.6675 327.699C44.0975 327.642 44.4724 327.617 44.7924 327.624C45.1123 327.631 45.3757 327.645 45.5825 327.665L43.9458 329.555C44.1756 329.478 44.4478 329.415 44.7624 329.365C45.077 329.316 45.3376 329.294 45.5442 329.298C46.204 329.313 46.5558 329.445 46.5996 329.692C46.6434 329.94 46.4514 330.311 46.0237 330.805L44.6947 332.339C44.8891 332.421 44.9982 332.51 45.0219 332.609L44.4178 333.188L42.1184 333.136L42.5226 332.552C42.6988 332.458 42.9563 332.377 43.295 332.307L44.5913 330.811C44.827 330.538 44.9241 330.356 44.8827 330.262C44.8523 330.164 44.6839 330.111 44.3773 330.104C44.0707 330.097 43.7043 330.171 43.278 330.326L41.5955 332.269C41.7899 332.35 41.899 332.44 41.9227 332.538L41.3186 333.118L39.0192 333.066L39.4234 332.481C39.5996 332.388 39.8571 332.306 40.1958 332.237L43.3907 328.548C43.2098 328.482 43.1007 328.392 43.0634 328.278L43.6675 327.699ZM47.1248 333.312C46.3384 333.294 45.8927 333.122 45.7877 332.796C45.6828 332.469 45.9075 331.986 46.4618 331.346C47.0205 330.701 47.6559 330.215 48.3683 329.887C49.0916 329.554 49.8499 329.396 50.643 329.414C51.4361 329.432 51.8917 329.597 52.0097 329.908C52.1344 330.219 51.9174 330.697 51.3588 331.342C50.8044 331.982 50.1557 332.476 49.4126 332.824C48.6806 333.167 47.918 333.33 47.1248 333.312ZM47.9603 331.311C47.262 332.117 47.2328 332.528 47.8726 332.542C48.1992 332.55 48.5177 332.465 48.8281 332.287C49.1495 332.104 49.4914 331.803 49.8537 331.385C50.5345 330.599 50.5484 330.198 49.8952 330.183C49.5753 330.176 49.2623 330.259 48.9563 330.432C48.6546 330.6 48.3226 330.893 47.9603 331.311ZM54.7022 333.468L55.2268 332.263C55.3296 332.018 55.5082 331.714 55.7624 331.35L55.8896 331.168L55.7496 331.164C55.3425 331.556 54.9305 331.914 54.5135 332.239L53.0027 333.43L51.583 333.398L52.8963 330.398C52.6751 330.316 52.5571 330.221 52.5421 330.113L53.1462 329.533L55.4856 329.586L55.0815 330.17C54.8698 330.273 54.588 330.36 54.2359 330.429L53.1463 332.369L53.2863 332.373C53.5909 332.107 53.9154 331.834 54.2598 331.555L56.6222 329.627L57.7419 329.653L56.7423 331.596L56.2655 332.44L56.4055 332.444C57.3897 331.597 58.0517 331.029 58.3915 330.739L58.6348 330.529C58.4047 330.441 58.2833 330.346 58.2706 330.243L58.8747 329.663L61.0941 329.714L60.69 330.298C60.4763 330.411 60.1834 330.502 59.8114 330.571L56.0019 333.498L54.7022 333.468ZM66.3285 328.861L65.5036 329.814L66.9333 329.846L66.3833 330.481L64.9537 330.449L63.2973 332.361C63.1577 332.523 63.0851 332.642 63.0796 332.719C63.0785 332.791 63.1912 332.829 63.4178 332.834C63.6444 332.839 63.9204 332.807 64.2458 332.737L64.0351 333.334C63.3517 333.519 62.7401 333.605 62.2002 333.593C61.667 333.581 61.378 333.487 61.3331 333.311C61.2992 333.13 61.4263 332.874 61.7144 332.541L63.554 330.417L63.1042 330.407L63.3936 329.943C63.5831 329.85 63.886 329.759 64.3022 329.671C64.74 329.26 65.1722 328.984 65.5987 328.845L66.3285 328.861ZM66.3874 333.75C65.601 333.732 65.1553 333.56 65.0503 333.234C64.9454 332.907 65.1701 332.424 65.7244 331.784C66.2831 331.139 66.9185 330.653 67.6309 330.325C68.3542 329.992 69.1124 329.834 69.9056 329.852C70.6987 329.87 71.1543 330.035 71.2723 330.346C71.397 330.657 71.18 331.135 70.6213 331.78C70.067 332.42 69.4183 332.914 68.6752 333.262C67.9432 333.605 67.1806 333.768 66.3874 333.75ZM67.2229 331.749C66.5246 332.555 66.4954 332.966 67.1352 332.98C67.4618 332.988 67.7803 332.903 68.0907 332.725C68.4121 332.542 68.754 332.241 69.1163 331.823C69.7971 331.037 69.811 330.636 69.1578 330.622C68.8379 330.614 68.5249 330.697 68.2189 330.87C67.9172 331.038 67.5852 331.331 67.2229 331.749ZM75.6413 333.575C74.9632 333.816 74.3109 333.93 73.6844 333.916C73.0645 333.901 72.7164 333.793 72.64 333.591C72.5636 333.389 72.7175 333.066 73.1016 332.623L74.6139 330.877C74.433 330.811 74.3239 330.721 74.2866 330.607L74.8907 330.027C75.3207 329.97 75.6957 329.945 76.0156 329.953C76.3355 329.96 76.5989 329.974 76.8057 329.994L74.7173 332.405C74.4816 332.677 74.3778 332.86 74.4058 332.953C74.445 333.041 74.6278 333.089 74.9544 333.097C75.281 333.104 75.6541 333.03 76.0736 332.875L77.7431 330.948C77.5622 330.882 77.4531 330.792 77.4158 330.678L78.0199 330.099C78.4499 330.042 78.8248 330.017 79.1448 330.024C79.4647 330.031 79.7281 330.045 79.9349 330.065L77.3816 333.013C77.5843 333.054 77.7305 333.101 77.8202 333.154L77.303 333.751C76.7634 333.903 76.1904 333.973 75.5839 333.959C75.4958 333.864 75.515 333.736 75.6413 333.575ZM82.2907 330.828C81.8509 330.818 81.5458 330.911 81.3756 331.108C81.2141 331.294 81.324 331.438 81.7053 331.539L82.3576 331.716C83.0311 331.895 83.13 332.26 82.6542 332.809C82.3269 333.187 81.8818 333.493 81.3191 333.727C80.7674 333.956 80.1083 334.062 79.3418 334.044C78.582 334.027 78.0587 333.933 77.7718 333.762C77.8131 333.706 77.8578 333.651 77.9058 333.595C78.1459 333.318 78.4352 333.07 78.7739 332.852L79.6037 332.871C79.5856 332.994 79.5331 333.121 79.4463 333.253C79.5534 333.286 79.7303 333.305 79.9769 333.311C80.5634 333.324 80.9657 333.205 81.184 332.953C81.2538 332.872 81.2706 332.806 81.2342 332.754C81.2023 332.697 81.0915 332.64 80.9018 332.584L80.2626 332.393C79.9302 332.298 79.7228 332.164 79.6402 331.993C79.562 331.817 79.6647 331.564 79.9484 331.237C80.2365 330.904 80.6488 330.636 81.1854 330.433C81.7219 330.229 82.3168 330.135 82.9699 330.149C83.6298 330.164 84.123 330.25 84.4496 330.407C84.4127 330.457 84.3723 330.508 84.3287 330.558C84.1017 330.82 83.8189 331.06 83.4803 331.279L82.6605 331.26C82.6742 331.142 82.7223 331.02 82.8048 330.893C82.6487 330.854 82.4774 330.832 82.2907 330.828ZM84.4122 334.16C83.6124 334.141 83.1489 333.966 83.0217 333.635C82.9011 333.303 83.1071 332.83 83.6396 332.215C83.9625 331.842 84.3097 331.524 84.681 331.26C85.0566 330.991 85.4277 330.786 85.7942 330.645C86.5052 330.374 87.1706 330.245 87.7904 330.259C88.4102 330.273 88.7787 330.405 88.8958 330.654C89.0239 330.899 88.8195 331.331 88.2827 331.951C87.9684 332.313 87.5747 332.489 87.1015 332.479L84.9321 332.429C84.6838 332.747 84.5962 332.974 84.6693 333.109C84.7491 333.245 84.9956 333.317 85.4089 333.327C85.6355 333.332 85.8695 333.317 86.1111 333.281C86.3526 333.245 86.5375 333.208 86.6657 333.17L86.858 333.113L86.6342 333.724C86.5637 333.759 86.4644 333.803 86.3364 333.856C86.2194 333.905 85.9651 333.971 85.5732 334.055C85.1925 334.134 84.8055 334.168 84.4122 334.16ZM87.1043 331.793C87.1788 331.723 87.2596 331.637 87.3469 331.536C87.4342 331.435 87.4725 331.328 87.4619 331.215C87.4557 331.097 87.3192 331.035 87.0526 331.029C86.7927 331.023 86.5404 331.079 86.2957 331.196C86.051 331.314 85.7809 331.516 85.4854 331.802L87.1043 331.793ZM46.0068 338.474C46.4607 337.949 46.9511 337.56 47.478 337.305C48.0092 337.044 48.6014 336.922 49.2546 336.936C49.9077 336.951 50.3586 337.098 50.6071 337.376C50.5833 337.411 50.5408 337.464 50.4797 337.535C50.4229 337.6 50.3036 337.711 50.1216 337.866C49.9397 338.021 49.7672 338.145 49.6043 338.239L48.7645 338.22C48.793 338.046 48.8693 337.883 48.9936 337.732C48.9223 337.72 48.8601 337.714 48.8067 337.712C48.5535 337.707 48.3277 337.756 48.1294 337.859C47.9311 337.962 47.7119 338.153 47.4719 338.43L47.2231 338.717L48.7527 338.752L48.1504 339.447L46.6208 339.412L44.768 341.552C45.2024 341.639 45.4572 341.745 45.5324 341.87L44.9283 342.449L42.1591 342.386L42.5632 341.802C42.7394 341.708 42.9969 341.627 43.3356 341.558L45.2211 339.381L44.7813 339.371L45.123 338.847C45.3569 338.749 45.5904 338.695 45.8235 338.685L46.0068 338.474ZM49.4163 338.698C49.8463 338.64 50.2212 338.616 50.5411 338.623C50.8611 338.63 51.1244 338.644 51.3313 338.664L48.7191 341.68C48.9136 341.762 49.0226 341.851 49.0464 341.95L48.4423 342.529L46.1429 342.477L46.547 341.893C46.7232 341.799 46.9807 341.718 47.3195 341.648L49.1395 339.547C48.9586 339.481 48.8495 339.391 48.8122 339.277L49.4163 338.698ZM50.9977 338.202C50.4446 338.189 50.3316 337.994 50.659 337.616C50.9907 337.233 51.4331 337.048 51.9863 337.06C52.5462 337.073 52.6603 337.271 52.3285 337.654C52.0012 338.032 51.5576 338.214 50.9977 338.202ZM50.5475 343.394C51.1407 343.408 51.6708 343.145 52.1378 342.606L52.4258 342.273C51.9683 342.417 51.493 342.483 50.9998 342.472C50.3733 342.458 50.0101 342.308 49.9102 342.023C49.817 341.738 50.0498 341.274 50.6084 340.628C51.7214 339.343 53.0577 338.719 54.6173 338.754C55.0172 338.763 55.3337 338.837 55.5668 338.976C55.712 338.887 55.8512 338.844 55.9845 338.847L56.8043 338.866L53.5833 342.585C53.1031 343.139 52.5641 343.545 51.9663 343.804C51.375 344.063 50.6995 344.184 49.9397 344.167C49.5398 344.158 49.1571 344.113 48.7917 344.033C48.4262 343.952 48.1794 343.857 48.0511 343.746C48.0837 343.7 48.1196 343.655 48.1589 343.61C48.399 343.333 48.7169 343.067 49.1128 342.814L49.9926 342.834C49.9743 342.942 49.9054 343.084 49.7859 343.261C49.9737 343.343 50.2276 343.387 50.5475 343.394ZM52.0273 340.614C51.7 340.992 51.5375 341.259 51.5399 341.413C51.5489 341.567 51.7167 341.648 52.0433 341.655C52.3765 341.663 52.7376 341.599 53.1264 341.464L54.678 339.673C54.4856 339.581 54.2327 339.532 53.9195 339.524C53.2997 339.51 52.6689 339.874 52.0273 340.614ZM57.6657 338.885C58.0846 338.833 58.4407 338.81 58.734 338.817C59.0272 338.824 59.2661 338.834 59.4507 338.849L59.1233 339.227C59.3706 339.129 59.6447 339.048 59.9458 338.983C60.2468 338.918 60.494 338.888 60.6873 338.892C61.4471 338.909 61.8292 339.065 61.8337 339.358C62.1051 339.24 62.4123 339.145 62.7554 339.07C63.1029 338.991 63.3932 338.954 63.6265 338.959C64.3596 338.976 64.7437 339.113 64.7788 339.371C64.8182 339.623 64.5411 340.092 63.9475 340.778L62.8869 342.002C63.0814 342.084 63.1905 342.174 63.2142 342.272L62.6101 342.852L60.3107 342.799L60.7148 342.215C60.8911 342.121 61.1485 342.04 61.4873 341.97L62.7836 340.474C63.0236 340.197 63.1329 340.011 63.1115 339.919C63.0901 339.826 62.9294 339.776 62.6295 339.769C62.3363 339.762 61.9843 339.839 61.5737 339.999C61.4586 340.171 61.2701 340.408 61.0083 340.711L59.9477 341.935C60.1421 342.017 60.2512 342.107 60.2749 342.205L59.6709 342.785L57.3714 342.732L57.7756 342.148C57.9518 342.054 58.2093 341.973 58.548 341.904L59.8443 340.407C60.0844 340.13 60.1937 339.945 60.1723 339.852C60.1509 339.759 59.9935 339.709 59.7003 339.702C59.407 339.696 59.0573 339.77 58.651 339.925L56.9684 341.868C57.1629 341.949 57.272 342.039 57.2957 342.137L56.6916 342.717L54.3922 342.665L54.7964 342.08C54.9726 341.987 55.2301 341.905 55.5688 341.836L57.3888 339.734C57.2079 339.669 57.0988 339.579 57.0616 339.465L57.6657 338.885ZM66.0387 339.646C66.1041 339.57 66.1773 339.49 66.2582 339.404C67.0962 339.166 67.8718 339.056 68.585 339.072C69.2981 339.088 69.7185 339.203 69.8462 339.416C69.9848 339.625 69.849 339.966 69.4388 340.44L68.0443 342.05C68.247 342.091 68.3932 342.138 68.4828 342.191L67.9133 342.849C67.4686 342.962 66.9297 343.011 66.2965 342.997C66.3433 342.864 66.4242 342.704 66.539 342.517C65.9775 342.828 65.3201 342.975 64.567 342.958C64.1204 342.948 63.8223 342.841 63.6726 342.637C63.5296 342.433 63.6043 342.162 63.8967 341.825C64.1891 341.487 64.5649 341.226 65.024 341.041C65.4941 340.851 66.0225 340.763 66.609 340.777L67.6987 340.801L68.0129 340.438C68.3534 340.045 68.247 339.843 67.6938 339.83C67.4872 339.825 67.3041 339.837 67.1447 339.864C66.948 340.075 66.7662 340.238 66.5991 340.352L65.6194 340.33C65.6589 340.151 65.7986 339.923 66.0387 339.646ZM65.6646 342.196C66.0045 342.204 66.3399 342.135 66.6708 341.988L67.2077 341.368L66.5079 341.352C66.028 341.341 65.668 341.475 65.428 341.752C65.3188 341.878 65.2794 341.982 65.3095 342.065C65.3463 342.148 65.4647 342.192 65.6646 342.196Z" fill="black"/>
<path d="M739.293 356.568L692.702 386.61L819.457 470.728L866.733 426.666L739.293 356.568Z" fill="#4E3930" stroke="black"/>
<path d="M704.513 273.761V276.141H710.513V273.761H704.513ZM704.513 278.044V282.802H710.513V278.044H704.513ZM704.513 284.705V289.463H710.513V284.705H704.513ZM704.513 291.366V296.124H710.513V291.366H704.513ZM704.513 298.028V302.786H710.513V298.028H704.513ZM704.513 304.689V309.447H710.513V304.689H704.513ZM704.513 311.35V316.108H710.513V311.35H704.513ZM704.513 318.011V320.39H710.513V318.011H704.513Z" fill="#F1A000"/>
<rect x="766.333" y="258.987" width="25.8453" height="151.75" fill="#8AC3B0" stroke="black"/>
<path d="M746.059 399.367L794.923 428.465L794.666 422.037L745.851 394.144L746.043 398.965L746.059 399.367Z" fill="#4E3930"/>
<path d="M794.923 428.465L812.562 417.878L812.274 410.647L794.666 422.037L794.923 428.465Z" fill="#4E3930"/>
<path d="M794.666 422.037L812.274 410.647L792.445 401.189L792.717 408.018C789.742 409.772 764.431 409.928 766.332 396.746L766.044 389.515L758.036 386.136L746.298 393.729L745.851 394.144L794.666 422.037Z" fill="#4E3930"/>
<path d="M794.923 428.465L746.059 399.367L746.043 398.965L745.851 394.144M794.923 428.465L812.562 417.878L812.274 410.647M794.923 428.465L794.666 422.037M812.274 410.647L794.666 422.037M812.274 410.647L792.445 401.189L792.717 408.018C789.742 409.772 764.431 409.928 766.332 396.746L766.044 389.515L758.036 386.136L746.298 393.729L745.851 394.144M794.666 422.037L745.851 394.144" stroke="black"/>
<path d="M699.645 207.838C680.205 220.433 641.604 251.171 642.714 273.359H775.09H810.729H834.334V207.838H699.645Z" fill="#7EAA77" fill-opacity="0.9" stroke="black"/>
<rect x="695.479" y="223.113" width="149.964" height="36.1776" rx="18.0888" fill="url(#paint0_radial)"/>
<path d="M480.716 371.843L451.094 493.641H723.25L649.657 467.111L627.44 371.843H480.716Z" fill="#F9F5E7" stroke="black"/>
<path d="M475.162 378.771L445.54 500.568H717.696L644.103 474.038L621.886 378.771H475.162Z" fill="#F9F5E7" stroke="black"/>
<path d="M502.933 385.202L473.311 507H745.467L671.874 480.47L649.657 385.202H502.933Z" fill="#F9F5E7" stroke="black"/>
<path d="M231.703 434.953V387.52C238.183 391.004 253.92 396.926 265.028 392.745C276.137 388.565 285.394 391.004 288.633 392.745C296.039 394.997 298.508 390.2 298.816 387.52L299.279 434.149C290.485 442.992 264.658 455.534 231.703 434.953Z" fill="#C4C4C4"/>
<path d="M231.308 434.135C231.308 439.763 276.129 459.243 299.81 434.135L298.884 361.378C288.076 365.024 256.25 374.831 230.845 361.378C230.845 366.845 231.308 428.508 231.308 434.135Z" fill="#6689C3" fill-opacity="0.89"/>
<path d="M230.845 361.378C256.25 374.831 288.076 365.024 298.884 361.378C297.994 358.178 296.633 356.826 292.404 355.348C267.595 364.574 244.422 359.192 235.936 355.348C231.123 356.79 230.536 359.969 230.845 361.378Z" fill="#6689C3" fill-opacity="0.89"/>
<path d="M288.923 351.834C267.254 359.665 247.347 355.097 240.102 351.834L235.936 355.348C244.422 359.192 267.595 364.574 292.404 355.348L288.923 351.834Z" fill="#6689C3" fill-opacity="0.89"/>
<path d="M247.508 351.834C245.536 351.24 243.67 350.475 241.953 349.514C241.315 349.157 240.697 348.772 240.102 348.359V351.834C247.347 355.097 267.254 359.665 288.923 351.834V348.202C288 348.568 286.997 348.935 285.924 349.296C284.494 349.776 282.942 350.245 281.296 350.686C279.755 351.098 278.133 351.486 276.452 351.834C273.857 352.373 271.122 352.819 268.336 353.123C266.194 353.356 264.02 353.505 261.856 353.546C259.356 353.594 256.867 353.498 254.45 353.223C252.044 352.95 249.71 352.498 247.508 351.834Z" fill="#6689C3" fill-opacity="0.89"/>
<path d="M298.884 361.378L299.81 434.135C276.129 459.243 231.308 439.763 231.308 434.135C231.308 428.508 230.845 366.845 230.845 361.378M298.884 361.378C288.076 365.024 256.25 374.831 230.845 361.378M298.884 361.378C297.994 358.178 296.633 356.826 292.404 355.348M230.845 361.378C230.536 359.969 231.123 356.79 235.936 355.348M240.102 351.834V348.359C240.697 348.772 241.315 349.157 241.953 349.514C243.67 350.475 245.536 351.24 247.508 351.834C249.71 352.498 252.044 352.95 254.45 353.223C256.867 353.498 259.356 353.594 261.856 353.546C264.02 353.505 266.194 353.356 268.336 353.123C271.122 352.819 273.857 352.373 276.452 351.834C278.133 351.486 279.755 351.098 281.296 350.686C282.942 350.245 284.494 349.776 285.924 349.296C286.997 348.935 288 348.568 288.923 348.202V351.834M240.102 351.834C247.347 355.097 267.254 359.665 288.923 351.834M240.102 351.834L235.936 355.348M288.923 351.834L292.404 355.348M235.936 355.348C244.422 359.192 267.595 364.574 292.404 355.348" stroke="black"/>
<path d="M289.318 337.114C268.5 328.288 247.319 333.961 239.109 338.051C240.214 338.586 241.293 339.089 242.349 339.563C244.272 340.426 246.118 341.189 247.903 341.852C250.313 342.748 252.614 343.464 254.846 344.004C257.381 344.617 259.829 345.002 262.251 345.165C264.417 345.31 266.562 345.278 268.731 345.073C271.296 344.83 273.894 344.344 276.6 343.622C278.251 343.181 279.943 342.653 281.691 342.037C283.189 341.51 284.728 340.919 286.319 340.266C287.958 339.594 289.651 338.855 291.411 338.051C290.714 337.722 290.016 337.41 289.318 337.114Z" fill="#8AC3B0"/>
<path d="M262.251 345.165V353.352C264.416 353.311 266.589 353.162 268.731 352.929V345.073C266.562 345.278 264.417 345.31 262.251 345.165Z" fill="#8AC3B0"/>
<path d="M268.731 345.073V352.929C271.518 352.625 274.252 352.179 276.847 351.64L276.6 343.622C273.894 344.344 271.296 344.83 268.731 345.073Z" fill="#8AC3B0"/>
<path d="M276.6 343.622L276.847 351.64C278.528 351.291 280.15 350.904 281.691 350.492V342.037C279.943 342.653 278.251 343.181 276.6 343.622Z" fill="#8AC3B0"/>
<path d="M281.691 342.037V350.492C283.337 350.051 284.889 349.582 286.319 349.101V340.266C284.728 340.919 283.189 341.51 281.691 342.037Z" fill="#8AC3B0"/>
<path d="M291.411 347.115V338.051C289.651 338.855 287.958 339.594 286.319 340.266V349.101C287.392 348.741 288.396 348.374 289.318 348.008C290.072 347.708 290.772 347.41 291.411 347.115Z" fill="#8AC3B0"/>
<path d="M262.251 353.352V345.165C259.829 345.002 257.381 344.617 254.846 344.004V353.029C257.262 353.304 259.751 353.4 262.251 353.352Z" fill="#8AC3B0"/>
<path d="M247.903 341.852V351.64C250.105 352.304 252.439 352.755 254.846 353.029V344.004C252.614 343.464 250.313 342.748 247.903 341.852Z" fill="#8AC3B0"/>
<path d="M242.349 339.563V349.32C244.065 350.281 245.931 351.046 247.903 351.64V341.852C246.118 341.189 244.272 340.426 242.349 339.563Z" fill="#8AC3B0"/>
<path d="M239.109 338.051V347.115C239.556 347.484 240.019 347.834 240.497 348.165C241.092 348.578 241.71 348.962 242.349 349.32V339.563C241.293 339.089 240.214 338.586 239.109 338.051Z" fill="#8AC3B0"/>
<path d="M239.109 338.051V347.115C239.556 347.484 240.019 347.834 240.497 348.165C241.092 348.578 241.71 348.962 242.349 349.32M239.109 338.051C247.319 333.961 268.5 328.288 289.318 337.114C290.016 337.41 290.714 337.722 291.411 338.051M239.109 338.051C240.214 338.586 241.293 339.089 242.349 339.563M291.411 338.051V347.115C290.772 347.41 290.072 347.708 289.318 348.008C288.396 348.374 287.392 348.741 286.319 349.101M291.411 338.051C289.651 338.855 287.958 339.594 286.319 340.266M242.349 339.563V349.32M242.349 339.563C244.272 340.426 246.118 341.189 247.903 341.852M242.349 349.32C244.065 350.281 245.931 351.046 247.903 351.64M247.903 341.852V351.64M247.903 341.852C250.313 342.748 252.614 343.464 254.846 344.004M247.903 351.64C250.105 352.304 252.439 352.755 254.846 353.029M262.251 345.165V353.352M262.251 345.165C264.417 345.31 266.562 345.278 268.731 345.073M262.251 345.165C259.829 345.002 257.381 344.617 254.846 344.004M262.251 353.352C264.416 353.311 266.589 353.162 268.731 352.929M262.251 353.352C259.751 353.4 257.262 353.304 254.846 353.029M268.731 352.929V345.073M268.731 352.929C271.518 352.625 274.252 352.179 276.847 351.64M268.731 345.073C271.296 344.83 273.894 344.344 276.6 343.622M276.6 343.622L276.847 351.64M276.6 343.622C278.251 343.181 279.943 342.653 281.691 342.037M276.847 351.64C278.528 351.291 280.15 350.904 281.691 350.492M281.691 350.492V342.037M281.691 350.492C283.337 350.051 284.889 349.582 286.319 349.101M281.691 342.037C283.189 341.51 284.728 340.919 286.319 340.266M286.319 340.266V349.101M254.846 344.004V353.029" stroke="black"/>
<path d="M262.714 374.255V389.932C275.365 389.396 300.297 387.118 298.816 382.294V368.852C297.639 370.146 289.497 372.361 262.714 374.255Z" fill="#FBD266"/>
<path d="M298.816 368.852V382.294C300.297 387.118 275.365 389.396 262.714 389.932V374.255C289.497 372.361 297.639 370.146 298.816 368.852ZM298.816 368.852C299.038 368.607 299.012 368.395 298.816 368.225V368.852Z" stroke="black"/>
<path d="M271.789 386.508C271.254 386.955 270.612 387.21 269.863 387.274C269.121 387.338 268.597 387.226 268.291 386.939C267.985 386.653 267.818 386.158 267.793 385.454L267.69 382.684C267.408 382.612 267.184 382.495 267.018 382.333L267.103 381.399C267.546 381.257 267.958 381.17 268.341 381.137C268.724 381.104 269.047 381.089 269.311 381.09L269.452 384.915C269.468 385.347 269.542 385.629 269.675 385.762C269.815 385.887 270.081 385.932 270.472 385.899C270.862 385.865 271.22 385.706 271.545 385.422L271.433 382.364C271.15 382.292 270.926 382.175 270.76 382.013L270.846 381.079C271.288 380.937 271.701 380.85 272.083 380.817C272.466 380.784 272.789 380.768 273.053 380.77L273.226 385.447C273.507 385.479 273.728 385.528 273.891 385.594L273.926 386.542C273.457 386.838 272.86 387.018 272.134 387.08C271.93 386.953 271.815 386.762 271.789 386.508ZM279.741 381.449C279.007 381.512 278.664 382.175 278.711 383.438C278.734 384.077 278.85 384.517 279.059 384.755C279.276 384.985 279.575 385.084 279.958 385.051C280.563 385 281.095 384.898 281.554 384.747L281.946 385.639C281.697 385.829 281.36 386.002 280.934 386.159C280.508 386.308 280.091 386.399 279.685 386.434C277.963 386.581 277.065 385.656 276.992 383.657C276.949 382.49 277.217 381.625 277.795 381.062C278.313 380.569 278.954 380.289 279.72 380.224C280.485 380.158 281.128 380.248 281.649 380.492C281.659 380.571 281.666 380.647 281.669 380.719C281.686 381.174 281.598 381.615 281.406 382.04L280.354 382.13C280.235 381.94 280.158 381.706 280.124 381.428C280.028 381.428 279.9 381.435 279.741 381.449ZM284.841 377.356C285.283 377.214 285.696 377.126 286.079 377.094C286.461 377.061 286.784 377.045 287.048 377.047L287.318 384.35C287.633 384.443 287.857 384.56 287.99 384.701L287.905 385.635L285.155 385.87L285.001 384.957C285.107 384.795 285.321 384.641 285.644 384.493L285.428 378.641C285.146 378.569 284.921 378.452 284.755 378.289L284.841 377.356ZM291.254 380.224C291.25 380.104 291.249 379.976 291.252 379.839C291.979 379.376 292.769 379.108 293.621 379.035C294.474 378.962 295.09 379.074 295.469 379.37C295.855 379.658 296.062 380.177 296.09 380.929L296.184 383.483C296.465 383.515 296.687 383.564 296.849 383.631L296.888 384.674C296.488 384.901 295.91 385.046 295.153 385.111C295.065 384.91 294.988 384.664 294.922 384.373C294.598 384.906 293.985 385.211 293.084 385.288C292.55 385.334 292.086 385.217 291.692 384.938C291.306 384.658 291.103 384.251 291.083 383.715C291.064 383.179 291.223 382.745 291.563 382.411C291.91 382.068 292.434 381.867 293.136 381.807L294.439 381.696L294.418 381.12C294.395 380.496 294.053 380.213 293.391 380.27C293.144 380.291 292.942 380.332 292.784 380.394C292.78 380.731 292.742 380.995 292.669 381.185L291.497 381.286C291.352 381.017 291.271 380.663 291.254 380.224ZM293.553 384.021C293.96 383.986 294.278 383.839 294.509 383.578L294.472 382.595L293.635 382.667C293.061 382.716 292.783 382.96 292.799 383.4C292.806 383.6 292.872 383.758 292.996 383.876C293.129 383.993 293.314 384.041 293.553 384.021Z" fill="#6689C3"/>
<path d="M299.742 427.717L298.816 393.951C295.113 393.415 286.874 395.479 283.542 408.02C280.209 420.562 292.953 426.377 299.742 427.717Z" fill="#F1A000" stroke="black"/>
<path d="M299.279 424.099L298.665 397.629C296.208 397.208 290.743 398.826 288.532 408.658C286.322 418.49 294.776 423.049 299.279 424.099Z" fill="#A7858F" stroke="black"/>
<path d="M231.422 413.261L231.795 398.372C235.328 398.044 243.24 398.747 246.618 404.186C249.997 409.624 237.895 412.502 231.422 413.261Z" fill="#AF5026" stroke="black"/>
<path d="M231.089 410.116L231.374 401.071C233.756 400.865 239.086 401.279 241.351 404.577C243.615 407.875 235.453 409.644 231.089 410.116Z" fill="#F2D8B3" stroke="black"/>
<path d="M230.955 408.508L231.129 403.364C232.529 403.246 235.661 403.479 236.99 405.353C238.319 407.227 233.52 408.237 230.955 408.508Z" fill="#FF7D51" stroke="black"/>
<path d="M233.472 373.461C244.955 377.815 277.348 400.262 261.177 402.188C260.568 402.26 259.889 402.304 259.137 402.316C258.683 402.323 258.204 402.319 257.696 402.303C242.191 402.112 235.086 382.995 233.472 373.461Z" fill="#7EAA77"/>
<path d="M264.903 405.917L261.177 402.188C260.568 402.26 259.889 402.304 259.137 402.316L262.483 405.986L264.903 405.917Z" fill="#7EAA77"/>
<path d="M261.177 402.188C277.348 400.262 244.955 377.815 233.472 373.461C235.086 382.995 242.191 402.112 257.696 402.303C258.204 402.319 258.683 402.323 259.137 402.316M261.177 402.188L264.903 405.917L262.483 405.986L259.137 402.316M261.177 402.188C260.568 402.26 259.889 402.304 259.137 402.316" stroke="black"/>
<path d="M236.331 424.421V427.235C238.689 429.513 246.816 433.747 260.462 432.461V431.255H264.622V432.461C266.841 432.863 271.695 433.425 273.359 432.461V428.039L272.527 427.235L236.331 424.421Z" fill="#4E3930"/>
<path d="M237.579 424.421H236.331M236.331 424.421V427.235C238.689 429.513 246.816 433.747 260.462 432.461V431.255H264.622V432.461C266.841 432.863 271.695 433.425 273.359 432.461V428.039L272.527 427.235L236.331 424.421Z" stroke="black"/>
<path d="M258.798 412.764C260.462 413.836 265.205 415.336 270.863 412.764C270.863 416.114 271.113 423.295 272.111 425.225C273.359 427.637 272.527 428.441 270.863 429.245C269.199 430.049 255.053 430.853 246.317 429.245C240.623 428.197 238.286 426.466 237.58 425.165C237.202 424.47 237.29 423.897 237.58 423.617C238.412 422.813 237.996 421.607 239.66 421.607C241.324 421.607 241.74 420.401 247.149 421.607C252.557 422.813 257.134 419.195 256.718 417.185C256.385 415.578 256.579 412.764 256.718 411.558C257.134 410.486 258.132 409.226 258.798 412.764Z" fill="#F2D8B3" stroke="black"/>
<path d="M243.821 421.205C242.85 422.277 241.324 424.823 242.989 428.039C240.516 427.23 236.853 426.134 237.164 424.019C237.511 421.662 238.371 419.345 243.821 421.205Z" fill="#4E3930" stroke="black"/>
<path d="M271.279 420.803C269.557 421.293 263.151 422.231 263.791 430.049" stroke="black"/>
<line x1="247.649" y1="421.303" x2="247.649" y2="422.715" stroke="black" stroke-linecap="round" stroke-linejoin="round"/>
<line x1="250.145" y1="421.303" x2="250.145" y2="422.715" stroke="black" stroke-linecap="round" stroke-linejoin="round"/>
<line x1="252.641" y1="420.499" x2="252.641" y2="421.911" stroke="black" stroke-linecap="round" stroke-linejoin="round"/>
<line x1="255.137" y1="419.695" x2="255.137" y2="421.107" stroke="black" stroke-linecap="round" stroke-linejoin="round"/>
<line x1="0.5" y1="-0.5" x2="2.12254" y2="-0.5" transform="matrix(0.951854 0.306553 -0.326139 0.945322 256.302 417.588)" stroke="black" stroke-linecap="round" stroke-linejoin="round"/>
<line x1="0.5" y1="-0.5" x2="1.3482" y2="-0.5" transform="matrix(0.900436 0.43499 -0.459607 0.888122 255.47 419.195)" stroke="black" stroke-linecap="round" stroke-linejoin="round"/>
<path d="M271.279 419.597C267.812 420.133 261.211 422.733 262.542 430.451M260.878 417.185C256.587 426.783 244.162 424.625 242.572 422.813" stroke="black" stroke-width="0.3" stroke-dasharray="1 1"/>
<path d="M260.878 413.568C260.739 414.506 260.545 416.542 260.878 417.186C261.294 417.989 264.207 418.391 270.863 417.186V413.166H270.243C268.508 413.568 264.206 414.211 260.878 413.568Z" fill="#4E3930" stroke="black"/>
<mask id="path-105-inside-1" fill="white">
<path fill-rule="evenodd" clip-rule="evenodd" d="M321.402 337.934C319.409 338.065 317.934 339.785 318.108 341.775C318.283 343.764 320.04 345.271 322.033 345.139L424.003 338.405C424.627 338.363 425.2 338.167 425.688 337.855C425.908 337.926 426.154 337.924 426.387 337.825L432.689 335.154C433.558 334.786 433.447 333.521 432.524 333.271L425.83 331.459C425.582 331.391 425.338 331.422 425.134 331.522C424.597 331.277 423.996 331.158 423.372 331.199L321.402 337.934Z"/>
</mask>
<path fill-rule="evenodd" clip-rule="evenodd" d="M321.402 337.934C319.409 338.065 317.934 339.785 318.108 341.775C318.283 343.764 320.04 345.271 322.033 345.139L424.003 338.405C424.627 338.363 425.2 338.167 425.688 337.855C425.908 337.926 426.154 337.924 426.387 337.825L432.689 335.154C433.558 334.786 433.447 333.521 432.524 333.271L425.83 331.459C425.582 331.391 425.338 331.422 425.134 331.522C424.597 331.277 423.996 331.158 423.372 331.199L321.402 337.934Z" fill="#FBD266"/>
<path d="M425.688 337.855L425.981 336.906L425.529 336.759L425.134 337.011L425.688 337.855ZM426.387 337.825L425.979 336.905L425.979 336.905L426.387 337.825ZM432.689 335.154L433.097 336.074L433.097 336.074L432.689 335.154ZM432.524 333.271L432.767 332.308L432.767 332.308L432.524 333.271ZM425.83 331.459L425.586 332.422L425.586 332.422L425.83 331.459ZM425.134 331.522L424.733 332.428L425.167 332.626L425.588 332.42L425.134 331.522ZM319.106 341.709C318.98 340.269 320.047 339.025 321.489 338.93L321.314 336.937C318.77 337.105 316.888 339.301 317.111 341.841L319.106 341.709ZM321.945 344.143C320.503 344.238 319.232 343.148 319.106 341.709L317.111 341.841C317.333 344.381 319.576 346.303 322.12 346.135L321.945 344.143ZM423.916 337.408L321.945 344.143L322.12 346.135L424.091 339.401L423.916 337.408ZM425.134 337.011C424.783 337.236 424.369 337.378 423.916 337.408L424.091 339.401C424.885 339.348 425.618 339.097 426.241 338.698L425.134 337.011ZM425.394 338.803C425.836 338.947 426.332 338.942 426.796 338.745L425.979 336.905C425.977 336.906 425.976 336.907 425.976 336.907C425.976 336.906 425.977 336.906 425.978 336.906C425.981 336.906 425.982 336.907 425.981 336.906L425.394 338.803ZM426.796 338.745L433.097 336.074L432.28 334.234L425.979 336.905L426.796 338.745ZM433.097 336.074C434.835 335.338 434.613 332.808 432.767 332.308L432.28 334.234L432.28 334.234L433.097 336.074ZM432.767 332.308L426.073 330.496L425.586 332.422L432.28 334.234L432.767 332.308ZM426.073 330.496C425.581 330.362 425.09 330.422 424.679 330.623L425.588 332.42C425.589 332.42 425.588 332.421 425.586 332.421C425.584 332.421 425.584 332.421 425.583 332.421C425.583 332.421 425.584 332.421 425.586 332.422L426.073 330.496ZM423.46 332.195C423.913 332.165 424.346 332.252 424.733 332.428L425.534 330.615C424.848 330.302 424.08 330.15 423.285 330.203L423.46 332.195ZM321.489 338.93L423.46 332.195L423.285 330.203L321.314 336.937L321.489 338.93Z" fill="black" mask="url(#path-105-inside-1)"/>
<mask id="path-107-inside-2" fill="white">
<path fill-rule="evenodd" clip-rule="evenodd" d="M347.673 355.154C345.692 355.477 344.43 357.328 344.853 359.289C345.276 361.251 347.225 362.579 349.205 362.257L449.664 345.912C450.288 345.81 450.84 345.557 451.291 345.197C451.522 345.25 451.772 345.225 451.996 345.102L457.932 341.846C458.749 341.398 458.482 340.161 457.533 340L450.643 338.831C450.383 338.787 450.14 338.842 449.947 338.964C449.376 338.77 448.755 338.708 448.132 338.809L347.673 355.154Z"/>
</mask>
<path fill-rule="evenodd" clip-rule="evenodd" d="M347.673 355.154C345.692 355.477 344.43 357.328 344.853 359.289C345.276 361.251 347.225 362.579 349.205 362.257L449.664 345.912C450.288 345.81 450.84 345.557 451.291 345.197C451.522 345.25 451.772 345.225 451.996 345.102L457.932 341.846C458.749 341.398 458.482 340.161 457.533 340L450.643 338.831C450.383 338.787 450.14 338.842 449.947 338.964C449.376 338.77 448.755 338.708 448.132 338.809L347.673 355.154Z" fill="#7EAA77"/>
<path d="M349.205 362.257L348.994 361.28L349.205 362.257ZM449.664 345.912L449.875 346.889L449.664 345.912ZM451.291 345.197L451.475 344.233L450.998 344.124L450.632 344.417L451.291 345.197ZM451.996 345.102L452.52 345.972L452.52 345.972L451.996 345.102ZM457.932 341.846L458.455 342.717L458.455 342.717L457.932 341.846ZM457.533 340L457.408 340.976L457.408 340.976L457.533 340ZM450.643 338.831L450.518 339.807L450.518 339.807L450.643 338.831ZM449.947 338.964L449.657 339.898L450.121 340.056L450.52 339.805L449.947 338.964ZM345.84 359.129C345.533 357.707 346.448 356.365 347.884 356.132L347.462 354.177C344.936 354.588 343.326 356.949 343.866 359.45L345.84 359.129ZM348.994 361.28C347.559 361.513 346.147 360.55 345.84 359.129L343.866 359.45C344.406 361.951 346.89 363.646 349.416 363.235L348.994 361.28ZM449.453 344.934L348.994 361.28L349.416 363.235L449.875 346.889L449.453 344.934ZM450.632 344.417C450.306 344.677 449.907 344.86 449.453 344.934L449.875 346.889C450.668 346.76 451.374 346.437 451.95 345.977L450.632 344.417ZM451.107 346.161C451.572 346.268 452.075 346.217 452.52 345.972L451.472 344.232C451.47 344.233 451.469 344.233 451.469 344.233C451.47 344.233 451.471 344.233 451.472 344.233C451.474 344.233 451.475 344.233 451.475 344.233L451.107 346.161ZM452.52 345.972L458.455 342.717L457.408 340.976L451.472 344.232L452.52 345.972ZM458.455 342.717C460.09 341.82 459.556 339.346 457.659 339.024L457.408 340.976L457.408 340.976L458.455 342.717ZM457.659 339.024L450.769 337.855L450.518 339.807L457.408 340.976L457.659 339.024ZM450.769 337.855C450.252 337.767 449.763 337.878 449.374 338.123L450.52 339.805C450.52 339.805 450.519 339.806 450.517 339.806C450.516 339.806 450.515 339.806 450.514 339.806C450.514 339.806 450.515 339.806 450.518 339.807L450.769 337.855ZM448.343 339.787C448.796 339.713 449.245 339.758 449.657 339.898L450.236 338.03C449.507 337.782 448.715 337.702 447.921 337.832L448.343 339.787ZM347.884 356.132L448.343 339.787L447.921 337.832L347.462 354.177L347.884 356.132Z" fill="black" mask="url(#path-107-inside-2)"/>
<mask id="path-109-inside-3" fill="white">
<path fill-rule="evenodd" clip-rule="evenodd" d="M361.414 356.337C359.419 356.294 357.756 357.877 357.7 359.872C357.644 361.867 359.216 363.519 361.211 363.561L463.456 365.73C464.08 365.743 464.671 365.598 465.191 365.33C465.401 365.42 465.645 365.44 465.888 365.362L472.464 363.253C473.371 362.962 473.407 361.692 472.518 361.363L466.068 358.977C465.83 358.889 465.585 358.898 465.37 358.979C464.866 358.69 464.283 358.519 463.66 358.506L361.414 356.337Z"/>
</mask>
<path fill-rule="evenodd" clip-rule="evenodd" d="M361.414 356.337C359.419 356.294 357.756 357.877 357.7 359.872C357.644 361.867 359.216 363.519 361.211 363.561L463.456 365.73C464.08 365.743 464.671 365.598 465.191 365.33C465.401 365.42 465.645 365.44 465.888 365.362L472.464 363.253C473.371 362.962 473.407 361.692 472.518 361.363L466.068 358.977C465.83 358.889 465.585 358.898 465.37 358.979C464.866 358.69 464.283 358.519 463.66 358.506L361.414 356.337Z" fill="#6689C3"/>
<path d="M465.191 365.33L465.591 364.411L465.159 364.226L464.739 364.442L465.191 365.33ZM465.888 365.362L466.188 366.313L465.888 365.362ZM472.464 363.253L472.764 364.204L472.764 364.204L472.464 363.253ZM472.518 361.363L472.87 360.425L472.87 360.425L472.518 361.363ZM466.068 358.977L465.715 359.915L465.715 359.915L466.068 358.977ZM465.37 358.979L464.868 359.847L465.275 360.081L465.717 359.914L465.37 358.979ZM358.7 359.893C358.74 358.451 359.943 357.306 361.386 357.336L361.442 355.337C358.895 355.283 356.772 357.304 356.7 359.851L358.7 359.893ZM361.239 362.561C359.796 362.531 358.659 361.336 358.7 359.893L356.7 359.851C356.629 362.398 358.636 364.507 361.183 364.561L361.239 362.561ZM463.485 364.731L361.239 362.561L361.183 364.561L463.428 366.73L463.485 364.731ZM464.739 364.442C464.364 364.635 463.937 364.74 463.485 364.731L463.428 366.73C464.223 366.747 464.979 366.561 465.644 366.219L464.739 364.442ZM464.792 366.25C465.213 366.43 465.705 366.468 466.188 366.313L465.589 364.41C465.586 364.411 465.585 364.411 465.585 364.411C465.586 364.411 465.587 364.41 465.588 364.411C465.59 364.411 465.591 364.411 465.591 364.411L464.792 366.25ZM466.188 366.313L472.764 364.204L472.165 362.301L465.589 364.41L466.188 366.313ZM472.764 364.204C474.578 363.623 474.649 361.083 472.87 360.425L472.165 362.301L472.165 362.301L472.764 364.204ZM472.87 360.425L466.42 358.039L465.715 359.915L472.165 362.301L472.87 360.425ZM466.42 358.039C465.948 357.865 465.454 357.881 465.023 358.044L465.717 359.914C465.718 359.914 465.716 359.915 465.714 359.915C465.713 359.915 465.712 359.915 465.712 359.914C465.712 359.914 465.713 359.915 465.715 359.915L466.42 358.039ZM463.631 359.506C464.084 359.515 464.504 359.639 464.868 359.847L465.872 358.111C465.228 357.741 464.483 357.523 463.688 357.506L463.631 359.506ZM361.386 357.336L463.631 359.506L463.688 357.506L361.442 355.337L361.386 357.336Z" fill="black" mask="url(#path-109-inside-3)"/>
<rect x="0.162895" y="0.641793" width="39.3052" height="17.6459" rx="6.5" transform="matrix(0.889242 0.457437 -0.563452 0.826149 637.65 330.271)" fill="#E4AAA6" stroke="black"/>
<defs>
<radialGradient id="paint0_radial" cx="0" cy="0" r="1" gradientUnits="userSpaceOnUse" gradientTransform="translate(770.461 241.604) rotate(93.468) scale(30.606 126.754)">
<stop stop-color="#FBD266"/>
<stop offset="1" stop-color="#FBD266" stop-opacity="0"/>
</radialGradient>
</defs>
</svg>
