<svg width="1152" height="700" viewBox="0 0 1152 700" fill="none" xmlns="http://www.w3.org/2000/svg">
<rect width="1152" height="700" fill="#A4CBCA"/>
<rect x="811.523" y="538.336" width="351" height="49" transform="rotate(-2.74543 811.523 538.336)" fill="#F2D8B3" stroke="black"/>
<path d="M-16.5097 586.675L1164.24 544L1175.08 843.804L-5.6741 886.479L-16.5097 586.675Z" fill="#7EAA77"/>
<path fill-rule="evenodd" clip-rule="evenodd" d="M672 574L211 597L164 581.5L1064 548.5L856 559.5L1064 568.5H1081.5L1081.19 569H1157V608L1052 596.405L1052.06 596.3L672 574Z" fill="#F2D8B3"/>
<path d="M211 597L210.843 597.475L210.932 597.504L211.025 597.499L211 597ZM672 574L672.029 573.501L672.002 573.499L671.975 573.501L672 574ZM164 581.5L163.982 581L163.843 581.975L164 581.5ZM1064 548.5L1064.03 548.999L1063.98 548L1064 548.5ZM856 559.5L855.974 559.001L855.978 560L856 559.5ZM1064 568.5L1063.98 569L1063.99 569H1064V568.5ZM1081.5 568.5L1081.93 568.762L1082.39 568H1081.5V568.5ZM1081.19 569L1080.77 568.738L1080.3 569.5H1081.19V569ZM1157 569H1157.5V568.5H1157V569ZM1157 608L1156.95 608.497L1157.5 608.558V608H1157ZM1052 596.405L1051.57 596.153L1051.18 596.818L1051.95 596.902L1052 596.405ZM1052.06 596.3L1052.49 596.552L1052.9 595.848L1052.09 595.8L1052.06 596.3ZM211.025 597.499L672.025 574.499L671.975 573.501L210.975 596.501L211.025 597.499ZM163.843 581.975L210.843 597.475L211.157 596.525L164.157 581.025L163.843 581.975ZM1063.98 548L163.982 581L164.018 582L1064.02 549L1063.98 548ZM856.026 559.999L1064.03 548.999L1063.97 548.001L855.974 559.001L856.026 559.999ZM1064.02 568L856.022 559L855.978 560L1063.98 569L1064.02 568ZM1081.5 568H1064V569H1081.5V568ZM1081.62 569.262L1081.93 568.762L1081.07 568.238L1080.77 568.738L1081.62 569.262ZM1157 568.5H1081.19V569.5H1157V568.5ZM1157.5 608V569H1156.5V608H1157.5ZM1051.95 596.902L1156.95 608.497L1157.05 607.503L1052.05 595.908L1051.95 596.902ZM1051.63 596.047L1051.57 596.153L1052.43 596.658L1052.49 596.552L1051.63 596.047ZM671.971 574.499L1052.03 596.799L1052.09 595.8L672.029 573.501L671.971 574.499Z" fill="black"/>
<path d="M398 337L84 284.5L49 315.5V567L398 556.5V337Z" fill="#FF7D51" stroke="black"/>
<rect x="531.377" y="300.799" width="42.0923" height="24.8064" transform="rotate(14.4361 531.377 300.799)" fill="#9D4E33" stroke="black"/>
<path d="M610 242.5L666.5 213V562.5H623L610 242.5Z" fill="#9D4E33" stroke="black"/>
<path d="M603.5 302L666.5 354.5V561.5H537V319L603.5 302Z" fill="#FF7D51" stroke="black"/>
<path d="M448 111V571.5H537V150.5L448 111Z" fill="#FF7D51" stroke="black"/>
<path d="M448 111L396.5 160.5V557.5L448 571.5V111Z" fill="#9D4E33" stroke="black"/>
<path d="M719 413.5L772.5 423.5L775.5 494.5L719 491.5V413.5Z" fill="#FF7D51" stroke="black"/>
<path d="M806 450L807.5 539H918L916 438L855 418.5L806 450Z" fill="#D76735" stroke="black"/>
<path d="M666.5 562.5L537 567.5V564.5V561.5V558.5V555.5H666.5V557.25V559V560.75V562.5Z" fill="#F2E4B3"/>
<path d="M537 561.5L666.5 559M537 561.5V564.5M537 561.5V558.5M666.5 559V560.75M666.5 559V557.25M537 564.5V567.5L666.5 562.5V560.75M537 564.5L666.5 560.75M537 558.5V555.5H666.5V557.25M537 558.5L666.5 557.25" stroke="black"/>
<path d="M718.5 406L733 409.5L772 423L718.5 414V406Z" fill="#FF7D51" stroke="black"/>
<path d="M764.5 420.5V415.5L771.5 404L778.5 417L780 494.5H775.5L771.5 424L764.5 420.5Z" fill="#FF7D51" stroke="black"/>
<path d="M719.5 491.5L817 496.5L819 544L721 545.5L719.5 491.5Z" fill="#FF7D51" stroke="black"/>
<path d="M855 418.5L962.5 442.5L998 456L915.5 438.5L855 418.5Z" fill="#9D4E33" stroke="black"/>
<path d="M915.5 439L918 539.5L1002.5 536.5L998.5 456L915.5 439Z" fill="#AF5026" stroke="black"/>

<!-- royce side -->
<path id="royceside" d="M666.5 213V563.5H721L715 237.5L666.5 213Z" fill="#FF7D51" stroke="black"/>


<path fill-rule="evenodd" clip-rule="evenodd" d="M733.815 510.084C731.537 510.038 729.652 511.847 729.605 514.125L729.449 521.794L729.448 521.794L729 543.773L737.251 543.942L737.464 533.486C737.466 533.452 737.467 533.418 737.467 533.383L737.856 514.294C737.903 512.015 736.093 510.131 733.815 510.084Z" fill="#252D33"/>
<path fill-rule="evenodd" clip-rule="evenodd" d="M746.06 511.069C744.199 511.031 742.659 512.509 742.621 514.371L742.449 522.794L742.448 522.794L742 544.773L748.742 544.911L748.939 535.2C748.941 535.169 748.942 535.138 748.943 535.107L749.362 514.508C749.4 512.647 747.922 511.107 746.06 511.069Z" fill="#252D33"/>
<path fill-rule="evenodd" clip-rule="evenodd" d="M754.06 511.069C752.199 511.031 750.659 512.509 750.621 514.371L750.449 522.794L750.448 522.794L750 544.773L756.742 544.911L756.939 535.2C756.941 535.169 756.942 535.138 756.943 535.107L757.362 514.508C757.4 512.647 755.922 511.107 754.06 511.069Z" fill="#252D33"/>
<path fill-rule="evenodd" clip-rule="evenodd" d="M762.06 511.069C760.199 511.031 758.659 512.509 758.621 514.371L758.449 522.794L758.448 522.794L758 544.773L764.742 544.911L764.939 535.2C764.941 535.169 764.942 535.138 764.943 535.107L765.362 514.508C765.4 512.647 763.922 511.107 762.06 511.069Z" fill="#252D33"/>
<path fill-rule="evenodd" clip-rule="evenodd" d="M772.392 511.055C770.9 511.025 769.665 512.21 769.634 513.703L769.481 521.247L769.479 521.246L769.09 540.342L774.495 540.452L774.663 532.246C774.664 532.218 774.665 532.189 774.666 532.161L775.04 513.813C775.07 512.32 773.885 511.086 772.392 511.055Z" fill="#252D33"/>
<path fill-rule="evenodd" clip-rule="evenodd" d="M780.302 511.055C778.809 511.025 777.575 512.21 777.544 513.703L777.39 521.247L777.389 521.246L777 540.342L782.405 540.452L782.572 532.246C782.574 532.218 782.575 532.189 782.575 532.161L782.949 513.813C782.98 512.32 781.794 511.086 780.302 511.055Z" fill="#252D33"/>
<path fill-rule="evenodd" clip-rule="evenodd" d="M788.302 511.055C786.809 511.025 785.575 512.21 785.544 513.703L785.39 521.247L785.389 521.246L785 540.342L790.405 540.452L790.572 532.246C790.574 532.218 790.575 532.189 790.575 532.161L790.949 513.813C790.98 512.32 789.794 511.086 788.302 511.055Z" fill="#252D33"/>
<path fill-rule="evenodd" clip-rule="evenodd" d="M797.908 511.921C796.623 511.895 795.56 512.916 795.534 514.201L795.379 521.815L795.378 521.815L795 540.342L799.654 540.437L799.81 532.767C799.812 532.74 799.813 532.714 799.813 532.688L800.188 514.296C800.214 513.011 799.194 511.947 797.908 511.921Z" fill="#252D33"/>
<path fill-rule="evenodd" clip-rule="evenodd" d="M804.908 512.047C803.623 512.021 802.56 513.042 802.534 514.327L802.379 521.941L802.378 521.941L802 540.469L806.654 540.563L806.81 532.893C806.812 532.867 806.813 532.84 806.813 532.814L807.188 514.422C807.214 513.137 806.194 512.074 804.908 512.047Z" fill="#252D33"/>
<path fill-rule="evenodd" clip-rule="evenodd" d="M811.908 512.047C810.623 512.021 809.56 513.042 809.534 514.327L809.379 521.941L809.378 521.941L809 540.469L813.654 540.563L813.81 532.893C813.812 532.867 813.813 532.84 813.813 532.814L814.188 514.422C814.214 513.137 813.194 512.074 811.908 512.047Z" fill="#252D33"/>
<path fill-rule="evenodd" clip-rule="evenodd" d="M698.856 253.936C697.119 253.901 695.683 255.28 695.647 257.016L695.239 277.076C695.238 277.083 695.238 277.09 695.238 277.096L695.048 286.42L701.337 286.548L701.768 265.366L701.768 265.366L701.936 257.144C701.971 255.408 700.592 253.971 698.856 253.936Z" fill="#252D33"/>
<path fill-rule="evenodd" clip-rule="evenodd" d="M491.416 164.907C488.884 164.855 486.79 166.866 486.738 169.397L486.252 193.263C486.252 193.268 486.252 193.274 486.251 193.28L486 205.62L495.169 205.807L495.71 179.25L495.71 179.25L495.907 169.584C495.958 167.052 493.948 164.958 491.416 164.907Z" fill="#252D33"/>
<path fill-rule="evenodd" clip-rule="evenodd" d="M511.405 173.906C508.868 173.855 506.769 175.87 506.717 178.407L506.248 201.443C506.248 201.45 506.248 201.457 506.248 201.465L506 213.62L515.189 213.807L515.717 187.901L515.717 187.901L515.906 178.594C515.958 176.057 513.943 173.958 511.405 173.906Z" fill="#252D33"/>
<path fill-rule="evenodd" clip-rule="evenodd" d="M512.243 248.964C511.273 248.944 510.47 249.715 510.451 250.685L510.128 266.502C510.128 266.506 510.128 266.51 510.128 266.515L510 272.807L513.513 272.879L513.83 257.339L513.83 257.339L513.964 250.757C513.984 249.787 513.213 248.984 512.243 248.964Z" fill="#252D33"/>
<path fill-rule="evenodd" clip-rule="evenodd" d="M511.243 303.036C510.273 303.016 509.471 303.787 509.451 304.757L509.128 320.574C509.128 320.578 509.128 320.582 509.128 320.586L509 326.879L512.514 326.95L512.83 311.41L512.83 311.41L512.964 304.828C512.984 303.858 512.214 303.056 511.243 303.036Z" fill="#252D33"/>

<!-- left arch -->
<path id="leftarch" fill-rule="evenodd" clip-rule="evenodd" d="M558.95 463.168C550.114 463.075 542.876 470.163 542.783 478.999L542.619 494.535L542.619 494.535L542 553.306L576.736 553.672L577.084 520.636C577.085 520.581 577.086 520.526 577.087 520.471L577.519 479.365C577.612 470.529 570.525 463.29 561.689 463.197L558.95 463.168Z" fill="#252D33"/>
<!-- center arch -->
<path id="centerarch" fill-rule="evenodd" clip-rule="evenodd" d="M606.462 464.164C597.88 464.073 590.849 470.957 590.759 479.539L590.601 494.566L590.599 494.566L590 551.53L621.078 551.857L621.415 519.856C621.416 519.786 621.418 519.716 621.418 519.645L621.837 479.866C621.927 471.284 615.044 464.254 606.462 464.164Z" fill="#252D33"/>
<!-- right arch -->
<path id="rightarch" fill-rule="evenodd" clip-rule="evenodd" d="M645.442 466.847C637.402 466.762 630.815 473.211 630.731 481.252L630.576 495.97L630.574 495.97L630 550.53L659.116 550.836L659.435 520.526C659.437 520.454 659.439 520.381 659.439 520.309L659.847 481.558C659.932 473.518 653.482 466.931 645.442 466.847Z" fill="#252D33"/>
<path fill-rule="evenodd" clip-rule="evenodd" d="M541.535 376.832C541.628 367.996 548.866 360.908 557.702 361.001L562.001 361.046C570.837 361.139 577.925 368.378 577.832 377.214L577.601 399.201C577.6 399.271 577.599 399.34 577.597 399.41L577.297 427.903L577.225 427.902L577.178 432.203L542.382 427.535L541 427.521L541.457 384.12L541.458 384.12L541.535 376.832Z" fill="#252D33"/>

<path fill-rule="evenodd" clip-rule="evenodd" d="M629.515 388.896C629.591 381.621 635.551 375.785 642.827 375.861C650.102 375.938 655.938 381.898 655.862 389.173L655.611 412.989C655.61 413.053 655.609 413.117 655.608 413.181L655.347 437.965L655.266 437.965L655.239 440.451L630.319 437.702L629 437.688L629.424 397.361H629.426L629.515 388.896Z" fill="#252D33"/>
<path fill-rule="evenodd" clip-rule="evenodd" d="M588.783 359.832C588.876 350.996 596.114 343.908 604.95 344.001L606.242 344.014C615.079 344.108 622.166 351.346 622.073 360.182L621.641 401.289C621.64 401.344 621.639 401.399 621.638 401.454L621.29 434.489L621.283 434.489L621.257 436.84L601.094 434.276L588 434.139L588.619 375.368L588.619 375.368L588.783 359.832Z" fill="#252D33"/>
<path fill-rule="evenodd" clip-rule="evenodd" d="M122.065 487.527C113.234 487.236 105.838 494.16 105.547 502.991L105.35 508.988L104.922 521.981L104 549.966L135.983 551.019L136.904 523.035L137.332 510.042L137.53 504.045C137.821 495.213 130.897 487.818 122.065 487.527Z" fill="#252D33"/>
<path fill-rule="evenodd" clip-rule="evenodd" d="M158.065 488.527C149.234 488.236 141.838 495.16 141.547 503.991L141.35 509.988L140.922 522.981L140 550.966L171.983 552.019L172.904 524.035L173.332 511.042L173.53 505.045C173.821 496.213 166.897 488.818 158.065 488.527Z" fill="#252D33"/>
<path fill-rule="evenodd" clip-rule="evenodd" d="M202.114 489.399C195.244 489.259 189.561 494.715 189.421 501.585L189.226 511.141L188.889 527.696L188.391 552.133L213.27 552.639L213.768 528.202L214.105 511.648L214.3 502.092C214.44 495.222 208.984 489.539 202.114 489.399Z" fill="#252D33"/>
<path fill-rule="evenodd" clip-rule="evenodd" d="M230.723 490.253C223.853 490.113 218.17 495.569 218.03 502.439L217.835 511.995L217.498 528.55L217 552.987L241.879 553.494L242.377 529.057L242.714 512.502L242.909 502.946C243.049 496.076 237.593 490.393 230.723 490.253Z" fill="#252D33"/>
<path fill-rule="evenodd" clip-rule="evenodd" d="M259.723 492.253C252.853 492.113 247.17 497.569 247.03 504.439L246.835 513.995L246.498 530.55L246 554.987L270.879 555.494L271.377 531.057L271.714 514.502L271.909 504.946C272.049 498.076 266.593 492.393 259.723 492.253Z" fill="#252D33"/>
<path fill-rule="evenodd" clip-rule="evenodd" d="M293.723 491.253C286.853 491.113 281.17 496.569 281.03 503.439L280.835 512.995L280.498 529.55L280 553.987L304.879 554.494L305.377 530.057L305.714 513.502L305.909 503.946C306.049 497.076 300.593 491.393 293.723 491.253Z" fill="#252D33"/>
<path fill-rule="evenodd" clip-rule="evenodd" d="M322.193 495.202C316.72 495.09 312.193 499.437 312.081 504.909L311.896 514.001L311.175 549.413L330.993 549.817L331.406 529.552C331.406 529.549 331.406 529.546 331.406 529.543L331.9 505.313C332.012 499.84 327.665 495.313 322.193 495.202Z" fill="#252D33"/>
<path fill-rule="evenodd" clip-rule="evenodd" d="M346.018 496.202C340.545 496.09 336.018 500.437 335.907 505.909L335.721 515.001L335 550.413L354.818 550.817L355.231 530.552C355.231 530.549 355.232 530.546 355.232 530.543L355.725 506.313C355.837 500.84 351.491 496.313 346.018 496.202Z" fill="#252D33"/>
<path fill-rule="evenodd" clip-rule="evenodd" d="M377 496.181C372.089 496.081 368.028 499.981 367.927 504.891L367.721 515.001L367 550.413L384.783 550.775L385.175 531.528C385.175 531.525 385.175 531.522 385.175 531.52L385.71 505.254C385.81 500.343 381.911 496.281 377 496.181Z" fill="#252D33"/>
<path fill-rule="evenodd" clip-rule="evenodd" d="M398.095 497.163C393.684 497.073 390.036 500.576 389.946 504.987L389.721 516.001L389 551.413L404.973 551.738L405.347 533.394C405.347 533.392 405.347 533.39 405.347 533.387L405.919 505.312C406.009 500.901 402.506 497.253 398.095 497.163Z" fill="#252D33"/>
<path fill-rule="evenodd" clip-rule="evenodd" d="M418.095 497.163C413.684 497.073 410.036 500.576 409.946 504.987L409.721 516.001L409 551.413L424.973 551.738L425.347 533.394C425.347 533.392 425.347 533.39 425.347 533.387L425.919 505.312C426.009 500.901 422.506 497.253 418.095 497.163Z" fill="#252D33"/>
<path fill-rule="evenodd" clip-rule="evenodd" d="M482.095 500.163C477.684 500.073 474.036 503.576 473.946 507.987L473.721 519.001L473 554.413L488.973 554.738L489.347 536.394C489.347 536.392 489.347 536.39 489.347 536.387L489.919 508.312C490.009 503.901 486.506 500.253 482.095 500.163Z" fill="#252D33"/>
<path fill-rule="evenodd" clip-rule="evenodd" d="M501.095 499.163C496.684 499.073 493.036 502.576 492.946 506.987L492.721 518.001L492 553.413L507.973 553.738L508.347 535.394C508.347 535.392 508.347 535.39 508.347 535.387L508.919 507.312C509.009 502.901 505.506 499.253 501.095 499.163Z" fill="#252D33"/>
<path fill-rule="evenodd" clip-rule="evenodd" d="M469.924 156.103C467.121 156.046 464.802 158.273 464.744 161.076L464.265 184.616C464.265 184.623 464.265 184.631 464.264 184.638L464 197.62L474.152 197.827L474.704 170.741L474.704 170.741L474.897 161.283C474.954 158.479 472.727 156.161 469.924 156.103Z" fill="#252D33"/>
<path fill-rule="evenodd" clip-rule="evenodd" d="M679.865 245.084C677.581 245.038 675.692 246.851 675.645 249.135L675.475 257.497L675.475 257.497L675 280.788L683.271 280.957L683.494 270.025C683.494 270.018 683.494 270.011 683.494 270.005L683.916 249.304C683.962 247.02 682.149 245.131 679.865 245.084Z" fill="#252D33"/>
<path fill-rule="evenodd" clip-rule="evenodd" d="M652.336 249.075C650.312 249.033 648.638 250.641 648.596 252.664L648.203 271.999C648.202 272.004 648.202 272.009 648.202 272.014L648 281.938L655.329 282.087L655.766 260.651L655.766 260.651L655.925 252.814C655.967 250.79 654.359 249.116 652.336 249.075Z" fill="#252D33"/>
<path fill-rule="evenodd" clip-rule="evenodd" d="M629.64 260.06C628 260.027 626.644 261.329 626.611 262.969L626.459 270.434L626.459 270.434L626.062 289.879L632 290L632.176 281.347C632.176 281.344 632.176 281.342 632.176 281.34L632.548 263.09C632.582 261.45 631.28 260.094 629.64 260.06Z" fill="#252D33"/>
<path fill-rule="evenodd" clip-rule="evenodd" d="M683.663 403.027C682.924 403.012 682.313 403.599 682.298 404.338L682.212 408.564L682.211 408.564L682 418.934L684.675 418.988L684.764 414.645C684.764 414.636 684.765 414.625 684.765 414.615L684.973 404.392C684.988 403.653 684.401 403.042 683.663 403.027Z" fill="#252D33"/>
<path fill-rule="evenodd" clip-rule="evenodd" d="M683.663 438.027C682.924 438.012 682.313 438.599 682.298 439.338L682.212 443.564L682.211 443.564L682 453.934L684.675 453.988L684.764 449.645C684.764 449.636 684.765 449.625 684.765 449.615L684.973 439.392C684.988 438.653 684.401 438.042 683.663 438.027Z" fill="#252D33"/>
<path fill-rule="evenodd" clip-rule="evenodd" d="M690.491 507.123C688.213 507.077 686.328 508.886 686.282 511.165L686.126 518.833L686.124 518.833L685.677 540.813L693.927 540.981L694.141 530.525C694.142 530.491 694.143 530.457 694.144 530.422L694.533 511.333C694.579 509.054 692.77 507.17 690.491 507.123Z" fill="#252D33"/>
<path fill-rule="evenodd" clip-rule="evenodd" d="M700.815 507.084C698.537 507.038 696.652 508.847 696.605 511.125L696.449 518.794L696.448 518.794L696 540.773L704.251 540.942L704.464 530.486C704.466 530.452 704.467 530.418 704.467 530.383L704.856 511.294C704.903 509.015 703.093 507.131 700.815 507.084Z" fill="#252D33"/>
<path fill-rule="evenodd" clip-rule="evenodd" d="M724.815 510.084C722.537 510.038 720.652 511.847 720.605 514.125L720.449 521.794L720.448 521.794L720 543.773L728.251 543.942L728.464 533.486C728.466 533.452 728.467 533.418 728.467 533.383L728.856 514.294C728.903 512.015 727.093 510.131 724.815 510.084Z" fill="#252D33"/>
<path fill-rule="evenodd" clip-rule="evenodd" d="M737.815 440.084C735.537 440.038 733.652 441.847 733.605 444.125L733.472 450.66L733.471 450.66L733.066 470.525L741.317 470.693L741.518 460.858C741.519 460.824 741.52 460.789 741.521 460.754L741.856 444.294C741.903 442.015 740.093 440.131 737.815 440.084Z" fill="#252D33"/>
<path fill-rule="evenodd" clip-rule="evenodd" d="M761.739 444.064C760.018 444.028 758.595 445.395 758.56 447.116L758.42 453.962L758.419 453.962L758.041 472.527L764.273 472.654L764.445 464.197C764.447 464.166 764.448 464.135 764.448 464.105L764.792 447.243C764.827 445.522 763.46 444.099 761.739 444.064Z" fill="#252D33"/>
<path fill-rule="evenodd" clip-rule="evenodd" d="M84.0654 486.527C75.2336 486.236 67.8382 493.16 67.5473 501.991L67.3498 507.988L66.9218 520.981L66 548.966L97.9826 550.019L98.9044 522.035L99.3324 509.042L99.5299 503.045C99.8209 494.213 92.8971 486.818 84.0654 486.527Z" fill="#252D33"/>
<rect x="100.509" y="560.978" width="352" height="17" rx="3.5" transform="rotate(-1.05301 100.509 560.978)" fill="#7EAA77" stroke="black"/>
<rect x="721.459" y="543.946" width="169.256" height="16.0097" rx="3.5" transform="rotate(-1.72707 721.459 543.946)" fill="#7EAA77" stroke="black"/>
<path d="M963.064 496.564C998.482 513.666 1070.94 556.656 1077.45 591.802C1083.96 626.948 1138.34 634.137 1164.71 633.338L1097.27 508.589C1062.85 486.037 1001.29 448.988 1030.42 481.209C1052.31 505.411 1066.91 525.517 1074.73 537.607C1082.51 542.603 1082.92 545.565 1080.27 546.843C1079.16 544.739 1077.31 541.613 1074.73 537.607C1062.27 529.613 1030.94 516.409 963.064 496.564Z" fill="#4E3930"/>
<path d="M1074.73 537.607C1066.91 525.517 1052.31 505.411 1030.42 481.209C1001.29 448.988 1062.85 486.037 1097.27 508.589L1164.71 633.338C1138.34 634.137 1083.96 626.948 1077.45 591.802C1070.94 556.656 998.482 513.666 963.064 496.564C1030.94 516.409 1062.27 529.613 1074.73 537.607ZM1074.73 537.607C1082.51 542.603 1082.92 545.565 1080.27 546.843C1079.16 544.739 1077.31 541.613 1074.73 537.607Z" stroke="black"/>

<!-- tree -->
<path d="M1084.17 359.578C1075.34 348.578 1051.57 328.078 1027.17 334.078C1002.77 340.078 987.673 361.912 983.173 372.078C977.507 367.745 963.473 360.378 952.673 365.578C941.873 370.778 943.173 385.078 945.173 391.578C924.007 394.578 882.173 403.678 884.173 416.078C886.173 428.478 896.34 430.912 901.173 430.578C892.173 434.912 876.173 445.578 884.173 453.578C892.173 461.578 908.507 460.912 915.673 459.578C907.507 467.412 894.373 483.578 907.173 485.578C919.973 487.578 933.84 484.745 939.173 483.078C937.673 493.078 938.274 512.878 952.673 512.078C967.073 511.278 979.007 505.412 983.173 502.578C993.68 509.276 1014.14 518.086 1027.63 511.537C1034.81 508.551 1050.37 506.478 1055.17 522.078C1059.97 537.678 1076.51 528.578 1084.17 522.078L1100.17 465.578L1094.17 459.578L1084.17 359.578Z" fill="#7EAA77" stroke="black"/>

<path d="M231 427.5C244.167 440.333 270.1 471 268.5 491C266.5 516 274 578 259 592C249.36 600.997 239.936 605.864 234.355 607.949L272.5 596L319 609L294.5 584C294.5 556.333 296.1 499 302.5 491C308.9 483 316.167 478.333 319 477C324.167 478.833 338.6 480.1 355 470.5C371.4 460.9 361.833 446.5 355 440.5L302.5 470.5C300 458.333 299.8 432.7 319 427.5C338.2 422.3 335 406.333 331 399L294.5 419C288.848 430.947 280.146 451.865 280.483 460.094C281.42 461.229 282.424 462.365 283.5 463.5C281.483 463.867 280.583 462.542 280.483 460.094C264.351 440.56 268.247 421.45 272.5 414H236L231 427.5Z" fill="#4E3930"/>
<path d="M234.355 607.949C239.936 605.864 249.36 600.997 259 592C274 578 266.5 516 268.5 491C270.1 471 244.167 440.333 231 427.5L236 414H272.5C268.247 421.45 264.351 440.56 280.483 460.094M234.355 607.949L272.5 596L319 609L294.5 584C294.5 556.333 296.1 499 302.5 491C308.9 483 316.167 478.333 319 477C324.167 478.833 338.6 480.1 355 470.5C371.4 460.9 361.833 446.5 355 440.5L302.5 470.5C300 458.333 299.8 432.7 319 427.5C338.2 422.3 335 406.333 331 399L294.5 419C288.848 430.947 280.146 451.865 280.483 460.094M234.355 607.949L231 609C231.852 608.803 232.989 608.46 234.355 607.949ZM280.483 460.094C281.42 461.229 282.424 462.365 283.5 463.5C281.483 463.867 280.583 462.542 280.483 460.094Z" stroke="black"/>
<path d="M307.5 202C289.5 187.6 260.333 208 248 220C243.667 217.667 232.6 214.4 223 220C214.4 225.016 217.998 231.745 221.716 235.369C222.201 235.772 222.629 236.15 223 236.5C222.583 236.17 222.149 235.79 221.716 235.369C214.598 229.448 195.337 218.243 165 213C132.6 207.4 129.5 241.667 132 259.5C122.833 251.833 95.6 238.3 60 245.5C24.4 252.7 41.1667 295.5 54 316C48 309 33.4 310.3 23 371.5C12.6125 432.627 95.8003 417.37 138.845 402.055C138.897 402.035 138.949 402.017 139 402C138.949 402.018 138.897 402.037 138.845 402.055C134.859 403.566 129.523 412.623 139 437.5C151 469 193.5 414 185.5 424C179.1 432 188.167 449.667 193.5 457.5C214.3 473.5 233.167 441.833 240 424C242.667 428.5 251.5 437.5 265.5 437.5C275.174 437.5 280.631 423.971 283.354 410.935C282.977 403.137 284.387 397.449 285.5 395C285.243 399.377 284.571 405.107 283.354 410.935C283.541 414.815 284.171 419.216 285.5 424C288.283 434.02 301.397 429.772 313.216 423.117C317.927 416.102 323.768 414 327 414C323.3 416.839 318.381 420.208 313.216 423.117C310.882 426.592 308.825 431.272 307.5 437.5C303.5 456.3 331.5 469.333 346 473.5C353.167 477.333 373.5 482.7 397.5 473.5C421.5 464.3 407.5 430 397.5 414C409 410.667 430.2 399.6 423 382C415.8 364.4 403 362.333 397.5 363.5C413.333 351.667 442.4 322.6 432 301C421.6 279.4 392.667 284 379.5 289C382.167 280.833 385.9 260.7 379.5 245.5C373.1 230.3 341.833 239.167 327 245.5C328 237 325.5 216.4 307.5 202Z" fill="#7EAA77"/>
<path d="M221.716 235.369C217.998 231.745 214.4 225.016 223 220C232.6 214.4 243.667 217.667 248 220C260.333 208 289.5 187.6 307.5 202C325.5 216.4 328 237 327 245.5C341.833 239.167 373.1 230.3 379.5 245.5C385.9 260.7 382.167 280.833 379.5 289C392.667 284 421.6 279.4 432 301C442.4 322.6 413.333 351.667 397.5 363.5C403 362.333 415.8 364.4 423 382C430.2 399.6 409 410.667 397.5 414C407.5 430 421.5 464.3 397.5 473.5C373.5 482.7 353.167 477.333 346 473.5C331.5 469.333 303.5 456.3 307.5 437.5C308.825 431.272 310.882 426.592 313.216 423.117M221.716 235.369C222.201 235.772 222.629 236.15 223 236.5C222.583 236.17 222.149 235.79 221.716 235.369ZM221.716 235.369C214.598 229.448 195.337 218.243 165 213C132.6 207.4 129.5 241.667 132 259.5C122.833 251.833 95.6 238.3 60 245.5C24.4 252.7 41.1667 295.5 54 316C48 309 33.4 310.3 23 371.5C12.6125 432.627 95.8003 417.37 138.845 402.055M138.845 402.055C138.897 402.035 138.949 402.017 139 402C138.949 402.018 138.897 402.037 138.845 402.055ZM138.845 402.055C134.859 403.566 129.523 412.623 139 437.5C151 469 193.5 414 185.5 424C179.1 432 188.167 449.667 193.5 457.5C214.3 473.5 233.167 441.833 240 424C242.667 428.5 251.5 437.5 265.5 437.5C275.174 437.5 280.631 423.971 283.354 410.935M283.354 410.935C282.977 403.137 284.387 397.449 285.5 395C285.243 399.377 284.571 405.107 283.354 410.935ZM283.354 410.935C283.541 414.815 284.171 419.216 285.5 424C288.283 434.02 301.397 429.772 313.216 423.117M313.216 423.117C317.927 416.102 323.768 414 327 414C323.3 416.839 318.381 420.208 313.216 423.117Z" stroke="black"/>
<path d="M614.628 381.434C584.849 335.073 511.723 242.353 457.459 242.353C386.043 234.996 295.325 344.999 294.498 359.713C293.671 374.427 288.708 381.434 303.046 381.434C317.384 381.434 314.351 354.458 332.55 359.713C350.748 364.968 337.789 391.593 344.958 403.504C352.127 415.415 351.3 400.351 374.462 393.345C397.624 386.338 386.318 437.136 403.414 440.99C420.51 444.843 411.135 383.185 434.297 393.345C457.459 403.504 441.19 488.634 465.455 464.812C489.72 440.99 468.488 397.899 491.374 403.504C514.26 409.11 506.54 440.99 520.878 440.99C531.08 381.434 536.319 373.026 549.83 393.345C560.639 409.6 571.981 392.177 576.301 381.434C600.29 393.345 595.603 433.983 608.011 413.664C617.937 397.409 616.558 385.404 614.628 381.434Z" fill="#6689C3" fill-opacity="0.5"/>
<path d="M1043.5 752C1043.5 770.21 1028.41 787.707 1000.72 803.726C973.078 819.724 933.04 834.147 883.522 846.267C784.493 870.504 647.66 885.5 496.5 885.5C345.34 885.5 208.507 870.504 109.478 846.267C59.9596 834.147 19.9218 819.724 -7.72432 803.726C-35.407 787.707 -50.5 770.21 -50.5 752C-50.5 733.79 -35.407 716.293 -7.72432 700.274C19.9218 684.276 59.9596 669.853 109.478 657.733C208.507 633.496 345.34 618.5 496.5 618.5C647.66 618.5 784.493 633.496 883.522 657.733C933.04 669.853 973.078 684.276 1000.72 700.274C1028.41 716.293 1043.5 733.79 1043.5 752Z" fill="#F2D8B3" stroke="black"/>
<!-- fountain -->
<path id="fountain" d="M904.5 732C904.5 745.379 893.449 758.272 873.079 770.103C852.745 781.913 823.288 792.565 786.845 801.518C713.965 819.421 613.257 830.5 502 830.5C390.743 830.5 290.035 819.421 217.155 801.518C180.712 792.565 151.255 781.913 130.921 770.103C110.551 758.272 99.5 745.379 99.5 732C99.5 718.621 110.551 705.728 130.921 693.897C151.255 682.087 180.712 671.435 217.155 662.482C290.035 644.579 390.743 633.5 502 633.5C613.257 633.5 713.965 644.579 786.845 662.482C823.288 671.435 852.745 682.087 873.079 693.897C893.449 705.728 904.5 718.621 904.5 732Z" fill="#6689C3" fill-opacity="0.9" stroke="black"/>
<path id="fountain" d="M-2.5 656C6 648.833 65.8 632.9 237 626.5L407 699.5H-2.5V656Z" fill="#6689C3" stroke="black"/>

<path d="M453 287.5C441.247 606.947 427.81 716.749 418.761 740.5H479C469.5 715.5 453.5 589.9 465.5 287.5V282.5C465.5 279.7 470.167 284.667 472.5 287.5C474.833 292.333 480.5 300.5 484.5 294.5C489.5 287 483 286 479.5 280C476 274 485.5 280 487.5 272C489.5 264 475.5 270.5 469.5 272C463.5 273.5 470 266 472.5 260C475 254 461.5 248 461 260C460.6 269.6 455.5 268 453 266C453 265 451.6 262.4 446 260C440.4 257.6 440.333 267 441 272C442.167 275.167 443.1 281.2 437.5 280C431.9 278.8 432.5 286.167 433.5 290C434.167 293 437.1 296.7 443.5 287.5C449.9 278.3 452.5 283.667 453 287.5Z" fill="#6689C3" fill-opacity="0.8"/>
<path d="M42.5 581.5V615.5L50 641.5L214 626.5V602.5L50 615.5L42.5 581.5Z" fill="#FF7D51" stroke="black"/>
<path d="M37 578.675L50.1821 615L218 604.699L149.048 570L37 578.675Z" fill="#F2D8B3" stroke="black"/>

<!-- book -->
<path id="book" d="M136.5 588.5V580.5L125.5 588.5L127 596L136.5 588.5Z" fill="#F9F5E7"/>
<path id="book" d="M82.5 594.5L94 582.5L138 579L126.5 589.5L82.5 594.5Z" fill="#AF5026"/>
<path id="book" d="M128 596L138 587M82.5 594.5L94 582.5L138 579L126.5 589.5L82.5 594.5Z" stroke="black"/>
<rect id="book" x="81.2341" y="594.12" width="48.1007" height="6.18158" rx="2.5" transform="rotate(-5.43391 81.2341 594.12)" fill="#AF5026" stroke="black"/>

<!-- cloud 1 -->
<path id="cloud" d="M533.5 117H746.5C752.833 105.5 759.9 80.5 737.5 72.5C723.001 67.3217 714.144 71.361 709.248 77.0242C707.959 80.6412 706.201 83.9483 704.5 86.5C705.088 83.6783 706.58 80.1101 709.248 77.0242C713.01 66.4663 712.78 53.2669 695.5 48.5C672.3 42.1 664.5 51.8333 663.5 57.5C665.333 45.1667 660.2 21.5 625 25.5C589.8 29.5 587 48.5 590 57.5C581.333 53.1667 562.4 48.1 556 62.5C549.6 76.9 553.333 84.5 556 86.5C550.167 84.1667 537.1 81.9 531.5 91.5C525.9 101.1 530.5 112.5 533.5 117Z" fill="#F9F5E7"/>

<!-- cloud 2 -->
<path id="cloud" d="M978.452 244H861.454C857.975 236.621 854.093 220.58 866.397 215.446C874.361 212.124 879.226 214.715 881.916 218.349C882.624 220.67 883.589 222.792 884.524 224.43C884.201 222.619 883.381 220.329 881.916 218.349C879.849 211.575 879.976 203.105 889.467 200.047C902.211 195.94 906.495 202.185 907.045 205.822C906.038 197.908 908.857 182.722 928.192 185.289C947.527 187.855 949.065 200.047 947.417 205.822C952.178 203.041 962.578 199.79 966.093 209.03C969.609 218.27 967.558 223.146 966.093 224.43C969.297 222.932 976.475 221.478 979.551 227.638C982.627 233.798 980.1 241.113 978.452 244Z" fill="#F9F5E7"/>

<rect x="1080" y="-45" width="92" height="762" fill="#FBD266"/>
<rect x="-21" y="-10" width="92" height="762" fill="#FBD266"/>
</svg>
