<svg width="200" height="289" viewBox="0 0 200 289" fill="none" xmlns="http://www.w3.org/2000/svg">
<path d="M83.064 167.564C118.482 184.666 190.944 227.656 197.454 262.802C203.963 297.948 258.338 305.137 284.712 304.338L217.272 179.589C182.85 157.037 121.29 119.988 150.425 152.209C172.309 176.411 186.914 196.517 194.725 208.607C202.506 213.603 202.917 216.565 200.269 217.843C199.155 215.739 197.313 212.613 194.725 208.607C182.272 200.613 150.942 187.409 83.064 167.564Z" fill="#4E3930"/>
<path d="M194.725 208.607C186.914 196.517 172.309 176.411 150.425 152.209C121.29 119.988 182.85 157.037 217.272 179.589L284.712 304.338C258.338 305.137 203.963 297.948 197.454 262.802C190.944 227.656 118.482 184.666 83.064 167.564C150.942 187.409 182.272 200.613 194.725 208.607ZM194.725 208.607C202.506 213.603 202.917 216.565 200.269 217.843C199.155 215.739 197.313 212.613 194.725 208.607Z" stroke="black"/>
<path d="M204.173 30.5783C195.34 19.5783 171.573 -0.921742 147.173 5.07826C122.773 11.0783 107.673 32.9116 103.173 43.0782C97.5068 38.7449 83.4735 31.3782 72.6735 36.5782C61.8735 41.7782 63.1735 56.0782 65.1735 62.5782C44.0068 65.5782 2.17343 74.6782 4.17343 87.0782C6.17343 99.4782 16.3401 101.912 21.1734 101.578C12.1734 105.912 -3.82656 116.578 4.17343 124.578C12.1734 132.578 28.5068 131.912 35.6735 130.578C27.5068 138.412 14.3735 154.578 27.1735 156.578C39.9735 158.578 53.8401 155.745 59.1735 154.078C57.6735 164.078 58.2735 183.878 72.6735 183.078C87.0735 182.278 99.0068 176.412 103.173 173.578C113.68 180.276 134.144 189.086 147.632 182.537C154.813 179.551 170.373 177.478 175.173 193.078C179.973 208.678 196.507 199.578 204.173 193.078L220.173 136.578L214.173 130.578L204.173 30.5783Z" fill="#7EAA77" stroke="black"/>
</svg>
