<svg width="87" height="135" viewBox="0 0 87 135" fill="none" xmlns="http://www.w3.org/2000/svg">
<path d="M9.06592 120.709V65.216C16.3686 69.2918 34.1039 76.2206 46.6228 71.3297C59.1418 66.4387 69.5743 69.2918 73.2256 71.3297C81.5716 73.9632 84.3536 68.3512 84.7013 65.216L85.223 119.769C75.3121 130.115 46.2055 144.788 9.06592 120.709Z" fill="#C4C4C4"/>
<path d="M8.62082 119.753C8.62082 126.337 59.1336 149.127 85.8212 119.753L84.7779 34.6319C72.597 38.8971 36.7301 50.3706 8.0992 34.6319C8.0992 41.0275 8.62082 113.169 8.62082 119.753Z" fill="#6689C3" fill-opacity="0.89"/>
<path d="M8.0992 34.6319C36.7301 50.3706 72.597 38.8971 84.7779 34.6319C83.7752 30.888 82.2415 29.306 77.4752 27.5776C49.5161 38.3711 23.4002 32.0749 13.8371 27.5776C8.41211 29.2643 7.75143 32.9832 8.0992 34.6319Z" fill="#6689C3" fill-opacity="0.89"/>
<path d="M73.5523 23.4663C49.1317 32.6273 26.6966 27.2834 18.5317 23.4663L13.8371 27.5776C23.4002 32.0749 49.5161 38.3711 77.4752 27.5776L73.5523 23.4663Z" fill="#6689C3" fill-opacity="0.89"/>
<path d="M26.8777 23.4663C24.6556 22.7708 22.5529 21.8757 20.6182 20.7517C19.8986 20.3336 19.2023 19.8839 18.5317 19.4009V23.4663C26.6966 27.2834 49.1317 32.6273 73.5523 23.4663V19.2166C72.5123 19.6452 71.3812 20.0745 70.1725 20.4962C68.5607 21.0585 66.8112 21.6071 64.9563 22.1226C63.2202 22.605 61.3919 23.0583 59.4978 23.4663C56.5728 24.0965 53.4912 24.6188 50.3508 24.9739C47.9364 25.2468 45.4873 25.421 43.0481 25.4693C40.2301 25.5251 37.4252 25.4131 34.7021 25.0915C31.9903 24.7712 29.3595 24.2432 26.8777 23.4663Z" fill="#6689C3" fill-opacity="0.89"/>
<path d="M84.7779 34.6319L85.8212 119.753C59.1336 149.127 8.62082 126.337 8.62082 119.753C8.62082 113.169 8.0992 41.0275 8.0992 34.6319M84.7779 34.6319C72.597 38.8971 36.7301 50.3706 8.0992 34.6319M84.7779 34.6319C83.7752 30.888 82.2415 29.306 77.4752 27.5776M8.0992 34.6319C7.75143 32.9832 8.41211 29.2643 13.8371 27.5776M18.5317 23.4663V19.4009C19.2023 19.8839 19.8986 20.3336 20.6182 20.7517C22.5529 21.8757 24.6556 22.7708 26.8777 23.4663C29.3595 24.2432 31.9903 24.7712 34.7021 25.0915C37.4252 25.4131 40.2301 25.5251 43.0481 25.4693C45.4873 25.421 47.9364 25.2468 50.3508 24.9739C53.4912 24.6188 56.5728 24.0965 59.4978 23.4663C61.3919 23.0583 63.2202 22.605 64.9563 22.1226C66.8112 21.6071 68.5607 21.0585 70.1725 20.4962C71.3812 20.0745 72.5123 19.6452 73.5523 19.2166V23.4663M18.5317 23.4663C26.6966 27.2834 49.1317 32.6273 73.5523 23.4663M18.5317 23.4663L13.8371 27.5776M73.5523 23.4663L77.4752 27.5776M13.8371 27.5776C23.4002 32.0749 49.5161 38.3711 77.4752 27.5776" stroke="black"/>
<path d="M73.9975 6.24447C50.5351 -4.08103 26.665 2.55595 17.4121 7.341C18.6578 7.96618 19.8738 8.55566 21.0635 9.10975C23.2312 10.1194 25.3112 11.0115 27.323 11.7879C30.0397 12.8365 32.6319 13.674 35.1473 14.3051C38.0051 15.0221 40.7637 15.4726 43.4933 15.6632C45.9341 15.8336 48.3516 15.7962 50.796 15.5558C53.6868 15.2714 56.615 14.7031 59.6636 13.8586C61.5251 13.3429 63.4314 12.7243 65.4015 12.0044C67.0895 11.3877 68.8243 10.6966 70.6177 9.93242C72.4639 9.14573 74.3722 8.28152 76.3556 7.341C75.5704 6.95595 74.7842 6.59067 73.9975 6.24447Z" fill="#8AC3B0"/>
<path d="M43.4933 15.6632V25.2421C45.9325 25.1938 48.3816 25.0196 50.796 24.7466V15.5558C48.3516 15.7962 45.9341 15.8336 43.4933 15.6632Z" fill="#8AC3B0"/>
<path d="M50.796 15.5558V24.7466C53.9364 24.3916 57.0181 23.8693 59.9431 23.2391L59.6636 13.8586C56.615 14.7031 53.6868 15.2714 50.796 15.5558Z" fill="#8AC3B0"/>
<path d="M59.6636 13.8586L59.9431 23.2391C61.8371 22.8311 63.6654 22.3778 65.4015 21.8954V12.0044C63.4314 12.7243 61.5251 13.3429 59.6636 13.8586Z" fill="#8AC3B0"/>
<path d="M65.4015 12.0044V21.8954C67.2564 21.3799 69.006 20.8313 70.6177 20.269V9.93242C68.8243 10.6966 67.0895 11.3877 65.4015 12.0044Z" fill="#8AC3B0"/>
<path d="M76.3556 17.9449V7.341C74.3722 8.28152 72.4639 9.14573 70.6177 9.93242V20.269C71.8264 19.8473 72.9575 19.418 73.9975 18.9894C74.8468 18.6393 75.6354 18.2896 76.3556 17.9449Z" fill="#8AC3B0"/>
<path d="M43.4933 25.2421V15.6632C40.7637 15.4726 38.0051 15.0221 35.1473 14.3051V24.8643C37.8704 25.1858 40.6753 25.2979 43.4933 25.2421Z" fill="#8AC3B0"/>
<path d="M27.323 11.7879V23.2391C29.8048 24.016 32.4355 24.544 35.1473 24.8643V14.3051C32.6319 13.674 30.0397 12.8365 27.323 11.7879Z" fill="#8AC3B0"/>
<path d="M21.0635 9.10975V20.5245C22.9981 21.6485 25.1009 22.5436 27.323 23.2391V11.7879C25.3112 11.0115 23.2312 10.1194 21.0635 9.10975Z" fill="#8AC3B0"/>
<path d="M17.4121 7.341V17.9449C17.9162 18.3765 18.4383 18.7858 18.9769 19.1737C19.6475 19.6567 20.3439 20.1064 21.0635 20.5245V9.10975C19.8738 8.55566 18.6578 7.96618 17.4121 7.341Z" fill="#8AC3B0"/>
<path d="M17.4121 7.341V17.9449C17.9162 18.3765 18.4383 18.7858 18.9769 19.1737C19.6475 19.6567 20.3439 20.1064 21.0635 20.5245M17.4121 7.341C26.665 2.55595 50.5351 -4.08103 73.9975 6.24447C74.7842 6.59067 75.5704 6.95595 76.3556 7.341M17.4121 7.341C18.6578 7.96618 19.8738 8.55566 21.0635 9.10975M76.3556 7.341V17.9449C75.6354 18.2896 74.8468 18.6393 73.9975 18.9894C72.9575 19.418 71.8264 19.8473 70.6177 20.269M76.3556 7.341C74.3722 8.28152 72.4639 9.14573 70.6177 9.93242M21.0635 9.10975V20.5245M21.0635 9.10975C23.2312 10.1194 25.3112 11.0115 27.323 11.7879M21.0635 20.5245C22.9981 21.6485 25.1009 22.5436 27.323 23.2391M27.323 11.7879V23.2391M27.323 11.7879C30.0397 12.8365 32.6319 13.674 35.1473 14.3051M27.323 23.2391C29.8048 24.016 32.4355 24.544 35.1473 24.8643M43.4933 15.6632V25.2421M43.4933 15.6632C45.9341 15.8336 48.3516 15.7962 50.796 15.5558M43.4933 15.6632C40.7637 15.4726 38.0051 15.0221 35.1473 14.3051M43.4933 25.2421C45.9325 25.1938 48.3816 25.0196 50.796 24.7466M43.4933 25.2421C40.6753 25.2979 37.8704 25.1858 35.1473 24.8643M50.796 24.7466V15.5558M50.796 24.7466C53.9364 24.3916 57.0181 23.8693 59.9431 23.2391M50.796 15.5558C53.6868 15.2714 56.615 14.7031 59.6636 13.8586M59.6636 13.8586L59.9431 23.2391M59.6636 13.8586C61.5251 13.3429 63.4314 12.7243 65.4015 12.0044M59.9431 23.2391C61.8371 22.8311 63.6654 22.3778 65.4015 21.8954M65.4015 21.8954V12.0044M65.4015 21.8954C67.2564 21.3799 69.006 20.8313 70.6177 20.269M65.4015 12.0044C67.0895 11.3877 68.8243 10.6966 70.6177 9.93242M70.6177 9.93242V20.269M35.1473 14.3051V24.8643" stroke="black"/>
<path d="M44.0144 49.6967V68.0377C58.2721 67.4107 86.3702 64.7457 84.7011 59.1024V43.3755C83.3745 44.8896 74.1987 47.4817 44.0144 49.6967Z" fill="#FBD266"/>
<path d="M84.7011 43.3755V59.1024C86.3702 64.7457 58.2721 67.4107 44.0144 68.0377V49.6967C74.1987 47.4817 83.3745 44.8896 84.7011 43.3755ZM84.7011 43.3755C84.9517 43.0894 84.9221 42.8418 84.7011 42.6425V43.3755Z" stroke="black"/>
<path d="M55.4767 61.9647C54.941 62.4133 54.2987 62.6708 53.5496 62.7373C52.8086 62.8031 52.2851 62.6932 51.9791 62.4076C51.6732 62.122 51.5078 61.6274 51.4828 60.9238L51.3844 58.1536C51.1021 58.0824 50.8781 57.9659 50.7125 57.8042L50.7992 56.8702C51.2418 56.7266 51.6543 56.6379 52.0368 56.6039C52.4193 56.5699 52.7424 56.5533 53.0062 56.5539L53.1421 60.3795C53.1575 60.8112 53.2314 61.0934 53.3641 61.226C53.5044 61.3499 53.7697 61.3945 54.1602 61.3598C54.5507 61.3251 54.9087 61.165 55.2343 60.8795L55.1257 57.8214C54.8433 57.7502 54.6194 57.6338 54.4538 57.472L54.5405 56.538C54.983 56.3944 55.3956 56.3057 55.7781 56.2717C56.1605 56.2378 56.4837 56.2211 56.7475 56.2217L56.9137 60.8988C57.1946 60.93 57.4161 60.9785 57.5783 61.0443L57.612 61.9917C57.1429 62.29 56.5459 62.4713 55.8207 62.5357C55.6164 62.4095 55.5017 62.2192 55.4767 61.9647ZM63.4317 56.8794C62.6986 56.9445 62.3545 57.6087 62.3993 58.8719C62.4221 59.5114 62.5376 59.9503 62.7459 60.1885C62.9619 60.4179 63.2611 60.5157 63.6436 60.4817C64.2492 60.4279 64.7811 60.3246 65.2393 60.1716L65.6307 61.0632C65.3817 61.2537 65.0442 61.428 64.6181 61.5862C64.1918 61.7363 63.7754 61.8294 63.369 61.8655C61.6478 62.0183 60.7517 61.0954 60.6807 59.0966C60.6392 57.9294 60.9082 57.0634 61.4877 56.4986C62.0057 56.0035 62.6472 55.722 63.4122 55.6541C64.1771 55.5861 64.8198 55.6734 65.34 55.916C65.3508 55.9952 65.3575 56.0708 65.36 56.1428C65.3762 56.5985 65.288 57.0394 65.0953 57.4656L64.0434 57.5589C63.9247 57.369 63.8485 57.1351 63.8146 56.8574C63.7187 56.8579 63.5911 56.8653 63.4317 56.8794ZM68.5353 52.7691C68.9778 52.6255 69.3903 52.5368 69.7728 52.5028C70.1553 52.4688 70.4785 52.4522 70.7423 52.4528L71.0017 59.7562C71.3168 59.8485 71.5408 59.965 71.6736 60.1056L71.5869 61.0396L68.8377 61.2837L68.6854 60.3709C68.7916 60.2091 69.0059 60.0537 69.3283 59.9048L69.1204 54.0525C68.8381 53.9813 68.6142 53.8648 68.4485 53.7031L68.5353 52.7691ZM74.9424 55.6168C74.9381 55.4969 74.9376 55.3686 74.9407 55.232C75.6676 54.7664 76.4574 54.4958 77.31 54.4201C78.1627 54.3444 78.7781 54.4542 79.1563 54.7494C79.5422 55.036 79.7485 55.555 79.7752 56.3065L79.8659 58.8609C80.1468 58.8921 80.3683 58.9406 80.5306 59.0064L80.5676 60.0498C80.168 60.2777 79.5897 60.4253 78.8327 60.4925C78.7456 60.2917 78.669 60.0459 78.6027 59.755C78.2779 60.2891 77.6653 60.5962 76.7648 60.6761C76.2309 60.7235 75.7672 60.6083 75.3736 60.3305C74.988 60.0519 74.7857 59.6448 74.7667 59.1091C74.7477 58.5735 74.9081 58.1382 75.2479 57.8032C75.5954 57.4596 76.1198 57.2567 76.821 57.1944L78.1239 57.0787L78.1035 56.5031C78.0813 55.8795 77.7395 55.597 77.0781 55.6558C76.8311 55.6777 76.6287 55.7197 76.4711 55.7818C76.4671 56.119 76.4285 56.3831 76.3553 56.5741L75.1839 56.6781C75.0385 56.4103 74.958 56.0565 74.9424 55.6168ZM77.2354 59.4073C77.6418 59.3712 77.9602 59.2226 78.1908 58.9615L78.1559 57.9781L77.3191 58.0524C76.7454 58.1034 76.4663 58.3487 76.482 58.7884C76.4891 58.9883 76.5546 59.1469 76.6787 59.2642C76.8108 59.3808 76.9963 59.4285 77.2354 59.4073Z" fill="#6689C3"/>
<path d="M85.7444 112.244L84.7011 72.7406C80.5281 72.1135 71.2432 74.5276 67.4876 89.2004C63.7319 103.873 78.0939 110.677 85.7444 112.244Z" fill="#F1A000" stroke="black"/>
<path d="M85.2228 108.012L84.5308 77.0425C81.7625 76.551 75.6032 78.4435 73.1118 89.9463C70.6204 101.449 80.1477 106.783 85.2228 108.012Z" fill="#A7858F" stroke="black"/>
<path d="M8.74972 95.3314L9.16946 77.912C13.1519 77.5281 22.0685 78.351 25.8756 84.714C29.6828 91.077 16.0447 94.4435 8.74972 95.3314Z" fill="#AF5026" stroke="black"/>
<path d="M8.37426 91.652L8.69561 81.0696C11.3802 80.8292 17.3871 81.3131 19.9386 85.1715C22.4902 89.0299 13.2922 91.0995 8.37426 91.652Z" fill="#F2D8B3" stroke="black"/>
<path d="M8.22306 89.7708L8.41868 83.753C9.99674 83.6149 13.5272 83.887 15.0244 86.0797C16.5217 88.2725 11.1141 89.4541 8.22306 89.7708Z" fill="#FF7D51" stroke="black"/>
<path d="M11.0593 48.7682C24.0006 53.8621 60.5074 80.1235 42.2832 82.3762C41.5959 82.4612 40.8308 82.512 39.9836 82.5263C39.4726 82.5348 38.9317 82.5301 38.3601 82.5116C20.8857 82.2875 12.8786 59.9226 11.0593 48.7682Z" fill="#7EAA77"/>
<path d="M46.4818 86.7398L42.2832 82.3762C41.5959 82.4612 40.8308 82.512 39.9836 82.5263L43.7546 86.8199L46.4818 86.7398Z" fill="#7EAA77"/>
<path d="M42.2832 82.3762C60.5074 80.1235 24.0006 53.8621 11.0593 48.7682C12.8786 59.9226 20.8857 82.2875 38.3601 82.5116C38.9317 82.5301 39.4726 82.5348 39.9836 82.5263M42.2832 82.3762L46.4818 86.7398L43.7546 86.8199L39.9836 82.5263M42.2832 82.3762C41.5959 82.4612 40.8308 82.512 39.9836 82.5263" stroke="black"/>
<path d="M14.282 108.388V111.68C16.9389 114.345 26.0976 119.299 41.4767 117.794V116.383H46.1655V117.794C48.6662 118.264 54.1364 118.922 56.0119 117.794V112.621L55.0741 111.68L14.282 108.388Z" fill="#4E3930"/>
<path d="M15.6886 108.388H14.282M14.282 108.388V111.68C16.9389 114.345 26.0976 119.299 41.4767 117.794V116.383H46.1655V117.794C48.6662 118.264 54.1364 118.922 56.0119 117.794V112.621L55.0741 111.68L14.282 108.388Z" stroke="black"/>
<path d="M39.6015 94.7497C41.477 96.0038 46.8222 97.7595 53.1989 94.7497C53.1989 98.6688 53.4802 107.071 54.6055 109.328C56.0121 112.15 55.0744 113.091 53.1989 114.031C51.3234 114.972 35.3816 115.912 25.5353 114.031C19.1187 112.805 16.4853 110.781 15.6889 109.259C15.2631 108.445 15.3622 107.775 15.6889 107.447C16.6266 106.507 16.1578 105.096 18.0333 105.096C19.9088 105.096 20.3777 103.685 26.4731 105.096C32.5685 106.507 37.7261 102.274 37.2572 99.9228C36.8821 98.0417 37.1009 94.7497 37.2572 93.3389C37.726 92.0848 38.8512 90.6113 39.6015 94.7497Z" fill="#F2D8B3" stroke="black"/>
<path d="M22.7226 104.626C21.6286 105.88 19.9093 108.858 21.7848 112.621C18.9987 111.674 14.8702 110.392 15.2206 107.918C15.6113 105.16 16.5805 102.449 22.7226 104.626Z" fill="#4E3930" stroke="black"/>
<path d="M53.6679 104.155C51.7264 104.729 44.5074 105.826 45.2281 114.972" stroke="black"/>
<line x1="26.9731" y1="104.655" x2="26.9731" y2="106.477" stroke="black" stroke-linecap="round" stroke-linejoin="round"/>
<line x1="29.7864" y1="104.655" x2="29.7864" y2="106.477" stroke="black" stroke-linecap="round" stroke-linejoin="round"/>
<line x1="32.5996" y1="103.715" x2="32.5996" y2="105.537" stroke="black" stroke-linecap="round" stroke-linejoin="round"/>
<line x1="35.4128" y1="102.774" x2="35.4128" y2="104.596" stroke="black" stroke-linecap="round" stroke-linejoin="round"/>
<line x1="0.5" y1="-0.5" x2="2.46717" y2="-0.5" transform="matrix(0.948126 0.317896 -0.314567 0.949235 36.7886 100.393)" stroke="black" stroke-linecap="round" stroke-linejoin="round"/>
<line x1="0.5" y1="-0.5" x2="1.59813" y2="-0.5" transform="matrix(0.89389 0.448286 -0.446143 0.894962 35.8508 102.274)" stroke="black" stroke-linecap="round" stroke-linejoin="round"/>
<path d="M53.6677 102.745C49.7604 103.372 42.321 106.413 43.8214 115.442M41.9458 99.9229C37.1099 111.151 23.1069 108.626 21.3154 106.507" stroke="black" stroke-width="0.3" stroke-dasharray="1 1"/>
<path d="M41.9459 95.6904C41.7896 96.7877 41.5708 99.1705 41.9459 99.9229C42.4148 100.863 45.697 101.334 53.199 99.9229V95.2201H52.5004C50.5451 95.6904 45.6968 96.4428 41.9459 95.6904Z" fill="#4E3930" stroke="black"/>
</svg>
